<svg width="640" height="960" viewBox="0 0 640 960" fill="none" xmlns="http://www.w3.org/2000/svg">
<g clip-path="url(#clip0_222_669)">
<rect width="640" height="960" fill="white"/>
<path d="M640 -1.07129H0V980.357H640V-1.07129Z" fill="#000072"/>
<path d="M31.941 772.59C36.9888 776.936 49.7164 772.301 52.9344 767.513C56.2425 762.59 54.4398 752.293 54.7823 746.333C55.9721 725.468 68.294 694.007 97.3818 703.863C116.293 710.274 124.144 730.355 127.389 747.045C128.723 753.916 127.01 761.508 134.474 765.584C148.815 773.411 152.177 759.227 158.063 750.49C168.889 734.43 190.603 712.483 213.715 720.923C239.702 730.418 229.651 763.735 221.106 781.318C218.123 787.45 210.695 794.988 216.014 801.615C221.431 808.378 231.256 799.812 236.962 797.008C249.32 790.93 267.248 785.25 278.39 796.458C294.569 812.742 271.972 840.235 258.271 851.506C248.905 859.207 238.602 861.317 237.539 874.355C235.952 893.841 239.044 910.621 233.374 930.449C228.66 946.959 222.458 954.002 203.547 956.364C147.607 963.334 70.0067 959.295 13.706 952.55C-7.03494 950.061 -18.4014 947.239 -21.4211 926.067C-25.4773 897.529 -29.858 871.1 -22.9804 842.498C-21.8717 837.9 -19.2667 832.255 -18.6898 827.927C-17.4099 818.36 -27.4964 803.049 -30.9758 793.221C-36.3661 778.036 -41.6662 752.248 -22.6379 743.114C-5.20508 734.746 13.5888 750.057 23.7023 761.923C26.1902 764.835 29.2729 770.282 31.941 772.581V772.59ZM83.0588 812.706C65.617 814.438 45.9576 837.106 41.8383 852.092C30.3456 893.823 57.0537 905.265 96.5074 908.43C110.335 909.539 138.242 910.324 147.643 899.431C161.182 883.76 158.604 849.072 143.821 834.338C133.113 823.662 98.4635 811.182 83.0588 812.706Z" fill="white"/>
<path d="M594.727 -5.9954L664.91 -49.5429L633.635 28.3831L823 93.6801L655.49 88.0672L681.429 183.267L599.205 105.341L528.489 216L531.691 95.5915L411 96.8735L517.932 44.81L448.748 -51.4539L539.927 16.5042L545.518 -164L594.727 -5.9954Z" fill="white"/>
</g>
<defs>
<clipPath id="clip0_222_669">
<rect width="640" height="960" fill="white"/>
</clipPath>
</defs>
</svg>
