<svg width="361" height="292" viewBox="0 0 361 292" fill="none" xmlns="http://www.w3.org/2000/svg">
<path d="M18.5156 195.688H43.125C44.5938 195.688 45.5312 198.266 45.9375 203.422L58.125 265.062C57.9688 265.688 57.5 266 56.7188 266H42.1875C40.9375 266 40.1562 264.125 39.8438 260.375C38.8125 253.625 38.0312 249.953 37.5 249.359H30.2344H24.1406C23.5469 249.359 22.5312 254.594 21.0938 265.062L20.1562 266H4.21875L3.51562 265.297C8.04688 242.391 11.4062 224.266 13.5938 210.922L16.6406 196.625C17.2969 196 17.9219 195.688 18.5156 195.688ZM24.6094 236.234L24.8438 236.469H33.75L34.2188 236L29.7656 211.156L29.5312 210.922H29.2969C28.5781 210.922 27.8594 213.656 27.1406 219.125C25.4531 228.531 24.6094 234.234 24.6094 236.234ZM66.1406 195.688H81.1406C81.7656 195.906 82.0781 196.609 82.0781 197.797V265.297L81.375 266H66.1406C65.5156 265.781 65.2031 265.078 65.2031 263.891V197.797C65.2031 196.609 65.5156 195.906 66.1406 195.688ZM90.0469 195.688H130.594L131.297 196.391V206.938C131.297 208.031 130.75 208.578 129.656 208.578H106.453C105.516 208.578 105.047 209.047 105.047 209.984V222.172L105.75 222.875H125.438C126.844 222.875 127.547 223.422 127.547 224.516V234.594C127.547 235.531 127.078 236 126.141 236H106.453C105.516 236 105.047 236.469 105.047 237.406V249.125C105.047 251.781 107.078 253.109 111.141 253.109H130.828C131.922 253.109 132.469 253.656 132.469 254.75V265.297L131.766 266H101.531C97.0625 264.812 93.7031 262.469 91.4531 258.969C89.8906 255.812 89.1094 252.766 89.1094 249.828V198.5C89.1094 196.625 89.4219 195.688 90.0469 195.688ZM151.969 195.688H181.969L182.672 196.391V207.406C182.672 208.25 182.359 208.797 181.734 209.047H160.406C157.906 209.766 156.656 211.094 156.656 213.031V217.953C156.656 220.547 159 222.188 163.688 222.875C164.875 222.875 169.797 224.047 178.453 226.391C182.672 228.922 184.781 233.141 184.781 239.047V248.891C184.781 256.609 181.422 261.922 174.703 264.828L168.844 266H142.359C141.516 266 140.812 265.531 140.25 264.594V252.875L141.656 251.703L143.297 251.938H163.922C166.422 251.438 167.672 250.188 167.672 248.188V242.328C167.672 240.203 166.656 238.797 164.625 238.109C150.562 235.141 143.531 233.031 143.531 231.781C140.875 229.5 139.547 225.906 139.547 221V210.922C139.547 204.484 142.75 199.719 149.156 196.625L151.969 195.688ZM192.797 195.688H233.344L234.047 196.391V206.938C234.047 208.031 233.5 208.578 232.406 208.578H209.203C208.266 208.578 207.797 209.047 207.797 209.984V222.172L208.5 222.875H228.188C229.594 222.875 230.297 223.422 230.297 224.516V234.594C230.297 235.531 229.828 236 228.891 236H209.203C208.266 236 207.797 236.469 207.797 237.406V249.125C207.797 251.781 209.828 253.109 213.891 253.109H233.578C234.672 253.109 235.219 253.656 235.219 254.75V265.297L234.516 266H204.281C199.812 264.812 196.453 262.469 194.203 258.969C192.641 255.812 191.859 252.766 191.859 249.828V198.5C191.859 196.625 192.172 195.688 192.797 195.688ZM258.281 195.688H284.766C286.172 195.688 286.875 196.547 286.875 198.266V208.109C286.875 209.828 286.016 210.688 284.297 210.688H262.266C261.047 210.625 260.422 211.25 260.391 212.562L260.344 248.938C260.531 250.438 261.312 251.281 262.688 251.469H284.766C286.172 251.469 286.875 252.016 286.875 253.109V264.125C286.875 265.375 286.406 266 285.469 266H255.469C252.344 265.312 249.453 263.672 246.797 261.078C243.828 257.828 242.344 253.844 242.344 249.125L242.297 212.094L242.344 210.922C242.344 207.703 243.828 204.266 246.797 200.609C250.328 197.484 253.922 195.922 257.578 195.922L258.281 195.688Z" fill="white"/>
<path d="M271.361 98.0175C266.375 99.577 261.392 100.364 256.31 101.026C254.098 101.314 252.695 102.358 252.082 104.643C251.74 105.922 249.888 108.439 251.145 109.838C254.529 113.601 257.877 117.326 261.577 120.797C263.155 122.275 264.662 123.813 263.094 126.138C260.438 130.072 257.464 133.97 254.315 137.602C253.101 139.005 251.256 138.991 249.685 138.346C244.72 136.31 239.962 134.095 234.734 132.646C232.682 132.076 231.179 133.956 229.655 134.836C227.486 136.085 225.908 137.769 226.136 140.511L227.35 155.048C227.443 156.17 226.606 157.498 225.573 157.886C220.074 159.965 214.6 161.649 208.898 163.087C207.028 163.561 205.361 162.774 204.421 161.193C201.725 156.679 199.481 152.015 196.372 147.774C195.139 146.094 186.129 145.748 184.558 148.28C181.833 152.67 179.419 157.021 176.466 161.268C175.508 162.646 173.823 163.582 172.025 163.07C166.415 161.475 161.037 159.627 155.502 157.718C154.06 157.223 153.127 155.806 153.326 154.243L155.136 140.023C155.538 136.847 148.785 132.635 146.819 133.561L132.409 140.351C130.486 141.255 128.452 140.707 127.145 139.076C124.453 135.715 121.76 132.368 118.882 129.235C116.959 127.138 117.629 125.055 119.381 123.19C122.771 119.579 126.002 115.855 129.029 111.91C130.058 110.572 128.459 102.792 123.416 102.201L111.403 100.798C109.797 100.609 106.947 100.385 106.57 98.338C105.722 93.7593 105.523 88.9883 105.031 84.3242C104.739 81.5435 106.534 80.0838 108.896 79.418L120.385 76.178C123.088 75.4161 124.474 73.7142 124.698 70.8338C124.805 69.4738 125.749 67.2556 124.349 66.1234C120.261 62.8087 116.15 59.7717 111.887 56.7062C110.662 55.8232 109.448 54.7657 110.285 52.9855L115.716 41.457C116.642 39.4881 118.102 38.0853 120.471 38.5659L133.556 41.2184C136.049 41.724 137.869 41.0048 139.596 39.0679C140.562 37.9856 142.713 36.5756 142.043 34.7776L136.697 20.4257C136.088 18.7914 136.939 17.3708 138.343 16.5128L150.395 9.14985C152.586 7.81114 154.576 8.95047 156.129 10.5491C159.452 13.96 162.871 17.1679 166.504 20.2263C168.046 21.5223 170.507 20.0162 171.971 19.8168C175.048 19.3967 176.267 17.7126 176.993 14.9747L180.277 2.58803C180.633 1.24932 181.958 0.0993083 183.315 0.0708251C187.991 -0.0324266 192.479 -0.035987 197.088 0.149154C199.477 0.245285 200.713 1.81898 201.183 4.02999L203.58 15.3165C204.107 17.791 205.407 19.2507 207.94 19.7955C209.5 20.1337 211.815 21.3229 213.328 20.0661C217.364 16.7228 220.687 12.8705 224.49 9.26735C225.278 8.52322 226.891 8.32384 227.92 8.84722C231.984 10.9194 235.895 13.1126 239.616 15.5657C243.769 18.3001 237.504 25.8375 236.81 33.8911C236.643 35.8137 239.994 39.3812 241.928 39.3599C251.558 39.2388 258.892 33.2858 261.648 38.8151L267.233 50.0162C267.97 51.4973 268.102 53.1458 266.656 54.3599L256.648 62.7517C254.418 64.6209 253.086 66.4902 254.269 69.5913C254.775 70.9229 254.703 73.3795 256.395 74.1415C261.036 76.235 265.933 77.328 270.795 78.7629C271.966 79.1082 272.786 80.2262 272.853 81.4403C273.181 87.1832 272.262 92.6235 271.368 98.0211L271.361 98.0175ZM197.654 59.7645C203.057 61.3311 209.208 59.9889 211.316 54.2459C204.667 49.9094 196.963 47.5951 189.188 47.8052C187.66 50.2796 188.75 53.0318 189.993 55.1787C191.809 58.3083 194.263 58.7819 197.654 59.7645ZM169.243 69.9366C171.302 67.4301 173.951 65.511 175.743 62.9689C177.527 60.4375 176.915 52.7612 174.845 51.9779C174.4 51.8106 173.791 52.0492 173.225 52.3625C165.496 56.61 159.556 63.5208 156.354 71.9839C159.395 74.4761 166.102 73.7569 169.24 69.9366H169.243ZM227.838 84.8155C227.991 77.4135 226.225 70.0256 221.684 64.3931C217.681 63.4531 213.82 73.0021 216.897 77.0361C217.624 82.2165 222.532 85.7769 227.838 84.8155ZM200.151 88.7177C201.604 85.7591 201.429 82.2343 199.527 79.4215C198.06 77.2497 195.549 75.5087 192.351 75.1348C186.378 74.4298 181.025 79.0513 181.495 85.1645C181.848 89.7111 185.537 93.0472 189.37 93.7379C193.818 94.539 198.192 92.709 200.151 88.7213V88.7177ZM165.037 89.5544C163.021 86.0261 158.466 84.5877 154.43 85.0826C154.584 93.3605 157.899 101.282 163.701 107.303C170.019 102.539 168.346 95.3401 165.037 89.5544ZM210.721 114.449C217.649 110.532 222.535 104.505 225.377 97.2057C219.917 94.7491 214.525 97.3482 211.213 101.667C209.275 104.195 208.029 106.591 208.442 110.077C208.631 111.668 208.777 113.601 210.721 114.449ZM187.603 109.525C182.236 108.969 176.437 109.154 174.14 115.435C181.007 119.562 189.466 121.199 197.291 119.291C198.886 113.847 193.074 110.094 187.607 109.525H187.603Z" fill="white" fill-opacity="0.9"/>
<path d="M271.361 98.0177C272.914 96.8926 273.943 95.2299 275.674 95.7498L287.093 99.1855C288.097 99.4882 289.212 99.3244 290.141 98.7761C293.379 96.8713 296.549 95.1943 300.025 93.7737C301.257 93.2717 302.197 92.3887 302.618 91.0856C303.697 87.7495 304.516 84.4704 305.346 81.0204C305.634 79.8276 306.382 78.9055 307.686 78.8236C312.779 78.5138 317.694 78.8592 322.719 79.7956C323.752 79.9878 324.614 80.8708 324.774 81.8713L326.416 92.2072C326.633 93.5637 327.538 94.5962 328.71 95.2121C331.605 96.7324 334.191 98.445 336.748 100.457C337.763 101.254 339.088 101.642 340.381 101.318L350.991 98.6693C351.992 98.4201 353.385 98.5126 354.068 99.2852C356.921 102.515 358.492 106.26 360.205 110.216C360.714 111.391 361.633 113.135 360.34 114.203L352.045 121.057C351.194 121.762 349.581 122.563 349.627 124.005C349.73 127.363 349.121 131.261 349.713 134.633C350.258 136.007 360.38 144.075 360.404 144.189C360.704 145.414 360.575 146.3 360.066 147.294C358.029 151.274 356.18 155.127 353.413 158.648C352.744 159.502 351.194 159.737 350.119 159.406L340.538 156.451C338.362 155.782 336.634 155.789 334.729 157.12C327.567 162.13 325.248 159.987 323.87 165.786L321.679 175.004C321.277 176.692 320.091 177.269 318.581 177.514C314.065 178.244 309.762 178.041 305.275 177.611C302.675 177.361 301.375 175.955 301.375 173.245C301.375 170.419 300.47 167.538 300.1 164.74C299.573 160.752 294.782 160.229 289.372 156.312C287.673 155.084 286.234 154.959 284.272 155.693C281.063 156.893 277.662 157.729 274.314 158.609C272.594 159.061 271.614 157.865 270.888 156.654C268.708 153.033 266.542 149.565 264.925 145.638C264.295 144.107 265.128 142.897 266.2 141.942L273.527 135.416C274.36 134.672 275.859 133.351 275.503 131.888C274.624 128.299 276.436 124.094 275.24 120.722C273.324 115.321 263.96 111.839 265.666 108.357C266.97 105.698 268.33 102.981 270.075 100.517C270.692 99.6484 271.529 99.0218 271.365 98.0177H271.361ZM326.534 135.847C329.219 131.418 329.237 126.291 327.15 121.449C325.554 117.753 321.847 114.634 317.299 113.125C311.13 111.077 304.715 112.48 300.296 117.568C295.958 122.563 295.27 130.225 298.8 135.989C301.763 140.832 307.216 143.431 312.608 143.427C318 143.424 323.467 140.903 326.534 135.847Z" fill="white" fill-opacity="0.9"/>
</svg>
