<svg width="366" height="292" viewBox="0 0 366 292" fill="none" xmlns="http://www.w3.org/2000/svg">
<g filter="url(#filter0_d_223_889)">
<path d="M19 195.688H43.6094C45.0781 195.688 46.0156 198.266 46.4219 203.422L58.6094 265.062C58.4531 265.688 57.9844 266 57.2031 266H42.6719C41.4219 266 40.6406 264.125 40.3281 260.375C39.2969 253.625 38.5156 249.953 37.9844 249.359H30.7188H24.625C24.0312 249.359 23.0156 254.594 21.5781 265.062L20.6406 266H4.70312L4 265.297C8.53125 242.391 11.8906 224.266 14.0781 210.922L17.125 196.625C17.7812 196 18.4062 195.688 19 195.688ZM25.0938 236.234L25.3281 236.469H34.2344L34.7031 236L30.25 211.156L30.0156 210.922H29.7812C29.0625 210.922 28.3438 213.656 27.625 219.125C25.9375 228.531 25.0938 234.234 25.0938 236.234ZM66.625 195.688H81.625C82.25 195.906 82.5625 196.609 82.5625 197.797V265.297L81.8594 266H66.625C66 265.781 65.6875 265.078 65.6875 263.891V197.797C65.6875 196.609 66 195.906 66.625 195.688ZM90.5312 195.688H131.078L131.781 196.391V206.938C131.781 208.031 131.234 208.578 130.141 208.578H106.938C106 208.578 105.531 209.047 105.531 209.984V222.172L106.234 222.875H125.922C127.328 222.875 128.031 223.422 128.031 224.516V234.594C128.031 235.531 127.562 236 126.625 236H106.938C106 236 105.531 236.469 105.531 237.406V249.125C105.531 251.781 107.562 253.109 111.625 253.109H131.312C132.406 253.109 132.953 253.656 132.953 254.75V265.297L132.25 266H102.016C97.5469 264.812 94.1875 262.469 91.9375 258.969C90.375 255.812 89.5938 252.766 89.5938 249.828V198.5C89.5938 196.625 89.9062 195.688 90.5312 195.688ZM152.453 195.688H182.453L183.156 196.391V207.406C183.156 208.25 182.844 208.797 182.219 209.047H160.891C158.391 209.766 157.141 211.094 157.141 213.031V217.953C157.141 220.547 159.484 222.188 164.172 222.875C165.359 222.875 170.281 224.047 178.938 226.391C183.156 228.922 185.266 233.141 185.266 239.047V248.891C185.266 256.609 181.906 261.922 175.188 264.828L169.328 266H142.844C142 266 141.297 265.531 140.734 264.594V252.875L142.141 251.703L143.781 251.938H164.406C166.906 251.438 168.156 250.188 168.156 248.188V242.328C168.156 240.203 167.141 238.797 165.109 238.109C151.047 235.141 144.016 233.031 144.016 231.781C141.359 229.5 140.031 225.906 140.031 221V210.922C140.031 204.484 143.234 199.719 149.641 196.625L152.453 195.688ZM193.281 195.688H233.828L234.531 196.391V206.938C234.531 208.031 233.984 208.578 232.891 208.578H209.688C208.75 208.578 208.281 209.047 208.281 209.984V222.172L208.984 222.875H228.672C230.078 222.875 230.781 223.422 230.781 224.516V234.594C230.781 235.531 230.312 236 229.375 236H209.688C208.75 236 208.281 236.469 208.281 237.406V249.125C208.281 251.781 210.312 253.109 214.375 253.109H234.062C235.156 253.109 235.703 253.656 235.703 254.75V265.297L235 266H204.766C200.297 264.812 196.938 262.469 194.688 258.969C193.125 255.812 192.344 252.766 192.344 249.828V198.5C192.344 196.625 192.656 195.688 193.281 195.688ZM258.766 195.688H285.25C286.656 195.688 287.359 196.547 287.359 198.266V208.109C287.359 209.828 286.5 210.688 284.781 210.688H262.75C261.531 210.625 260.906 211.25 260.875 212.562L260.828 248.938C261.016 250.438 261.797 251.281 263.172 251.469H285.25C286.656 251.469 287.359 252.016 287.359 253.109V264.125C287.359 265.375 286.891 266 285.953 266H255.953C252.828 265.312 249.938 263.672 247.281 261.078C244.312 257.828 242.828 253.844 242.828 249.125L242.781 212.094L242.828 210.922C242.828 207.703 244.312 204.266 247.281 200.609C250.812 197.484 254.406 195.922 258.062 195.922L258.766 195.688Z" fill="white"/>
</g>
<g filter="url(#filter1_d_223_889)">
<path d="M271.845 98.0175C266.859 99.577 261.876 100.364 256.794 101.026C254.582 101.314 253.179 102.358 252.566 104.643C252.225 105.922 250.372 108.439 251.63 109.838C255.013 113.601 258.361 117.326 262.062 120.797C263.639 122.275 265.146 123.813 263.579 126.138C260.922 130.072 257.948 133.97 254.8 137.602C253.585 139.005 251.74 138.991 250.169 138.346C245.205 136.31 240.446 134.095 235.218 132.646C233.166 132.076 231.663 133.956 230.139 134.836C227.97 136.085 226.392 137.769 226.62 140.511L227.835 155.048C227.927 156.17 227.09 157.498 226.058 157.886C220.558 159.965 215.084 161.649 209.382 163.087C207.512 163.561 205.846 162.774 204.905 161.193C202.209 156.679 199.965 152.015 196.856 147.774C195.624 146.094 186.613 145.748 185.042 148.28C182.318 152.67 179.903 157.021 176.95 161.268C175.992 162.646 174.308 163.582 172.509 163.07C166.9 161.475 161.522 159.627 155.987 157.718C154.544 157.223 153.611 155.806 153.811 154.243L155.62 140.023C156.022 136.847 149.27 132.635 147.304 133.561L132.893 140.351C130.97 141.255 128.937 140.707 127.629 139.076C124.937 135.715 122.244 132.368 119.367 129.235C117.443 127.138 118.113 125.055 119.865 123.19C123.256 119.579 126.486 115.855 129.514 111.91C130.543 110.572 128.944 102.792 123.9 102.201L111.887 100.798C110.281 100.609 107.432 100.385 107.054 98.338C106.207 93.7593 106.007 88.9883 105.516 84.3242C105.224 81.5435 107.019 80.0838 109.38 79.418L120.87 76.178C123.573 75.4161 124.958 73.7142 125.183 70.8338C125.29 69.4738 126.233 67.2556 124.834 66.1234C120.745 62.8087 116.635 59.7717 112.372 56.7062C111.146 55.8232 109.932 54.7657 110.769 52.9855L116.2 41.457C117.126 39.4881 118.587 38.0853 120.955 38.5659L134.04 41.2184C136.533 41.724 138.353 41.0048 140.081 39.0679C141.046 37.9856 143.197 36.5756 142.528 34.7776L137.182 20.4257C136.573 18.7914 137.424 17.3708 138.827 16.5128L150.88 9.14985C153.07 7.81114 155.061 8.95047 156.614 10.5491C159.937 13.96 163.356 17.1679 166.989 20.2263C168.531 21.5223 170.992 20.0162 172.456 19.8168C175.533 19.3967 176.751 17.7126 177.477 14.9747L180.761 2.58803C181.117 1.24932 182.442 0.0993083 183.799 0.0708251C188.476 -0.0324266 192.963 -0.035987 197.572 0.149154C199.962 0.245285 201.198 1.81898 201.668 4.02999L204.065 15.3165C204.592 17.791 205.892 19.2507 208.424 19.7955C209.984 20.1337 212.299 21.3229 213.813 20.0661C217.848 16.7228 221.171 12.8705 224.975 9.26735C225.762 8.52322 227.375 8.32384 228.405 8.84722C232.468 10.9194 236.379 13.1126 240.101 15.5657C244.254 18.3001 237.989 25.8375 237.294 33.8911C237.127 35.8137 240.478 39.3812 242.412 39.3599C252.043 39.2388 259.376 33.2858 262.133 38.8151L267.717 50.0162C268.455 51.4973 268.586 53.1458 267.14 54.3599L257.132 62.7517C254.903 64.6209 253.571 66.4902 254.753 69.5913C255.259 70.9229 255.188 73.3795 256.88 74.1415C261.52 76.235 266.417 77.328 271.279 78.7629C272.451 79.1082 273.27 80.2262 273.338 81.4403C273.665 87.1832 272.746 92.6235 271.852 98.0211L271.845 98.0175ZM198.138 59.7645C203.541 61.3311 209.692 59.9889 211.8 54.2459C205.151 49.9094 197.447 47.5951 189.672 47.8052C188.144 50.2796 189.234 53.0318 190.477 55.1787C192.294 58.3083 194.748 58.7819 198.138 59.7645ZM169.727 69.9366C171.786 67.4301 174.436 65.511 176.227 62.9689C178.012 60.4375 177.399 52.7612 175.33 51.9779C174.885 51.8106 174.276 52.0492 173.709 52.3625C165.981 56.61 160.04 63.5208 156.838 71.9839C159.88 74.4761 166.586 73.7569 169.724 69.9366H169.727ZM228.323 84.8155C228.476 77.4135 226.709 70.0256 222.168 64.3931C218.165 63.4531 214.304 73.0021 217.381 77.0361C218.108 82.2165 223.016 85.7769 228.323 84.8155ZM200.635 88.7177C202.088 85.7591 201.914 82.2343 200.012 79.4215C198.544 77.2497 196.033 75.5087 192.835 75.1348C186.862 74.4298 181.509 79.0513 181.979 85.1645C182.332 89.7111 186.022 93.0472 189.854 93.7379C194.302 94.539 198.676 92.709 200.635 88.7213V88.7177ZM165.521 89.5544C163.505 86.0261 158.95 84.5877 154.915 85.0826C155.068 93.3605 158.384 101.282 164.186 107.303C170.504 102.539 168.83 95.3401 165.521 89.5544ZM211.206 114.449C218.133 110.532 223.019 104.505 225.862 97.2057C220.402 94.7491 215.009 97.3482 211.697 101.667C209.76 104.195 208.513 106.591 208.926 110.077C209.115 111.668 209.261 113.601 211.206 114.449ZM188.087 109.525C182.72 108.969 176.922 109.154 174.625 115.435C181.491 119.562 189.95 121.199 197.775 119.291C199.371 113.847 193.558 110.094 188.091 109.525H188.087Z" fill="white" fill-opacity="0.9"/>
<path d="M271.846 98.0177C273.398 96.8926 274.428 95.2299 276.159 95.7498L287.577 99.1855C288.581 99.4882 289.696 99.3244 290.626 98.7761C293.863 96.8713 297.033 95.1943 300.509 93.7737C301.742 93.2717 302.682 92.3887 303.102 91.0856C304.181 87.7495 305 84.4704 305.83 81.0204C306.119 79.8276 306.867 78.9055 308.17 78.8236C313.263 78.5138 318.178 78.8592 323.204 79.7956C324.237 79.9878 325.098 80.8708 325.259 81.8713L326.901 92.2072C327.118 93.5637 328.023 94.5962 329.194 95.2121C332.09 96.7324 334.676 98.445 337.233 100.457C338.248 101.254 339.573 101.642 340.866 101.318L351.476 98.6693C352.476 98.4201 353.869 98.5126 354.553 99.2852C357.406 102.515 358.976 106.26 360.689 110.216C361.199 111.391 362.118 113.135 360.825 114.203L352.53 121.057C351.679 121.762 350.065 122.563 350.111 124.005C350.215 127.363 349.606 131.261 350.197 134.633C350.742 136.007 360.864 144.075 360.889 144.189C361.188 145.414 361.06 146.3 360.551 147.294C358.513 151.274 356.665 155.127 353.897 158.648C353.228 159.502 351.679 159.737 350.603 159.406L341.022 156.451C338.846 155.782 337.119 155.789 335.213 157.12C328.051 162.13 325.732 159.987 324.354 165.786L322.164 175.004C321.761 176.692 320.575 177.269 319.065 177.514C314.549 178.244 310.247 178.041 305.759 177.611C303.159 177.361 301.859 175.955 301.859 173.245C301.859 170.419 300.954 167.538 300.584 164.74C300.057 160.752 295.267 160.229 289.857 156.312C288.158 155.084 286.719 154.959 284.756 155.693C281.547 156.893 278.146 157.729 274.798 158.609C273.078 159.061 272.098 157.865 271.372 156.654C269.192 153.033 267.027 149.565 265.41 145.638C264.779 144.107 265.613 142.897 266.685 141.942L274.011 135.416C274.844 134.672 276.344 133.351 275.988 131.888C275.108 128.299 276.921 124.094 275.724 120.722C273.808 115.321 264.445 111.839 266.151 108.357C267.454 105.698 268.815 102.981 270.56 100.517C271.176 99.6484 272.013 99.0218 271.849 98.0177H271.846ZM327.018 135.847C329.704 131.418 329.721 126.291 327.634 121.449C326.039 117.753 322.331 114.634 317.783 113.125C311.614 111.077 305.2 112.48 300.78 117.568C296.442 122.563 295.755 130.225 299.284 135.989C302.247 140.832 307.7 143.431 313.092 143.427C318.485 143.424 323.952 140.903 327.018 135.847Z" fill="white" fill-opacity="0.9"/>
</g>
<defs>
<filter id="filter0_d_223_889" x="0" y="195.688" width="291.359" height="78.3125" filterUnits="userSpaceOnUse" color-interpolation-filters="sRGB">
<feFlood flood-opacity="0" result="BackgroundImageFix"/>
<feColorMatrix in="SourceAlpha" type="matrix" values="0 0 0 0 0 0 0 0 0 0 0 0 0 0 0 0 0 0 127 0" result="hardAlpha"/>
<feOffset dy="4"/>
<feGaussianBlur stdDeviation="2"/>
<feComposite in2="hardAlpha" operator="out"/>
<feColorMatrix type="matrix" values="0 0 0 0 0 0 0 0 0 0 0 0 0 0 0 0 0 0 0.7 0"/>
<feBlend mode="normal" in2="BackgroundImageFix" result="effect1_dropShadow_223_889"/>
<feBlend mode="normal" in="SourceGraphic" in2="effect1_dropShadow_223_889" result="shape"/>
</filter>
<filter id="filter1_d_223_889" x="101.484" y="0" width="264" height="185.999" filterUnits="userSpaceOnUse" color-interpolation-filters="sRGB">
<feFlood flood-opacity="0" result="BackgroundImageFix"/>
<feColorMatrix in="SourceAlpha" type="matrix" values="0 0 0 0 0 0 0 0 0 0 0 0 0 0 0 0 0 0 127 0" result="hardAlpha"/>
<feOffset dy="4"/>
<feGaussianBlur stdDeviation="2"/>
<feComposite in2="hardAlpha" operator="out"/>
<feColorMatrix type="matrix" values="0 0 0 0 0 0 0 0 0 0 0 0 0 0 0 0 0 0 0.25 0"/>
<feBlend mode="normal" in2="BackgroundImageFix" result="effect1_dropShadow_223_889"/>
<feBlend mode="normal" in="SourceGraphic" in2="effect1_dropShadow_223_889" result="shape"/>
</filter>
</defs>
</svg>
