<svg width="640" height="960" viewBox="0 0 640 960" fill="none" xmlns="http://www.w3.org/2000/svg">
<g clip-path="url(#clip0_267_3)">
<rect width="640" height="960" fill="white"/>
<path d="M640 0H0V960H640V0Z" fill="#000072"/>
<path opacity="0.63" d="M-6.01945 985.426C-9.05339 973.277 -1.06691 959.735 0.539137 947.335C4.21317 918.855 -3.84978 890.897 -4.02659 862.561C-4.18608 837.053 0.317116 811.117 2.67581 785.47C3.66907 774.768 -0.36546 753.93 12.4634 744.685C16.442 741.811 23.6962 738.991 30.3079 737.426C72.3795 727.455 174.133 729.69 215.205 736.493C271.193 745.766 259.424 772.553 198.407 780.372C173.159 783.606 123.959 781.812 105.367 787.734C96.5869 790.526 90.0473 797.016 91.7794 801.4C96.8726 814.307 160.985 811.324 156.092 832.242C153.216 844.551 130.118 850.661 114.893 859.024C93.5403 870.744 124.557 877.589 139.143 883.653C160.677 892.616 171.846 901.395 150.114 915.196C133.18 925.951 86.3948 937.912 107.342 951.799C125.771 964.015 177.205 956.043 202.994 948.763C313.268 917.621 180.403 879.104 237.211 842.453C289.074 808.987 405.715 831.513 374.344 868.498C365.122 879.379 344.362 881.651 329.722 888.932C313.105 897.205 343.184 901.429 353.959 904.882C384.747 914.763 380.543 931.003 352.429 944.121C339.925 949.955 323.302 954.533 310.917 960.082C293.91 967.699 303.559 969.587 302.58 977.942C302.231 980.979 300.374 983.734 296.487 986.427C271.162 1003.95 176.384 1009.93 135.858 1012.01C79.0131 1014.94 1.74775 1016.45 -6.00271 985.417L-6.01945 985.426Z" fill="#FE9A02"/>
<path opacity="0.62" d="M421.164 -32.3032C444.233 -55.4249 473.695 -72.6321 501.981 -46.0749C528.478 -21.1988 538.927 8.11133 530.278 43.0751C524.956 64.5409 499.46 104.418 529.162 119.254C557.411 133.374 572.82 82.5967 605.502 89.5113C634.16 95.5703 642 132.363 635.36 156.621C629.303 178.706 594.648 216.639 621.867 235.771C639.997 248.506 658.601 224.911 671.674 215.278C720.252 179.462 758.594 263.356 731.58 306.041C714.422 333.144 683.423 331.589 679.283 296.189C678.834 292.384 680.157 280.333 676.343 279.098C673.835 278.278 660.255 287.018 657.004 288.608C621.32 305.985 578.708 290.974 563.864 252.541C554.809 229.079 561.894 203.022 566.752 179.646C567.047 178.252 566.166 177.038 565.035 176.314C562.914 174.962 547.305 181.034 543.53 181.843C510.666 188.87 478.285 159.087 467.723 129.581C455.496 95.404 470.945 66.8448 474.434 33.8944C475.483 23.9053 476.877 10.2044 465.293 25.4846C454.888 39.2113 451.131 55.2587 436.776 67.0837C419.394 81.4218 398.935 76.1799 390.986 54.324C380.655 25.9501 401.691 -12.796 421.154 -32.3144L421.164 -32.3032Z" fill="#FA9621"/>
</g>
<defs>
<clipPath id="clip0_267_3">
<rect width="640" height="960" fill="white"/>
</clipPath>
</defs>
</svg>
