<svg width="319" height="222" viewBox="0 0 319 222" fill="none" xmlns="http://www.w3.org/2000/svg">
<g filter="url(#filter0_d_349_5)">
<path d="M4.52829 192.637C2.13116 183.481 8.59172 173.238 9.92289 163.877C12.9685 142.377 6.5836 121.309 6.53519 99.9309C6.49135 80.6862 10.1946 61.1024 12.1742 41.7446C13.0075 33.6668 9.83524 17.9583 20.1716 10.9409C23.3773 8.75867 29.2142 6.60743 34.5307 5.40505C68.3613 -2.2574 150.096 -0.907526 183.068 4.09017C228.015 10.9015 218.472 31.1503 169.429 37.2518C149.135 39.775 109.617 38.5841 94.6617 43.1133C87.5996 45.2487 82.3246 50.1671 83.7016 53.4694C87.7505 63.1907 139.264 60.7283 135.264 76.5264C132.913 85.8227 114.338 90.5089 102.079 96.8692C84.887 105.783 109.781 110.844 121.479 115.372C138.748 122.063 147.691 128.65 130.188 139.134C116.548 147.305 78.9249 156.483 95.7069 166.892C110.471 176.048 151.816 169.863 172.557 164.285C261.247 140.424 154.639 111.803 200.396 83.9623C242.17 58.5416 335.798 75.1516 310.474 103.16C303.029 111.4 286.345 113.183 274.56 118.725C261.184 125.021 285.333 128.109 293.978 130.679C318.678 138.032 315.247 150.299 292.619 160.289C282.554 164.732 269.186 168.241 259.218 172.469C245.531 178.272 253.275 179.665 252.462 185.971C252.171 188.264 250.67 190.349 247.539 192.393C227.137 205.698 150.978 210.52 118.416 212.227C72.7404 214.625 10.6654 216.018 4.54177 192.631L4.52829 192.637Z" fill="#FE9A02"/>
</g>
<defs>
<filter id="filter0_d_349_5" x="0" y="0" width="318.751" height="221.483" filterUnits="userSpaceOnUse" color-interpolation-filters="sRGB">
<feFlood flood-opacity="0" result="BackgroundImageFix"/>
<feColorMatrix in="SourceAlpha" type="matrix" values="0 0 0 0 0 0 0 0 0 0 0 0 0 0 0 0 0 0 127 0" result="hardAlpha"/>
<feOffset dy="4"/>
<feGaussianBlur stdDeviation="2"/>
<feComposite in2="hardAlpha" operator="out"/>
<feColorMatrix type="matrix" values="0 0 0 0 0 0 0 0 0 0 0 0 0 0 0 0 0 0 0.25 0"/>
<feBlend mode="normal" in2="BackgroundImageFix" result="effect1_dropShadow_349_5"/>
<feBlend mode="normal" in="SourceGraphic" in2="effect1_dropShadow_349_5" result="shape"/>
</filter>
</defs>
</svg>
