<svg width="375" height="896" viewBox="0 0 375 896" fill="none" xmlns="http://www.w3.org/2000/svg">
<g clip-path="url(#clip0_349_2)">
<rect width="375" height="896" fill="white"/>
<path d="M375 0H0V896H375V0Z" fill="#000072"/>
<g filter="url(#filter0_d_349_2)">
<path d="M-40.1747 889.538C-42.5718 880.382 -36.1113 870.138 -34.7801 860.778C-31.7345 839.278 -38.1194 818.21 -38.1678 796.832C-38.2117 777.587 -34.5084 758.003 -32.5288 738.646C-31.6955 730.568 -34.8678 714.859 -24.5314 707.842C-21.3257 705.66 -15.4888 703.508 -10.1723 702.306C23.6583 694.643 105.393 695.993 138.365 700.991C183.312 707.802 173.769 728.051 124.726 734.153C104.432 736.676 64.9142 735.485 49.9587 740.014C42.8966 742.15 37.6216 747.068 38.9986 750.37C43.0475 760.092 94.5614 757.629 90.5615 773.427C88.2105 782.724 69.6348 787.41 57.3761 793.77C40.184 802.683 65.0779 807.745 76.7759 812.272C94.045 818.964 102.988 825.55 85.4845 836.035C71.8454 844.206 34.2218 853.384 51.0039 863.792C65.768 872.948 107.113 866.764 127.854 861.186C216.544 837.325 109.936 808.704 155.693 780.863C197.467 755.442 291.095 772.053 265.771 800.061C258.326 808.301 241.642 810.084 229.857 815.625C216.481 821.922 240.63 825.01 249.275 827.58C273.975 834.933 270.544 847.199 247.916 857.19C237.851 861.633 224.483 865.142 214.515 869.37C200.828 875.173 208.572 876.566 207.759 882.872C207.468 885.165 205.967 887.25 202.836 889.294C182.434 902.599 106.275 907.421 73.7129 909.127C28.0374 911.526 -34.0376 912.918 -40.1612 889.531L-40.1747 889.538Z" fill="#FE9A02"/>
</g>
<g filter="url(#filter1_d_349_2)">
<path d="M212.008 -21.6839C226.998 -36.6821 246.094 -47.8923 264.257 -30.8823C281.271 -14.9489 287.904 3.90647 282.179 26.4824C278.658 40.3428 262.033 66.1528 281.158 75.6008C299.346 84.5921 309.498 51.7945 330.578 56.1232C349.062 59.9162 353.98 83.6059 349.596 99.2717C345.596 113.534 323.065 138.128 340.568 150.354C352.227 158.494 364.335 143.208 372.817 136.945C404.332 113.662 428.762 167.598 411.147 195.225C399.959 212.767 379.945 211.887 377.411 189.08C377.136 186.629 378.038 178.854 375.58 178.073C373.963 177.554 365.158 183.243 363.052 184.28C339.938 195.625 312.477 186.115 303.042 161.396C297.287 146.305 301.966 129.478 305.196 114.388C305.392 113.488 304.827 112.709 304.1 112.247C302.735 111.383 292.631 115.359 290.19 115.896C268.937 120.556 248.142 101.483 241.437 82.5015C233.676 60.5153 243.766 42.0417 246.15 20.7842C246.867 14.3399 247.821 5.50121 240.28 15.3984C233.505 24.2894 231.016 34.6502 221.698 42.3307C210.415 51.6435 197.223 48.3448 192.176 34.2854C185.616 16.0331 199.355 -9.0303 212.002 -21.6911L212.008 -21.6839Z" fill="#FA9621"/>
</g>
</g>
<defs>
<filter id="filter0_d_349_2" x="-44.703" y="696.901" width="318.751" height="221.483" filterUnits="userSpaceOnUse" color-interpolation-filters="sRGB">
<feFlood flood-opacity="0" result="BackgroundImageFix"/>
<feColorMatrix in="SourceAlpha" type="matrix" values="0 0 0 0 0 0 0 0 0 0 0 0 0 0 0 0 0 0 127 0" result="hardAlpha"/>
<feOffset dy="4"/>
<feGaussianBlur stdDeviation="2"/>
<feComposite in2="hardAlpha" operator="out"/>
<feColorMatrix type="matrix" values="0 0 0 0 0 0 0 0 0 0 0 0 0 0 0 0 0 0 0.25 0"/>
<feBlend mode="normal" in2="BackgroundImageFix" result="effect1_dropShadow_349_2"/>
<feBlend mode="normal" in="SourceGraphic" in2="effect1_dropShadow_349_2" result="shape"/>
</filter>
<filter id="filter1_d_349_2" x="186.481" y="-39.4218" width="234.573" height="254.82" filterUnits="userSpaceOnUse" color-interpolation-filters="sRGB">
<feFlood flood-opacity="0" result="BackgroundImageFix"/>
<feColorMatrix in="SourceAlpha" type="matrix" values="0 0 0 0 0 0 0 0 0 0 0 0 0 0 0 0 0 0 127 0" result="hardAlpha"/>
<feOffset dy="4"/>
<feGaussianBlur stdDeviation="2"/>
<feComposite in2="hardAlpha" operator="out"/>
<feColorMatrix type="matrix" values="0 0 0 0 0 0 0 0 0 0 0 0 0 0 0 0 0 0 0.25 0"/>
<feBlend mode="normal" in2="BackgroundImageFix" result="effect1_dropShadow_349_2"/>
<feBlend mode="normal" in="SourceGraphic" in2="effect1_dropShadow_349_2" result="shape"/>
</filter>
<clipPath id="clip0_349_2">
<rect width="375" height="896" fill="white"/>
</clipPath>
</defs>
</svg>
