<svg width="375" height="896" viewBox="0 0 375 896" fill="none" xmlns="http://www.w3.org/2000/svg">
<g clip-path="url(#clip0_358_2)">
<rect width="375" height="896" fill="white"/>
<path d="M375 0H0V896H375V0Z" fill="white"/>
<g opacity="0.66" filter="url(#filter0_d_358_2)">
<path d="M169.907 69.6364C151.835 72.2247 131.614 61.8645 120.095 44.9412C107.352 26.2138 107.503 4.39817 118.741 -10.2281L137.968 -35.2199C147.037 -47.0095 146.277 -63.4056 136.888 -78.3608L120.552 -104.372C111.713 -118.453 111.483 -133.585 118.582 -145.089C127.924 -160.245 145.214 -166.242 165.179 -162.263C192.003 -156.919 216.968 -139.02 234.321 -114.964L259.775 -79.6864C272.58 -61.9372 289.411 -50.504 308.664 -43.6364C324.423 -38.0231 339.535 -32.4708 354.826 -25.2962C373.042 -16.7378 388.373 -2.12233 396.087 16.2043C403.616 34.0952 398.364 50.7015 383.072 57.2613L350.695 71.152C339.024 76.1548 332.816 86.7646 332.832 100.22L332.868 124.896C332.886 138.875 322.677 147.029 308.984 145.61C283.214 142.934 268.652 122.116 252.581 101.079C236.096 79.4964 214.711 59.0084 189.573 65.3067C183.308 66.8736 177.172 68.5574 169.953 69.5919L169.907 69.6364Z" fill="#000072"/>
</g>
<g opacity="0.66" filter="url(#filter1_d_358_2)">
<path d="M346.381 803.676C341.56 810.36 334.358 815.445 325.76 817.262C313.026 819.958 302.412 812.506 293.372 806.392C283.863 799.968 271.3 800.517 261.009 808.204C241.208 823.003 244.115 844.816 227.616 865.87C215.632 881.171 196.525 890.712 176.845 887.307C161.865 884.722 152.029 874.419 149.878 861.023C147.741 847.736 151.785 837.635 150.981 825.189C150.592 819.162 145.914 815.065 139.052 815.102C133.376 815.128 127.68 816.424 122.124 818.379L104.569 824.546C94.5013 828.082 84.0566 830.273 73.7141 829.393C57.8286 828.037 45.4804 819.284 39.0554 807.008C35.0356 799.328 34.3766 791.063 37.7092 782.442L54.7847 763.269C55.3297 762.656 56.7644 761.943 57.3744 761.845C60.5614 761.336 63.6751 775.095 81.164 782.866C107.643 794.633 124.759 765.858 155.78 772.613C168.743 775.433 178.262 784.147 181.163 795.769L185.173 811.884C186.49 817.165 188.864 822.076 192.959 825.622C197.415 829.47 203.759 828.75 208.482 824.227C212.359 820.516 215.328 815.814 217.239 810.95L224.403 792.778C226.783 786.732 230.533 781.202 236.29 777.178C245.315 770.86 255.875 770.582 264.124 775.832C273.127 781.576 286.283 789.621 296.761 778.732C304.889 770.28 313.545 777.199 321.181 782.187L345.573 798.14C347.442 799.364 347.767 801.745 346.372 803.68L346.381 803.676Z" fill="#000072"/>
</g>
<path d="M9.94153 0.166919C10.0532 -0.0676127 10.41 -0.012002 10.5216 0.0750407C10.6454 0.171755 10.6648 0.406287 10.5823 0.602133C10.5095 0.771383 10.2425 0.979318 10.0168 0.85359C9.82018 0.744786 9.8396 0.382108 9.94153 0.166919Z" fill="black" fill-opacity="0.75"/>
</g>
<defs>
<filter id="filter0_d_358_2" x="106.42" y="-163.46" width="297.067" height="317.229" filterUnits="userSpaceOnUse" color-interpolation-filters="sRGB">
<feFlood flood-opacity="0" result="BackgroundImageFix"/>
<feColorMatrix in="SourceAlpha" type="matrix" values="0 0 0 0 0 0 0 0 0 0 0 0 0 0 0 0 0 0 127 0" result="hardAlpha"/>
<feOffset dy="4"/>
<feGaussianBlur stdDeviation="2"/>
<feComposite in2="hardAlpha" operator="out"/>
<feColorMatrix type="matrix" values="0 0 0 0 0 0 0 0 0 0 0 0 0 0 0 0 0 0 0.25 0"/>
<feBlend mode="normal" in2="BackgroundImageFix" result="effect1_dropShadow_358_2"/>
<feBlend mode="normal" in="SourceGraphic" in2="effect1_dropShadow_358_2" result="shape"/>
</filter>
<filter id="filter1_d_358_2" x="31.574" y="761.831" width="319.659" height="134.165" filterUnits="userSpaceOnUse" color-interpolation-filters="sRGB">
<feFlood flood-opacity="0" result="BackgroundImageFix"/>
<feColorMatrix in="SourceAlpha" type="matrix" values="0 0 0 0 0 0 0 0 0 0 0 0 0 0 0 0 0 0 127 0" result="hardAlpha"/>
<feOffset dy="4"/>
<feGaussianBlur stdDeviation="2"/>
<feComposite in2="hardAlpha" operator="out"/>
<feColorMatrix type="matrix" values="0 0 0 0 0 0 0 0 0 0 0 0 0 0 0 0 0 0 0.25 0"/>
<feBlend mode="normal" in2="BackgroundImageFix" result="effect1_dropShadow_358_2"/>
<feBlend mode="normal" in="SourceGraphic" in2="effect1_dropShadow_358_2" result="shape"/>
</filter>
<clipPath id="clip0_358_2">
<rect width="375" height="896" fill="white"/>
</clipPath>
</defs>
</svg>
