<svg width="151" height="181" viewBox="0 0 151 181" fill="none" xmlns="http://www.w3.org/2000/svg">
<path d="M9.75 134.844H22.9922C23.6953 134.844 24.0469 135.274 24.0469 136.133V141.055C24.0469 141.915 23.6172 142.344 22.7578 142.344H11.7422C11.1328 142.313 10.8203 142.625 10.8047 143.282L10.7812 161.469C10.875 162.219 11.2656 162.641 11.9531 162.735H22.9922C23.6953 162.735 24.0469 163.008 24.0469 163.555V169.063C24.0469 169.688 23.8125 170 23.3438 170H8.34375C6.78125 169.657 5.33594 168.836 4.00781 167.54C2.52344 165.915 1.78125 163.922 1.78125 161.563L1.75781 143.047L1.78125 142.461C1.78125 140.852 2.52344 139.133 4.00781 137.305C5.77344 135.743 7.57031 134.961 9.39844 134.961L9.75 134.844ZM28.0547 134.844H36.7266C37.2734 134.844 37.5469 135.352 37.5469 136.368V152.774V161.329C37.625 162.422 38.1719 162.969 39.1875 162.969H51.375C52.2344 162.969 52.6641 163.321 52.6641 164.024V169.649L52.3125 170H34.9688C33.25 169.797 31.375 168.782 29.3438 166.954C28.1719 165.219 27.5859 163.618 27.5859 162.149V135.899C27.5859 135.305 27.7422 134.954 28.0547 134.844ZM57 134.844H64.2656C64.5781 134.954 64.7344 135.305 64.7344 135.899L64.6172 161.329C65.0234 162.579 65.6875 163.204 66.6094 163.204H68.9531C69.5312 163.204 70.1172 162.735 70.7109 161.797V135.899C70.7109 135.305 70.8672 134.954 71.1797 134.844H78.4453C78.9922 134.844 79.2656 135.157 79.2656 135.782V162.032C79.2656 164.938 77.8984 167.282 75.1641 169.063L72.4688 170H62.8594C60.2656 169.266 58.4688 168.094 57.4688 166.485C57.0938 166.485 56.7031 165.079 56.2969 162.266L56.1797 135.665C56.2734 135.118 56.5469 134.844 57 134.844ZM83.5078 134.844H98.5078C100.055 135.094 101.578 135.915 103.078 137.305C104.234 138.758 104.898 140.438 105.07 142.344V145.977C105.07 147.211 104.523 148.579 103.43 150.079C102.648 150.672 102.258 151.18 102.258 151.602C104.523 153.165 105.656 154.727 105.656 156.29C105.812 156.29 105.891 156.68 105.891 157.461V162.032C105.891 164.36 104.797 166.508 102.609 168.477C101.578 169.133 100.367 169.641 98.9766 170H83.2734C82.9609 169.891 82.8047 169.54 82.8047 168.946V135.782C82.8047 135.157 83.0391 134.844 83.5078 134.844ZM91.0078 141.758V148.907L91.2422 149.141H95.6953C96.2734 148.907 96.7031 148.516 96.9844 147.969V143.165C96.8594 142.071 96.3125 141.524 95.3438 141.524H91.2422L91.0078 141.758ZM91.0078 155.235V163.204L91.8281 163.321H95.1094C96.5938 163.321 97.3359 162.696 97.3359 161.446V157.461C97.3359 155.821 96.7109 155 95.4609 155H91.2422L91.0078 155.235ZM109.898 134.844H117.398C117.711 134.954 117.867 135.305 117.867 135.899V169.649L117.516 170H109.898C109.586 169.891 109.43 169.54 109.43 168.946V135.899C109.43 135.305 109.586 134.954 109.898 134.844ZM121.734 134.844H132.984C133.422 135.188 134.477 138 136.148 143.282L140.016 154.766H140.367L140.344 135.758C140.484 135.149 140.648 134.844 140.836 134.844H148.805L149.156 135.196V169.649L148.805 170H137.906C137.406 170 137.055 169.454 136.852 168.36L130.641 149.961H130.289V151.016V169.063C130.289 169.688 130.055 170 129.586 170H121.734L121.383 169.649V135.196L121.734 134.844Z" fill="white"/>
<path d="M105.339 11.5986C103.58 10.1196 101.997 9.21319 100.28 8.06643C91.271 2.66329 81.0478 -0.0802163 70.3511 0.0020405L70.2622 9.50834C75.1298 9.40189 79.7291 10.1309 84.372 11.6099L105.339 11.5986ZM43.5941 27.6032C50.8098 20.6953 60.4075 16.9695 70.3479 16.9518L70.4739 35.6144L87.3084 19.4614C87.5556 19.2114 87.7011 19.0163 87.6995 18.7614C87.6962 17.8485 83.105 14.2728 82.0691 13.4567C70.621 10.4132 58.4715 12.1277 48.334 18.2259C30.1114 29.1887 22.4012 52.5802 32.2882 71.8477C33.2885 71.0558 34.1354 70.2929 34.9385 69.3364C28.4307 55.3625 31.6483 39.5272 42.2641 28.6516C42.6714 28.2339 43.2564 28.279 43.5941 27.6016V27.6032ZM78.6512 55.2431L91.5715 42.9127L91.6313 90.6264C93.7564 89.5426 95.581 88.3249 97.4023 86.8684L97.4168 37.9837L104.691 31.1177C105.049 30.779 105.339 30.4419 105.862 30.7112C107.103 31.7467 108.159 32.8838 109.198 34.1757C109.392 34.4176 110.264 34.8773 110.271 34.4596L110.465 22.6259L110.673 13.8115C110.683 13.4147 110.458 13.0309 110.197 12.9309C109.867 12.8067 109.481 12.8035 109.141 13.1196L90.7069 30.3387L39.1613 80.3766C41.1733 82.8653 43.5246 84.9878 46.0263 86.9507L54.071 79.2685L54.1389 91.8651C55.9602 92.6909 57.7685 93.357 59.8662 93.9232L59.905 73.5864L72.7994 61.014L72.8124 95.7199C74.784 95.7473 76.6764 95.5554 78.6059 95.1264L78.6496 55.2415L78.6512 55.2431ZM26.2765 53.198C26.5625 42.0675 30.9986 31.9483 38.5553 23.9807L31.1537 16.9066C21.7677 26.7903 16.3571 39.6272 16 53.1431L26.2765 53.198ZM68.8999 97.6312L68.832 110.487C75.4869 110.587 81.9463 109.649 88.2279 107.628C93.7694 105.789 98.8373 103.267 103.566 99.8586C112.572 93.4554 119.581 84.562 123.489 74.2525C130.813 54.927 126.506 32.9902 112.26 17.7856L112.007 37.8418C115.04 45.2594 116.082 53.1948 114.776 61.0914C112.464 74.7912 103.634 86.5168 91.1853 92.6748C87.6655 94.4957 84.0391 95.7715 80.1509 96.6296C76.3822 97.4021 72.6993 97.5667 68.8983 97.6312H68.8999ZM68.9322 37.1579L68.9435 21.8904C61.0006 22.2936 53.4666 25.3565 47.7975 30.8499L61.5145 44.1739L68.9322 37.1563V37.1579ZM52.0913 53.2254L60.2977 45.3723L43.6685 29.1451C37.2107 35.3225 33.072 44.3175 32.9055 53.1786L52.0897 53.2254H52.0913ZM50.2458 54.848L32.9201 54.8012C33.0057 59.5527 33.9269 64.2075 36.1037 68.4816L50.2442 54.848H50.2458ZM67.2402 96.7763C57.5132 95.9763 48.6944 92.0845 41.5724 85.7136C37.7149 82.3411 34.7268 78.2831 32.1234 73.8928C31.9828 73.6573 31.8373 73.4444 31.6676 73.4509C31.0067 73.4767 28.6214 75.8283 27.6873 76.5895C33.0768 86.3233 41.5191 93.8667 51.8118 98.1844C56.7714 100.265 61.8862 101.591 67.2919 101.934L67.2418 96.7763H67.2402Z" fill="white" fill-opacity="0.9"/>
<path d="M78.6511 55.243L78.6075 95.1278C76.6795 95.5569 74.7855 95.7488 72.8139 95.7214L72.801 61.0155L59.9065 73.5878L59.8677 93.9246C57.7685 93.3585 55.9601 92.6924 54.1404 91.8666L54.0726 79.27L46.0278 86.9522C43.5262 84.9893 41.1748 82.8651 39.1628 80.3781L90.7085 30.3401L109.143 13.1211C109.481 12.8049 109.868 12.8082 110.198 12.9323C110.46 13.0307 110.685 13.4162 110.675 13.813L110.466 22.6274L110.272 34.461C110.266 34.8788 109.393 34.4191 109.199 34.1772C108.159 32.8853 107.105 31.7482 105.864 30.7127C105.34 30.445 105.051 30.7805 104.692 31.1192L97.4184 37.9852L97.4038 86.8699C95.5825 88.3263 93.758 89.5441 91.6329 90.6279L91.5731 42.9141L78.6527 55.2446L78.6511 55.243Z" fill="white" fill-opacity="0.9"/>
<path d="M68.8999 97.6309C72.7008 97.5664 76.3838 97.4019 80.1525 96.6293C84.0407 95.7713 87.6671 94.4955 91.1869 92.6746C103.635 86.5166 112.465 74.791 114.778 61.0912C116.084 53.1945 115.043 45.2576 112.008 37.8415L112.262 17.7854C126.507 32.9916 130.814 54.9284 123.49 74.2523C119.583 84.5618 112.574 93.4552 103.567 99.8583C98.8389 103.266 93.771 105.789 88.2295 107.628C81.9479 109.648 75.4885 110.587 68.8336 110.487L68.9015 97.6309H68.8999Z" fill="white" fill-opacity="0.9"/>
<path d="M43.5942 27.603C43.2564 28.2804 42.6714 28.2352 42.2641 28.653C31.6499 39.5286 28.4307 55.3654 34.9386 69.3378C34.1354 70.2942 33.2886 71.0571 32.2882 71.8491C22.4012 52.5816 30.1114 29.1901 48.334 18.2273C58.4715 12.1274 70.6227 10.4145 82.0692 13.458C83.1051 14.2742 87.6963 17.8499 87.6995 18.7628C87.6995 19.0176 87.5557 19.2128 87.3084 19.4628L70.474 35.6158L70.3479 16.9531C60.4076 16.9709 50.8098 20.695 43.5942 27.6046V27.603Z" fill="white" fill-opacity="0.9"/>
<path d="M52.0914 53.2253L32.9072 53.1785C33.0737 44.319 37.2124 35.324 43.6701 29.145L60.2993 45.3722L52.093 53.2253H52.0914Z" fill="white" fill-opacity="0.9"/>
<path d="M26.2765 53.1979L16 53.143C16.3571 39.6255 21.7677 26.7902 31.1537 16.9065L38.5553 23.9806C31.0002 31.9482 26.5641 42.0674 26.2765 53.1979Z" fill="white" fill-opacity="0.9"/>
<path d="M68.9322 37.1577L61.5146 44.1754L47.7975 30.8514C53.4666 25.3579 61.0006 22.2951 68.9436 21.8918L68.9322 37.1594V37.1577Z" fill="white" fill-opacity="0.9"/>
<path d="M105.339 11.5985L84.3721 11.6097C79.7292 10.1307 75.1315 9.40172 70.2623 9.50817L70.3512 0.0018654C81.0479 -0.0820043 91.271 2.66311 100.279 8.06464C101.995 9.2114 103.579 10.1178 105.337 11.5968L105.339 11.5985Z" fill="white" fill-opacity="0.9"/>
<path d="M67.2402 96.7763L67.2903 101.934C61.8846 101.591 56.7682 100.265 51.8101 98.1843C41.5175 93.8666 33.0752 86.3232 27.6857 76.5895C28.6197 75.8282 31.005 73.4766 31.666 73.4508C31.8373 73.4444 31.9828 73.6557 32.1217 73.8928C34.7236 78.2814 37.7117 82.341 41.5708 85.7135C48.6928 92.0844 57.5116 95.9763 67.2386 96.7763H67.2402Z" fill="white" fill-opacity="0.9"/>
<path d="M50.2459 54.8478L36.1054 68.4815C33.9286 64.2057 33.0074 59.5526 32.9218 54.801L50.2475 54.8478H50.2459Z" fill="white" fill-opacity="0.9"/>
</svg>
