<svg width="320" height="135" viewBox="0 0 320 135" fill="none" xmlns="http://www.w3.org/2000/svg">
<g opacity="0.66" filter="url(#filter0_d_358_6)">
<path d="M314.807 41.8451C309.986 48.5284 302.784 53.6135 294.186 55.4311C281.452 58.127 270.838 50.6747 261.798 44.5606C252.289 38.1369 239.726 38.6852 229.435 46.3722C209.634 61.1717 212.541 82.9843 196.042 104.039C184.058 119.34 164.951 128.88 145.271 125.476C130.291 122.891 120.455 112.588 118.304 99.1915C116.167 85.9043 120.211 75.8032 119.407 63.3581C119.018 57.3311 114.34 53.2334 107.478 53.2702C101.802 53.2969 96.1059 54.5929 90.55 56.5474L72.9946 62.715C62.9273 66.2508 52.4826 68.4421 42.1401 67.5619C26.2546 66.2059 13.9064 57.4528 7.4814 45.1767C3.4616 37.4966 2.80258 29.2313 6.13525 20.6109L23.2107 1.4381C23.7557 0.824784 25.1904 0.111509 25.8004 0.0137242C28.9874 -0.495711 32.1011 13.264 49.5901 21.0351C76.0692 32.8012 93.1846 4.02624 124.206 10.7822C137.169 13.6018 146.688 22.3158 149.589 33.9374L153.599 50.0527C154.916 55.3336 157.29 60.2451 161.385 63.7907C165.841 67.6391 172.185 66.9183 176.908 62.3955C180.785 58.6846 183.754 53.9825 185.665 49.1186L192.829 30.9465C195.209 24.9006 198.959 19.3707 204.716 15.3468C213.741 9.02885 224.301 8.75115 232.55 14.0008C241.553 19.7444 254.709 27.7901 265.187 16.9006C273.315 8.44861 281.971 15.3673 289.607 20.3558L313.999 36.3087C315.868 37.5326 316.193 39.9133 314.798 41.8484L314.807 41.8451Z" fill="#000072"/>
</g>
<defs>
<filter id="filter0_d_358_6" x="0" y="0" width="319.659" height="134.165" filterUnits="userSpaceOnUse" color-interpolation-filters="sRGB">
<feFlood flood-opacity="0" result="BackgroundImageFix"/>
<feColorMatrix in="SourceAlpha" type="matrix" values="0 0 0 0 0 0 0 0 0 0 0 0 0 0 0 0 0 0 127 0" result="hardAlpha"/>
<feOffset dy="4"/>
<feGaussianBlur stdDeviation="2"/>
<feComposite in2="hardAlpha" operator="out"/>
<feColorMatrix type="matrix" values="0 0 0 0 0 0 0 0 0 0 0 0 0 0 0 0 0 0 0.25 0"/>
<feBlend mode="normal" in2="BackgroundImageFix" result="effect1_dropShadow_358_6"/>
<feBlend mode="normal" in="SourceGraphic" in2="effect1_dropShadow_358_6" result="shape"/>
</filter>
</defs>
</svg>
