<svg width="235" height="255" viewBox="0 0 235 255" fill="none" xmlns="http://www.w3.org/2000/svg">
<g filter="url(#filter0_d_349_6)">
<path d="M25.5266 17.7378C40.5166 2.73969 59.6124 -8.47051 77.7752 8.53949C94.7895 24.4728 101.422 43.3282 95.698 65.9042C92.1761 79.7645 75.552 105.575 94.6762 115.023C112.865 124.014 123.017 91.2162 144.097 95.545C162.581 99.338 167.499 123.028 163.114 138.694C159.115 152.956 136.584 177.549 154.087 189.776C165.746 197.915 177.854 182.63 186.335 176.367C217.85 153.084 242.281 207.02 224.666 234.647C213.477 252.188 193.464 251.308 190.93 228.502C190.654 226.05 191.556 218.276 189.098 217.495C187.482 216.976 178.677 222.664 176.571 223.702C153.456 235.047 125.995 225.537 116.561 200.818C110.805 185.727 115.484 168.9 118.714 153.809C118.91 152.91 118.346 152.13 117.618 151.668C116.254 150.805 106.149 154.781 103.708 155.318C82.4555 159.978 61.6604 140.905 54.9557 121.923C47.1942 99.9371 57.2848 81.4634 59.6682 60.206C60.3851 53.7617 61.3399 44.923 53.7981 54.8202C47.0237 63.7111 44.5341 74.072 35.2167 81.7525C23.9339 91.0653 10.7416 87.7666 5.69421 73.7071C-0.865709 55.4549 12.8731 30.3915 25.5203 17.7306L25.5266 17.7378Z" fill="#FA9621"/>
</g>
<defs>
<filter id="filter0_d_349_6" x="0" y="0" width="234.573" height="254.82" filterUnits="userSpaceOnUse" color-interpolation-filters="sRGB">
<feFlood flood-opacity="0" result="BackgroundImageFix"/>
<feColorMatrix in="SourceAlpha" type="matrix" values="0 0 0 0 0 0 0 0 0 0 0 0 0 0 0 0 0 0 127 0" result="hardAlpha"/>
<feOffset dy="4"/>
<feGaussianBlur stdDeviation="2"/>
<feComposite in2="hardAlpha" operator="out"/>
<feColorMatrix type="matrix" values="0 0 0 0 0 0 0 0 0 0 0 0 0 0 0 0 0 0 0.25 0"/>
<feBlend mode="normal" in2="BackgroundImageFix" result="effect1_dropShadow_349_6"/>
<feBlend mode="normal" in="SourceGraphic" in2="effect1_dropShadow_349_6" result="shape"/>
</filter>
</defs>
</svg>
