<svg width="230" height="170" viewBox="0 0 230 170" fill="none" xmlns="http://www.w3.org/2000/svg">
<g filter="url(#filter0_d_358_225)">
<path d="M120.049 10.0587C120.271 10.0899 120.385 10.2861 120.631 10.3571L126.665 12.094L136.525 14.9012C136.465 15.0078 136.63 15.032 136.699 15.0277L136.976 15.0135C138.102 15.5294 139.339 15.7938 140.677 16.1349C141.926 14.2474 143.766 13.0861 145.962 12.5403C147.385 12.1864 148.849 12.4863 150.224 12.691C150.397 12.8587 150.681 13.0023 150.952 13.1074C152.511 13.7129 153.658 14.7619 154.593 16.1406C156.736 19.3031 156.372 23.506 153.762 26.3146C153.618 26.4695 153.506 26.5847 153.484 26.7439C153.434 26.7382 153.38 26.7666 153.33 26.7652L152.057 27.8127L153.74 34.4021C153.74 34.4831 153.738 34.5812 153.758 34.6608L156.094 43.9336C156.101 44.063 156.107 44.2094 156.138 44.3359L158.482 53.7239L159.515 57.9808C162.312 58.2054 164.647 59.7035 165.979 61.8469C167.527 64.3385 167.715 67.2096 166.501 69.7652C166.298 70.1902 166.023 70.5128 165.943 70.9094C163.176 74.8394 157.723 75.8898 153.711 72.777L135.528 90.1146L134.89 90.8694C134.489 91.3441 133.799 91.6142 133.499 92.2921C135.375 96.5235 133.588 101.369 129.457 103.32C125.428 105.225 120.687 103.586 118.485 99.6718C117.924 98.7891 117.69 96.7879 117.429 96.4155C117.403 96.3785 117.421 96.3103 117.402 96.2677C117.476 96.2364 117.586 96.1241 117.548 96.0502C117.485 95.9294 117.335 95.9649 117.255 95.9749C116.733 96.0374 116.299 95.6863 115.791 95.6536L115.666 95.6451C114.312 95.1192 112.881 94.7027 111.38 94.292L108.221 93.425C107.061 93.1066 106.006 92.6361 104.9 92.44L90.5398 88.2896C89.4811 90.7173 87.4152 92.3291 85.2792 92.9374C82.467 93.7377 79.7975 93.1307 77.6616 91.4578C77.5046 91.3341 77.3819 91.2645 77.2535 91.2475C76.981 90.6064 76.2291 90.2298 75.8795 89.6555C73.4597 85.6672 74.3414 80.5248 78.4635 77.9095L76.6386 70.4602L76.2633 69.1128L73.5624 58.4058C73.3256 57.4677 73.3241 56.3292 72.829 55.4664C72.8504 55.3101 72.772 55.0926 72.7677 54.9377C72.7549 54.4417 72.4495 53.9882 72.3468 53.4567C72.09 52.1348 71.8574 50.8357 71.3637 49.629C71.368 49.5835 71.3566 49.5352 71.3552 49.4883C71.3309 48.9282 71.1925 48.3768 70.9771 47.713C68.3917 47.4245 65.9833 46.1467 64.5879 43.9422C62.4791 40.6134 62.8914 36.4687 65.5253 33.6672C68.0892 30.9397 72.2127 30.2617 75.5999 32.081C75.861 31.9161 76.0308 31.7825 76.1849 31.6319L80.9889 26.9684L84.3732 23.7974L87.6591 20.5468L94.0455 14.489C94.9458 13.6348 95.8575 12.8985 96.6922 11.9533C96.2884 10.9655 95.8718 10.0061 95.8889 9.02676L95.9203 7.26003L95.9288 6.96154C95.9602 6.13148 97.1516 3.71945 97.5297 3.27599C99.8839 0.507205 103.411 -0.757794 106.972 0.468829C110.13 1.55616 112.517 4.52962 112.592 8.08157C115.182 8.67 117.555 9.69764 120.05 10.0544L120.049 10.0587ZM120.779 31.4713L124.616 40.8337C124.509 41.0341 124.74 41.1521 124.774 41.297C124.823 41.4946 124.898 41.6836 124.963 41.8755C127.664 49.9459 129.667 58.2153 130.25 66.7832L130.597 71.8816C130.951 77.078 130.459 82.7236 130.237 88.1049L133.652 84.894L134.663 83.7896C135.729 82.627 137.005 81.6349 138.225 80.4722L145.431 73.6085L149.312 69.8476C149.682 69.4895 150.123 69.2123 150.365 68.7305L139.7 68.6665C138.453 68.6594 137.292 68.4505 136.123 68.4903C135.933 68.4974 135.699 68.4689 135.514 68.432C135.111 68.351 134.706 68.3112 134.297 68.2898L134.05 68.277L132.174 68.0766L131.985 67.0661C131.995 66.9367 131.957 66.8017 131.975 66.6738C132.075 65.9475 131.582 64.0301 131.656 62.947L135.514 63.2853C136.09 63.3364 136.779 63.5312 137.27 63.3038C137.38 63.2895 137.611 63.2711 137.717 63.308C139.154 63.8026 148.856 63.7671 151.047 63.4956C151.267 63.3336 151.31 62.8859 151.407 62.6812C152.082 61.2726 153.145 60.0887 154.497 59.1605L151.294 46.0983L147.155 29.4131C147.091 29.1559 147.002 29.1516 146.843 29.1118C144.781 28.6101 142.79 27.915 141.398 26.1952C140.853 26.1654 140.57 26.6387 140.232 26.7524C138.376 27.3764 136.647 28.3557 134.9 29.2355C133.486 29.9476 132.052 30.6199 130.623 31.4656L127.868 33.093C127.126 33.5308 126.434 33.9529 125.79 34.422C125.345 34.746 124.901 35.0374 124.269 35.3601L122.195 30.6312C123.907 29.4131 125.7 28.3784 127.544 27.3394C127.701 27.2513 127.781 27.1205 127.87 27.0409C128.664 26.7495 129.567 26.2123 130.33 25.729C130.653 25.5243 130.744 25.2543 131.181 25.2344C131.457 25.223 135.184 23.2004 135.071 23.2459C136.513 22.666 137.996 22.1287 139.453 21.266C138.356 20.7429 137.374 20.3833 136.397 20.3137L135.96 20.2824C135.928 20.2796 135.868 20.2753 135.836 20.2881C134.338 19.5561 132.423 19.1482 130.584 18.6223L128.457 18.0139L122.577 16.2927C122.198 16.1818 121.819 16.1847 121.514 16.071C121.243 16.0766 121.049 15.8606 120.729 15.7682L111.241 13.0392C110.962 13.1515 110.565 13.622 110.683 13.9105C114.563 19.5433 117.842 25.4121 120.776 31.4684L120.779 31.4713ZM98.6055 17.3488C98.2845 17.6757 97.9691 17.9898 97.601 18.3352L90.1774 25.3026L86.3679 29.1076L79.1811 35.9016C80.0101 37.684 80.1699 39.6142 79.6848 41.5642C84.8954 45.5369 90.263 49.0178 96.0687 52.0453L92.8684 56.2084C87.2525 53.2491 81.9734 49.7455 76.961 45.9505C76.7014 45.9519 75.9951 46.303 76.065 46.5873L80.772 65.4699L83.2432 75.5075C87.1355 67.6076 91.7555 60.3559 97.076 53.495L97.6709 52.7275C98.8595 51.1953 104.397 44.967 105.714 43.8526C105.881 43.7105 105.915 43.4973 105.921 43.3367C106.169 43.4347 106.603 42.9401 106.978 42.5933L109.692 40.0832C110.548 39.2915 111.387 38.5695 112.25 37.8886L114.459 36.1461C114.627 36.0139 114.81 35.886 115.091 35.6799L117.165 40.6176C115.169 42.1669 113.289 43.7673 111.532 45.5085L108.977 48.0427C107.746 49.2637 106.471 50.4121 105.274 51.7837C102.364 55.1196 99.6085 58.43 97.1059 62.0985C94.0169 66.6254 91.1362 71.1979 88.7977 76.0703C88.4667 76.7611 87.9445 77.3737 87.6948 78.1938C88.7349 78.8632 89.4498 79.7843 90.1289 80.7025C90.3843 81.4615 90.8708 82.2119 91.0863 83.0548L99.4316 85.4057C101.615 86.0212 105.467 87.3359 107.527 87.785L115.633 90.0933C115.67 90.1004 115.703 90.1644 115.797 90.1985L119.021 91.1295C120.106 89.4992 121.588 88.4488 123.45 87.8021C123.915 87.6415 124.428 87.6543 125.004 87.532C125.539 82.4763 125.639 77.4661 125.472 72.3805C125.458 71.9313 125.483 71.5817 125.197 71.1922C125.325 71.1553 125.423 70.9719 125.408 70.7388C125.031 65.1302 124.381 59.5542 122.995 54.1858C122.66 52.8839 122.621 51.4469 121.995 50.2316C121.979 50.0824 121.989 49.9203 121.954 49.7739C121.936 49.7 121.852 49.5721 121.788 49.5309C121.859 48.9894 121.543 48.4919 121.373 47.9248C121.212 47.3832 121.023 46.5091 120.819 46.1097C120.751 45.9775 120.674 45.7018 120.631 45.5568C119.478 41.5301 117.869 37.5887 116.072 33.8051C115.503 32.6055 115.006 31.3604 114.319 30.1551C114.061 29.7031 113.755 29.2682 113.561 28.8546C111.644 24.7554 109.135 20.949 106.651 17.0858C106.543 16.9181 106.393 16.422 106.158 16.4604C104.16 16.8314 102.165 16.6665 100.34 15.6772C99.647 16.1875 99.1534 16.793 98.6069 17.3502L98.6055 17.3488Z" fill="black" fill-opacity="0.9"/>
<g filter="url(#filter1_d_358_225)">
<path d="M11.9922 123.844H25.2344C25.9375 123.844 26.2891 124.273 26.2891 125.133V130.055C26.2891 130.914 25.8594 131.344 25 131.344H13.9844C13.375 131.312 13.0625 131.625 13.0469 132.281L13.0234 150.469C13.1172 151.219 13.5078 151.641 14.1953 151.734H25.2344C25.9375 151.734 26.2891 152.008 26.2891 152.555V158.062C26.2891 158.688 26.0547 159 25.5859 159H10.5859C9.02344 158.656 7.57812 157.836 6.25 156.539C4.76562 154.914 4.02344 152.922 4.02344 150.562L4 132.047L4.02344 131.461C4.02344 129.852 4.76562 128.133 6.25 126.305C8.01562 124.742 9.8125 123.961 11.6406 123.961L11.9922 123.844ZM30.2969 123.844H38.9688C39.5156 123.844 39.7891 124.352 39.7891 125.367V141.773V150.328C39.8672 151.422 40.4141 151.969 41.4297 151.969H53.6172C54.4766 151.969 54.9062 152.32 54.9062 153.023V158.648L54.5547 159H37.2109C35.4922 158.797 33.6172 157.781 31.5859 155.953C30.4141 154.219 29.8281 152.617 29.8281 151.148V124.898C29.8281 124.305 29.9844 123.953 30.2969 123.844ZM59.2422 123.844H66.5078C66.8203 123.953 66.9766 124.305 66.9766 124.898L66.8594 150.328C67.2656 151.578 67.9297 152.203 68.8516 152.203H71.1953C71.7734 152.203 72.3594 151.734 72.9531 150.797V124.898C72.9531 124.305 73.1094 123.953 73.4219 123.844H80.6875C81.2344 123.844 81.5078 124.156 81.5078 124.781V151.031C81.5078 153.938 80.1406 156.281 77.4062 158.062L74.7109 159H65.1016C62.5078 158.266 60.7109 157.094 59.7109 155.484C59.3359 155.484 58.9453 154.078 58.5391 151.266L58.4219 124.664C58.5156 124.117 58.7891 123.844 59.2422 123.844ZM85.75 123.844H100.75C102.297 124.094 103.82 124.914 105.32 126.305C106.477 127.758 107.141 129.438 107.312 131.344V134.977C107.312 136.211 106.766 137.578 105.672 139.078C104.891 139.672 104.5 140.18 104.5 140.602C106.766 142.164 107.898 143.727 107.898 145.289C108.055 145.289 108.133 145.68 108.133 146.461V151.031C108.133 153.359 107.039 155.508 104.852 157.477C103.82 158.133 102.609 158.641 101.219 159H85.5156C85.2031 158.891 85.0469 158.539 85.0469 157.945V124.781C85.0469 124.156 85.2812 123.844 85.75 123.844ZM93.25 130.758V137.906L93.4844 138.141H97.9375C98.5156 137.906 98.9453 137.516 99.2266 136.969V132.164C99.1016 131.07 98.5547 130.523 97.5859 130.523H93.4844L93.25 130.758ZM93.25 144.234V152.203L94.0703 152.32H97.3516C98.8359 152.32 99.5781 151.695 99.5781 150.445V146.461C99.5781 144.82 98.9531 144 97.7031 144H93.4844L93.25 144.234ZM112.727 123.844H124.094C124.469 124.109 125.016 126.297 125.734 130.406L129.133 148.336H129.719C129.875 148.336 131.125 141.93 133.469 129.117C134.031 125.602 134.461 123.844 134.758 123.844H147.297L147.648 124.195V156.656C147.711 158.375 147.477 159.156 146.945 159H140.383C139.836 159 139.562 158.375 139.562 157.125V135.094L139.234 134.625H138.742C138.367 134.625 136.648 142.672 133.586 158.766L133.234 159H125.852C125.477 159 123.758 150.992 120.695 134.977L120.227 134.555C119.695 134.57 119.422 134.75 119.406 135.094V157.711C119.438 158.602 119.242 159.031 118.82 159H112.141C111.828 158.891 111.672 158.539 111.672 157.945V124.898C111.766 124.195 112.117 123.844 112.727 123.844ZM151.75 123.844H172.023L172.375 124.195V129.469C172.375 130.016 172.102 130.289 171.555 130.289H159.953C159.484 130.289 159.25 130.523 159.25 130.992V137.086L159.602 137.438H169.445C170.148 137.438 170.5 137.711 170.5 138.258V143.297C170.5 143.766 170.266 144 169.797 144H159.953C159.484 144 159.25 144.234 159.25 144.703V150.562C159.25 151.891 160.266 152.555 162.297 152.555H172.141C172.688 152.555 172.961 152.828 172.961 153.375V158.648L172.609 159H157.492C155.258 158.406 153.578 157.234 152.453 155.484C151.672 153.906 151.281 152.383 151.281 150.914V125.25C151.281 124.312 151.438 123.844 151.75 123.844ZM176.852 123.844H192.789C194.82 124.328 196.461 125.344 197.711 126.891C198.648 127.938 199.117 129.891 199.117 132.75V135.445C199.117 138.117 198.648 139.875 197.711 140.719L197.242 141.305V141.539C198.57 142.789 199.234 144.508 199.234 146.695V158.297C199.031 158.766 198.719 159 198.297 159H191.734C191.109 159 190.797 158.648 190.797 157.945V146.578C190.562 145.25 189.898 144.586 188.805 144.586H185.523L185.055 145.055V157.711C185.055 158.57 184.742 159 184.117 159H177.508C177.055 159 176.742 158.648 176.57 157.945L176.5 124.195L176.852 123.844ZM185.055 130.992V137.906L185.406 138.258H189.039C189.961 138.258 190.547 137.555 190.797 136.148V132.398C190.516 131.148 189.734 130.523 188.453 130.523H185.523L185.055 130.992ZM210.742 123.844H223.984C224.688 123.844 225.039 124.273 225.039 125.133V130.055C225.039 130.914 224.609 131.344 223.75 131.344H212.734C212.125 131.312 211.812 131.625 211.797 132.281L211.773 150.469C211.867 151.219 212.258 151.641 212.945 151.734H223.984C224.688 151.734 225.039 152.008 225.039 152.555V158.062C225.039 158.688 224.805 159 224.336 159H209.336C207.773 158.656 206.328 157.836 205 156.539C203.516 154.914 202.773 152.922 202.773 150.562L202.75 132.047L202.773 131.461C202.773 129.852 203.516 128.133 205 126.305C206.766 124.742 208.562 123.961 210.391 123.961L210.742 123.844Z" fill="black"/>
</g>
<path d="M108.255 57.5473C110.573 58.447 114.37 59.5415 116.781 60.1725C116.724 60.2862 116.903 60.2919 116.974 60.2948L117.224 60.3033C117.277 60.3047 117.331 60.3317 117.382 60.3445L117.823 60.4511C119.424 60.8391 121.036 61.2016 122.698 61.6081C122.827 62.603 122.922 63.4587 123.096 64.3044C123.27 65.1501 123.125 66.0285 123.409 66.9367C122.887 66.8898 122.586 66.806 122.218 66.9325C122.237 66.8856 122.245 66.8358 122.239 66.7861C119.09 66.0285 115.897 65.4173 112.731 64.4152C112.632 64.4934 112.572 64.4536 112.54 64.4607L106.082 62.2207C105.888 62.1539 105.604 62.0771 105.46 62.0928L100.804 60.0659C101.813 58.5892 102.912 57.2929 104.066 55.9227L108.255 57.5487V57.5473Z" fill="black" fill-opacity="0.9"/>
</g>
<defs>
<filter id="filter0_d_358_225" x="0" y="0" width="229.039" height="167.234" filterUnits="userSpaceOnUse" color-interpolation-filters="sRGB">
<feFlood flood-opacity="0" result="BackgroundImageFix"/>
<feColorMatrix in="SourceAlpha" type="matrix" values="0 0 0 0 0 0 0 0 0 0 0 0 0 0 0 0 0 0 127 0" result="hardAlpha"/>
<feOffset dy="4"/>
<feGaussianBlur stdDeviation="2"/>
<feComposite in2="hardAlpha" operator="out"/>
<feColorMatrix type="matrix" values="0 0 0 0 0 0 0 0 0 0 0 0 0 0 0 0 0 0 0.25 0"/>
<feBlend mode="normal" in2="BackgroundImageFix" result="effect1_dropShadow_358_225"/>
<feBlend mode="normal" in="SourceGraphic" in2="effect1_dropShadow_358_225" result="shape"/>
</filter>
<filter id="filter1_d_358_225" x="0" y="123.844" width="229.039" height="43.3906" filterUnits="userSpaceOnUse" color-interpolation-filters="sRGB">
<feFlood flood-opacity="0" result="BackgroundImageFix"/>
<feColorMatrix in="SourceAlpha" type="matrix" values="0 0 0 0 0 0 0 0 0 0 0 0 0 0 0 0 0 0 127 0" result="hardAlpha"/>
<feOffset dy="4"/>
<feGaussianBlur stdDeviation="2"/>
<feComposite in2="hardAlpha" operator="out"/>
<feColorMatrix type="matrix" values="0 0 0 0 0 0 0 0 0 0 0 0 0 0 0 0 0 0 0.25 0"/>
<feBlend mode="normal" in2="BackgroundImageFix" result="effect1_dropShadow_358_225"/>
<feBlend mode="normal" in="SourceGraphic" in2="effect1_dropShadow_358_225" result="shape"/>
</filter>
</defs>
</svg>
