<svg width="187" height="224" viewBox="0 0 187 224" fill="none" xmlns="http://www.w3.org/2000/svg">
<path d="M9.75 164.271H22.9922C23.6953 164.271 24.0469 164.701 24.0469 165.56V170.482C24.0469 171.341 23.6172 171.771 22.7578 171.771H11.7422C11.1328 171.74 10.8203 172.052 10.8047 172.708L10.7812 190.896C10.875 191.646 11.2656 192.068 11.9531 192.162H22.9922C23.6953 192.162 24.0469 192.435 24.0469 192.982V198.49C24.0469 199.115 23.8125 199.427 23.3438 199.427H8.34375C6.78125 199.083 5.33594 198.263 4.00781 196.966C2.52344 195.341 1.78125 193.349 1.78125 190.99L1.75781 172.474L1.78125 171.888C1.78125 170.279 2.52344 168.56 4.00781 166.732C5.77344 165.169 7.57031 164.388 9.39844 164.388L9.75 164.271ZM28.0547 164.271H36.7266C37.2734 164.271 37.5469 164.779 37.5469 165.794V182.201V190.755C37.625 191.849 38.1719 192.396 39.1875 192.396H51.375C52.2344 192.396 52.6641 192.748 52.6641 193.451V199.076L52.3125 199.427H34.9688C33.25 199.224 31.375 198.208 29.3438 196.38C28.1719 194.646 27.5859 193.044 27.5859 191.576V165.326C27.5859 164.732 27.7422 164.38 28.0547 164.271ZM57 164.271H64.2656C64.5781 164.38 64.7344 164.732 64.7344 165.326L64.6172 190.755C65.0234 192.005 65.6875 192.63 66.6094 192.63H68.9531C69.5312 192.63 70.1172 192.162 70.7109 191.224V165.326C70.7109 164.732 70.8672 164.38 71.1797 164.271H78.4453C78.9922 164.271 79.2656 164.583 79.2656 165.208V191.458C79.2656 194.365 77.8984 196.708 75.1641 198.49L72.4688 199.427H62.8594C60.2656 198.693 58.4688 197.521 57.4688 195.912C57.0938 195.912 56.7031 194.505 56.2969 191.693L56.1797 165.091C56.2734 164.544 56.5469 164.271 57 164.271ZM83.5078 164.271H98.5078C100.055 164.521 101.578 165.341 103.078 166.732C104.234 168.185 104.898 169.865 105.07 171.771V175.404C105.07 176.638 104.523 178.005 103.43 179.505C102.648 180.099 102.258 180.607 102.258 181.029C104.523 182.591 105.656 184.154 105.656 185.716C105.812 185.716 105.891 186.107 105.891 186.888V191.458C105.891 193.787 104.797 195.935 102.609 197.904C101.578 198.56 100.367 199.068 98.9766 199.427H83.2734C82.9609 199.318 82.8047 198.966 82.8047 198.373V165.208C82.8047 164.583 83.0391 164.271 83.5078 164.271ZM91.0078 171.185V178.333L91.2422 178.568H95.6953C96.2734 178.333 96.7031 177.943 96.9844 177.396V172.591C96.8594 171.498 96.3125 170.951 95.3438 170.951H91.2422L91.0078 171.185ZM91.0078 184.662V192.63L91.8281 192.748H95.1094C96.5938 192.748 97.3359 192.123 97.3359 190.873V186.888C97.3359 185.248 96.7109 184.427 95.4609 184.427H91.2422L91.0078 184.662ZM109.898 164.271H117.398C117.711 164.38 117.867 164.732 117.867 165.326V199.076L117.516 199.427H109.898C109.586 199.318 109.43 198.966 109.43 198.373V165.326C109.43 164.732 109.586 164.38 109.898 164.271ZM121.734 164.271H132.984C133.422 164.615 134.477 167.427 136.148 172.708L140.016 184.193H140.367L140.344 165.185C140.484 164.576 140.648 164.271 140.836 164.271H148.805L149.156 164.623V199.076L148.805 199.427H137.906C137.406 199.427 137.055 198.88 136.852 197.787L130.641 179.388H130.289V180.443V198.49C130.289 199.115 130.055 199.427 129.586 199.427H121.734L121.383 199.076V164.623L121.734 164.271Z" fill="white"/>
<path d="M129.941 14.3071C127.772 12.4827 125.818 11.3646 123.701 9.95C112.587 3.28499 99.9767 -0.0992515 86.7819 0.00221589L86.6722 11.7287C92.6766 11.5974 98.35 12.4966 104.077 14.3211L129.941 14.3071ZM53.7759 34.0495C62.6768 25.5282 74.516 20.9324 86.7779 20.9105L86.9334 43.9316L107.699 24.0062C108.004 23.6978 108.184 23.4571 108.182 23.1428C108.178 22.0167 102.514 17.6058 101.237 16.5991C87.1148 12.8448 72.1278 14.9597 59.6228 22.4822C37.1443 36.0052 27.6335 64.8598 39.8295 88.627C41.0635 87.6502 42.1081 86.7091 43.0988 85.5293C35.0711 68.2918 39.0401 48.7583 52.1353 35.3427C52.6376 34.8274 53.3593 34.8831 53.7759 34.0475V34.0495ZM97.0203 68.1446L112.958 52.9344L113.032 111.791C115.653 110.454 117.904 108.952 120.151 107.156L120.169 46.8543L129.141 38.3848C129.584 37.967 129.941 37.5511 130.586 37.8834C132.117 39.1607 133.419 40.5633 134.701 42.157C134.94 42.4554 136.017 43.0224 136.025 42.5071L136.264 27.9097L136.521 17.0368C136.533 16.5474 136.256 16.0739 135.933 15.9505C135.526 15.7973 135.05 15.7933 134.631 16.1833L111.892 37.4238L48.3078 99.1478C50.7897 102.218 53.6902 104.836 56.7761 107.257L66.6996 97.781L66.7833 113.319C69.03 114.338 71.2607 115.16 73.8482 115.858L73.896 90.7718L89.802 75.2632L89.8179 118.074C92.25 118.108 94.5843 117.872 96.9645 117.342L97.0184 68.1426L97.0203 68.1446ZM32.4138 65.6218C32.7667 51.8919 38.2387 39.4094 47.5602 29.581L38.4301 20.8548C26.852 33.0468 20.1779 48.8817 19.7373 65.5542L32.4138 65.6218ZM84.9917 120.432L84.908 136.291C93.1171 136.414 101.085 135.256 108.834 132.763C115.669 130.495 121.921 127.384 127.754 123.18C138.863 115.281 147.509 104.311 152.329 91.5935C161.364 67.7546 156.051 40.6946 138.479 21.9391L138.166 46.6792C141.907 55.8292 143.193 65.6178 141.582 75.3587C138.73 92.258 127.837 106.722 112.482 114.318C108.14 116.564 103.667 118.138 98.8703 119.197C94.2215 120.15 89.6784 120.353 84.9897 120.432H84.9917ZM85.0316 45.8357L85.0455 27.0025C75.2476 27.4999 65.954 31.2781 58.9609 38.0545L75.8815 54.4902L85.0316 45.8337V45.8357ZM64.2576 65.6556L74.3804 55.9685L53.8676 35.9515C45.9017 43.5715 40.7964 54.6673 40.591 65.5979L64.2556 65.6556H64.2576ZM61.981 67.6571L40.609 67.5994C40.7146 73.4607 41.8509 79.2025 44.5361 84.4748L61.979 67.6571H61.981ZM82.9444 119.378C70.9457 118.391 60.0673 113.59 51.2821 105.731C46.5236 101.571 42.8377 96.5654 39.6262 91.1498C39.4528 90.8593 39.2734 90.5967 39.064 90.6047C38.2487 90.6365 35.3063 93.5373 34.1541 94.4763C40.8024 106.483 51.2163 115.788 63.9127 121.115C70.0307 123.681 76.34 125.316 83.0082 125.74L82.9464 119.378H82.9444Z" fill="white" fill-opacity="0.9"/>
<path d="M97.0201 68.1447L96.9663 117.344C94.5881 117.874 92.2517 118.11 89.8197 118.077L89.8038 75.2653L73.8978 90.7739L73.85 115.86C71.2605 115.162 69.0298 114.34 66.7851 113.322L66.7014 97.7831L56.7779 107.259C53.692 104.838 50.7914 102.218 48.3096 99.1499L111.893 37.4259L134.633 16.1854C135.05 15.7954 135.528 15.7994 135.935 15.9526C136.258 16.074 136.535 16.5495 136.523 17.0389L136.266 27.9118L136.026 42.5092C136.018 43.0245 134.942 42.4575 134.703 42.159C133.419 40.5654 132.119 39.1628 130.588 37.8855C129.942 37.5552 129.586 37.969 129.143 38.3868L120.17 46.8564L120.152 107.158C117.906 108.954 115.655 110.457 113.034 111.794L112.96 52.9365L97.0221 68.1466L97.0201 68.1447Z" fill="white" fill-opacity="0.9"/>
<path d="M84.9919 120.432C89.6805 120.353 94.2237 120.15 98.8725 119.197C103.669 118.139 108.142 116.565 112.484 114.319C127.84 106.722 138.732 92.2584 141.585 75.3591C143.195 65.6182 141.912 55.8276 138.168 46.6796L138.481 21.9395C156.053 40.697 161.366 67.757 152.331 91.5939C147.511 104.311 138.866 115.282 127.756 123.18C121.923 127.384 115.671 130.496 108.836 132.764C101.087 135.257 93.1193 136.415 84.9102 136.291L84.9939 120.432H84.9919Z" fill="white" fill-opacity="0.9"/>
<path d="M53.7755 34.05C53.3589 34.8856 52.6372 34.8299 52.1349 35.3452C39.0417 48.7608 35.0707 68.2963 43.0985 85.5318C42.1077 86.7116 41.0631 87.6527 39.8292 88.6295C27.6331 64.8623 37.144 36.0077 59.6224 22.4847C72.1275 14.9602 87.1164 12.8473 101.236 16.6016C102.514 17.6083 108.177 22.0192 108.181 23.1452C108.181 23.4596 108.004 23.7003 107.699 24.0087L86.933 43.9341L86.7775 20.913C74.5156 20.9348 62.6764 25.5287 53.7755 34.052V34.05Z" fill="white" fill-opacity="0.9"/>
<path d="M64.2573 65.6558L40.5928 65.5981C40.7981 54.6694 45.9034 43.5737 53.8693 35.9517L74.3822 55.9686L64.2593 65.6558H64.2573Z" fill="white" fill-opacity="0.9"/>
<path d="M32.4138 65.622L19.7373 65.5544C20.1779 48.8799 26.852 33.047 38.4301 20.855L47.5602 29.5812C38.2407 39.4096 32.7687 51.8921 32.4138 65.622Z" fill="white" fill-opacity="0.9"/>
<path d="M85.0316 45.8356L75.8816 54.4921L58.9609 38.0564C65.954 31.28 75.2476 27.5018 85.0456 27.0044L85.0316 45.8375V45.8356Z" fill="white" fill-opacity="0.9"/>
<path d="M129.94 14.3072L104.077 14.3211C98.3497 12.4967 92.6782 11.5974 86.6719 11.7288L86.7815 0.00230105C99.9763 -0.101156 112.587 3.28507 123.699 9.9481C125.816 11.3627 127.769 12.4808 129.938 14.3052L129.94 14.3072Z" fill="white" fill-opacity="0.9"/>
<path d="M82.9437 119.378L83.0055 125.74C76.3373 125.316 70.0259 123.681 63.91 121.115C51.2135 115.788 40.7996 106.483 34.1514 94.4763C35.3036 93.5373 38.246 90.6365 39.0613 90.6047C39.2726 90.5967 39.452 90.8573 39.6235 91.1498C42.833 96.5634 46.5189 101.571 51.2793 105.731C60.0646 113.59 70.9429 118.391 82.9417 119.378H82.9437Z" fill="white" fill-opacity="0.9"/>
<path d="M61.9804 67.6573L44.5375 84.475C41.8523 79.2007 40.716 73.4608 40.6104 67.5996L61.9824 67.6573H61.9804Z" fill="white" fill-opacity="0.9"/>
</svg>
