<svg width="329" height="172" viewBox="0 0 329 172" fill="none" xmlns="http://www.w3.org/2000/svg">
<g filter="url(#filter0_d_222_666)">
<path d="M324.055 86.0012C322.573 82.4042 318.577 79.5545 314.916 80.7977C313.217 81.3705 311.171 82.6626 309.911 81.3844C309.312 80.7768 309.249 79.8409 309.228 78.9818C308.915 65.1244 310.474 50.9178 306.472 37.6472C301.21 20.1928 285.896 6.19576 268.09 2.57078C250.284 -1.06119 230.737 5.83256 219.106 19.8436C218.11 21.0449 216.948 22.4069 215.396 22.4279C213.718 22.4488 212.493 20.9122 211.477 19.5782C201.07 5.93733 183.292 -1.64091 166.293 0.300798C149.288 2.24949 133.675 13.6553 126.602 29.2937C119.962 43.9822 120.769 60.8149 121.382 76.9353C121.444 78.5976 121.333 80.5882 119.906 81.4263C119.196 81.8454 118.319 81.8524 117.498 81.8384C114.706 81.8105 111.915 81.7895 109.117 81.7616C108.274 81.7546 107.383 81.7337 106.673 81.2727C105.4 80.4415 105.295 78.6465 105.337 77.1169C105.741 62.4493 106.639 47.2789 101.362 33.5892C93.8028 14.0185 73.0106 0.412551 52.1001 1.3834C29.1291 2.44505 6.95867 21.6805 4.30657 44.96C1.79369 67.0102 14.9498 90.3875 35.6584 98.6712C49.3087 104.133 64.5113 103.386 79.2058 102.995C80.4587 102.96 81.8579 102.981 82.7837 103.833C83.4798 104.475 83.7443 105.446 83.9322 106.375C85.9857 116.328 82.6514 127.224 75.3912 134.306C68.131 141.389 57.1815 144.427 47.3249 142.094C47.3458 149.183 47.3667 156.273 47.3806 163.369C62.5623 165.22 78.461 159.961 89.5636 149.407C100.666 138.853 106.771 123.215 105.755 107.905C105.636 106.166 105.643 104.021 107.175 103.197C107.899 102.806 108.769 102.855 109.583 102.918C112.263 103.113 114.943 103.302 117.623 103.498C118.792 103.581 120.08 103.728 120.846 104.615C121.556 105.432 121.577 106.62 121.57 107.702C121.403 126.162 121.229 144.616 121.062 163.076C127.988 164.235 135.102 164.305 142.049 163.278C142.09 144.336 142.132 125.394 142.174 106.452C142.174 105.502 142.216 104.44 142.877 103.756C143.594 103.009 144.77 102.988 145.808 103.03C157.307 103.435 168.925 104.098 180.229 101.933C191.527 99.7608 202.699 94.3757 209.333 84.9466C210.62 83.1166 212.305 80.8746 214.505 81.3076C217.4 83.1236 219.844 85.7079 222.37 88.0058C237.197 100.885 257.892 106.368 277.208 103.099C284.796 101.144 287.288 102.708 287.879 110.419C288.443 121.085 283.111 131.981 274.236 137.855C271.953 139.335 269.558 140.641 267.317 142.178C265.653 143.736 265.612 145.531 265.709 147.807C265.932 152.913 266.154 158.019 266.377 163.132C291.012 159.143 310.558 134.614 309.006 109.63C308.88 107.57 308.727 105.209 310.182 103.749C313.308 100.613 319.649 105.202 322.774 102.066C323.763 101.067 324.041 99.5862 324.271 98.1962C324.918 94.257 325.559 90.1081 324.187 86.3574C324.146 86.2527 324.104 86.1409 324.062 86.0361L324.055 86.0012ZM84.2663 79.7291L52.2393 79.5964C43.5521 79.5615 36.1039 73.7154 31.7743 67.4503C26.3239 59.5787 25.2171 50.2962 28.1128 41.5865C31.8717 30.2785 41.9372 22.9307 53.8124 22.0786C59.9589 21.6316 66.2446 23.5174 71.3608 26.87C79.9158 32.4716 84.3777 41.6843 84.3429 51.8258L84.2594 79.7361L84.2663 79.7291ZM199.142 53.0202C198.404 60.4517 194.868 67.569 189.348 72.7026C185.109 76.6419 179.819 80.1132 173.992 80.1901L148.237 80.5184C145.94 80.5463 143.956 81.0562 141.965 80.239C141.471 75.8387 141.568 71.5851 141.645 67.1639L142.007 46.4547C142.167 37.5075 148.056 29.8035 155.532 25.3404C163.607 20.5141 172.844 19.648 181.371 23.273C193.295 28.3438 200.451 39.8403 199.142 53.0202ZM256.618 82.2016C243.601 82.0759 234.155 70.8448 231.406 58.7685C231.329 55.0597 230.835 51.8119 231.552 48.2637C233.765 37.3748 241.743 28.4346 252.462 25.8643C255.379 25.1658 258.136 24.4743 260.955 24.6839C269.454 25.3264 277.069 28.7978 282.408 35.3842C285.234 39.4911 288.339 43.7307 288.374 48.9552L288.624 82.502L256.604 82.2016H256.618Z" fill="black"/>
</g>
<defs>
<filter id="filter0_d_222_666" x="0" y="0" width="329" height="172" filterUnits="userSpaceOnUse" color-interpolation-filters="sRGB">
<feFlood flood-opacity="0" result="BackgroundImageFix"/>
<feColorMatrix in="SourceAlpha" type="matrix" values="0 0 0 0 0 0 0 0 0 0 0 0 0 0 0 0 0 0 127 0" result="hardAlpha"/>
<feOffset dy="4"/>
<feGaussianBlur stdDeviation="2"/>
<feComposite in2="hardAlpha" operator="out"/>
<feColorMatrix type="matrix" values="0 0 0 0 0 0 0 0 0 0 0 0 0 0 0 0 0 0 0.7 0"/>
<feBlend mode="normal" in2="BackgroundImageFix" result="effect1_dropShadow_222_666"/>
<feBlend mode="normal" in="SourceGraphic" in2="effect1_dropShadow_222_666" result="shape"/>
</filter>
</defs>
</svg>
