<svg width="321" height="164" viewBox="0 0 321 164" fill="none" xmlns="http://www.w3.org/2000/svg">
<path d="M162.293 0.300781C179.291 -1.64092 197.07 5.93731 207.477 19.5781C208.493 20.9122 209.718 22.4486 211.396 22.4277C212.948 22.4068 214.11 21.045 215.105 19.8438C226.737 5.83274 246.284 -1.06165 264.09 2.57031C281.896 6.19535 297.209 20.1931 302.472 37.6475C306.474 50.918 304.915 65.1243 305.229 78.9814C305.249 79.8405 305.312 80.7771 305.91 81.3848C307.17 82.6628 309.217 81.3707 310.915 80.7979C314.576 79.5546 318.572 82.4041 320.055 86.001L320.062 86.0361C320.104 86.1409 320.146 86.2527 320.188 86.3574C321.559 90.1081 320.918 94.257 320.271 98.1963C320.041 99.5861 319.763 101.067 318.774 102.065C315.649 105.201 309.307 100.613 306.182 103.749C304.727 105.209 304.881 107.57 305.006 109.63C306.558 134.614 287.012 159.144 262.377 163.132C262.154 158.019 261.932 152.913 261.709 147.808C261.612 145.531 261.653 143.735 263.316 142.178C265.558 140.641 267.953 139.335 270.236 137.854C279.111 131.98 284.443 121.084 283.879 110.419C283.287 102.708 280.795 101.144 273.208 103.1C253.892 106.368 233.197 100.885 218.37 88.0059C215.843 85.708 213.4 83.1236 210.505 81.3076C208.305 80.8746 206.621 83.1164 205.333 84.9463C198.699 94.3753 187.527 99.7604 176.229 101.933C164.925 104.098 153.307 103.434 141.808 103.029C140.77 102.987 139.594 103.009 138.877 103.756C138.216 104.44 138.174 105.502 138.174 106.452C138.132 125.394 138.091 144.336 138.049 163.278C131.102 164.305 123.988 164.236 117.062 163.076C117.229 144.616 117.402 126.162 117.569 107.702C117.576 106.62 117.556 105.432 116.846 104.615C116.08 103.728 114.792 103.581 113.623 103.497C110.943 103.302 108.263 103.114 105.583 102.918C104.769 102.855 103.899 102.806 103.175 103.197C101.644 104.021 101.637 106.165 101.755 107.904C102.771 123.214 96.6661 138.854 85.5635 149.407C74.4609 159.961 58.5624 165.22 43.3809 163.369C43.3669 156.273 43.3461 149.183 43.3252 142.094C53.1817 144.426 64.1315 141.389 71.3916 134.307C78.6518 127.224 81.9861 116.328 79.9326 106.375C79.7447 105.446 79.4793 104.476 78.7832 103.833C77.8575 102.981 76.4589 102.959 75.2061 102.994C60.5116 103.385 45.3085 104.133 31.6582 98.6709C10.9497 90.3871 -2.20623 67.0101 0.306641 44.96C2.95874 21.6806 25.1288 2.44564 48.0996 1.38379C69.0101 0.41294 89.8027 14.0183 97.3623 33.5889C102.639 47.2786 101.741 62.4496 101.337 77.1172C101.295 78.6467 101.4 80.4414 102.674 81.2725C103.384 81.7332 104.274 81.7547 105.116 81.7617C107.914 81.7897 110.707 81.8109 113.498 81.8389C114.319 81.8528 115.196 81.8457 115.906 81.4268C117.333 80.5887 117.444 78.5978 117.382 76.9355C116.769 60.8153 115.962 43.9824 122.603 29.2939C129.675 13.6557 145.288 2.24962 162.293 0.300781ZM256.955 24.6836C254.136 24.4741 251.379 25.1658 248.462 25.8643C237.742 28.4347 229.765 37.3749 227.552 48.2637C226.835 51.8118 227.329 55.0598 227.405 58.7686C230.155 70.8448 239.601 82.0755 252.618 82.2012H252.604L284.624 82.502L284.374 48.9551C284.339 43.7307 281.234 39.4907 278.408 35.3838C273.069 28.7976 265.454 25.3262 256.955 24.6836ZM177.371 23.2734C168.844 19.6485 159.607 20.5145 151.532 25.3408C144.056 29.8039 138.167 37.5079 138.007 46.4551L137.645 67.1641C137.568 71.5852 137.471 75.8391 137.965 80.2393C139.956 81.0565 141.94 80.5465 144.237 80.5186L169.992 80.1904C175.818 80.1136 181.108 76.6414 185.348 72.7021C190.867 67.5686 194.404 60.4519 195.142 53.0205C196.45 39.8408 189.295 28.3443 177.371 23.2734ZM67.3604 26.8701C62.2442 23.5177 55.9588 21.6312 49.8125 22.0781C37.9372 22.9302 27.8712 30.2789 24.1123 41.5869C21.2168 50.2965 22.3242 59.5788 27.7744 67.4502C32.1041 73.7153 39.5521 79.5618 48.2393 79.5967L80.2598 79.7285L80.3428 51.8262C80.3776 41.6846 75.9153 32.4717 67.3604 26.8701Z" fill="black"/>
</svg>
