<svg width="214" height="113" viewBox="0 0 214 113" fill="none" xmlns="http://www.w3.org/2000/svg">
<g filter="url(#filter0_d_98_2294)">
<path d="M209.244 55.065C208.294 52.7619 205.731 50.9373 203.383 51.7333C202.294 52.1 200.982 52.9274 200.174 52.109C199.79 51.7199 199.75 51.1207 199.736 50.5706C199.536 41.698 200.535 32.6018 197.969 24.1048C194.594 12.9291 184.773 3.96703 173.355 1.64602C161.936 -0.67946 149.402 3.73448 141.943 12.7055C141.304 13.4747 140.559 14.3467 139.563 14.3602C138.488 14.3736 137.702 13.3897 137.05 12.5355C130.377 3.80157 118.976 -1.05064 108.075 0.192596C97.1701 1.44031 87.1576 8.74322 82.6223 18.7562C78.3638 28.161 78.8816 38.9387 79.2744 49.2603C79.3146 50.3246 79.2432 51.5992 78.3281 52.1358C77.8727 52.4041 77.3103 52.4086 76.7836 52.3997C74.9936 52.3818 73.2035 52.3684 71.4091 52.3505C70.8689 52.346 70.2976 52.3326 69.8423 52.0374C69.0254 51.5053 68.9584 50.3559 68.9852 49.3765C69.2441 39.9852 69.8199 30.2718 66.4363 21.5065C61.5886 8.97576 48.255 0.264149 34.8455 0.885768C20.1148 1.56552 5.89733 13.8816 4.1966 28.7871C2.58514 42.9054 11.0219 57.8735 24.3019 63.1774C33.0555 66.6746 42.8046 66.196 52.2278 65.9456C53.0313 65.9232 53.9286 65.9367 54.5223 66.4823C54.9686 66.8937 55.1383 67.5153 55.2588 68.1101C56.5756 74.4828 54.4374 81.4593 49.7816 85.9939C45.1258 90.5286 38.1041 92.474 31.7833 90.9803C31.7967 95.5195 31.8101 100.059 31.819 104.602C41.5547 105.787 51.7502 102.42 58.8701 95.6626C65.9899 88.9053 69.9047 78.8923 69.253 69.0895C69.1771 67.9759 69.1816 66.603 70.1637 66.0753C70.6279 65.8249 71.1859 65.8562 71.7081 65.8964C73.4267 66.0216 75.1453 66.1424 76.8639 66.2676C77.6138 66.3213 78.4397 66.4152 78.9307 66.9831C79.386 67.5064 79.3994 68.2666 79.3949 68.9598C79.2878 80.7795 79.1762 92.5947 79.0691 104.414C83.5106 105.157 88.0727 105.202 92.5276 104.544C92.5544 92.4159 92.5812 80.2876 92.608 68.1593C92.608 67.5511 92.6348 66.8713 93.0588 66.4331C93.5186 65.9546 94.273 65.9411 94.9381 65.968C102.312 66.2273 109.763 66.6522 117.012 65.2658C124.257 63.875 131.421 60.4271 135.675 54.3898C136.501 53.2181 137.581 51.7825 138.992 52.0598C140.849 53.2225 142.416 54.8772 144.036 56.3485C153.544 64.595 166.815 68.1056 179.203 66.0127C184.068 64.7605 185.666 65.7622 186.046 70.6994C186.407 77.5283 182.988 84.5047 177.297 88.2658C175.832 89.2138 174.297 90.0501 172.859 91.034C171.793 92.0313 171.766 93.1806 171.828 94.6385C171.971 97.9076 172.114 101.177 172.257 104.45C188.054 101.897 200.589 86.1907 199.594 70.1941C199.513 68.8748 199.415 67.3633 200.348 66.4286C202.352 64.4206 206.419 67.3588 208.423 65.3508C209.057 64.7113 209.236 63.7632 209.383 62.8733C209.798 60.351 210.209 57.6946 209.329 55.2931C209.302 55.226 209.276 55.1545 209.249 55.0874L209.244 55.065ZM55.4731 51.0491L34.9348 50.9641C29.3639 50.9418 24.5876 47.1986 21.811 43.1872C18.3158 38.1472 17.6061 32.2038 19.463 26.6271C21.8735 19.3868 28.3283 14.6821 35.9436 14.1365C39.8852 13.8503 43.9161 15.0578 47.197 17.2044C52.6831 20.791 55.5445 26.6897 55.5222 33.1831L55.4686 51.0536L55.4731 51.0491ZM129.14 33.9479C128.667 38.7062 126.399 43.2632 122.86 46.5502C120.141 49.0724 116.749 51.2951 113.012 51.3443L96.496 51.5545C95.0229 51.5723 93.7507 51.8988 92.4741 51.3756C92.1571 48.5582 92.2196 45.8347 92.2687 43.0038L92.5008 29.7441C92.6035 24.0154 96.38 19.0827 101.174 16.225C106.352 13.1348 112.276 12.5803 117.744 14.9013C125.391 18.148 129.979 25.5091 129.14 33.9479ZM165.998 52.6322C157.651 52.5517 151.594 45.3606 149.83 37.6284C149.781 35.2537 149.464 33.1742 149.924 30.9024C151.344 23.9304 156.459 18.2061 163.334 16.5604C165.204 16.1132 166.972 15.6705 168.779 15.8046C174.23 16.2161 179.113 18.4387 182.537 22.6559C184.349 25.2854 186.34 28 186.363 31.3451L186.523 52.8245L165.99 52.6322H165.998Z" fill="black"/>
</g>
<defs>
<filter id="filter0_d_98_2294" x="0" y="0" width="213.85" height="113.006" filterUnits="userSpaceOnUse" color-interpolation-filters="sRGB">
<feFlood flood-opacity="0" result="BackgroundImageFix"/>
<feColorMatrix in="SourceAlpha" type="matrix" values="0 0 0 0 0 0 0 0 0 0 0 0 0 0 0 0 0 0 127 0" result="hardAlpha"/>
<feOffset dy="4"/>
<feGaussianBlur stdDeviation="2"/>
<feComposite in2="hardAlpha" operator="out"/>
<feColorMatrix type="matrix" values="0 0 0 0 0 0 0 0 0 0 0 0 0 0 0 0 0 0 0.7 0"/>
<feBlend mode="normal" in2="BackgroundImageFix" result="effect1_dropShadow_98_2294"/>
<feBlend mode="normal" in="SourceGraphic" in2="effect1_dropShadow_98_2294" result="shape"/>
</filter>
</defs>
</svg>
