<svg width="143" height="247" viewBox="0 0 143 247" fill="none" xmlns="http://www.w3.org/2000/svg">
<g filter="url(#filter0_d_98_2080)">
<path d="M38.9992 -15.9888C47.8713 -16.2465 56.525 -12.0528 61.6861 -4.89925C64.9293 -0.400965 68.1101 10.0169 73.5441 11.3992C80.241 13.1017 92.8942 10.3762 100.098 9.79827C113.952 8.68932 126.285 9.51714 134.534 22.1061C149.222 44.535 124.71 63.9885 104.051 67.3778C78.7987 71.5169 61.3119 61.3489 43.1546 45.4721C38.9602 41.8017 35.8495 36.4287 29.3242 37.0535C26.307 37.3424 18.924 41.0129 19.1267 44.5194C19.3528 48.4866 33.0663 56.8194 36.3719 60.4508C44.0511 68.8851 45.0257 79.1468 37.705 88.1746C34.4774 92.1574 27.2659 96.4683 28.2171 102.255C28.8564 106.144 40.8469 113.149 44.285 116.156C91.3739 157.242 28.1547 243.154 -24.2044 238.844C-43.5701 237.25 -52.4967 217.227 -37.38 203.388C-22.5282 189.792 14.6361 184.536 17.2557 160.858C21.2863 124.395 -23.5885 141.685 -32.6866 116.914C-38.526 101.013 -22.7076 92.6416 -15.7144 81.4818C-12.6349 76.5774 -12.7206 74.2893 -16.7279 70.0175C-21.2185 65.2302 -27.6659 61.8097 -32.1331 56.3664C-46.4781 38.8809 -37.2396 11.079 -14.6229 7.58035C-8.97067 6.70568 -3.8252 8.02548 1.64772 7.51786C18.0743 5.995 18.5187 -15.3952 38.9992 -15.9888Z" fill="#FE9A02"/>
</g>
<defs>
<filter id="filter0_d_98_2080" x="-49" y="-16" width="192" height="263" filterUnits="userSpaceOnUse" color-interpolation-filters="sRGB">
<feFlood flood-opacity="0" result="BackgroundImageFix"/>
<feColorMatrix in="SourceAlpha" type="matrix" values="0 0 0 0 0 0 0 0 0 0 0 0 0 0 0 0 0 0 127 0" result="hardAlpha"/>
<feOffset dy="4"/>
<feGaussianBlur stdDeviation="2"/>
<feComposite in2="hardAlpha" operator="out"/>
<feColorMatrix type="matrix" values="0 0 0 0 0 0 0 0 0 0 0 0 0 0 0 0 0 0 0.25 0"/>
<feBlend mode="normal" in2="BackgroundImageFix" result="effect1_dropShadow_98_2080"/>
<feBlend mode="normal" in="SourceGraphic" in2="effect1_dropShadow_98_2080" result="shape"/>
</filter>
</defs>
</svg>
