<svg width="640" height="960" viewBox="0 0 640 960" fill="none" xmlns="http://www.w3.org/2000/svg">
<g clip-path="url(#clip0_222_448)">
<rect width="640" height="960" fill="white"/>
<path d="M640 0H0V960H640V0Z" fill="white"/>
<path d="M86.0641 -17.984C98.7453 -18.3518 111.115 -12.3655 118.492 -2.15422C123.127 4.26686 127.674 19.1379 135.441 21.111C145.013 23.5412 163.099 19.6507 173.395 18.8258C193.197 17.2428 210.826 18.4245 222.616 36.3946C243.61 68.4108 208.575 96.1797 179.045 101.018C142.951 106.926 117.957 92.4118 92.0035 69.7485C86.0084 64.5091 81.5621 56.8394 72.2351 57.7312C67.9225 58.1437 57.3697 63.3831 57.6594 68.3884C57.9826 74.0515 77.5839 85.9461 82.3087 91.1298C93.285 103.169 94.678 117.817 84.2143 130.704C79.6009 136.389 69.2932 142.543 70.6527 150.803C71.5664 156.355 88.7051 166.355 93.6193 170.646C160.926 229.294 70.5635 351.93 -4.27586 345.777C-31.9562 343.503 -44.7155 314.92 -23.1083 295.166C-1.88004 275.758 51.2408 268.256 54.985 234.456C60.7462 182.407 -3.39553 207.088 -16.3999 171.728C-24.7464 149.031 -2.13634 137.081 7.85934 121.151C12.261 114.15 12.1384 110.883 6.4107 104.786C-0.00792313 97.9522 -9.22356 93.0695 -15.6088 85.2995C-36.1127 60.3398 -22.9077 20.654 9.41945 15.6598C17.4984 14.4112 24.8531 16.2952 32.6758 15.5706C56.1551 13.3968 56.7902 -17.1367 86.0641 -17.984Z" fill="#FE9A02"/>
<path d="M647.813 710.583C701.736 704.451 760.466 747.478 764.546 802.888C772.96 917.064 662.889 1022.42 556.35 1041.11C471.342 1056.02 354.742 1013.3 362.354 910.798C365.99 861.787 401.839 825.842 450.301 854.779C482.663 874.111 496.137 905.527 542.951 887.844C627.025 856.101 556.484 720.976 647.799 710.583H647.813Z" fill="#FE9A02"/>
</g>
<defs>
<clipPath id="clip0_222_448">
<rect width="640" height="960" fill="white"/>
</clipPath>
</defs>
</svg>
