<svg width="640" height="960" viewBox="0 0 640 960" fill="none" xmlns="http://www.w3.org/2000/svg">
<g clip-path="url(#clip0_111_55)">
<rect width="640" height="960" fill="white"/>
<path d="M640.001 0H0.00146484V960H640.001V0Z" fill="#594EB7"/>
<path d="M41.773 865.887L103.923 832.665L74.0029 895.828L234.751 957.3L90.5862 946.032L109.308 1025.74L41.4111 958.088L-23.7368 1046.75L-16.4172 947.352L-120.477 943.643L-26.3361 904.832L-82.3276 822.526L-6.32123 882.307L5.35864 733.326L41.773 865.887Z" fill="#FA9621"/>
<path d="M26.51 884.75L87.07 848.71L60.08 913.18L223.48 967.21L78.95 962.57L101.31 1041.33L30.38 976.87L-30.63 1068.43L-27.88 968.8L-132 969.87L-39.74 926.78L-99.45 847.13L-20.78 903.36L-15.95 754L26.51 884.75Z" fill="#594EB7"/>
<path d="M13.3779 902.096L70.4489 869.544L45.0138 927.775L199 976.576L62.7967 972.385L83.8685 1043.52L17.0249 985.301L-40.4701 1068L-37.8786 978.012L-136 978.978L-49.0553 940.059L-105.325 868.117L-31.1876 918.905L-26.6359 784L13.3779 902.096Z" fill="#4AD76C"/>
<path d="M343.452 19.8913C340.994 39.8771 372.509 54.3531 387.726 59.9329C409.839 68.0333 439.896 75.4706 462.859 68.2558C475.803 64.182 496.916 50.1362 509.415 50.3798C514.174 50.4779 512.815 53.7199 511.965 57.205C510.489 63.2364 507.104 69.1565 505.169 75.0552C501.513 86.2239 498.604 104.837 513.581 108.775C544.384 116.877 567.399 65.1618 596.264 59.2118C607.498 56.898 608.954 59.2866 605.273 69.625C599.863 84.8234 576.949 112.639 590.268 128.178C603.586 143.716 627.307 123.406 635.812 112.246C642.01 104.122 646.433 93.538 653.058 85.8769C660.388 77.39 661.16 83.8247 662.797 91.2344C671.301 129.615 664.792 171.798 668.751 210.982C669.904 222.429 674.612 254.957 693.097 245.696C705.033 239.716 707.41 218.01 707.991 206.103C708.831 189.057 707.503 171.779 707.393 154.778C707.143 115.796 707.895 76.3099 706.354 37.4602C705.745 22.0063 705.97 12.7375 688.501 9.22448C672.759 6.06166 654.672 7.19508 638.6 7.48037C602.936 8.11021 565.886 11.4119 530.362 8.58253C516.868 7.51299 503.394 4.68359 489.858 4.0138C471.233 3.09403 452.757 5.66519 434.203 6.30587C416.849 6.90361 399.262 6.47992 382.012 6.39827C371.052 6.34368 345.343 4.34214 343.442 19.8912L343.452 19.8913Z" fill="#FA9621"/>
<path d="M352.452 7.89127C349.994 27.8771 381.509 42.3531 396.726 47.9329C418.839 56.0333 448.896 63.4706 471.859 56.2558C484.803 52.182 505.916 38.1362 518.415 38.3798C523.174 38.4779 521.815 41.7199 520.965 45.205C519.489 51.2364 516.104 57.1565 514.169 63.0552C510.513 74.2239 507.604 92.8371 522.581 96.7754C553.384 104.877 576.399 53.1618 605.264 47.2118C616.498 44.898 617.954 47.2866 614.273 57.625C608.863 72.8234 585.949 100.639 599.268 116.178C612.586 131.716 636.307 111.406 644.812 100.246C651.01 92.1221 655.433 81.538 662.058 73.8769C669.388 65.39 670.16 71.8247 671.797 79.2344C680.301 117.615 673.792 159.798 677.751 198.982C678.904 210.429 683.612 242.957 702.097 233.696C714.033 227.716 716.41 206.01 716.991 194.103C717.831 177.057 716.503 159.779 716.393 142.778C716.143 103.796 716.895 64.3099 715.354 25.4602C714.745 10.0063 714.97 0.737487 697.501 -2.77552C681.759 -5.93834 663.672 -4.80492 647.6 -4.51963C611.936 -3.88979 574.886 -0.588079 539.362 -3.41747C525.868 -4.48701 512.394 -7.31641 498.858 -7.9862C480.233 -8.90597 461.757 -6.33481 443.203 -5.69413C425.849 -5.09639 408.262 -5.52008 391.012 -5.60173C380.052 -5.65632 354.343 -7.65786 352.442 7.89121L352.452 7.89127Z" fill="#594EB7"/>
<path d="M364.452 -7.10873C361.994 12.8771 393.509 27.3531 408.726 32.9329C430.839 41.0333 460.896 48.4706 483.859 41.2558C496.803 37.182 517.916 23.1362 530.415 23.3798C535.174 23.4779 533.815 26.7199 532.965 30.205C531.489 36.2364 528.104 42.1565 526.169 48.0552C522.513 59.2239 519.604 77.8371 534.581 81.7754C565.384 89.877 588.399 38.1618 617.264 32.2118C628.498 29.898 629.954 32.2866 626.273 42.625C620.863 57.8234 597.949 85.6389 611.268 101.178C624.586 116.716 648.307 96.4058 656.812 85.2458C663.01 77.1221 667.433 66.538 674.058 58.8769C681.388 50.39 682.16 56.8247 683.797 64.2344C692.301 102.615 685.792 144.798 689.751 183.982C690.904 195.429 695.612 227.957 714.097 218.696C726.033 212.716 728.41 191.01 728.991 179.103C729.831 162.057 728.503 144.779 728.393 127.778C728.143 88.7962 728.895 49.3099 727.354 10.4602C726.745 -4.99367 726.97 -14.2625 709.501 -17.7755C693.759 -20.9383 675.672 -19.8049 659.6 -19.5196C623.936 -18.8898 586.886 -15.5881 551.362 -18.4175C537.868 -19.487 524.394 -22.3164 510.858 -22.9862C492.233 -23.906 473.757 -21.3348 455.203 -20.6941C437.849 -20.0964 420.262 -20.5201 403.012 -20.6017C392.052 -20.6563 366.343 -22.6579 364.442 -7.10879L364.452 -7.10873Z" fill="#4AD76C"/>
</g>
<defs>
<clipPath id="clip0_111_55">
<rect width="640" height="960" fill="white"/>
</clipPath>
</defs>
</svg>
