<?xml version="1.0" encoding="utf-8"?>
<!-- Generator: Adobe Illustrator 28.4.1, SVG Export Plug-In . SVG Version: 6.00 Build 0)  -->
<svg version="1.1" xmlns="http://www.w3.org/2000/svg" xmlns:xlink="http://www.w3.org/1999/xlink" x="0px" y="0px"
	 viewBox="0 0 640 960" style="enable-background:new 0 0 640 960;" xml:space="preserve">
<style type="text/css">
	.st0{fill:url(#SVGID_1_);}
	.st1{opacity:0.6;}
	.st2{fill:none;stroke:#F1E479;stroke-width:2;stroke-miterlimit:10;}
	.st3{fill:#F1E479;stroke:#F1E479;stroke-width:2;stroke-miterlimit:10;}
	.st4{fill:#F1E479;}
	.st5{fill:none;stroke:#FFEB78;stroke-width:2;stroke-miterlimit:10;}
	.st6{fill:#FFEB78;}
</style>
<g id="FONDO">
	<g id="FONDO_00000097462951522979553160000000010888839977309838_">
		
			<radialGradient id="SVGID_1_" cx="314.971" cy="481" r="407.9216" gradientTransform="matrix(1.0158 0 0 1 0.0417 0)" gradientUnits="userSpaceOnUse">
			<stop  offset="0" style="stop-color:#0F101E;stop-opacity:0.999"/>
			<stop  offset="0.4553" style="stop-color:#121626;stop-opacity:0.9977"/>
			<stop  offset="1" style="stop-color:#19253B;stop-opacity:0.9918"/>
		</radialGradient>
		<rect x="-5.07" y="1" class="st0" width="650.13" height="960"/>
	</g>
</g>
<g id="ELEMENTOS">
	<g class="st1">
		<path class="st2" d="M128.8,154.17c-4.59-1.31-13.62-3.22-24.7-1.11c-10.33,1.97-17.65,6.54-21.45,9.31
			c-5.56-7.89-17.28-22.07-37.12-30.98c-6.83-3.07-13.28-4.91-18.9-6.03c-2.08-0.41-3.81,1.61-3.1,3.61
			c2.3,6.46,5.74,14.08,10.97,21.97c11.1,16.76,24.75,26.46,33.17,31.48l2.02,1.07"/>
		<path class="st2" d="M149.48,169.13c4.83-6.06,9-12.65,12.38-19.62c4.79-9.89,7.96-20.55,9.33-31.46c0.34-2.7,0.57-5.42,0.69-8.14
			c0.09-2.11,0.64-5.17-0.06-7.19c-1.77-5.08-9.59,2.26-11.64,3.86c-8.61,6.69-15.91,14.99-21.49,24.35
			c-4.05,6.79-7.21,14.1-9.44,21.68c-0.2,0.67-0.39,1.35-0.57,2.02"/>
		<g>
			<path class="st2" d="M72.34,176.64c-3.54,7.51-4.39,13.47-4.45,17.66c-0.04,2.2,0.13,4.77-0.5,8.54
				c-0.37,2.2-0.93,4.36-1.67,6.46c-0.94,2.65-1.93,4.92-1.98,7.78c-0.06,3.19,0.48,6.38,1.62,9.36c1.7,4.41,4.24,7.17,5.62,8.64
				c1.75,1.86,5.62,5.5,13.47,8.55c15.03,5.84,34.44,5.55,39.23,5.42"/>
			<path class="st2" d="M143.91,163.58c5.97,5.77,8.86,11.06,10.41,14.94c0.81,2.05,1.57,4.5,3.49,7.81
				c1.06,1.83,2.28,3.57,3.64,5.2c0.57,0.68,1.16,1.35,1.77,1.99c1.58,1.66,2.57,3.49,3.35,5.64c0.98,2.73,1.5,5.62,1.48,8.52
				c-0.03,4.73-1.43,8.2-2.21,10.07c-1.27,3.04-3.68,7.46-9.58,12.76c-11.68,10.49-28.45,16.77-33.48,18.56"/>
		</g>
		
			<ellipse transform="matrix(0.1061 -0.9944 0.9944 0.1061 -119.982 261.3163)" class="st3" cx="85.35" cy="197.39" rx="7.63" ry="5.53"/>
		
			<ellipse transform="matrix(0.8927 -0.4506 0.4506 0.8927 -69.8 82.9302)" class="st3" cx="139.26" cy="188.05" rx="5.53" ry="7.63"/>
		<path class="st2" d="M108.62,207.08l11.82-2.16c0.15-0.03,0.24,0.16,0.13,0.26l-4.92,4.4c-0.04,0.04-0.1,0.05-0.15,0.03l-6.9-2.24
			C108.45,207.32,108.46,207.1,108.62,207.08z"/>
		<g>
			<path class="st4" d="M98.67,211.93c-2.3,4.93,2.53,6.57,6.55,6.41c3.94-0.26,7.34-2.75,9.91-5.61c0,0,0.5-0.57,0.5-0.57
				c3.51,1.77,7.75,3.11,11.65,2.15c3.72-1.12,7-4.53,4.33-8.4c0.71,0.71,1.28,1.61,1.5,2.66c0.52,2.17-0.92,4.33-2.57,5.59
				c-4.29,3.57-10.48,2.28-15.11,0.12c0,0,1.19-0.23,1.19-0.23c-2.91,3.2-6.87,5.92-11.39,5.86
				C100.77,219.9,95.12,216.86,98.67,211.93L98.67,211.93z"/>
		</g>
		<path class="st2" d="M102.77,218.89c3.12,11.75,11.43,18.3,17.27,17.12c6.08-1.23,9.28-10.78,9.63-11.87
			c1.45-4.5,1.15-8.47,0.79-10.71"/>
		<path class="st2" d="M105.56,225.97c2.51-1.43,6.39-3.26,11.42-4.24c5.47-1.06,10.08-0.7,13.04-0.23"/>
		
			<ellipse transform="matrix(0.9223 -0.3866 0.3866 0.9223 -81.3396 45.819)" class="st2" cx="73.25" cy="225.14" rx="7.09" ry="14.99"/>
		
			<ellipse transform="matrix(0.0754 -0.9972 0.9972 0.0754 -60.9011 352.9224)" class="st2" cx="159.86" cy="209.3" rx="14.99" ry="7.09"/>
		<path class="st2" d="M44.88,164.09c-0.66-1.89-3.06-9.51,0.55-17.85c2.53-5.84,6.74-9.1,8.67-10.41"/>
		<path class="st2" d="M146.61,119.71c2.18,0.29,3.97,0.9,5.41,1.56c10.6,4.92,12.84,18.44,13.17,20.59"/>
	</g>
	<g class="st1">
		<path class="st2" d="M197.21,459.62c1.51,1.41,3.97,0.4,4.03-1.67c0-0.03,0-0.05,0-0.08c1.13-38.01,20.75-49.92,23.04-82.75
			c0.61-8.8,1.35-21.79-6.1-34.84c-9.77-17.1-27.11-22.94-31.63-24.31c-7.5-2.26-22.72-5.12-38.84,2.34
			c-20.87,9.66-27.63,29.4-28.73,32.79c-4.35,0.72-11.18,2.57-16.78,7.99c-14.61,14.15-7.06,39.23-6.09,42.47
			c3.45,11.47,10.14,19.02,12.87,22.03c2.41,2.67,7.29,7.81,14.35,11.73c18.04,10.03,32.14,3.41,51.61,10.35
			C180.78,447.78,188.71,451.66,197.21,459.62z"/>
		<path class="st2" d="M167.1,379.71c0.63-2.76,5.71-23.94,20.43-27.66c0.12-0.03,0.24-0.06,0.37-0.09
			c2.95-0.68,6.06,0.38,7.87,2.81c0.13,0.18,0.26,0.36,0.38,0.53c8.27,12.1-3.26,31.44-4.22,33c-3.27-0.37-7.22-1.08-11.56-2.47
			C174.84,384.07,170.39,381.76,167.1,379.71z"/>
		<path class="st3" d="M184.17,352.57c3.09-1.25,4.74-0.9,5.69-0.27c4.37,2.87,2.35,16.99-5.22,23.5c-1.13,0.97-3.68,3.16-6.24,2.48
			c-2.62-0.7-3.74-3.97-4.23-5.4c-1.96-5.74,0.57-11.28,1.64-13.33c0.91-1.29,2.3-2.96,4.32-4.52
			C181.59,353.89,183,353.11,184.17,352.57z"/>
		<path class="st2" d="M122.83,342.76c-0.35,0.51-2.8,4.21-1.33,7.79c0.74,1.81,2.59,3.83,4.47,3.87
			c7.04,0.17,15.08-27.42,11.71-29.2c-0.8-0.42-2.25,0.62-3.74,2.06"/>
		<path class="st3" d="M133.09,327.43c1.55-1.56,2.65-1.97,3.18-1.68c2.56,1.4-4.35,23.53-9.93,23.24
			c-1.49-0.08-2.99-1.75-3.53-3.17c-0.91-2.39,0.42-5.32,0.65-5.82c0.1-0.21,0.17-0.35,0.31-0.62c0.42-0.8,1.23-2.13,3.56-5.27
			C129.28,331.48,131.26,329.26,133.09,327.43z"/>
		<path class="st2" d="M181.3,348.67c0.6-0.56,4.58-4.2,8.99-3.11c0.6,0.15,1.29,0.4,2.02,0.85"/>
		<path class="st2" d="M141.14,330.92c0.25-0.61,1.86-4.62-0.08-7.11c-0.26-0.34-0.63-0.69-1.14-1"/>
		<path class="st2" d="M93.84,376.12c0.47-1.89,0.93-3.78,1.4-5.68c0.03-0.12,0.19-0.13,0.24-0.02
			c7.96,17.29,19.01,25.12,24.4,28.31c10.31,6.12,20.26,7.41,37.54,9.56c12,1.49,22.04,1.74,29,1.69c0.14,0,0.18,0.19,0.05,0.25
			c-6.15,2.68-14.73,6.03-25.27,8.95c-19.59,5.43-29.38,8.15-38.18,4.04c-8.49-3.96-12.79-12.48-21.46-29.41
			c-3.62-7.07-6.1-13.22-7.71-17.61C93.83,376.17,93.83,376.14,93.84,376.12z"/>
		<path class="st2" d="M105.37,386.25c-0.2,0.92-0.45,2.74,0.21,4.85c0.39,1.26,0.98,2.21,1.45,2.83c0.25-0.03,1.02-0.14,1.69-0.77
			c0.82-0.77,0.89-1.75,0.9-1.97"/>
		<path class="st2" d="M144.37,406.55c0.22,0.94,0.69,2.41,1.74,3.94c1.13,1.63,2.44,2.63,3.32,3.19c0.14,0.09,0.3,0.11,0.46,0.07
			c0.88-0.22,2.38-0.74,3.84-1.99c1.55-1.33,2.29-2.83,2.61-3.61"/>
		<path class="st2" d="M104.21,398.99l2.16-1.56c0.21-0.15,0.51-0.07,0.61,0.18c0.27,0.69,0.53,1.55,0.66,2.57
			c0.27,2.01-0.07,3.67-0.35,4.66"/>
		<path class="st2" d="M145.18,423.41c0.56-1.27,1.36-2.79,2.53-4.38c0.6-0.81,1.21-1.53,1.79-2.14c0.31-0.32,0.79-0.39,1.18-0.16
			c0.69,0.42,1.5,1.03,2.29,1.89c0.78,0.86,1.3,1.71,1.64,2.37"/>
		<path class="st2" d="M156.15,408.77c4.55,1.3,9.12,3.48,13.15,7.01c0.27,0.23,0.53,0.47,0.78,0.71"/>
		<path class="st2" d="M100.52,391.97c0.51-0.27,1.28-0.61,2.27-0.78c1.16-0.2,2.14-0.09,2.75,0.03"/>
		<path class="st2" d="M124.42,387.95c0.4-0.29,3.05-2.17,6.27-1.32c0.43,0.12,0.94,0.3,1.49,0.59"/>
		<path class="st2" d="M115.1,383.59c-0.04-0.47-0.32-3.56-2.24-4.39c-0.26-0.11-0.59-0.2-0.99-0.2"/>
	</g>
	<g class="st1">
		<circle class="st2" cx="341.62" cy="242.4" r="47.18"/>
		<path class="st2" d="M308.09,209.21c0.5,1.07,1.04,2.15,1.63,3.24c4.88,8.98,11.48,15.44,17.63,20.02
			c6.16-3.85,13.86-3.95,19.59-0.23c7.03,4.56,9.97,14.11,6.51,22.63c3.25,3.31,7.76,7.26,13.71,10.86
			c4.24,2.56,8.25,4.37,11.7,5.66"/>
		<path class="st2" d="M302.45,216.09c0.9,1.52,1.88,3.06,2.95,4.61c5.28,7.66,11.26,13.46,16.78,17.8
			c-2.87,6.68-1.8,14.3,2.75,19.4c5.58,6.26,15.46,7.72,23.35,3c3.59,3.36,8.4,7.22,14.55,10.73c3.97,2.26,7.74,3.94,11.08,5.19"/>
		<circle class="st2" cx="337.79" cy="246.87" r="10.16"/>
		<circle class="st3" cx="337.89" cy="246.95" r="5.87"/>
	</g>
	<g class="st1">
		<path class="st2" d="M282.72,126.97l6.56-2.58c4.74-7.98,13.41-20.15,27.93-30.59c23.3-16.74,47.37-18.78,57.37-19.05
			c-2.27-14.17-7.51-24.41-11.26-29.11c-2.56-3.21-7.88-8.15-11.71-10.31c-0.03-0.01-0.05-0.03-0.05-0.03
			c-2.98-1.67-6.32-2.6-9.74-2.81c-31.44-1.95-58.18,9.62-67.92,29.93c-6.83,14.24-3.2,27.55,1.04,41.94
			C277.36,112.56,280.01,120.11,282.72,126.97z"/>
		<path class="st2" d="M282.72,126.97l-17.12,8.67c-5.6-8.21-12.26-20.52-15.16-36.49c-0.4-2.19-0.7-4.32-0.93-6.38
			c-0.47-4.28,0.35-8.6,2.29-12.44c1.37-2.72,3.09-5.79,5.23-9.04c2.87-4.35,25.82-38.02,64.16-40.41
			c4.61-0.29,11.36-0.24,19.56,1.55"/>
		<path class="st3" d="M374.58,74.74c10.83,0.46,21.67,0.93,32.5,1.39c0.91,0.04,1.75,0.62,1.99,1.5c0.04,0.15,0.07,0.3,0.07,0.47
			c0.05,1.13-0.84,2.25-2.16,2.55c-13.88,2.05-33.36,6.52-54.67,16.96c-16.6,8.13-29.49,17.53-38.85,25.52
			c-1.16,0.99-2.53,1.72-4,2.12c-4.19,1.15-9.96,1.95-16.31,0.37c-1.4-0.35-2.7-0.78-3.89-1.25c5.05-8.39,18.06-27.35,42.81-39.42
			C349.38,76.52,365.25,74.94,374.58,74.74z"/>
		<path class="st2" d="M295.43,73.24l10.01-5.55c0.16-1.63,0.93-7.57,5.86-11.82c5.42-4.68,13.69-5.42,20.88-1.82
			c2.12-1.27,4.24-2.54,6.36-3.81c-1.95-1.68-5.7-4.44-11.08-5.62c-11.98-2.61-21.28,4.98-22.41,5.94
			C294.91,59.13,295.35,71.75,295.43,73.24z"/>
		<path class="st2" d="M297.61,75.67c0,0,9.39-5.23,9.41-5.24c0.05-0.03,2.37,1.65,2.61,1.78c8.35,4.33,18.36-2.06,21.99-9.73
			c1.1-2.33,1.47-4.47,1.6-5.9c2.34-1.29,4.67-2.57,7.01-3.86c0.25,2.3,0.37,6.21-1.21,10.57c-2.74,7.56-8.72,11.29-11.72,13.16
			c-3.37,2.1-10.73,6.68-19.67,4.62C302.76,79.95,299.39,77.31,297.61,75.67z"/>
		
			<ellipse transform="matrix(0.8583 -0.5131 0.5131 0.8583 12.9434 172.4823)" class="st2" cx="318.8" cy="62.8" rx="9.57" ry="6.19"/>
	</g>
	<g class="st1">
		<path class="st2" d="M510.55,140.96c4.56-1.39,13.56-3.47,24.68-1.56c10.37,1.79,17.76,6.22,21.62,8.92
			c5.42-7.99,16.87-22.38,36.55-31.65c6.77-3.19,13.19-5.15,18.79-6.37c2.07-0.45,3.84,1.54,3.17,3.55
			c-2.18,6.5-5.48,14.18-10.57,22.17c-10.79,16.96-24.26,26.91-32.59,32.07l-2,1.11"/>
		<path class="st2" d="M490.15,156.3c-4.94-5.97-9.23-12.48-12.73-19.39c-4.97-9.81-8.33-20.4-9.9-31.29
			c-0.39-2.7-0.67-5.41-0.83-8.12c-0.13-2.11-0.73-5.15-0.07-7.19c1.67-5.11,9.63,2.09,11.71,3.65c8.73,6.54,16.18,14.7,21.93,23.96
			c4.18,6.71,7.47,13.97,9.84,21.51c0.21,0.67,0.41,1.34,0.61,2.01"/>
		<g>
			<path class="st2" d="M567.41,162.41c3.68,7.44,4.63,13.39,4.77,17.57c0.08,2.2-0.04,4.77,0.66,8.53
				c0.41,2.19,1.01,4.34,1.79,6.42c0.99,2.64,2.02,4.88,2.12,7.74c0.12,3.19-0.36,6.39-1.45,9.39c-1.62,4.44-4.11,7.24-5.47,8.74
				c-1.72,1.89-5.52,5.6-13.32,8.8c-14.92,6.11-34.33,6.17-39.12,6.14"/>
			<path class="st2" d="M495.61,150.64c-5.86,5.88-8.66,11.21-10.13,15.13c-0.78,2.06-1.48,4.53-3.35,7.87
				c-1.03,1.85-2.22,3.61-3.54,5.27c-0.56,0.69-1.13,1.37-1.74,2.02c-1.55,1.69-2.51,3.54-3.24,5.7c-0.93,2.75-1.4,5.65-1.33,8.55
				c0.11,4.73,1.58,8.18,2.39,10.03c1.32,3.02,3.81,7.39,9.81,12.59c11.87,10.28,28.75,16.25,33.81,17.94"/>
		</g>
		
			<ellipse transform="matrix(0.9923 -0.1241 0.1241 0.9923 -18.4696 70.2644)" class="st3" cx="554.78" cy="183.39" rx="5.53" ry="7.63"/>
		
			<ellipse transform="matrix(0.4344 -0.9007 0.9007 0.4344 125.5625 550.0108)" class="st3" cx="500.71" cy="175.03" rx="7.63" ry="5.53"/>
		<path class="st2" d="M531.69,193.5l-11.86-1.94c-0.15-0.02-0.24,0.16-0.12,0.26l5,4.31c0.04,0.04,0.1,0.05,0.15,0.03l6.86-2.37
			C531.87,193.74,531.85,193.52,531.69,193.5z"/>
		<g>
			<path class="st4" d="M541.73,198.17c3.63,4.87-1.95,8.01-6.43,8.1c-4.51,0.15-8.52-2.51-11.49-5.65c0,0,1.19,0.21,1.19,0.21
				c-4.59,2.24-10.76,3.65-15.11,0.15c-1.68-1.23-3.15-3.37-2.67-5.54c0.2-1.05,0.76-1.97,1.46-2.69c-2.59,3.92,0.73,7.26,4.48,8.32
				c3.92,0.89,8.13-0.53,11.61-2.36c0,0,0.51,0.56,0.51,0.56c2.62,2.81,6.07,5.24,10.01,5.43
				C539.3,204.79,544.12,203.05,541.73,198.17L541.73,198.17z"/>
		</g>
		<path class="st2" d="M537.76,205.2c-2.91,11.8-11.09,18.5-16.95,17.43c-6.1-1.12-9.47-10.61-9.85-11.7
			c-1.53-4.47-1.3-8.45-0.99-10.7"/>
		<path class="st2" d="M535.09,212.33c-2.54-1.39-6.44-3.14-11.49-4.03c-5.48-0.96-10.09-0.51-13.04,0.01"/>
		
			<ellipse transform="matrix(0.3698 -0.9291 0.9291 0.3698 161.6044 660.089)" class="st2" cx="567.38" cy="210.92" rx="14.99" ry="7.09"/>
		
			<ellipse transform="matrix(0.9956 -0.0935 0.0935 0.9956 -16.2806 45.7835)" class="st2" cx="480.5" cy="196.65" rx="7.09" ry="14.99"/>
		<path class="st2" d="M594.64,149.36c0.62-1.9,2.89-9.56-0.88-17.84c-2.64-5.8-6.9-8.97-8.86-10.26"/>
		<path class="st2" d="M492.12,106.83c-2.17,0.33-3.95,0.97-5.38,1.66c-10.51,5.11-12.51,18.67-12.79,20.83"/>
	</g>
	<g class="st1">
		<path class="st5" d="M561.68,349.63c-1.27-1.18-2.58-2.33-3.95-3.46c-20.64-16.99-45.82-21.74-66.57-22.24"/>
		<path class="st5" d="M496.03,330.29c-4.01-5.56-9.1-11.72-15.51-17.9c-3.5-3.37-6.96-6.33-10.26-8.91
			c-0.98-0.21-2.78-1.38-4.16-0.31c-7.5,5.79-17.99,15.47-26.3,30.05c-12.79,22.45-23.07,61.24-4.6,87.09
			c7.4,10.36,16.94,15.46,34.8,24.92c12.87,6.82,24.33,12.73,40.39,13.59c15.03,0.8,26.71-3.22,35.56-6.27
			c15.43-5.32,23.24-7.69,29.14-15.01c9.28-11.52,8.05-26.75,6.75-42.79c-1.05-12.91-4.02-23.23-6.36-29.88"/>
		<path class="st5" d="M580.01,381.52c3.07-3.77,8.52-11.5,10.76-22.73c1.34-6.7,1.11-12.57,0.54-16.9
			c-0.24-1.82-1.67-3.26-3.49-3.53c-4.81-0.69-10.65-1.12-17.26-0.77c-8.05,0.43-14.84,1.89-20,3.39"/>
		<path class="st5" d="M563.29,416.98c-0.25,0.5-0.67,0.88-1.18,1.09c-1.61,0.65-3.7,1.29-6.18,1.58c-3.71,0.43-6.87-0.07-9.13-0.68
			c-1.04-0.28-1.73-1.25-1.67-2.32c0.29-5.36,2.06-19.14,13.2-27.84c2.64-2.06,5.35-3.48,7.83-4.46c1.4-0.55,2.96,0.37,3.11,1.88
			c0.19,1.92,0.3,3.97,0.26,6.15C569.37,402.95,566.1,411.45,563.29,416.98z"/>
		<path class="st5" d="M500.55,406.81c0.41-1.56,0.9-3.83,1.14-6.59c1.32-15.32-6.22-34.65-17.03-35.9
			c-5.07-0.59-9.32,2.98-11.61,4.9c-10.34,8.68-9.19,22.81-9.02,24.56c3.66,2.51,8.34,5.25,14.03,7.6
			C486.82,404.97,494.74,406.31,500.55,406.81z"/>
		<path class="st3" d="M474.71,399.89c-0.21-0.84-3.95-17.28,6.65-26.88c3.5-3.17,7.41-4.55,10.21-5.19
			c2.31,2.67,4.97,6.4,7.02,11.27c5.04,11.99,3.08,23.09,1.96,27.73c-3.3-0.28-7.05-0.82-11.12-1.78
			C483.58,403.64,478.65,401.73,474.71,399.89z"/>
		<path class="st3" d="M554.41,419.11c2.11-1.94,8.38-8.24,9.9-18.45c0.98-6.6-0.45-11.96-1.44-14.78
			c-2.77,1.61-9.48,6.02-13.8,14.69c-3.68,7.4-3.77,14.2-3.6,17.42c0.76,0.5,2.28,1.36,4.41,1.61
			C551.93,419.84,553.56,419.4,554.41,419.11z"/>
		<path class="st2" d="M547.94,358.95c0.79-1.35,0.58-3.07-0.48-4.22c-2.68-2.93-7.41-7.12-14.46-9.59
			c-5.34-1.87-10.13-2.09-13.42-1.93c-1.07,0.05-2.07,0.57-2.7,1.43c-0.99,1.35-1.41,2.58-1.6,3.51c-1.2,5.91,4.13,13.26,13.57,17.9
			c0.39,0.19,0.81,0.31,1.24,0.35c2.66,0.27,11.1,0.62,16.26-5.25C546.87,360.56,547.42,359.84,547.94,358.95z"/>
		<path class="st2" d="M542.25,398.96c1.05-1.27,1.35-3,0.81-4.56c-0.54-1.57-1.4-3.4-2.78-5.22c-2.57-3.37-5.85-5.21-8.51-6.21
			c-2.54-0.96-5.4,0.39-6.18,2.98c0,0.02-0.01,0.03-0.01,0.05c-1.96,6.58-0.24,12.78,1.49,16.82c0.96,2.24,3.49,3.4,5.8,2.61
			c1.63-0.56,3.48-1.41,5.34-2.73C539.94,401.48,541.26,400.16,542.25,398.96z"/>
		<path class="st2" d="M523.9,377.35c0.42-0.57,0.47-1.34,0.12-1.96c-0.83-1.5-1.99-3.26-3.6-5.05c-1.73-1.93-3.52-3.35-5.06-4.39
			c-0.95-0.64-2.25-0.28-2.72,0.77c-0.51,1.14-0.98,2.57-1.19,4.24c-0.55,4.41,1.04,7.93,2.05,9.69c0.32,0.56,0.89,0.9,1.53,0.93
			c1.36,0.05,3.59-0.11,5.84-1.46C522.3,379.28,523.27,378.21,523.9,377.35z"/>
		<g>
			<path class="st6" d="M506.29,376.57c-0.34-2.3-1.07-4.6-2.32-6.53c-1.47-1.87-2.9-3.07-4.78-4.68c0,0,0.05-0.19,0.05-0.19
				c4.35-0.65,6.73,4.09,7.18,7.72c0.15,1.23,0.2,2.46,0.06,3.68C506.49,376.57,506.29,376.57,506.29,376.57L506.29,376.57z"/>
		</g>
		<g>
			<path class="st6" d="M550.77,385.83c0.55-3.55,3.81-10.96,8.28-7.44c0,0-0.06,0.19-0.06,0.19c-0.56,0.11-1.03,0.22-1.44,0.38
				c-2.03,0.88-3.84,2.33-5.05,4.32c-0.57,0.82-1.06,1.71-1.53,2.61C550.96,385.89,550.77,385.83,550.77,385.83L550.77,385.83z"/>
		</g>
		<g>
			<path class="st6" d="M514.77,426.65c-2.19-2.14-4.01-3.98-6.59-5.64C511.51,419.79,515.27,423.24,514.77,426.65L514.77,426.65z"
				/>
		</g>
		<g>
			<path class="st6" d="M530.16,429.34c0.07-2.7,4.48-5.03,5.89-2.1C533.7,427.3,532.41,428.83,530.16,429.34L530.16,429.34z"/>
		</g>
		<path class="st5" d="M572.26,424.52c-1.37,2.95-3.58,5.25-6.22,7.1c-2.69,1.89-6.27,1.9-9.43,1.72
			c-3.72-0.21-7.45-0.25-11.18-0.13c-10.92,0.38-20.45,2.17-28.23,4.3c-2,0.55-4.14,0.17-5.86-1c-5.48-3.74-10.27-6.8-14.1-9.17
			c-4.86-3-9.79-5.92-15.03-8.23c-6.05-2.67-12.55-4.09-18.73-6.4c-4.8-1.79-10.56-4.34-12.4-9.56c-1.14-3.23-0.46-6.37,0.18-8.32"
			/>
		<path class="st5" d="M560.31,433.36c-6.59,4.75-15.41,9.44-26.34,11.33c-40.34,6.98-71.68-30.69-73.82-33.34"/>
		<path class="st5" d="M540.91,433.44c0.8,0.9,1.75,2.14,2.61,3.72c0.9,1.66,1.42,3.2,1.73,4.4"/>
		<path class="st5" d="M552.45,433.16c-0.38,0.32-0.83,0.64-1.33,0.95c-0.89,0.55-1.76,0.93-2.54,1.19
			c-0.7,0.24-1.46,0.15-2.08-0.25c-0.26-0.17-0.53-0.37-0.8-0.62c-0.46-0.43-0.78-0.86-0.99-1.21"/>
		<path class="st5" d="M485.7,420.74c-0.34,0.44-0.86,1.02-1.6,1.53c-0.65,0.45-1.3,0.74-1.86,0.92c-0.64,0.21-1.34,0.06-1.85-0.38
			c-0.89-0.77-1.87-1.74-2.84-2.92c-0.98-1.2-1.73-2.37-2.3-3.38"/>
	</g>
	<g class="st1">
		<path class="st2" d="M516.04,628.83c4.59-1.31,13.62-3.22,24.7-1.11c10.33,1.97,17.65,6.54,21.45,9.31
			c5.56-7.89,17.28-22.07,37.12-30.98c6.83-3.07,13.28-4.91,18.9-6.03c2.08-0.41,3.81,1.61,3.1,3.61
			c-2.3,6.46-5.74,14.08-10.97,21.97c-11.1,16.76-24.75,26.46-33.17,31.48l-2.02,1.07"/>
		<path class="st2" d="M495.36,643.8c-4.83-6.06-9-12.65-12.38-19.62c-4.79-9.89-7.96-20.55-9.33-31.46
			c-0.34-2.7-0.57-5.42-0.69-8.14c-0.09-2.11-0.64-5.17,0.06-7.19c1.77-5.08,9.59,2.26,11.64,3.86
			c8.61,6.69,15.91,14.99,21.49,24.35c4.05,6.79,7.21,14.1,9.44,21.68c0.2,0.67,0.39,1.35,0.57,2.02"/>
		<g>
			<path class="st2" d="M572.5,651.31c3.54,7.51,4.39,13.47,4.45,17.66c0.04,2.2-0.13,4.77,0.5,8.54c0.37,2.2,0.93,4.36,1.67,6.46
				c0.94,2.65,1.93,4.92,1.98,7.78c0.06,3.19-0.48,6.38-1.62,9.36c-1.7,4.41-4.24,7.17-5.62,8.64c-1.75,1.86-5.62,5.5-13.47,8.55
				c-15.03,5.84-34.44,5.55-39.23,5.42"/>
			<path class="st2" d="M500.93,638.24c-5.97,5.77-8.86,11.06-10.41,14.94c-0.81,2.05-1.57,4.5-3.49,7.81
				c-1.06,1.83-2.28,3.57-3.64,5.2c-0.57,0.68-1.16,1.35-1.77,1.99c-1.58,1.66-2.57,3.49-3.35,5.64c-0.98,2.73-1.5,5.62-1.48,8.52
				c0.03,4.73,1.43,8.2,2.21,10.07c1.27,3.04,3.68,7.46,9.58,12.76c11.68,10.49,28.45,16.77,33.48,18.56"/>
		</g>
		
			<ellipse transform="matrix(0.9944 -0.1061 0.1061 0.9944 -68.1366 63.1454)" class="st3" cx="559.5" cy="672.05" rx="5.53" ry="7.63"/>
		
			<ellipse transform="matrix(0.4506 -0.8927 0.8927 0.4506 -313.8615 815.4193)" class="st3" cx="505.58" cy="662.72" rx="7.63" ry="5.53"/>
		<path class="st2" d="M536.23,681.74l-11.82-2.16c-0.15-0.03-0.24,0.16-0.13,0.26l4.92,4.4c0.04,0.04,0.1,0.05,0.15,0.03l6.9-2.24
			C536.39,681.98,536.38,681.77,536.23,681.74z"/>
		<g>
			<path class="st4" d="M546.17,686.59c3.54,4.93-2.09,7.97-6.57,7.98c-4.52,0.06-8.47-2.66-11.39-5.86c0,0,1.19,0.23,1.19,0.23
				c-4.63,2.16-10.82,3.45-15.11-0.12c-1.66-1.26-3.09-3.42-2.57-5.59c0.22-1.05,0.8-1.95,1.5-2.66c-2.66,3.87,0.6,7.27,4.33,8.4
				c3.9,0.97,8.14-0.38,11.65-2.14c0,0,0.5,0.57,0.5,0.57c2.57,2.85,5.98,5.35,9.91,5.61C543.63,693.17,548.48,691.52,546.17,686.59
				L546.17,686.59z"/>
		</g>
		<path class="st2" d="M542.08,693.55c-3.12,11.75-11.43,18.3-17.27,17.12c-6.08-1.23-9.28-10.78-9.63-11.87
			c-1.45-4.5-1.15-8.47-0.79-10.71"/>
		<path class="st2" d="M539.28,700.63c-2.51-1.43-6.39-3.26-11.42-4.24c-5.47-1.06-10.08-0.7-13.04-0.23"/>
		
			<ellipse transform="matrix(0.3866 -0.9223 0.9223 0.3866 -294.7725 956.4396)" class="st2" cx="571.59" cy="699.81" rx="14.99" ry="7.09"/>
		
			<ellipse transform="matrix(0.9972 -0.0754 0.0754 0.9972 -50.2047 38.5264)" class="st2" cx="484.98" cy="683.97" rx="7.09" ry="14.99"/>
		<path class="st2" d="M599.96,638.76c0.66-1.89,3.06-9.51-0.55-17.85c-2.53-5.84-6.74-9.1-8.67-10.41"/>
		<path class="st2" d="M498.23,594.38c-2.18,0.29-3.97,0.9-5.41,1.56c-10.6,4.92-12.84,18.44-13.17,20.59"/>
	</g>
	<g class="st1">
		<path class="st2" d="M383.13,898.22c-2.04,0.33-3.52-1.88-2.42-3.63c0.01-0.02,0.03-0.04,0.04-0.06
			c20.24-32.2,10.58-53.01,26.97-81.55c4.39-7.65,11.02-18.85,24.48-25.53c17.63-8.75,35.29-3.95,39.81-2.56
			c7.49,2.3,21.73,8.41,30.95,23.58c11.95,19.65,6.57,39.81,5.59,43.24c3.22,3.02,7.85,8.37,9.48,15.98
			c4.25,19.89-15.99,36.51-18.61,38.66c-9.26,7.6-19.01,10.14-22.96,11.13c-3.49,0.87-10.4,2.42-18.46,1.75
			c-20.57-1.72-28.58-15.07-48.63-20.16C403.36,897.55,394.62,896.35,383.13,898.22z"/>
		<path class="st2" d="M452.65,848.64c1.02-2.64,8.59-23.06-1.56-34.35c-0.08-0.09-0.17-0.18-0.25-0.28
			c-2.07-2.21-5.25-3.06-8.1-2.05c-0.21,0.07-0.41,0.15-0.61,0.23c-13.61,5.44-14.81,27.92-14.89,29.75
			c2.92,1.52,6.6,3.12,10.98,4.39C443.8,847.95,448.78,848.5,452.65,848.64z"/>
		<path class="st3" d="M453.6,816.59c-1.87-2.76-3.44-3.39-4.57-3.4c-5.22-0.05-11.42,12.8-8.76,22.43c0.4,1.43,1.29,4.67,3.8,5.54
			c2.57,0.88,5.32-1.21,6.52-2.13c4.82-3.68,5.81-9.69,6.07-11.99c-0.04-1.57-0.26-3.73-1.07-6.16
			C455,819.13,454.26,817.69,453.6,816.59z"/>
		<path class="st2" d="M510,842.62c0.01,0.62-0.02,5.05-3.23,7.21c-1.63,1.09-4.29,1.74-5.87,0.73c-5.94-3.78,2.75-31.18,6.54-30.77
			c0.9,0.1,1.52,1.77,1.96,3.8"/>
		<path class="st3" d="M510.02,824.17c-0.42-2.16-1.1-3.11-1.7-3.17c-2.91-0.26-9.5,21.96-4.7,24.84c1.28,0.76,3.46,0.21,4.7-0.67
			c2.08-1.48,2.61-4.65,2.7-5.2c0.04-0.23,0.06-0.39,0.09-0.69c0.1-0.9,0.17-2.45-0.02-6.36
			C510.93,829.66,510.52,826.72,510.02,824.17z"/>
		<path class="st2" d="M458.15,814.95c-0.18-0.8-1.46-6.04-5.73-7.6c-0.58-0.21-1.29-0.38-2.15-0.42"/>
		<path class="st2" d="M501.39,822.58c0.13-0.64,1.03-4.88,4.02-5.86c0.41-0.13,0.91-0.23,1.51-0.2"/>
		<path class="st2" d="M515.49,886.47c0.67-1.83,1.33-3.66,2-5.49c0.04-0.11-0.09-0.21-0.19-0.15
			c-16.24,9.92-29.78,10.27-36.04,9.92c-11.97-0.66-20.96-5.13-36.5-12.98c-10.79-5.45-19.27-10.84-25.02-14.76
			c-0.12-0.08-0.26,0.06-0.18,0.17c3.61,5.65,8.87,13.22,16,21.52c13.24,15.42,19.86,23.14,29.46,24.63
			c9.25,1.44,17.58-3.24,34.21-12.47c6.95-3.85,12.43-7.58,16.21-10.33C515.47,886.52,515.48,886.5,515.49,886.47z"/>
		<path class="st2" d="M500.27,888.46c-0.35,0.87-1.16,2.53-2.88,3.91c-1.03,0.83-2.05,1.29-2.78,1.55
			c-0.2-0.16-0.77-0.68-0.98-1.58c-0.25-1.09,0.24-1.95,0.35-2.14"/>
		<path class="st2" d="M456.57,883.59c-0.71,0.66-1.91,1.62-3.64,2.3c-1.84,0.73-3.49,0.83-4.53,0.8c-0.16,0-0.31-0.08-0.42-0.2
			c-0.61-0.68-1.56-1.94-2.08-3.79c-0.55-1.97-0.33-3.63-0.16-4.45"/>
		<path class="st2" d="M494.13,899.69l-0.93-2.5c-0.09-0.25-0.39-0.34-0.6-0.19c-0.61,0.42-1.3,1-1.98,1.76
			c-1.35,1.52-1.99,3.08-2.3,4.07"/>
		<path class="st2" d="M446.51,897.14c0.25-1.37,0.43-3.08,0.34-5.04c-0.04-1.01-0.15-1.94-0.29-2.78
			c-0.07-0.44-0.44-0.77-0.89-0.78c-0.81-0.03-1.82,0.02-2.96,0.3c-1.13,0.28-2.03,0.69-2.68,1.06"/>
		<path class="st2" d="M445.56,878.87c-4.5-1.45-9.51-2.19-14.82-1.51c-0.35,0.05-0.7,0.1-1.04,0.15"/>
		<path class="st2" d="M501.11,895.91c-0.27-0.51-0.72-1.22-1.45-1.91c-0.85-0.82-1.73-1.26-2.3-1.5"/>
		<path class="st2" d="M483.5,879.26c-0.17-0.46-1.33-3.5-4.47-4.59c-0.42-0.15-0.95-0.28-1.57-0.34"/>
		<path class="st2" d="M493.67,880.83c0.29-0.37,2.25-2.78,4.31-2.39c0.28,0.05,0.6,0.16,0.93,0.39"/>
	</g>
	<g class="st1">
		<circle class="st2" cx="325.69" cy="699.02" r="47.18"/>
		<path class="st2" d="M359.22,665.82c-0.5,1.07-1.04,2.15-1.63,3.24c-4.88,8.98-11.48,15.44-17.63,20.02
			c-6.16-3.85-13.86-3.95-19.59-0.23c-7.03,4.56-9.97,14.11-6.51,22.63c-3.25,3.31-7.76,7.26-13.71,10.86
			c-4.24,2.56-8.25,4.37-11.7,5.66"/>
		<path class="st2" d="M364.86,672.7c-0.9,1.52-1.88,3.06-2.95,4.61c-5.28,7.66-11.26,13.46-16.78,17.8
			c2.87,6.68,1.8,14.3-2.75,19.4c-5.58,6.26-15.46,7.72-23.35,3c-3.59,3.36-8.4,7.22-14.55,10.73c-3.97,2.26-7.74,3.94-11.08,5.19"
			/>
		<circle class="st2" cx="329.52" cy="703.48" r="10.16"/>
		<circle class="st3" cx="329.42" cy="703.57" r="5.87"/>
	</g>
	<g class="st1">
		<path class="st2" d="M383.92,564.13l-6.56-2.58c-4.74-7.98-13.41-20.15-27.93-30.59c-23.3-16.74-47.37-18.78-57.37-19.05
			c2.27-14.17,7.51-24.41,11.26-29.11c2.56-3.21,7.88-8.15,11.71-10.31c0.03-0.01,0.05-0.03,0.05-0.03c2.98-1.67,6.32-2.6,9.74-2.81
			c31.44-1.95,58.18,9.62,67.92,29.93c6.83,14.24,3.2,27.55-1.04,41.94C389.28,549.72,386.63,557.27,383.92,564.13z"/>
		<path class="st2" d="M383.92,564.13l17.12,8.67c5.6-8.21,12.26-20.52,15.16-36.49c0.4-2.19,0.7-4.32,0.93-6.38
			c0.47-4.28-0.35-8.6-2.29-12.44c-1.37-2.72-3.09-5.79-5.23-9.04c-2.87-4.35-25.82-38.02-64.16-40.41
			c-4.61-0.29-11.36-0.24-19.56,1.55"/>
		<path class="st3" d="M292.05,511.9c-10.83,0.46-21.67,0.93-32.5,1.39c-0.91,0.04-1.75,0.62-1.99,1.5
			c-0.04,0.15-0.07,0.3-0.07,0.47c-0.05,1.13,0.84,2.25,2.16,2.55c13.88,2.05,33.36,6.52,54.67,16.96
			c16.6,8.13,29.49,17.53,38.85,25.52c1.16,0.99,2.53,1.72,4,2.12c4.19,1.15,9.96,1.95,16.31,0.37c1.4-0.35,2.7-0.78,3.89-1.25
			c-5.05-8.39-18.06-27.35-42.81-39.42C317.26,513.68,301.39,512.1,292.05,511.9z"/>
		<path class="st2" d="M371.21,510.4l-10.01-5.55c-0.16-1.63-0.93-7.57-5.86-11.82c-5.42-4.68-13.69-5.42-20.88-1.82
			c-2.12-1.27-4.24-2.54-6.36-3.81c1.95-1.68,5.7-4.44,11.08-5.62c11.98-2.61,21.28,4.98,22.41,5.94
			C371.72,496.29,371.29,508.91,371.21,510.4z"/>
		<path class="st2" d="M369.03,512.83c0,0-9.39-5.23-9.41-5.24c-0.05-0.03-2.37,1.65-2.61,1.78c-8.35,4.33-18.36-2.06-21.99-9.73
			c-1.1-2.33-1.47-4.47-1.6-5.9c-2.34-1.29-4.67-2.57-7.01-3.86c-0.25,2.3-0.37,6.21,1.21,10.57c2.74,7.56,8.72,11.29,11.72,13.16
			c3.37,2.1,10.73,6.68,19.67,4.62C363.87,517.11,367.25,514.47,369.03,512.83z"/>
		
			<ellipse transform="matrix(0.5131 -0.8583 0.8583 0.5131 -259.7742 541.9736)" class="st2" cx="347.83" cy="499.96" rx="6.19" ry="9.57"/>
	</g>
	<g class="st1">
		<path class="st2" d="M134.91,598.51c-4.56-1.39-13.56-3.47-24.68-1.56c-10.37,1.79-17.76,6.22-21.62,8.92
			c-5.42-7.99-16.87-22.38-36.55-31.65c-6.77-3.19-13.19-5.15-18.79-6.37c-2.07-0.45-3.84,1.54-3.17,3.55
			c2.18,6.5,5.48,14.18,10.57,22.17c10.79,16.96,24.26,26.91,32.59,32.07l2,1.11"/>
		<path class="st2" d="M155.31,613.84c4.94-5.97,9.23-12.48,12.73-19.39c4.97-9.81,8.33-20.4,9.9-31.29
			c0.39-2.7,0.67-5.41,0.83-8.12c0.13-2.11,0.73-5.15,0.07-7.19c-1.67-5.11-9.63,2.09-11.71,3.65c-8.73,6.54-16.18,14.7-21.93,23.96
			c-4.18,6.71-7.47,13.97-9.84,21.51c-0.21,0.67-0.41,1.34-0.61,2.01"/>
		<g>
			<path class="st2" d="M78.05,619.95c-3.68,7.44-4.63,13.39-4.77,17.57c-0.08,2.2,0.04,4.77-0.66,8.53
				c-0.41,2.19-1.01,4.34-1.79,6.42c-0.99,2.64-2.02,4.88-2.12,7.74c-0.12,3.19,0.36,6.39,1.45,9.39c1.62,4.44,4.11,7.24,5.47,8.74
				c1.72,1.89,5.52,5.6,13.32,8.8c14.92,6.11,34.33,6.17,39.12,6.14"/>
			<path class="st2" d="M149.85,608.19c5.86,5.88,8.66,11.21,10.13,15.13c0.78,2.06,1.48,4.53,3.35,7.87
				c1.03,1.85,2.22,3.61,3.54,5.27c0.56,0.69,1.13,1.37,1.74,2.02c1.55,1.69,2.51,3.54,3.24,5.7c0.93,2.75,1.4,5.65,1.33,8.55
				c-0.11,4.73-1.58,8.18-2.39,10.03c-1.32,3.02-3.81,7.39-9.81,12.59c-11.87,10.28-28.75,16.25-33.81,17.95"/>
		</g>
		
			<ellipse transform="matrix(0.1241 -0.9923 0.9923 0.1241 -556.5547 651.3706)" class="st3" cx="90.68" cy="640.93" rx="7.63" ry="5.53"/>
		
			<ellipse transform="matrix(0.9007 -0.4344 0.4344 0.9007 -260.3988 125.665)" class="st3" cx="144.75" cy="632.57" rx="5.53" ry="7.63"/>
		<path class="st2" d="M113.77,651.04l11.86-1.94c0.15-0.02,0.24,0.16,0.12,0.26l-5,4.31c-0.04,0.04-0.1,0.05-0.15,0.03l-6.86-2.37
			C113.59,651.28,113.61,651.06,113.77,651.04z"/>
		<g>
			<path class="st4" d="M103.73,655.71c-2.38,4.88,2.41,6.62,6.43,6.53c3.94-0.19,7.39-2.62,10.01-5.43c0,0,0.51-0.56,0.51-0.56
				c3.48,1.83,7.69,3.25,11.61,2.36c3.74-1.05,7.08-4.41,4.48-8.32c0.69,0.72,1.25,1.64,1.46,2.69c0.48,2.18-0.99,4.31-2.67,5.54
				c-4.36,3.49-10.52,2.09-15.11-0.15c0,0,1.19-0.21,1.19-0.21c-2.97,3.15-6.98,5.8-11.49,5.65
				C105.69,663.72,100.09,660.58,103.73,655.71L103.73,655.71z"/>
		</g>
		<path class="st2" d="M107.7,662.74c2.91,11.8,11.09,18.5,16.95,17.43c6.1-1.12,9.47-10.61,9.85-11.7c1.53-4.47,1.3-8.45,0.99-10.7
			"/>
		<path class="st2" d="M110.37,669.87c2.54-1.39,6.44-3.14,11.49-4.03c5.48-0.96,10.09-0.51,13.04,0.01"/>
		
			<ellipse transform="matrix(0.9291 -0.3698 0.3698 0.9291 -241.6527 76.2539)" class="st2" cx="78.08" cy="668.46" rx="7.09" ry="14.99"/>
		
			<ellipse transform="matrix(0.0935 -0.9956 0.9956 0.0935 -501.7895 757.2723)" class="st2" cx="164.96" cy="654.19" rx="14.99" ry="7.09"/>
		<path class="st2" d="M50.82,606.91c-0.62-1.9-2.89-9.56,0.88-17.84c2.64-5.8,6.9-8.97,8.86-10.26"/>
		<path class="st2" d="M153.34,564.38c2.17,0.33,3.95,0.97,5.38,1.66c10.51,5.11,12.51,18.67,12.79,20.83"/>
	</g>
	<g class="st1">
		<path class="st5" d="M118.29,817.45c1.27-1.18,2.58-2.33,3.95-3.46c20.64-16.99,45.82-21.74,66.57-22.24"/>
		<path class="st5" d="M183.94,798.1c4.01-5.56,9.1-11.72,15.51-17.9c3.5-3.37,6.96-6.33,10.26-8.91c0.98-0.21,2.78-1.38,4.16-0.31
			c7.5,5.79,17.99,15.47,26.3,30.05c12.79,22.45,23.07,61.24,4.6,87.09c-7.4,10.36-16.94,15.46-34.8,24.92
			c-12.87,6.82-24.33,12.73-40.39,13.59c-15.03,0.8-26.71-3.22-35.56-6.27c-15.43-5.32-23.24-7.69-29.14-15.01
			c-9.28-11.52-8.05-26.75-6.75-42.79c1.05-12.91,4.02-23.23,6.36-29.88"/>
		<path class="st5" d="M99.95,849.33c-3.07-3.77-8.52-11.5-10.76-22.73c-1.34-6.7-1.11-12.57-0.54-16.9
			c0.24-1.82,1.67-3.26,3.49-3.53c4.81-0.69,10.65-1.12,17.26-0.77c8.05,0.43,14.84,1.89,20,3.39"/>
		<path class="st5" d="M116.68,884.8c0.25,0.5,0.67,0.88,1.18,1.09c1.61,0.65,3.7,1.29,6.18,1.58c3.71,0.43,6.87-0.07,9.13-0.68
			c1.04-0.28,1.73-1.25,1.67-2.32c-0.29-5.36-2.06-19.14-13.2-27.84c-2.64-2.06-5.35-3.48-7.83-4.46c-1.4-0.55-2.96,0.37-3.11,1.88
			c-0.19,1.92-0.3,3.97-0.26,6.15C110.59,870.76,113.86,879.26,116.68,884.8z"/>
		<path class="st5" d="M179.41,874.62c-0.41-1.56-0.9-3.83-1.14-6.59c-1.32-15.32,6.22-34.65,17.03-35.9
			c5.07-0.59,9.32,2.98,11.61,4.9c10.34,8.68,9.19,22.81,9.02,24.56c-3.66,2.51-8.34,5.25-14.03,7.6
			C193.15,872.78,185.22,874.12,179.41,874.62z"/>
		<path class="st3" d="M205.25,867.7c0.21-0.84,3.95-17.28-6.65-26.88c-3.5-3.17-7.41-4.55-10.21-5.19
			c-2.31,2.67-4.97,6.4-7.02,11.27c-5.04,11.99-3.08,23.09-1.96,27.73c3.3-0.28,7.05-0.82,11.12-1.78
			C196.38,871.45,201.32,869.55,205.25,867.7z"/>
		<path class="st3" d="M125.55,886.92c-2.11-1.94-8.38-8.24-9.9-18.45c-0.98-6.6,0.45-11.96,1.44-14.78
			c2.77,1.61,9.48,6.02,13.8,14.69c3.68,7.4,3.77,14.2,3.6,17.42c-0.76,0.5-2.28,1.36-4.41,1.61
			C128.03,887.65,126.4,887.22,125.55,886.92z"/>
		<path class="st2" d="M132.02,826.76c-0.79-1.35-0.58-3.07,0.48-4.22c2.68-2.93,7.41-7.12,14.46-9.59
			c5.34-1.87,10.13-2.09,13.42-1.93c1.07,0.05,2.07,0.57,2.7,1.43c0.99,1.35,1.41,2.58,1.6,3.51c1.2,5.91-4.13,13.26-13.57,17.9
			c-0.39,0.19-0.81,0.31-1.24,0.35c-2.66,0.27-11.1,0.62-16.26-5.25C133.09,828.37,132.54,827.65,132.02,826.76z"/>
		<path class="st2" d="M137.71,866.78c-1.05-1.27-1.35-3-0.81-4.56c0.54-1.57,1.4-3.4,2.78-5.22c2.57-3.37,5.85-5.21,8.51-6.21
			c2.54-0.96,5.4,0.39,6.18,2.98c0,0.02,0.01,0.03,0.01,0.05c1.96,6.58,0.24,12.78-1.49,16.82c-0.96,2.24-3.49,3.4-5.8,2.61
			c-1.63-0.56-3.48-1.41-5.34-2.73C140.02,869.3,138.7,867.97,137.71,866.78z"/>
		<path class="st2" d="M156.07,845.17c-0.42-0.57-0.47-1.34-0.12-1.96c0.83-1.5,1.99-3.26,3.6-5.05c1.73-1.93,3.52-3.35,5.06-4.39
			c0.95-0.64,2.25-0.28,2.72,0.77c0.51,1.14,0.98,2.57,1.19,4.24c0.55,4.41-1.04,7.93-2.05,9.69c-0.32,0.56-0.89,0.9-1.53,0.93
			c-1.36,0.05-3.59-0.11-5.84-1.46C157.66,847.09,156.69,846.03,156.07,845.17z"/>
		<g>
			<path class="st6" d="M173.48,844.38c-0.52-4.57,1.41-12.01,7.25-11.4c0,0,0.05,0.19,0.05,0.19c-2.67,2.3-5.2,4.3-6.26,7.76
				c-0.39,1.1-0.66,2.26-0.84,3.45L173.48,844.38L173.48,844.38z"/>
		</g>
		<g>
			<path class="st6" d="M129.01,853.7c-1.67-3.35-4.18-6.63-8.03-7.31c0,0-0.06-0.19-0.06-0.19c0.79-0.9,2.22-1.1,3.4-0.7
				c2.21,0.89,3.18,3.17,4.05,5.13c0.36,0.99,0.65,1.98,0.83,3L129.01,853.7L129.01,853.7z"/>
		</g>
		<g>
			<path class="st6" d="M165.19,894.46c-0.5-3.41,3.27-6.86,6.59-5.64C169.19,890.49,167.38,892.32,165.19,894.46L165.19,894.46z"/>
		</g>
		<g>
			<path class="st6" d="M149.8,897.15c-2.25-0.51-3.53-2.04-5.89-2.1C145.33,892.12,149.74,894.44,149.8,897.15L149.8,897.15z"/>
		</g>
		<path class="st5" d="M107.7,892.33c1.37,2.95,3.58,5.25,6.22,7.1c2.69,1.89,6.27,1.9,9.43,1.72c3.72-0.21,7.45-0.25,11.18-0.13
			c10.92,0.38,20.45,2.17,28.23,4.3c2,0.55,4.14,0.17,5.86-1c5.48-3.74,10.27-6.8,14.1-9.17c4.86-3,9.79-5.92,15.03-8.23
			c6.05-2.67,12.55-4.09,18.73-6.4c4.8-1.79,10.56-4.34,12.4-9.56c1.14-3.23,0.46-6.37-0.18-8.32"/>
		<path class="st5" d="M119.66,901.17c6.59,4.75,15.41,9.44,26.33,11.33c40.34,6.98,71.68-30.69,73.82-33.34"/>
		<path class="st5" d="M139.06,901.26c-0.8,0.9-1.75,2.14-2.61,3.72c-0.9,1.66-1.42,3.2-1.73,4.4"/>
		<path class="st5" d="M127.51,900.98c0.38,0.32,0.83,0.64,1.33,0.95c0.89,0.55,1.76,0.93,2.54,1.19c0.7,0.24,1.46,0.15,2.08-0.25
			c0.26-0.17,0.53-0.37,0.8-0.62c0.46-0.43,0.78-0.86,0.99-1.21"/>
		<path class="st5" d="M194.27,888.55c0.34,0.44,0.86,1.02,1.6,1.53c0.65,0.45,1.3,0.74,1.86,0.92c0.64,0.21,1.34,0.06,1.85-0.38
			c0.89-0.77,1.87-1.74,2.84-2.92c0.98-1.2,1.73-2.37,2.3-3.38"/>
	</g>
</g>
</svg>
