<svg width="284" height="69" viewBox="0 0 284 69" fill="none" xmlns="http://www.w3.org/2000/svg">
<path d="M276.151 0.492848C276.52 3.17723 275.919 5.69763 275.209 8.0897C274.762 9.59766 273.457 10.0718 271.977 10.0219C267.859 9.88285 263.861 9.40159 259.821 9.74382C256.579 10.0183 253.938 11.9683 253.129 14.806C252.232 17.9574 253.206 21.0767 255.78 23.098C258.428 25.1764 261.382 26.5845 264.491 27.8928C274.85 32.2599 284.302 37.3969 283.993 50.3554C283.817 57.692 280.082 63.7168 273.429 66.8147C269.224 68.7718 264.782 69.0035 260.021 69L180.385 68.9536C173.96 68.508 167.965 66.3013 163.573 61.5065L143.157 39.2186L113.672 68.8966L83.8981 68.9501C76.5207 68.3048 69.7973 65.7737 64.3926 60.5725L64.3328 68.9215L53.3686 68.9144L53.3229 30.6592C53.3124 20.9056 46.6663 12.8524 37.5272 10.4782C32.7167 9.23047 27.9555 9.56558 23.4967 11.5512C15.5215 15.1019 10.8798 22.7237 10.8903 31.5718L10.929 68.8645L0 68.9108L0.0843939 29.7466C0.0949432 25.5008 1.13932 21.4189 2.85884 17.7079C8.26357 6.0363 20.1069 -0.430467 32.6429 0.0222778C39.0005 0.250433 44.669 1.37338 50.0808 4.84562C53.7765 7.21629 56.98 10.1181 59.234 14.1144C65.3912 5.05238 75.7717 0.225478 86.2682 0.211219L112.638 0.179134C118.925 0.535627 124.748 2.95621 129.052 7.65478L143.558 23.4973L158.956 7.80807C163.095 3.59076 168.201 1.00976 174.027 0.221913L208.755 0.16844C212.3 0.164875 215.5 0.446504 218.862 1.34843C229.182 4.11481 237.288 11.9077 240.336 22.303C243.325 34.3382 242.562 49.7922 233.62 59.503L262.979 59.5387C265.166 59.5387 267.209 59.0859 269.101 58.1269C273.978 55.6529 274.488 48.6407 271.555 44.7799C270.17 42.9582 268.359 41.6285 266.298 40.6802L255.911 35.9032C248.354 32.4274 242.699 27.3938 242.32 18.4601C241.817 6.64947 251.849 -0.0846699 262.711 0.172005L276.151 0.489283V0.492848ZM104.149 59.4709C106.47 59.4781 109.121 58.7152 110.683 57.1502L136.31 31.5005L121.787 15.3051C118.897 12.0824 115.518 9.82581 111.129 9.67965L85.695 9.70817C76.3378 9.71887 68.229 16.0145 65.5389 25.1942L96.1423 25.2477V35.1689L64.3926 35.2758C63.422 48.0917 73.1062 59.3854 85.3856 59.4175L104.156 59.4674L104.149 59.4709ZM190.445 20.3637C186.641 28.0247 186.437 39.7391 189.746 47.2468C192.102 52.5906 196.29 56.5762 201.825 58.3444C212.064 61.6206 223.774 58.2767 228.518 47.6461C231.341 41.3183 231.373 30.1102 229.154 23.672C227.301 18.2996 223.535 14.0289 218.359 11.7723C215.521 10.5352 212.578 9.70104 209.374 9.70461L176.144 9.75808C173.124 9.76165 170.089 11.4585 168.007 13.5975L150.594 31.4934L157.69 39.3113L172.688 55.6422C176.039 58.7116 180.276 60.1768 184.724 59.3568C177.452 50.9543 175.673 39.871 176.714 29.4543C177.171 26.0213 177.681 22.8485 179.172 19.7613C180.047 19.7113 191.121 19.0126 190.449 20.3709L190.445 20.3637Z" fill="black"/>
</svg>
