<svg width="220" height="220" viewBox="0 0 220 220" fill="none" xmlns="http://www.w3.org/2000/svg">
<g filter="url(#filter0_d_220_444)">
<path d="M159.619 199.528C128.964 215.908 92.5017 216.15 61.7608 200.294C35.449 186.724 15.6998 162.478 7.75106 133.782C3.69365 119.138 2.92115 103.615 5.46606 88.6598C8.46218 71.0462 15.8189 54.8576 26.7458 40.8789C32.2796 33.8009 38.5173 27.685 45.5997 22.1658C56.2739 13.8473 68.2764 7.81819 81.3186 4.06039C118.752 -6.72114 158.456 4.41483 185.58 32.1625C202.784 49.7616 213.845 73.3175 215.697 97.9657C216.978 115.062 214.199 131.898 207.365 147.62C197.778 169.693 180.92 188.142 159.615 199.528H159.619ZM193.006 154.669C205.513 133.627 209.585 108.389 204.026 84.5078C199.608 65.5343 189.594 48.3873 175.386 35.1572C164.329 24.8603 151.392 17.2832 136.891 12.9612C122.391 8.63919 106.609 7.79287 91.5307 10.8707C68.2295 15.6268 47.401 28.7953 33.1387 47.8303C21.2445 63.7078 14.1368 82.797 13.5664 102.696C12.8336 128.332 22.4537 152.984 39.7194 171.595C62.3672 196.012 95.8588 206.884 128.578 200.439C155.644 195.108 178.859 178.475 193.009 154.669H193.006Z" fill="black" fill-opacity="0.9"/>
<path d="M179.952 134.795C182.645 134.752 184.508 136.795 184.512 139.262C184.512 141.974 184.627 144.604 184.461 147.287C184.295 149.971 182.136 151.631 179.613 151.631L162.214 151.62C151.5 151.313 141.331 147.949 132.812 141.468C128.646 138.3 125.358 134.51 122.102 130.354C109.829 147.577 88.6789 155.335 68.464 150.297C58.9919 147.935 50.6136 142.806 44.0221 135.623C29.8934 120.202 27.0705 97.2208 37.3621 78.9707C41.9429 70.8511 48.6174 64.3446 56.8008 59.8887C79.4992 47.4399 106.378 54.0513 121.893 74.6378C130.755 61.2848 146.681 53.0495 162.322 53.5015L178.635 53.422C181.302 53.4075 183.569 54.8687 183.584 57.7476L183.624 65.7334C183.638 68.3121 181.718 70.1169 179.216 70.1314L160.023 70.2182C147.562 70.2724 133.899 80.9889 131.155 93.8573L169.737 93.8862C172.368 93.8862 174.281 95.8862 174.289 98.4541L174.314 106.462C174.022 108.751 172.44 110.672 170.011 110.682L131.177 110.82C135.223 124.668 147.269 134.629 161.272 134.705L179.942 134.806L179.952 134.795ZM82.0802 135.211C94.5628 134.781 105.479 127.659 110.915 116.523C115.113 107.923 114.958 97.597 110.865 88.9855C105.612 77.9435 94.8083 70.8873 82.9393 70.1639C70.7671 69.4225 58.9775 75.4733 52.6134 85.9872C46.3902 96.2732 46.5093 109.38 52.7687 119.525C59.0786 129.753 69.8718 135.631 82.0765 135.211H82.0802Z" fill="black" fill-opacity="0.9"/>
</g>
<defs>
<filter id="filter0_d_220_444" x="0" y="0" width="220" height="220.002" filterUnits="userSpaceOnUse" color-interpolation-filters="sRGB">
<feFlood flood-opacity="0" result="BackgroundImageFix"/>
<feColorMatrix in="SourceAlpha" type="matrix" values="0 0 0 0 0 0 0 0 0 0 0 0 0 0 0 0 0 0 127 0" result="hardAlpha"/>
<feOffset dy="4"/>
<feGaussianBlur stdDeviation="2"/>
<feComposite in2="hardAlpha" operator="out"/>
<feColorMatrix type="matrix" values="0 0 0 0 0 0 0 0 0 0 0 0 0 0 0 0 0 0 0.25 0"/>
<feBlend mode="normal" in2="BackgroundImageFix" result="effect1_dropShadow_220_444"/>
<feBlend mode="normal" in="SourceGraphic" in2="effect1_dropShadow_220_444" result="shape"/>
</filter>
</defs>
</svg>
