<svg width="212" height="212" viewBox="0 0 212 212" fill="none" xmlns="http://www.w3.org/2000/svg">
<path d="M155.619 199.528C124.964 215.908 88.5017 216.15 57.7608 200.294C31.449 186.724 11.6998 162.478 3.75106 133.782C-0.30635 119.138 -1.07885 103.615 1.46606 88.6598C4.46218 71.0462 11.8189 54.8576 22.7458 40.8789C28.2796 33.8009 34.5173 27.685 41.5997 22.1658C52.2739 13.8473 64.2764 7.81819 77.3186 4.06039C114.752 -6.72114 154.456 4.41483 181.58 32.1625C198.784 49.7616 209.845 73.3175 211.697 97.9657C212.978 115.062 210.199 131.898 203.365 147.62C193.778 169.693 176.92 188.142 155.615 199.528H155.619ZM189.006 154.669C201.513 133.627 205.585 108.389 200.026 84.5078C195.608 65.5343 185.594 48.3873 171.386 35.1572C160.329 24.8603 147.392 17.2832 132.891 12.9612C118.391 8.63919 102.609 7.79287 87.5307 10.8707C64.2295 15.6268 43.401 28.7953 29.1387 47.8303C17.2445 63.7078 10.1368 82.797 9.56643 102.696C8.83364 128.332 18.4537 152.984 35.7194 171.595C58.3672 196.012 91.8588 206.884 124.578 200.439C151.644 195.108 174.859 178.475 189.009 154.669H189.006Z" fill="black" fill-opacity="0.9"/>
<path d="M175.952 134.795C178.645 134.752 180.508 136.795 180.512 139.262C180.512 141.974 180.627 144.604 180.461 147.287C180.295 149.971 178.136 151.631 175.613 151.631L158.214 151.62C147.5 151.313 137.331 147.949 128.812 141.468C124.646 138.3 121.358 134.51 118.102 130.354C105.829 147.577 84.6789 155.335 64.464 150.297C54.9919 147.935 46.6136 142.806 40.0221 135.623C25.8934 120.202 23.0705 97.2208 33.3621 78.9707C37.9429 70.8511 44.6174 64.3446 52.8008 59.8887C75.4992 47.4399 102.378 54.0513 117.893 74.6378C126.755 61.2848 142.681 53.0495 158.322 53.5015L174.635 53.422C177.302 53.4075 179.569 54.8687 179.584 57.7476L179.624 65.7334C179.638 68.3121 177.718 70.1169 175.216 70.1314L156.023 70.2182C143.562 70.2724 129.899 80.9889 127.155 93.8573L165.737 93.8862C168.368 93.8862 170.281 95.8862 170.289 98.4541L170.314 106.462C170.022 108.751 168.44 110.672 166.011 110.682L127.177 110.82C131.223 124.668 143.269 134.629 157.272 134.705L175.942 134.806L175.952 134.795ZM78.0802 135.211C90.5628 134.781 101.479 127.659 106.915 116.523C111.113 107.923 110.958 97.597 106.865 88.9855C101.612 77.9435 90.8083 70.8873 78.9393 70.1639C66.7671 69.4225 54.9775 75.4733 48.6134 85.9872C42.3902 96.2732 42.5093 109.38 48.7687 119.525C55.0786 129.753 65.8718 135.631 78.0765 135.211H78.0802Z" fill="black" fill-opacity="0.9"/>
</svg>
