<svg xmlns="http://www.w3.org/2000/svg" viewBox="0 0 640 960" fill="none">
  <path opacity="0.89" d="M791.739 934.448C792.963 942.523 789.593 952.087 787.698 960.095C781.445 986.46 769.625 1036.82 734.821 1043.81C703.486 1050.09 684.692 1019.63 646.283 1033.99C614.513 1045.86 623.03 1062.65 635.939 1084.48C651.816 1111.33 679.495 1142.03 647.608 1170.01C587.974 1222.36 431.47 1178.71 418.342 1105.3C411.033 1064.4 444.563 1025.95 435.61 986.527C428.301 954.293 404.041 922.127 376.966 900.309C351.751 879.996 333.694 876.685 324.239 843.616C307.138 783.846 342.764 742.886 413.33 755.291C454.17 762.463 477.172 772.093 521.834 768.465C578.971 763.817 617.715 738.94 668.983 728.508C680.283 726.2 716.194 721.185 714.451 738.255C713.227 750.259 683.15 778.496 673.979 789.748C662.462 803.875 646.686 824.657 653.291 842.713C663.334 870.182 733.228 890.846 760.471 904.555C773.012 910.858 789.693 920.789 791.756 934.465L791.739 934.448Z" fill="#000072"/>
  <path opacity="0.89" d="M764.778 928.65C765.818 935.532 762.955 943.682 761.345 950.507C756.033 972.977 745.991 1015.89 716.422 1021.85C689.801 1027.21 673.834 1001.25 641.202 1013.49C614.211 1023.6 621.447 1037.91 632.414 1056.52C645.903 1079.4 669.419 1105.56 642.328 1129.41C591.664 1174.02 458.702 1136.82 447.549 1074.25C441.339 1039.4 469.826 1006.63 462.22 973.034C456.01 945.563 435.4 918.149 412.397 899.554C390.975 882.242 375.634 879.421 367.601 851.238C353.073 800.299 383.34 765.391 443.291 775.963C477.987 782.076 497.529 790.283 535.474 787.191C584.015 783.23 616.932 762.028 660.488 753.137C670.088 751.171 700.597 746.896 699.116 761.444C698.076 771.674 672.524 795.74 664.733 805.329C654.947 817.369 641.544 835.08 647.156 850.468C655.688 873.879 715.069 891.49 738.214 903.173C748.868 908.545 763.04 917.009 764.792 928.664L764.778 928.65Z" fill="white"/>
  <path opacity="0.89" d="M763.797 931.027C764.749 937.304 762.128 944.737 760.655 950.962C755.793 971.456 746.603 1010.6 719.541 1016.03C695.177 1020.92 680.564 997.239 650.699 1008.4C625.996 1017.63 632.619 1030.68 642.656 1047.65C655.001 1068.52 676.523 1092.38 651.729 1114.13C605.361 1154.82 483.672 1120.89 473.465 1063.83C467.782 1032.04 493.853 1002.15 486.892 971.508C481.208 946.453 462.346 921.45 441.293 904.49C421.687 888.701 407.648 886.128 400.296 860.423C386.999 813.964 414.7 782.125 469.568 791.768C501.323 797.343 519.208 804.828 553.935 802.008C598.361 798.396 628.486 779.058 668.349 770.949C677.135 769.156 705.058 765.257 703.702 778.525C702.751 787.856 679.365 809.806 672.234 818.551C663.279 829.533 651.012 845.686 656.148 859.721C663.956 881.073 718.302 897.135 739.485 907.791C749.236 912.691 762.207 920.41 763.81 931.04L763.797 931.027Z" fill="#000072"/>
</svg>
