<svg width="640" height="960" viewBox="0 0 640 960" fill="none" xmlns="http://www.w3.org/2000/svg">
<g clip-path="url(#clip0_220_223)">
<rect width="640" height="960" fill="black"/>
<path d="M640.013 0H0.0131836V960H640.013V0Z" fill="white"/>
<path opacity="0.89" d="M791.739 934.448C792.963 942.523 789.593 952.087 787.698 960.095C781.445 986.46 769.625 1036.82 734.821 1043.81C703.486 1050.09 684.692 1019.63 646.283 1033.99C614.513 1045.86 623.03 1062.65 635.939 1084.48C651.816 1111.33 679.495 1142.03 647.608 1170.01C587.974 1222.36 431.47 1178.71 418.342 1105.3C411.033 1064.4 444.563 1025.95 435.61 986.527C428.301 954.293 404.041 922.127 376.966 900.309C351.751 879.996 333.694 876.685 324.239 843.616C307.138 783.846 342.764 742.886 413.33 755.291C454.17 762.463 477.172 772.093 521.834 768.465C578.971 763.817 617.715 738.94 668.983 728.508C680.283 726.2 716.194 721.185 714.451 738.255C713.227 750.259 683.15 778.496 673.979 789.748C662.462 803.875 646.686 824.657 653.291 842.713C663.334 870.182 733.228 890.846 760.471 904.555C773.012 910.858 789.693 920.789 791.756 934.465L791.739 934.448Z" fill="#000072"/>
<path opacity="0.89" d="M764.778 928.65C765.818 935.532 762.955 943.682 761.345 950.507C756.033 972.977 745.991 1015.89 716.422 1021.85C689.801 1027.21 673.834 1001.25 641.202 1013.49C614.211 1023.6 621.447 1037.91 632.414 1056.52C645.903 1079.4 669.419 1105.56 642.328 1129.41C591.664 1174.02 458.702 1136.82 447.549 1074.25C441.339 1039.4 469.826 1006.63 462.22 973.034C456.01 945.563 435.4 918.149 412.397 899.554C390.975 882.242 375.634 879.421 367.601 851.238C353.073 800.299 383.34 765.391 443.291 775.963C477.987 782.076 497.529 790.283 535.474 787.191C584.015 783.23 616.932 762.028 660.488 753.137C670.088 751.171 700.597 746.896 699.116 761.444C698.076 771.674 672.524 795.74 664.733 805.329C654.947 817.369 641.544 835.08 647.156 850.468C655.688 873.879 715.069 891.49 738.214 903.173C748.868 908.545 763.04 917.009 764.792 928.664L764.778 928.65Z" fill="white"/>
<path opacity="0.89" d="M763.797 931.027C764.749 937.304 762.128 944.737 760.655 950.962C755.793 971.456 746.603 1010.6 719.541 1016.03C695.177 1020.92 680.564 997.239 650.699 1008.4C625.996 1017.63 632.619 1030.68 642.656 1047.65C655.001 1068.52 676.523 1092.38 651.729 1114.13C605.361 1154.82 483.672 1120.89 473.465 1063.83C467.782 1032.04 493.853 1002.15 486.892 971.508C481.208 946.453 462.346 921.45 441.293 904.49C421.687 888.701 407.648 886.128 400.296 860.423C386.999 813.964 414.7 782.125 469.568 791.768C501.323 797.343 519.208 804.828 553.935 802.008C598.361 798.396 628.486 779.058 668.349 770.949C677.135 769.156 705.058 765.257 703.702 778.525C702.751 787.856 679.365 809.806 672.234 818.551C663.279 829.533 651.012 845.686 656.148 859.721C663.956 881.073 718.302 897.135 739.485 907.791C749.236 912.691 762.207 920.41 763.81 931.04L763.797 931.027Z" fill="#000072"/>
<path opacity="0.89" d="M40.2441 -9.52628C60.0904 -11.2803 79.2782 -7.65746 98.7686 -6.85419C133.673 -5.4116 169.77 -8.01811 204.8 -6.91977C221.585 -6.39518 238.156 -3.91982 255.03 -4.75587C269.465 -5.46077 283.794 -8.72301 298.336 -6.87059C334.095 -2.34608 319.143 30.8992 299.439 44.7023C266.564 67.7346 227.102 64.1118 188.762 57.7184C158.664 52.7021 107.134 37.2598 78.8687 48.1448C71.3574 51.03 70.7167 54.948 68.0289 61.6692C49.7311 107.685 61.5145 174.831 64.3624 223.568C66.3737 258.026 68.3494 298.993 55.872 331.845C41.7037 369.172 9.45114 367.041 -6.37256 331.451C-38.8209 258.535 -7.61858 180.831 -4.43248 106.045C-2.77713 67.4396 -20.1316 -4.18211 40.2441 -9.52628Z" fill="#000072"/>
<path opacity="0.89" d="M22.2441 -35.5276C42.0904 -37.2769 61.2782 -33.6638 80.7686 -32.8627C115.673 -31.424 151.77 -34.0235 186.8 -32.9281C203.585 -32.405 220.156 -29.9363 237.03 -30.7701C251.465 -31.4731 265.794 -34.7265 280.336 -32.8791C316.095 -28.3668 301.143 4.7884 281.439 18.554C248.564 41.524 209.102 37.9109 170.762 31.5349C140.664 26.5322 89.1342 11.1317 60.8687 21.9873C53.3574 24.8646 52.7167 28.772 50.0289 35.475C31.7311 81.3658 43.5145 148.33 46.3624 196.935C48.3737 231.3 50.3494 272.155 37.872 304.918C23.7037 342.144 -8.54886 340.019 -24.3726 304.526C-56.8209 231.807 -25.6186 154.314 -22.4325 79.731C-20.7771 41.2297 -38.1316 -30.1979 22.2441 -35.5276Z" fill="white"/>
<path opacity="0.89" d="M11.2881 -48.0283C21.1689 -48.9016 30.8943 -48.4366 40.5996 -47.6504C50.2909 -46.8654 59.9905 -45.7566 69.748 -45.3545C87.2175 -44.6325 104.983 -44.9238 122.747 -45.2578C140.516 -45.5919 158.285 -45.9686 175.784 -45.4199C184.164 -45.158 192.483 -44.4099 200.847 -43.8291C209.202 -43.2489 217.587 -42.8373 226.055 -43.2568C233.285 -43.6099 240.516 -44.6052 247.689 -45.2744C254.882 -45.9454 262.056 -46.2942 269.272 -45.375H269.273C278.141 -44.253 283.772 -41.3608 286.981 -37.5234C290.183 -33.6946 291.041 -28.843 290.192 -23.6445C288.489 -13.2108 279.927 -1.55462 270.152 5.29297C237.46 28.1969 198.191 24.62 159.845 18.2256C152.333 16.9737 143.482 15.0703 133.971 13.0859C124.465 11.1028 114.308 9.04026 104.205 7.47461C84.028 4.34774 63.9585 3.18295 49.6895 8.67773C45.8563 10.1501 43.7259 11.9097 42.2227 14.1934C40.7506 16.4298 39.8871 19.1758 38.5645 22.4834V22.4844C29.3759 45.592 27.7514 73.9689 28.7666 102.616C29.2744 116.945 30.4437 131.357 31.6631 145.226C32.8828 159.099 34.1519 172.422 34.8633 184.597C36.8759 219.077 38.8371 259.933 26.4043 292.667C19.3592 311.228 7.89658 319.8 -3.61621 319.492C-14.9751 319.189 -26.672 310.241 -34.5439 293.072L-34.916 292.248C-51.087 255.909 -51.4076 218.359 -47.2686 180.504C-45.1986 161.573 -42.0163 142.587 -39.1484 123.636C-36.2818 104.692 -33.7303 85.7911 -32.9326 67.0664C-32.5177 57.3885 -33.2942 45.6363 -33.7441 33.4336C-34.1948 21.2101 -34.3197 8.50976 -32.6191 -3.1416C-30.9183 -14.7943 -27.398 -25.3497 -20.5947 -33.3184C-14.0159 -41.024 -4.3252 -46.3597 9.89746 -47.8916L11.2881 -48.0283Z" fill="#000072" stroke="black"/>
</g>
<defs>
<clipPath id="clip0_220_223">
<rect width="640" height="960" fill="white"/>
</clipPath>
</defs>
</svg>
