<svg width="273" height="225" viewBox="0 0 273 225" fill="none" xmlns="http://www.w3.org/2000/svg">
<path d="M89.2578 178.844H101.562C102.297 178.844 102.766 180.133 102.969 182.711L109.062 213.531C108.984 213.844 108.75 214 108.359 214H101.094C100.469 214 100.078 213.062 99.9219 211.188C99.4062 207.812 99.0156 205.977 98.75 205.68H95.1172H92.0703C91.7734 205.68 91.2656 208.297 90.5469 213.531L90.0781 214H82.1094L81.7578 213.648C84.0234 202.195 85.7031 193.133 86.7969 186.461L88.3203 179.312C88.6484 179 88.9609 178.844 89.2578 178.844ZM92.3047 199.117L92.4219 199.234H96.875L97.1094 199L94.8828 186.578L94.7656 186.461H94.6484C94.2891 186.461 93.9297 187.828 93.5703 190.562C92.7266 195.266 92.3047 198.117 92.3047 199.117ZM112.953 178.844H128.891C130.922 179.328 132.562 180.344 133.812 181.891C134.75 182.938 135.219 184.891 135.219 187.75V190.445C135.219 193.117 134.75 194.875 133.812 195.719L133.344 196.305V196.539C134.672 197.789 135.336 199.508 135.336 201.695V213.297C135.133 213.766 134.82 214 134.398 214H127.836C127.211 214 126.898 213.648 126.898 212.945V201.578C126.664 200.25 126 199.586 124.906 199.586H121.625L121.156 200.055V212.711C121.156 213.57 120.844 214 120.219 214H113.609C113.156 214 112.844 213.648 112.672 212.945L112.602 179.195L112.953 178.844ZM121.156 185.992V192.906L121.508 193.258H125.141C126.062 193.258 126.648 192.555 126.898 191.148V187.398C126.617 186.148 125.836 185.523 124.555 185.523H121.625L121.156 185.992ZM139.672 178.844H161.82L162.172 179.195L162.148 184.703C162.07 185.328 161.797 185.641 161.328 185.641H155.609C155.062 185.641 154.789 185.914 154.789 186.461V213.062C154.789 213.688 154.555 214 154.086 214H147.055C146.508 214 146.234 213.609 146.234 212.828V191.617V186.109L145.578 185.641H140.023C139.242 185.594 138.852 185.414 138.852 185.102V180.062V179.664C138.945 179.117 139.219 178.844 139.672 178.844ZM166.062 178.844H177.312C177.75 179.188 178.805 182 180.477 187.281L184.344 198.766H184.695L184.672 179.758C184.812 179.148 184.977 178.844 185.164 178.844H193.133L193.484 179.195V213.648L193.133 214H182.234C181.734 214 181.383 213.453 181.18 212.359L174.969 193.961H174.617V195.016V213.062C174.617 213.688 174.383 214 173.914 214H166.062L165.711 213.648V179.195L166.062 178.844ZM197.492 178.844H217.766L218.117 179.195V184.469C218.117 185.016 217.844 185.289 217.297 185.289H205.695C205.227 185.289 204.992 185.523 204.992 185.992V192.086L205.344 192.438H215.188C215.891 192.438 216.242 192.711 216.242 193.258V198.297C216.242 198.766 216.008 199 215.539 199H205.695C205.227 199 204.992 199.234 204.992 199.703V205.562C204.992 206.891 206.008 207.555 208.039 207.555H217.883C218.43 207.555 218.703 207.828 218.703 208.375V213.648L218.352 214H203.234C201 213.406 199.32 212.234 198.195 210.484C197.414 208.906 197.023 207.383 197.023 205.914V180.25C197.023 179.312 197.18 178.844 197.492 178.844ZM222.594 178.844H238.531C240.562 179.328 242.203 180.344 243.453 181.891C244.391 182.938 244.859 184.891 244.859 187.75V190.445C244.859 193.117 244.391 194.875 243.453 195.719L242.984 196.305V196.539C244.312 197.789 244.977 199.508 244.977 201.695V213.297C244.773 213.766 244.461 214 244.039 214H237.477C236.852 214 236.539 213.648 236.539 212.945V201.578C236.305 200.25 235.641 199.586 234.547 199.586H231.266L230.797 200.055V212.711C230.797 213.57 230.484 214 229.859 214H223.25C222.797 214 222.484 213.648 222.312 212.945L222.242 179.195L222.594 178.844ZM230.797 185.992V192.906L231.148 193.258H234.781C235.703 193.258 236.289 192.555 236.539 191.148V187.398C236.258 186.148 235.477 185.523 234.195 185.523H231.266L230.797 185.992ZM254.703 178.844H269.703L270.055 179.195V184.703C270.055 185.125 269.898 185.398 269.586 185.523H258.922C257.672 185.883 257.047 186.547 257.047 187.516V189.977C257.047 191.273 258.219 192.094 260.562 192.438C261.156 192.438 263.617 193.023 267.945 194.195C270.055 195.461 271.109 197.57 271.109 200.523V205.445C271.109 209.305 269.43 211.961 266.07 213.414L263.141 214H249.898C249.477 214 249.125 213.766 248.844 213.297V207.438L249.547 206.852L250.367 206.969H260.68C261.93 206.719 262.555 206.094 262.555 205.094V202.164C262.555 201.102 262.047 200.398 261.031 200.055C254 198.57 250.484 197.516 250.484 196.891C249.156 195.75 248.492 193.953 248.492 191.5V186.461C248.492 183.242 250.094 180.859 253.297 179.312L254.703 178.844Z" fill="white"/>
<path d="M128.145 161.327C111.072 168.272 94.1243 167.715 75.8219 167.323L75.7976 189.46C75.7855 200.502 67.1357 214.008 56.7511 214H20.7608C14.9741 214 11.9589 210.122 8 206C4.89028 202.762 0.541561 194.567 0.541561 189.799L0.557736 112.41C14.9255 130.784 27.4008 144.532 50.8511 149.473C59.6262 151.323 68.3569 152.227 77.2048 150.927C79.5988 150.576 82.3527 149.914 83.3434 147.41C72.1015 148.222 61.3894 147.471 50.8066 145.044C48.9141 144.612 47.1307 144.1 45.7073 142.606C47.1267 141.504 48.7685 141.827 50.3173 142.045L67.811 144.532C74.7017 145.513 97.4403 145.452 101.626 138.213C100.417 137.341 99.1266 137.7 97.9538 138.007C94.739 138.847 91.7061 139.723 88.3537 140.159C80.1892 141.217 72.243 140.793 64.1432 139.445C61.8746 139.065 51.6599 137.28 51.4657 135.161C51.2555 132.859 61.9676 135.161 64.1109 135.508C108.294 142.711 112.338 119.027 107.437 122.903C103.551 125.972 99.2398 128.196 94.2537 129.028C85.6848 130.457 77.221 130.437 68.5834 129.351C65.9872 129.024 57.0665 127.732 56.7511 125.079C56.4356 122.427 63.476 123.658 65.5222 123.929C73.0437 124.926 80.3591 125.58 88.0383 124.825C101.787 123.468 114.129 112.2 110.922 109.253C109.806 108.227 107.704 108.72 106.381 109.297L95.4143 114.085C87.6056 117.493 79.1418 117.687 71.1431 114.631C65.9468 112.648 60.4633 108.865 61.0092 102.962C61.5147 97.4513 68.9797 95.0288 74.5925 90.1557C76.8247 88.2177 81.1799 83.8855 79.1297 81.0553C75.6197 76.2104 53.9689 88.6013 49.3508 91.0278C43.5398 94.08 37.1667 94.6655 30.9756 92.4651C27.231 91.1327 23.8988 89.4612 20.7608 86.9055C11.8846 79.6664 5.39014 69.9363 2.72119 58.688C0.618394 49.8501 -0.198464 41.0889 0.0401233 32.0652C0.355544 20.1346 5.24051 8.49475 16.0335 2.66471C19.3778 0.855948 23.0375 -0.00402327 26.9924 1.41488e-05L97.6869 0.0767252C111.8 0.0928749 125.116 5.04276 136.601 13.0369C150.233 22.5248 160.739 35.707 167.1 51.0169C169.239 56.1686 174.124 72.3829 172.765 77.7527C167.031 63.0323 156.658 50.9361 142.966 42.8532C127.793 33.8982 110.158 29.8568 92.5917 31.3143C91.33 31.4192 82.7287 32.8848 84.4231 35.3113C94.0313 34.1364 112.779 34.6774 121.246 38.7996C121.675 39.0056 121.861 39.5466 121.784 39.8857C121.028 43.1116 87.9534 31.9764 68.2073 41.6703C67.2206 42.1547 65.8376 42.9299 65.7527 44.1775C65.688 45.1021 67.2732 45.0052 67.9566 44.7831C74.3984 42.6715 80.7634 41.5653 87.6218 41.5653C94.7713 41.5653 109.754 42.5222 115.638 45.9984C116.095 46.2689 116.374 46.7857 116.37 47.1531C116.337 48.9901 110.033 47.7466 108.48 47.4761C95.4669 45.1949 78.6 43.7455 66.4644 49.6119C62.5419 51.5095 59.1652 54.2388 57.6448 58.3044C57.4992 58.688 57.5639 59.0433 57.6731 59.2573C57.7944 59.5076 58.3605 59.7458 58.777 59.4026C62.6955 56.1767 67.1397 54.0773 72.243 53.0275C82.6802 50.8837 93.36 51.1219 103.789 53.2819C105.621 53.6614 110.389 54.913 110.328 56.8469C110.263 58.9181 105.827 58.4458 104.189 58.1914C96.587 57.0205 89.2636 56.3423 81.5277 56.7016C72.882 57.1053 64.8711 60.2141 58.316 65.7414C56.9088 66.9284 53.7667 70.1745 55.1376 71.8419C56.5084 73.5094 62.2911 70.7639 64.1068 69.9686C73.9617 65.6364 82.0453 62.6285 93.0567 65.7737C96.866 66.8638 100.481 68.4303 103.106 71.3655C106.616 75.2899 106.171 81.019 101.739 83.8008L92.9071 89.3482C90.404 90.9187 84.043 96.3249 85.5392 99.5992C88.4387 105.926 107.437 95.263 111.703 92.885C119.876 88.3267 126.536 83.9259 136.819 87.491C146.205 90.7411 153.969 97.7945 157.427 107.157C161.952 119.399 159.942 132.65 152.319 143.127C146.193 151.549 137.826 157.399 128.145 161.339V161.327Z" fill="white" fill-opacity="0.9"/>
</svg>
