<svg width="280" height="225" viewBox="0 0 280 225" fill="none" xmlns="http://www.w3.org/2000/svg">
<g filter="url(#filter0_d_220_222)">
<path d="M93.2578 178.844H105.562C106.297 178.844 106.766 180.133 106.969 182.711L113.062 213.531C112.984 213.844 112.75 214 112.359 214H105.094C104.469 214 104.078 213.062 103.922 211.188C103.406 207.812 103.016 205.977 102.75 205.68H99.1172H96.0703C95.7734 205.68 95.2656 208.297 94.5469 213.531L94.0781 214H86.1094L85.7578 213.648C88.0234 202.195 89.7031 193.133 90.7969 186.461L92.3203 179.312C92.6484 179 92.9609 178.844 93.2578 178.844ZM96.3047 199.117L96.4219 199.234H100.875L101.109 199L98.8828 186.578L98.7656 186.461H98.6484C98.2891 186.461 97.9297 187.828 97.5703 190.562C96.7266 195.266 96.3047 198.117 96.3047 199.117ZM116.953 178.844H132.891C134.922 179.328 136.562 180.344 137.812 181.891C138.75 182.938 139.219 184.891 139.219 187.75V190.445C139.219 193.117 138.75 194.875 137.812 195.719L137.344 196.305V196.539C138.672 197.789 139.336 199.508 139.336 201.695V213.297C139.133 213.766 138.82 214 138.398 214H131.836C131.211 214 130.898 213.648 130.898 212.945V201.578C130.664 200.25 130 199.586 128.906 199.586H125.625L125.156 200.055V212.711C125.156 213.57 124.844 214 124.219 214H117.609C117.156 214 116.844 213.648 116.672 212.945L116.602 179.195L116.953 178.844ZM125.156 185.992V192.906L125.508 193.258H129.141C130.062 193.258 130.648 192.555 130.898 191.148V187.398C130.617 186.148 129.836 185.523 128.555 185.523H125.625L125.156 185.992ZM143.672 178.844H165.82L166.172 179.195L166.148 184.703C166.07 185.328 165.797 185.641 165.328 185.641H159.609C159.062 185.641 158.789 185.914 158.789 186.461V213.062C158.789 213.688 158.555 214 158.086 214H151.055C150.508 214 150.234 213.609 150.234 212.828V191.617V186.109L149.578 185.641H144.023C143.242 185.594 142.852 185.414 142.852 185.102V180.062V179.664C142.945 179.117 143.219 178.844 143.672 178.844ZM170.062 178.844H181.312C181.75 179.188 182.805 182 184.477 187.281L188.344 198.766H188.695L188.672 179.758C188.812 179.148 188.977 178.844 189.164 178.844H197.133L197.484 179.195V213.648L197.133 214H186.234C185.734 214 185.383 213.453 185.18 212.359L178.969 193.961H178.617V195.016V213.062C178.617 213.688 178.383 214 177.914 214H170.062L169.711 213.648V179.195L170.062 178.844ZM201.492 178.844H221.766L222.117 179.195V184.469C222.117 185.016 221.844 185.289 221.297 185.289H209.695C209.227 185.289 208.992 185.523 208.992 185.992V192.086L209.344 192.438H219.188C219.891 192.438 220.242 192.711 220.242 193.258V198.297C220.242 198.766 220.008 199 219.539 199H209.695C209.227 199 208.992 199.234 208.992 199.703V205.562C208.992 206.891 210.008 207.555 212.039 207.555H221.883C222.43 207.555 222.703 207.828 222.703 208.375V213.648L222.352 214H207.234C205 213.406 203.32 212.234 202.195 210.484C201.414 208.906 201.023 207.383 201.023 205.914V180.25C201.023 179.312 201.18 178.844 201.492 178.844ZM226.594 178.844H242.531C244.562 179.328 246.203 180.344 247.453 181.891C248.391 182.938 248.859 184.891 248.859 187.75V190.445C248.859 193.117 248.391 194.875 247.453 195.719L246.984 196.305V196.539C248.312 197.789 248.977 199.508 248.977 201.695V213.297C248.773 213.766 248.461 214 248.039 214H241.477C240.852 214 240.539 213.648 240.539 212.945V201.578C240.305 200.25 239.641 199.586 238.547 199.586H235.266L234.797 200.055V212.711C234.797 213.57 234.484 214 233.859 214H227.25C226.797 214 226.484 213.648 226.312 212.945L226.242 179.195L226.594 178.844ZM234.797 185.992V192.906L235.148 193.258H238.781C239.703 193.258 240.289 192.555 240.539 191.148V187.398C240.258 186.148 239.477 185.523 238.195 185.523H235.266L234.797 185.992ZM258.703 178.844H273.703L274.055 179.195V184.703C274.055 185.125 273.898 185.398 273.586 185.523H262.922C261.672 185.883 261.047 186.547 261.047 187.516V189.977C261.047 191.273 262.219 192.094 264.562 192.438C265.156 192.438 267.617 193.023 271.945 194.195C274.055 195.461 275.109 197.57 275.109 200.523V205.445C275.109 209.305 273.43 211.961 270.07 213.414L267.141 214H253.898C253.477 214 253.125 213.766 252.844 213.297V207.438L253.547 206.852L254.367 206.969H264.68C265.93 206.719 266.555 206.094 266.555 205.094V202.164C266.555 201.102 266.047 200.398 265.031 200.055C258 198.57 254.484 197.516 254.484 196.891C253.156 195.75 252.492 193.953 252.492 191.5V186.461C252.492 183.242 254.094 180.859 257.297 179.312L258.703 178.844Z" fill="white"/>
</g>
<g filter="url(#filter1_d_220_222)">
<path d="M132.145 161.327C115.072 168.272 98.1243 167.715 79.8219 167.323L79.7976 189.46C79.7855 200.502 71.1357 214.008 60.7511 214H24.7608C18.9741 214 15.9589 210.122 12 206C8.89028 202.762 4.54156 194.567 4.54156 189.799L4.55774 112.41C18.9255 130.784 31.4008 144.532 54.8511 149.473C63.6262 151.323 72.3569 152.227 81.2048 150.927C83.5988 150.576 86.3527 149.914 87.3434 147.41C76.1015 148.222 65.3894 147.471 54.8066 145.044C52.9141 144.612 51.1307 144.1 49.7073 142.606C51.1267 141.504 52.7685 141.827 54.3173 142.045L71.811 144.532C78.7017 145.513 101.44 145.452 105.626 138.213C104.417 137.341 103.127 137.7 101.954 138.007C98.739 138.847 95.7061 139.723 92.3537 140.159C84.1892 141.217 76.243 140.793 68.1432 139.445C65.8746 139.065 55.6599 137.28 55.4657 135.161C55.2555 132.859 65.9676 135.161 68.1109 135.508C112.294 142.711 116.338 119.027 111.437 122.903C107.551 125.972 103.24 128.196 98.2537 129.028C89.6848 130.457 81.221 130.437 72.5834 129.351C69.9872 129.024 61.0665 127.732 60.7511 125.079C60.4356 122.427 67.476 123.658 69.5222 123.929C77.0437 124.926 84.3591 125.58 92.0383 124.825C105.787 123.468 118.129 112.2 114.922 109.253C113.806 108.227 111.704 108.72 110.381 109.297L99.4143 114.085C91.6056 117.493 83.1418 117.687 75.1431 114.631C69.9468 112.648 64.4633 108.865 65.0092 102.962C65.5147 97.4513 72.9797 95.0288 78.5925 90.1557C80.8247 88.2177 85.1799 83.8855 83.1297 81.0553C79.6197 76.2104 57.9689 88.6013 53.3508 91.0278C47.5398 94.08 41.1667 94.6655 34.9756 92.4651C31.231 91.1327 27.8988 89.4612 24.7608 86.9055C15.8846 79.6664 9.39013 69.9363 6.72119 58.688C4.61839 49.8501 3.80154 41.0889 4.04012 32.0652C4.35554 20.1346 9.24051 8.49475 20.0335 2.66471C23.3778 0.855948 27.0375 -0.00402327 30.9924 1.41488e-05L101.687 0.0767252C115.8 0.0928749 129.116 5.04276 140.601 13.0369C154.233 22.5248 164.739 35.707 171.1 51.0169C173.239 56.1686 178.124 72.3829 176.765 77.7527C171.031 63.0323 160.658 50.9361 146.966 42.8532C131.793 33.8982 114.158 29.8568 96.5917 31.3143C95.33 31.4192 86.7287 32.8848 88.4231 35.3113C98.0313 34.1364 116.779 34.6774 125.246 38.7996C125.675 39.0056 125.861 39.5466 125.784 39.8857C125.028 43.1116 91.9534 31.9764 72.2073 41.6703C71.2206 42.1547 69.8376 42.9299 69.7527 44.1775C69.688 45.1021 71.2732 45.0052 71.9566 44.7831C78.3984 42.6715 84.7634 41.5653 91.6218 41.5653C98.7713 41.5653 113.754 42.5222 119.638 45.9984C120.095 46.2689 120.374 46.7857 120.37 47.1531C120.337 48.9901 114.033 47.7466 112.48 47.4761C99.4669 45.1949 82.6 43.7455 70.4644 49.6119C66.5419 51.5095 63.1652 54.2388 61.6448 58.3044C61.4992 58.688 61.5639 59.0433 61.6731 59.2573C61.7944 59.5076 62.3605 59.7458 62.777 59.4026C66.6955 56.1767 71.1397 54.0773 76.243 53.0275C86.6802 50.8837 97.36 51.1219 107.789 53.2819C109.621 53.6614 114.389 54.913 114.328 56.8469C114.263 58.9181 109.827 58.4458 108.189 58.1914C100.587 57.0205 93.2636 56.3423 85.5277 56.7016C76.882 57.1053 68.8711 60.2141 62.316 65.7414C60.9088 66.9284 57.7667 70.1745 59.1376 71.8419C60.5084 73.5094 66.2911 70.7639 68.1068 69.9686C77.9617 65.6364 86.0453 62.6285 97.0567 65.7737C100.866 66.8638 104.481 68.4303 107.106 71.3655C110.616 75.2899 110.171 81.019 105.739 83.8008L96.9071 89.3482C94.404 90.9187 88.043 96.3249 89.5392 99.5992C92.4387 105.926 111.437 95.263 115.703 92.885C123.876 88.3267 130.536 83.9259 140.819 87.491C150.205 90.7411 157.969 97.7945 161.427 107.157C165.952 119.399 163.942 132.65 156.319 143.127C150.193 151.549 141.826 157.399 132.145 161.339V161.327Z" fill="white" fill-opacity="0.9" shape-rendering="crispEdges"/>
</g>
<defs>
<filter id="filter0_d_220_222" x="81.7578" y="178.844" width="197.352" height="43.1562" filterUnits="userSpaceOnUse" color-interpolation-filters="sRGB">
<feFlood flood-opacity="0" result="BackgroundImageFix"/>
<feColorMatrix in="SourceAlpha" type="matrix" values="0 0 0 0 0 0 0 0 0 0 0 0 0 0 0 0 0 0 127 0" result="hardAlpha"/>
<feOffset dy="4"/>
<feGaussianBlur stdDeviation="2"/>
<feComposite in2="hardAlpha" operator="out"/>
<feColorMatrix type="matrix" values="0 0 0 0 0 0 0 0 0 0 0 0 0 0 0 0 0 0 0.7 0"/>
<feBlend mode="normal" in2="BackgroundImageFix" result="effect1_dropShadow_220_222"/>
<feBlend mode="normal" in="SourceGraphic" in2="effect1_dropShadow_220_222" result="shape"/>
</filter>
<filter id="filter1_d_220_222" x="0" y="0" width="181" height="222" filterUnits="userSpaceOnUse" color-interpolation-filters="sRGB">
<feFlood flood-opacity="0" result="BackgroundImageFix"/>
<feColorMatrix in="SourceAlpha" type="matrix" values="0 0 0 0 0 0 0 0 0 0 0 0 0 0 0 0 0 0 127 0" result="hardAlpha"/>
<feOffset dy="4"/>
<feGaussianBlur stdDeviation="2"/>
<feComposite in2="hardAlpha" operator="out"/>
<feColorMatrix type="matrix" values="0 0 0 0 0 0 0 0 0 0 0 0 0 0 0 0 0 0 0.7 0"/>
<feBlend mode="normal" in2="BackgroundImageFix" result="effect1_dropShadow_220_222"/>
<feBlend mode="normal" in="SourceGraphic" in2="effect1_dropShadow_220_222" result="shape"/>
</filter>
</defs>
</svg>
