<?xml version="1.0" encoding="utf-8"?>
<!-- Generator: Adobe Illustrator 28.4.1, SVG Export Plug-In . SVG Version: 6.00 Build 0)  -->
<svg version="1.1" xmlns="http://www.w3.org/2000/svg" xmlns:xlink="http://www.w3.org/1999/xlink" x="0px" y="0px"
	 viewBox="0 0 640 960" style="enable-background:new 0 0 640 960;" xml:space="preserve">
<style type="text/css">
	.st0{fill:url(#SVGID_1_);}
	.st1{opacity:0.55;fill:none;stroke:#F18918;stroke-width:2;stroke-miterlimit:10;}
	.st2{opacity:0.55;fill:#F18918;}
	.st3{opacity:0.55;}
	.st4{fill:#F18918;}
</style>
<g id="FONDO">
	<radialGradient id="SVGID_1_" cx="320" cy="480" r="407.9216" gradientUnits="userSpaceOnUse">
		<stop  offset="0" style="stop-color:#0F101E;stop-opacity:0.999"/>
		<stop  offset="0.3212" style="stop-color:#101022;stop-opacity:0.9989"/>
		<stop  offset="0.4777" style="stop-color:#110F26;stop-opacity:0.9986"/>
		<stop  offset="0.8296" style="stop-color:#13142B;stop-opacity:0.995"/>
		<stop  offset="0.9804" style="stop-color:#16172F;stop-opacity:0.9926"/>
	</radialGradient>
	<rect class="st0" width="640" height="960"/>
</g>
<g id="Capa_4">
</g>
<g id="PATRÓN">
	<circle class="st1" cx="186.83" cy="352.97" r="49.46"/>
	<line class="st1" x1="182.77" y1="356.84" x2="236.29" y2="352.97"/>
	<circle class="st2" cx="205.84" cy="339.42" r="7.41"/>
	<path class="st1" d="M100.59,121.84"/>
	<path class="st1" d="M171.86,94.01"/>
	<path class="st1" d="M103.18,119.97"/>
	<path class="st1" d="M155.48,166.14"/>
	<circle class="st2" cx="120.68" cy="117.75" r="10.06"/>
	<path class="st1" d="M106.85,123.44"/>
	<path class="st1" d="M148.46,193.02L103,151.01c-1.62-1.5-1.09-4.19,0.98-4.96c19.88-7.4,39.76-14.8,59.64-22.2
		c0.04-0.02,0.07-0.06,0.05-0.1c-2.13-5.5-12.84-31.34-38.86-40.73c-33.43-12.06-80.38,7.29-89.28,48.28
		c-8.39,38.63,21.74,74.68,55.94,80.29c29.88,4.9,53.14-15.03,57-18.46C148.5,193.1,148.49,193.05,148.46,193.02z"/>
	<path class="st1" d="M549.2,143.23"/>
	<path class="st1" d="M89.92,5.58"/>
	<path class="st1" d="M503.79,162.97"/>
	<path class="st1" d="M507.05,194.83"/>
	<circle class="st2" cx="519.85" cy="118.95" r="9.51"/>
	<path class="st1" d="M543.72,145.92"/>
	<path class="st1" d="M573.19,66.84l1.6,29.82c0.03,0.63-0.59,1.09-1.19,0.87l-20.14-7.47l-13.53,0.82l-22.47,9.51
		c-0.55,0.23-1.17-0.14-1.22-0.74l-2.18-26.82c-0.05-0.61,0.52-1.08,1.11-0.92l22.25,5.96l13.14-0.96l21.36-10.81
		C572.48,65.81,573.15,66.21,573.19,66.84z"/>
	<path class="st1" d="M574.25,86.61c32.29,19.78,40.38,62.65,19.99,90.96c-18.68,25.94-56.85,33.49-85.93,14.85
		c-0.05-0.03-0.07-0.11-0.03-0.16c12.27-16.05,24.54-32.1,36.81-48.15c0.05-0.06,0.01-0.15-0.06-0.17
		c-21.3-4.03-42.59-8.05-63.89-12.08c-0.06-0.01-0.09-0.06-0.09-0.12c1.02-6.24,4.1-19.48,14.75-31.79
		c6.82-7.87,14.23-12.46,19.24-15.02"/>
	<line class="st1" x1="550.55" y1="76.92" x2="551.39" y2="88.49"/>
	<line class="st1" x1="537.41" y1="77.87" x2="538.06" y2="91.68"/>
	<path class="st1" d="M281.44,219.71l-14.05-62.61c0-0.02-0.01-0.03-0.01-0.05c-1.75-22.43,12.61-42.89,33.51-48.63
		c22.39-6.15,46.74,6.12,55.38,28.68c0.01,0.02,0.01,0.03,0.01,0.05l14.27,63.6c0.07,0.3-0.29,0.5-0.52,0.29l-15.73-15.01
		c-0.15-0.14-0.38-0.1-0.48,0.07l-12.64,22.01c-0.09,0.16-0.31,0.21-0.46,0.09l-18.26-14.66c-0.15-0.12-0.36-0.08-0.46,0.08
		l-12.93,21.69c-0.1,0.17-0.32,0.2-0.47,0.07l-16.3-14.22c-0.15-0.13-0.38-0.09-0.48,0.09c-3.28,6.18-6.56,12.35-9.83,18.53
		C281.88,220.04,281.5,219.99,281.44,219.71z"/>
	<circle class="st1" cx="295.89" cy="152.57" r="12.34"/>
	<circle class="st1" cx="328.84" cy="145.18" r="12.34"/>
	<path class="st1" d="M30.5,18.33c1.27-2.7,10.29-21.03,29.91-25.22c7.3-1.56,13.67-0.64,17.91,0.42c0.15,0.04,0.18,0.23,0.06,0.32
		C75.57-4.2,70.61-0.16,67.09,6.71c-4.77,9.31-3.93,18.05-3.46,21.26"/>
	<path class="st1" d="M43.35,16.6c-1.45-1.27-5.01-4.01-10.14-4.45c-6.2-0.54-14.02,2.35-17.06,9.39
		c-3.25,7.53,0.64,15.94,6.43,20.02c5.94,4.2,12.67,3,14.09,2.72c-0.73-2.46-1.97-7.81-0.49-14.34
		C37.76,22.94,41.58,18.45,43.35,16.6z"/>
	<circle class="st1" cx="62.11" cy="35.63" r="16.56"/>
	<g class="st3">
		<path class="st4" d="M69.9,37.78c1.32,3.73-2.81,8.02-6.61,6.41c-1.21-0.56-2.16-1.67-2.29-2.94l0.17-0.11
			c1.82,1.01,3.47,1.63,5.41,1.33c1.92-0.56,3.21-2.6,3.12-4.66C69.71,37.81,69.9,37.78,69.9,37.78L69.9,37.78z"/>
	</g>
	<path class="st1" d="M216.8,33.7c-0.05-0.02-0.05-0.08,0-0.1c3.02-1.15,11.41-3.86,21.64-1.18c9.45,2.48,15.19,8.18,17.37,10.61
		c0.03,0.04,0.01,0.09-0.04,0.09c-1.32-0.04-4.31,0.07-7.41,1.93c-2.66,1.6-4.1,3.71-4.74,4.82c-0.02,0.04-0.07,0.03-0.09,0
		c-0.62-1.03-1.45-2.22-2.57-3.44c-1.54-1.68-3.1-2.85-4.35-3.64c-0.01-0.01-0.02-0.01-0.03-0.01c-1.33-0.09-2.94-0.09-4.73,0.15
		c-3.17,0.43-5.69,1.45-7.41,2.33c-0.04,0.02-0.08-0.01-0.08-0.05c0.08-1.07,0.13-3.91-1.66-6.8
		C220.75,35.27,217.83,34.06,216.8,33.7z"/>
	<path class="st1" d="M221.3,36.62c-3.32,0.45-5.48,1.65-6.94,2.97c-10.43,9.44-3.47,41.98,10.9,45.59
		c14.22,3.56,35.49-21.25,31.05-35.46c-0.55-1.76-1.6-3.69-3.55-5.61"/>
	<path class="st1" d="M237.09,37c-0.07-1.03-0.1-3.8,1.61-6.67c1.56-2.61,3.72-3.88,4.65-4.35"/>
	
		<ellipse transform="matrix(0.2347 -0.9721 0.9721 0.2347 123.311 268.3752)" class="st2" cx="232.1" cy="55.88" rx="3.46" ry="2.06"/>
	
		<ellipse transform="matrix(0.2347 -0.9721 0.9721 0.2347 133.4071 282.5648)" class="st2" cx="246.15" cy="56.56" rx="3.46" ry="2.06"/>
	
		<ellipse transform="matrix(0.2347 -0.9721 0.9721 0.2347 117.9968 284.8653)" class="st2" cx="239.91" cy="67.5" rx="3.46" ry="2.06"/>
	
		<ellipse transform="matrix(0.2347 -0.9721 0.9721 0.2347 105.1583 267.6769)" class="st2" cx="222.58" cy="67.05" rx="3.46" ry="2.06"/>
	
		<ellipse transform="matrix(0.2347 -0.9721 0.9721 0.2347 102.5092 282.4332)" class="st2" cx="230.62" cy="76.12" rx="3.46" ry="2.06"/>
	
		<ellipse transform="matrix(0.2347 -0.9721 0.9721 0.2347 117.3549 254.3265)" class="st2" cx="220.19" cy="52.63" rx="3.46" ry="2.06"/>
	<path class="st1" d="M507.52,35.33"/>
	<path class="st1" d="M575.94,25.33c0.84-2.3,6.88-17.93,22.62-22.77c5.85-1.8,11.12-1.51,14.67-0.95c0.13,0.02,0.17,0.18,0.07,0.26
		c-2.15,1.79-5.92,5.45-8.3,11.32c-3.23,7.96-1.9,15.04-1.29,17.63"/>
	<path class="st1" d="M586.32,22.98c-1.28-0.93-4.38-2.91-8.61-2.9c-5.11,0.01-11.29,2.93-13.26,8.91
		c-2.11,6.39,1.68,12.98,6.7,15.9c5.16,3,10.58,1.54,11.71,1.2c-0.78-1.95-2.17-6.24-1.44-11.68
		C582.21,28.57,585.01,24.62,586.32,22.98z"/>
	<circle class="st1" cx="603.03" cy="37.18" r="13.59"/>
	<g class="st3">
		<path class="st4" d="M609.57,38.37c1.47,2.99-1.7,6.99-5,5.89c-1.06-0.4-1.93-1.31-2.05-2.4l0.16-0.12
			c0.98,0.36,1.7,0.53,2.4,0.58c0.67,0.02,1.34,0.24,2.04-0.01c1.5-0.55,2.43-2.24,2.26-3.9C609.38,38.42,609.57,38.37,609.57,38.37
			L609.57,38.37z"/>
	</g>
	<path class="st1" d="M42.63,401.85c-0.05-0.02-0.05-0.08,0-0.1c3.02-1.15,11.41-3.86,21.64-1.18c9.45,2.48,15.19,8.18,17.37,10.61
		c0.03,0.04,0.01,0.09-0.04,0.09c-1.32-0.04-4.31,0.07-7.41,1.93c-2.66,1.6-4.1,3.71-4.74,4.82c-0.02,0.04-0.07,0.03-0.09,0
		c-0.62-1.03-1.45-2.22-2.57-3.44c-1.54-1.68-3.1-2.85-4.35-3.64c-0.01-0.01-0.02-0.01-0.03-0.01c-1.33-0.09-2.94-0.09-4.73,0.15
		c-3.17,0.43-5.69,1.45-7.41,2.33c-0.04,0.02-0.08-0.01-0.08-0.05c0.08-1.07,0.13-3.91-1.66-6.8
		C46.58,403.42,43.66,402.21,42.63,401.85z"/>
	<path class="st1" d="M47.13,404.77c-3.32,0.45-5.48,1.65-6.94,2.97c-10.43,9.44-3.47,41.98,10.9,45.59
		c14.22,3.56,35.49-21.25,31.05-35.46c-0.55-1.76-1.6-3.69-3.55-5.61"/>
	<path class="st1" d="M62.92,405.15c-0.07-1.03-0.1-3.8,1.61-6.67c1.56-2.61,3.72-3.88,4.65-4.35"/>
	
		<ellipse transform="matrix(0.2347 -0.9721 0.9721 0.2347 -367.8534 380.8199)" class="st2" cx="57.92" cy="424.03" rx="3.46" ry="2.06"/>
	
		<ellipse transform="matrix(0.2347 -0.9721 0.9721 0.2347 -357.7573 395.0094)" class="st2" cx="71.98" cy="424.71" rx="3.46" ry="2.06"/>
	
		<ellipse transform="matrix(0.2347 -0.9721 0.9721 0.2347 -373.1676 397.3099)" class="st2" cx="65.74" cy="435.65" rx="3.46" ry="2.06"/>
	
		<ellipse transform="matrix(0.2347 -0.9721 0.9721 0.2347 -386.0061 380.1216)" class="st2" cx="48.4" cy="435.21" rx="3.46" ry="2.06"/>
	
		<ellipse transform="matrix(0.2347 -0.9721 0.9721 0.2347 -388.6552 394.8778)" class="st2" cx="56.45" cy="444.27" rx="3.46" ry="2.06"/>
	
		<ellipse transform="matrix(0.2347 -0.9721 0.9721 0.2347 -373.8095 366.7711)" class="st2" cx="46.02" cy="420.78" rx="3.46" ry="2.06"/>
	<path class="st1" d="M392.92,257.01c-0.05-0.02-0.05-0.08,0-0.1c3.02-1.15,11.41-3.86,21.64-1.18c9.45,2.48,15.19,8.18,17.37,10.61
		c0.03,0.04,0.01,0.09-0.04,0.09c-1.32-0.04-4.31,0.07-7.41,1.93c-2.66,1.6-4.1,3.71-4.74,4.82c-0.02,0.04-0.07,0.03-0.09,0
		c-0.62-1.03-1.45-2.22-2.57-3.44c-1.54-1.68-3.1-2.85-4.35-3.64c-0.01-0.01-0.02-0.01-0.03-0.01c-1.33-0.09-2.94-0.09-4.73,0.15
		c-3.17,0.43-5.69,1.45-7.41,2.33c-0.04,0.02-0.08-0.01-0.08-0.05c0.08-1.07,0.13-3.91-1.66-6.8
		C396.87,258.58,393.95,257.38,392.92,257.01z"/>
	<path class="st1" d="M397.42,259.93c-3.32,0.45-5.48,1.65-6.94,2.97c-10.43,9.44-3.47,41.98,10.9,45.59
		c14.22,3.56,35.49-21.25,31.05-35.46c-0.55-1.76-1.6-3.69-3.55-5.61"/>
	<path class="st1" d="M413.21,260.31c-0.07-1.03-0.1-3.8,1.61-6.67c1.56-2.61,3.72-3.88,4.65-4.35"/>
	
		<ellipse transform="matrix(0.2347 -0.9721 0.9721 0.2347 41.0207 610.4796)" class="st2" cx="408.21" cy="279.19" rx="3.46" ry="2.06"/>
	
		<ellipse transform="matrix(0.2347 -0.9721 0.9721 0.2347 51.1168 624.6692)" class="st2" cx="422.27" cy="279.87" rx="3.46" ry="2.06"/>
	
		<ellipse transform="matrix(0.2347 -0.9721 0.9721 0.2347 35.7065 626.9697)" class="st2" cx="416.03" cy="290.81" rx="3.46" ry="2.06"/>
	
		<ellipse transform="matrix(0.2347 -0.9721 0.9721 0.2347 22.868 609.7814)" class="st2" cx="398.69" cy="290.37" rx="3.46" ry="2.06"/>
	
		<ellipse transform="matrix(0.2347 -0.9721 0.9721 0.2347 20.2189 624.5377)" class="st2" cx="406.74" cy="299.43" rx="3.46" ry="2.06"/>
	
		<ellipse transform="matrix(0.2347 -0.9721 0.9721 0.2347 35.0646 596.431)" class="st2" cx="396.31" cy="275.95" rx="3.46" ry="2.06"/>
	<circle class="st1" cx="561.82" cy="402.42" r="49.46"/>
	<line class="st1" x1="565.88" y1="406.29" x2="512.37" y2="402.42"/>
	<circle class="st2" cx="542.82" cy="388.87" r="7.41"/>
	<path class="st1" d="M509.7,506.99"/>
	<path class="st1" d="M379.52,409.4"/>
	<path class="st1" d="M320.1,422.15c1.27-2.7,10.29-21.03,29.91-25.22c7.3-1.56,13.67-0.64,17.91,0.42
		c0.15,0.04,0.18,0.23,0.06,0.32c-2.81,1.94-7.77,5.98-11.29,12.85c-4.77,9.31-3.93,18.05-3.46,21.26"/>
	<path class="st1" d="M332.96,420.42c-1.45-1.27-5.01-4.01-10.14-4.45c-6.2-0.54-14.02,2.35-17.06,9.39
		c-3.25,7.53,0.64,15.94,6.43,20.02c5.94,4.2,12.67,3,14.09,2.72c-0.73-2.46-1.97-7.81-0.49-14.34
		C327.37,426.76,331.19,422.27,332.96,420.42z"/>
	<circle class="st1" cx="351.72" cy="439.45" r="16.56"/>
	<g class="st3">
		<path class="st4" d="M359.51,441.6c1.32,3.73-2.81,8.02-6.61,6.41c-1.21-0.56-2.16-1.67-2.29-2.94l0.17-0.11
			c1.82,1.01,3.47,1.63,5.41,1.33c1.92-0.56,3.21-2.6,3.12-4.66C359.31,441.63,359.51,441.6,359.51,441.6L359.51,441.6z"/>
	</g>
	<circle class="st1" cx="183.86" cy="854.85" r="49.46"/>
	<line class="st1" x1="179.8" y1="858.72" x2="233.32" y2="854.85"/>
	<circle class="st2" cx="202.87" cy="841.3" r="7.41"/>
	<path class="st1" d="M97.62,623.73"/>
	<path class="st1" d="M168.89,595.9"/>
	<path class="st1" d="M100.21,621.85"/>
	<path class="st1" d="M152.5,668.02"/>
	<circle class="st2" cx="117.71" cy="619.63" r="10.06"/>
	<path class="st1" d="M103.88,625.33"/>
	<path class="st1" d="M145.49,694.9l-45.46-42.01c-1.62-1.5-1.09-4.19,0.98-4.96c19.88-7.4,39.76-14.8,59.64-22.2
		c0.04-0.02,0.07-0.06,0.05-0.1c-2.13-5.5-12.84-31.34-38.86-40.73c-33.43-12.06-80.38,7.29-89.28,48.28
		c-8.39,38.63,21.74,74.68,55.94,80.29c29.88,4.9,53.14-15.03,57-18.46C145.53,694.99,145.52,694.94,145.49,694.9z"/>
	<path class="st1" d="M546.23,645.11"/>
	<path class="st1" d="M86.95,507.46"/>
	<path class="st1" d="M500.82,664.85"/>
	<path class="st1" d="M504.07,696.71"/>
	<circle class="st2" cx="516.88" cy="620.83" r="9.51"/>
	<path class="st1" d="M540.75,647.8"/>
	<path class="st1" d="M570.22,568.72l1.6,29.82c0.03,0.63-0.59,1.09-1.19,0.87l-20.14-7.47l-13.53,0.82l-22.47,9.51
		c-0.55,0.23-1.17-0.14-1.22-0.74l-2.18-26.82c-0.05-0.61,0.52-1.08,1.11-0.92l22.25,5.96l13.14-0.96l21.36-10.81
		C569.51,567.7,570.18,568.09,570.22,568.72z"/>
	<path class="st1" d="M571.28,588.49c32.29,19.78,40.38,62.65,19.99,90.96c-18.68,25.94-56.85,33.49-85.93,14.85
		c-0.05-0.03-0.07-0.11-0.03-0.16c12.27-16.05,24.54-32.1,36.81-48.15c0.05-0.06,0.01-0.15-0.06-0.17
		c-21.3-4.03-42.59-8.05-63.89-12.08c-0.06-0.01-0.09-0.06-0.09-0.12c1.02-6.24,4.1-19.48,14.75-31.79
		c6.82-7.88,14.23-12.46,19.24-15.02"/>
	<line class="st1" x1="547.58" y1="578.8" x2="548.42" y2="590.38"/>
	<line class="st1" x1="534.44" y1="579.75" x2="535.09" y2="593.56"/>
	<path class="st1" d="M278.46,721.59l-14.05-62.61c0-0.02-0.01-0.03-0.01-0.05c-1.75-22.43,12.61-42.89,33.51-48.63
		c22.39-6.15,46.74,6.12,55.38,28.68c0.01,0.02,0.01,0.03,0.01,0.05l14.27,63.6c0.07,0.3-0.29,0.5-0.52,0.29l-15.73-15.01
		c-0.15-0.14-0.38-0.1-0.48,0.07L338.23,710c-0.09,0.16-0.31,0.21-0.46,0.09l-18.26-14.66c-0.15-0.12-0.36-0.08-0.46,0.08
		l-12.93,21.69c-0.1,0.17-0.32,0.2-0.47,0.07l-16.3-14.22c-0.15-0.13-0.38-0.09-0.48,0.09c-3.28,6.18-6.56,12.35-9.83,18.53
		C278.9,721.92,278.53,721.87,278.46,721.59z"/>
	<circle class="st1" cx="292.92" cy="654.45" r="12.34"/>
	<circle class="st1" cx="325.87" cy="647.06" r="12.34"/>
	<path class="st1" d="M27.53,520.21c1.27-2.7,10.29-21.03,29.91-25.22c7.3-1.56,13.67-0.64,17.91,0.42
		c0.15,0.04,0.18,0.23,0.06,0.32c-2.81,1.94-7.77,5.98-11.29,12.85c-4.77,9.31-3.93,18.05-3.46,21.26"/>
	<path class="st1" d="M40.38,518.48c-1.45-1.27-5.01-4.01-10.14-4.45c-6.2-0.54-14.02,2.35-17.06,9.39
		c-3.25,7.53,0.64,15.94,6.43,20.02c5.94,4.2,12.67,3,14.09,2.72c-0.73-2.46-1.97-7.81-0.49-14.34
		C34.79,524.83,38.61,520.33,40.38,518.48z"/>
	<circle class="st1" cx="59.14" cy="537.51" r="16.56"/>
	<g class="st3">
		<path class="st4" d="M66.93,539.66c1.32,3.73-2.81,8.02-6.61,6.41c-1.21-0.56-2.16-1.67-2.29-2.94c0,0,0.17-0.11,0.17-0.11
			c1.82,1.01,3.47,1.63,5.41,1.33c1.92-0.56,3.21-2.6,3.12-4.66C66.74,539.69,66.93,539.66,66.93,539.66L66.93,539.66z"/>
	</g>
	<path class="st1" d="M213.83,535.58c-0.05-0.02-0.05-0.08,0-0.1c3.02-1.15,11.41-3.86,21.64-1.18c9.45,2.48,15.19,8.18,17.37,10.61
		c0.03,0.04,0.01,0.09-0.04,0.09c-1.32-0.04-4.31,0.07-7.41,1.93c-2.66,1.6-4.1,3.71-4.74,4.82c-0.02,0.04-0.07,0.03-0.09,0
		c-0.62-1.03-1.45-2.22-2.57-3.44c-1.54-1.68-3.1-2.85-4.35-3.64c-0.01-0.01-0.02-0.01-0.03-0.01c-1.33-0.09-2.94-0.09-4.73,0.15
		c-3.17,0.43-5.69,1.45-7.41,2.33c-0.04,0.02-0.08-0.01-0.08-0.05c0.08-1.07,0.13-3.91-1.66-6.8
		C217.78,537.15,214.86,535.95,213.83,535.58z"/>
	<path class="st1" d="M218.33,538.5c-3.32,0.45-5.48,1.65-6.94,2.97c-10.43,9.44-3.47,41.98,10.9,45.59
		c14.22,3.56,35.49-21.25,31.05-35.46c-0.55-1.76-1.6-3.69-3.55-5.61"/>
	<path class="st1" d="M234.12,538.88c-0.07-1.03-0.1-3.8,1.61-6.67c1.56-2.61,3.72-3.88,4.65-4.35"/>
	
		<ellipse transform="matrix(0.2347 -0.9721 0.9721 0.2347 -366.8285 649.5853)" class="st2" cx="229.12" cy="557.76" rx="3.46" ry="2.06"/>
	
		<ellipse transform="matrix(0.2347 -0.9721 0.9721 0.2347 -356.7324 663.7748)" class="st2" cx="243.18" cy="558.44" rx="3.46" ry="2.06"/>
	
		<ellipse transform="matrix(0.2347 -0.9721 0.9721 0.2347 -372.1427 666.0753)" class="st2" cx="236.94" cy="569.38" rx="3.46" ry="2.06"/>
	
		<ellipse transform="matrix(0.2347 -0.9721 0.9721 0.2347 -384.9812 648.887)" class="st2" cx="219.6" cy="568.94" rx="3.46" ry="2.06"/>
	
		<ellipse transform="matrix(0.2347 -0.9721 0.9721 0.2347 -387.6303 663.6432)" class="st2" cx="227.65" cy="578" rx="3.46" ry="2.06"/>
	
		<ellipse transform="matrix(0.2347 -0.9721 0.9721 0.2347 -372.7846 635.5366)" class="st2" cx="217.22" cy="554.52" rx="3.46" ry="2.06"/>
	<path class="st1" d="M504.55,537.21"/>
	<path class="st1" d="M572.97,527.21c0.84-2.3,6.88-17.93,22.62-22.77c5.85-1.8,11.12-1.51,14.67-0.95
		c0.13,0.02,0.17,0.18,0.07,0.26c-2.15,1.79-5.92,5.45-8.3,11.32c-3.23,7.96-1.9,15.04-1.29,17.63"/>
	<path class="st1" d="M583.35,524.86c-1.28-0.93-4.38-2.91-8.61-2.9c-5.11,0.01-11.29,2.93-13.26,8.91
		c-2.11,6.39,1.68,12.98,6.7,15.9c5.16,3,10.58,1.54,11.71,1.2c-0.78-1.95-2.17-6.24-1.44-11.68
		C579.24,530.46,582.03,526.51,583.35,524.86z"/>
	<circle class="st1" cx="600.06" cy="539.06" r="13.59"/>
	<g class="st3">
		<path class="st4" d="M606.6,540.25c1.47,2.99-1.7,6.99-5,5.89c-1.06-0.4-1.93-1.31-2.05-2.4l0.16-0.12
			c0.98,0.36,1.7,0.53,2.4,0.58c0.67,0.02,1.34,0.24,2.04-0.01c1.5-0.55,2.43-2.24,2.26-3.9C606.4,540.3,606.6,540.25,606.6,540.25
			L606.6,540.25z"/>
	</g>
	<path class="st1" d="M39.66,903.73c-0.05-0.02-0.05-0.08,0-0.1c3.02-1.15,11.41-3.86,21.64-1.18c9.45,2.48,15.19,8.18,17.37,10.61
		c0.03,0.04,0.01,0.09-0.04,0.09c-1.32-0.04-4.31,0.07-7.41,1.93c-2.66,1.6-4.1,3.71-4.74,4.82c-0.02,0.04-0.07,0.03-0.09,0
		c-0.62-1.03-1.45-2.22-2.57-3.44c-1.54-1.68-3.1-2.85-4.35-3.64c-0.01-0.01-0.02-0.01-0.03-0.01c-1.33-0.09-2.94-0.09-4.73,0.15
		c-3.17,0.43-5.69,1.45-7.41,2.33c-0.04,0.02-0.08-0.01-0.08-0.05c0.08-1.07,0.13-3.91-1.66-6.8
		C43.61,905.3,40.69,904.1,39.66,903.73z"/>
	<path class="st1" d="M44.16,906.65c-3.32,0.45-5.48,1.65-6.94,2.97c-10.43,9.44-3.47,41.98,10.9,45.59
		c14.22,3.56,35.49-21.25,31.05-35.46c-0.55-1.76-1.6-3.69-3.55-5.61"/>
	<path class="st1" d="M59.94,907.03c-0.07-1.03-0.1-3.8,1.61-6.67c1.56-2.61,3.72-3.88,4.65-4.35"/>
	
		<ellipse transform="matrix(0.2347 -0.9721 0.9721 0.2347 -857.9929 762.0299)" class="st2" cx="54.95" cy="925.91" rx="3.46" ry="2.06"/>
	
		<ellipse transform="matrix(0.2347 -0.9721 0.9721 0.2347 -847.8967 776.2194)" class="st2" cx="69.01" cy="926.59" rx="3.46" ry="2.06"/>
	
		<ellipse transform="matrix(0.2347 -0.9721 0.9721 0.2347 -863.3071 778.52)" class="st2" cx="62.77" cy="937.53" rx="3.46" ry="2.06"/>
	
		<ellipse transform="matrix(0.2347 -0.9721 0.9721 0.2347 -876.1456 761.3316)" class="st2" cx="45.43" cy="937.09" rx="3.46" ry="2.06"/>
	
		<ellipse transform="matrix(0.2347 -0.9721 0.9721 0.2347 -878.7947 776.0879)" class="st2" cx="53.48" cy="946.15" rx="3.46" ry="2.06"/>
	
		<ellipse transform="matrix(0.2347 -0.9721 0.9721 0.2347 -863.949 747.9812)" class="st2" cx="43.05" cy="922.67" rx="3.46" ry="2.06"/>
	<path class="st1" d="M389.95,758.9c-0.05-0.02-0.05-0.08,0-0.1c3.02-1.15,11.41-3.86,21.64-1.18c9.45,2.48,15.19,8.18,17.37,10.61
		c0.03,0.04,0.01,0.09-0.04,0.09c-1.32-0.04-4.31,0.07-7.41,1.93c-2.66,1.6-4.1,3.71-4.74,4.82c-0.02,0.04-0.07,0.03-0.09,0
		c-0.62-1.03-1.45-2.22-2.57-3.44c-1.54-1.68-3.1-2.85-4.35-3.64c-0.01-0.01-0.02-0.01-0.03-0.01c-1.33-0.09-2.94-0.09-4.73,0.15
		c-3.17,0.43-5.69,1.45-7.41,2.33c-0.04,0.02-0.08-0.01-0.08-0.05c0.08-1.07,0.13-3.91-1.66-6.8
		C393.9,760.46,390.98,759.26,389.95,758.9z"/>
	<path class="st1" d="M394.45,761.81c-3.32,0.45-5.48,1.65-6.94,2.97c-10.43,9.44-3.47,41.98,10.9,45.59
		c14.22,3.56,35.49-21.25,31.05-35.46c-0.55-1.76-1.6-3.69-3.55-5.61"/>
	<path class="st1" d="M410.23,762.2c-0.07-1.03-0.1-3.8,1.61-6.67c1.56-2.61,3.72-3.88,4.65-4.35"/>
	
		<ellipse transform="matrix(0.2347 -0.9721 0.9721 0.2347 -449.1188 991.6897)" class="st2" cx="405.24" cy="781.07" rx="3.46" ry="2.06"/>
	
		<ellipse transform="matrix(0.2347 -0.9721 0.9721 0.2347 -439.0226 1005.8793)" class="st2" cx="419.3" cy="781.75" rx="3.46" ry="2.06"/>
	
		<ellipse transform="matrix(0.2347 -0.9721 0.9721 0.2347 -454.433 1008.1798)" class="st2" cx="413.06" cy="792.69" rx="3.46" ry="2.06"/>
	
		<ellipse transform="matrix(0.2347 -0.9721 0.9721 0.2347 -467.2715 990.9914)" class="st2" cx="395.72" cy="792.25" rx="3.46" ry="2.06"/>
	
		<ellipse transform="matrix(0.2347 -0.9721 0.9721 0.2347 -469.9206 1005.7477)" class="st2" cx="403.77" cy="801.31" rx="3.46" ry="2.06"/>
	
		<ellipse transform="matrix(0.2347 -0.9721 0.9721 0.2347 -455.0749 977.641)" class="st2" cx="393.34" cy="777.83" rx="3.46" ry="2.06"/>
	<circle class="st1" cx="558.85" cy="904.3" r="49.46"/>
	<line class="st1" x1="562.91" y1="908.17" x2="509.4" y2="904.3"/>
	<circle class="st2" cx="539.85" cy="890.76" r="7.41"/>
	<path class="st1" d="M503.85,1016.53"/>
	<path class="st1" d="M376.55,911.29"/>
	<path class="st1" d="M317.13,924.03c1.27-2.7,10.29-21.03,29.91-25.22c7.3-1.56,13.67-0.64,17.91,0.42
		c0.15,0.04,0.18,0.23,0.06,0.32c-2.81,1.94-7.77,5.98-11.29,12.85c-4.77,9.31-3.93,18.05-3.46,21.26"/>
	<path class="st1" d="M329.99,922.3c-1.45-1.27-5.01-4.01-10.14-4.45c-6.2-0.54-14.02,2.35-17.06,9.39
		c-3.25,7.53,0.64,15.94,6.43,20.02c5.94,4.2,12.67,3,14.09,2.72c-0.73-2.46-1.97-7.81-0.49-14.34
		C324.4,928.65,328.22,924.15,329.99,922.3z"/>
	<circle class="st1" cx="348.75" cy="941.33" r="16.56"/>
	<g class="st3">
		<path class="st4" d="M356.54,943.48c1.32,3.73-2.81,8.02-6.61,6.41c-1.21-0.56-2.16-1.67-2.29-2.94l0.17-0.11
			c1.82,1.01,3.47,1.63,5.41,1.33c1.92-0.56,3.21-2.6,3.12-4.66C356.34,943.51,356.54,943.48,356.54,943.48L356.54,943.48z"/>
	</g>
</g>
</svg>
