<svg width="218" height="18" viewBox="0 0 218 18" fill="none" xmlns="http://www.w3.org/2000/svg">
<path d="M0 15.375V4H9.75V5.625H11.375V10.5H9.75V12.125H3.25V15.375H0ZM3.25 10.5H8.125V5.625H3.25V10.5ZM13.625 15.375V13.75H12V5.625H13.625V4H21.75V5.625H23.375V13.75H21.75V15.375H13.625ZM15.25 13.75H20.125V5.625H15.25V13.75ZM25.625 15.375V13.75H24V4H27.25V10.5H28.875V4H30.5V10.5H32.125V4H35.375V13.75H33.75V15.375H32.125V13.75H30.5V12.125H28.875V13.75H27.25V15.375H25.625ZM36 15.375V4H47.375V5.625H39.25V8.875H45.75V10.5H39.25V13.75H47.375V15.375H36ZM48 15.375V4H57.75V5.625H59.375V10.5H56.125V12.125H57.75V13.75H59.375V15.375H54.5V13.75H52.875V12.125H51.25V15.375H48ZM51.25 10.5H54.5V8.875H56.125V5.625H51.25V10.5ZM60 15.375V4H71.375V5.625H63.25V8.875H69.75V10.5H63.25V13.75H71.375V15.375H60ZM72 15.375V4H80.125V5.625H81.75V7.25H83.375V12.125H81.75V13.75H80.125V15.375H72ZM75.25 13.75H78.5V12.125H80.125V7.25H78.5V5.625H75.25V13.75ZM96 15.375V4H105.75V5.625H107.375V8.875H105.75V10.5H107.375V13.75H105.75V15.375H96ZM99.25 8.875H104.125V5.625H99.25V8.875ZM99.25 13.75H104.125V10.5H99.25V13.75ZM112.875 15.375V10.5H111.25V8.875H109.625V4H112.875V8.875H116.125V4H119.375V8.875H117.75V10.5H116.125V15.375H112.875Z" fill="white"/>
<path d="M133 17.5V0H138V2.5H140.5V5H143V7.5H145.5V0H150.5V17.5H145.5V12.5H143V10H140.5V7.5H138V17.5H133ZM154.5 17.5V15H152V2.5H154.5V0H167V2.5H169.5V15H167V17.5H154.5ZM157 15H164.5V2.5H157V15ZM178.5 17.5V15H176V12.5H173.5V10H171V0H176V7.5H178.5V10H181V7.5H183.5V0H188.5V10H186V12.5H183.5V15H181V17.5H178.5ZM190 17.5V5H192.5V2.5H195V0H202.5V2.5H205V5H207.5V17.5H202.5V12.5H195V17.5H190ZM195 10H202.5V5H200V2.5H197.5V5H195V10Z" fill="#562EAF"/>
</svg>
