<svg width="193" height="18" viewBox="0 0 193 18" fill="none" xmlns="http://www.w3.org/2000/svg">
<path d="M0.175781 0H8.61328C10.4883 0.6875 11.4258 1.99609 11.4258 3.92578V7.61719C11.4258 8.875 11.1133 9.79297 10.4883 10.3711C9.83984 11.2695 8.70703 11.7188 7.08984 11.7188H4.6875C4.45312 11.7188 4.33594 11.8359 4.33594 12.0703V17.2852C4.25781 17.4805 4.12109 17.5781 3.92578 17.5781H0.410156C0.136719 17.5781 0 17.4219 0 17.1094V0.175781L0.175781 0ZM4.33594 3.75V8.08594L4.57031 8.32031H6.26953C6.71484 8.38281 7.02734 8.16797 7.20703 7.67578V5.33203L7.26562 4.21875C7.20312 3.67969 6.89062 3.40625 6.32812 3.39844H4.6875C4.45312 3.39844 4.33594 3.51562 4.33594 3.75ZM16.0664 0H21.8672C22.5625 0.140625 23.2461 0.550781 23.918 1.23047C24.5039 2.05859 24.7969 2.72266 24.7969 3.22266L24.8555 4.80469V12.3047C24.8555 14.375 24.6992 15.4102 24.3867 15.4102C24.0977 16.1055 23.4727 16.75 22.5117 17.3438L21.8672 17.5781H16.0664C14.9648 17.2109 14.1055 16.4883 13.4883 15.4102C13.293 15.0273 13.1953 14.4414 13.1953 13.6523V3.86719C13.1953 1.91406 14.1523 0.625 16.0664 0ZM17.4727 4.16016V12.9492C17.4727 13.6914 17.707 14.0625 18.1758 14.0625C19.6602 14.1406 20.4023 13.9453 20.4023 13.4766L20.4609 12.9492V4.33594C20.5 3.75 20.2656 3.41797 19.7578 3.33984H18C17.5703 3.49609 17.3945 3.76953 17.4727 4.16016ZM26.8008 0H30.5508C30.7539 0 30.9883 1.16016 31.2539 3.48047C31.5273 5.79297 31.7812 8.42188 32.0156 11.3672C32.0156 11.7188 32.0742 11.8945 32.1914 11.8945H32.3672L32.543 11.7188V11.0742L33.2461 6.03516L34.1836 0.0585938L34.2422 0H38.6953C38.8516 0 39.0273 1.01563 39.2227 3.04688C39.3008 3.17188 39.5352 4.87109 39.9258 8.14453C40.1133 9.07422 40.2695 10.2852 40.3945 11.7773L40.5703 11.8945H40.6289C40.8242 11.8945 41.1055 10.1719 41.4727 6.72656C41.8477 3.27344 42.0352 1.1875 42.0352 0.46875C42.1445 0.15625 42.2422 0 42.3281 0H46.0195L46.1953 0.117188C44.7891 9.50781 43.9883 15.1914 43.793 17.168C43.668 17.4414 43.4922 17.5781 43.2656 17.5781H38.4609C38.0703 17.5781 37.5508 14.1914 36.9023 7.41797C36.8086 6.02734 36.6445 5.33203 36.4102 5.33203C36.2539 5.38672 36.1758 5.62109 36.1758 6.03516C35.2305 13.6914 34.6641 17.5195 34.4766 17.5195L34.1836 17.5781H29.5547C29.1641 17.5781 28.8789 16.8438 28.6992 15.375C28.5273 13.8984 27.8359 8.8125 26.625 0.117188L26.8008 0ZM48.1875 0H58.3242L58.5 0.175781V2.8125C58.5 3.08594 58.3633 3.22266 58.0898 3.22266H52.2891C52.0547 3.22266 51.9375 3.33984 51.9375 3.57422V6.62109L52.1133 6.79688H57.0352C57.3867 6.79688 57.5625 6.93359 57.5625 7.20703V9.72656C57.5625 9.96094 57.4453 10.0781 57.2109 10.0781H52.2891C52.0547 10.0781 51.9375 10.1953 51.9375 10.4297V13.3594C51.9375 14.0234 52.4453 14.3555 53.4609 14.3555H58.3828C58.6562 14.3555 58.793 14.4922 58.793 14.7656V17.4023L58.6172 17.5781H51.0586C49.9414 17.2812 49.1016 16.6953 48.5391 15.8203C48.1484 15.0312 47.9531 14.2695 47.9531 13.5352V0.703125C47.9531 0.234375 48.0312 0 48.1875 0ZM60.7383 0H68.707C69.7227 0.242188 70.543 0.75 71.168 1.52344C71.6367 2.04688 71.8711 3.02344 71.8711 4.45312V5.80078C71.8711 7.13672 71.6367 8.01562 71.168 8.4375L70.9336 8.73047V8.84766C71.5977 9.47266 71.9297 10.332 71.9297 11.4258V17.2266C71.8281 17.4609 71.6719 17.5781 71.4609 17.5781H68.1797C67.8672 17.5781 67.7109 17.4023 67.7109 17.0508V11.3672C67.5938 10.7031 67.2617 10.3711 66.7148 10.3711H65.0742L64.8398 10.6055V16.9336C64.8398 17.3633 64.6836 17.5781 64.3711 17.5781H61.0664C60.8398 17.5781 60.6836 17.4023 60.5977 17.0508L60.5625 0.175781L60.7383 0ZM64.8398 3.57422V7.03125L65.0156 7.20703H66.832C67.293 7.20703 67.5859 6.85547 67.7109 6.15234V4.27734C67.5703 3.65234 67.1797 3.33984 66.5391 3.33984H65.0742L64.8398 3.57422ZM73.9219 0H84.0586L84.2344 0.175781V2.8125C84.2344 3.08594 84.0977 3.22266 83.8242 3.22266H78.0234C77.7891 3.22266 77.6719 3.33984 77.6719 3.57422V6.62109L77.8477 6.79688H82.7695C83.1211 6.79688 83.2969 6.93359 83.2969 7.20703V9.72656C83.2969 9.96094 83.1797 10.0781 82.9453 10.0781H78.0234C77.7891 10.0781 77.6719 10.1953 77.6719 10.4297V13.3594C77.6719 14.0234 78.1797 14.3555 79.1953 14.3555H84.1172C84.3906 14.3555 84.5273 14.4922 84.5273 14.7656V17.4023L84.3516 17.5781H76.793C75.6758 17.2812 74.8359 16.6953 74.2734 15.8203C73.8828 15.0312 73.6875 14.2695 73.6875 13.5352V0.703125C73.6875 0.234375 73.7656 0 73.9219 0ZM94.6172 0C95.8281 0.195313 96.6992 0.578125 97.2305 1.14844C97.6055 1.73438 97.7891 2.44531 97.7812 3.28125L97.8398 13.7695C97.7852 14.6211 97.4141 15.4609 96.7266 16.2891C95.875 17.1094 94.9766 17.5391 94.0312 17.5781H86.6484C86.5312 17.5781 86.4141 17.4219 86.2969 17.1094V0.644531C86.2969 0.214844 86.4336 0 86.707 0H94.6172ZM90.457 3.22266V14.1211C90.457 14.2383 90.5352 14.2969 90.6914 14.2969H92.5078C93.2578 14.2969 93.6484 14.0234 93.6797 13.4766V4.04297C93.6719 3.44922 93.1836 3.17578 92.2148 3.22266H90.457ZM103.477 0H110.977C111.75 0.125 112.512 0.535156 113.262 1.23047C113.84 1.95703 114.172 2.79688 114.258 3.75V5.56641C114.258 6.18359 113.984 6.86719 113.438 7.61719C113.047 7.91406 112.852 8.16797 112.852 8.37891C113.984 9.16016 114.551 9.94141 114.551 10.7227C114.629 10.7227 114.668 10.918 114.668 11.3086V13.5938C114.668 14.7578 114.121 15.832 113.027 16.8164C112.512 17.1445 111.906 17.3984 111.211 17.5781H103.359C103.203 17.5234 103.125 17.3477 103.125 17.0508V0.46875C103.125 0.15625 103.242 0 103.477 0ZM107.227 3.45703V7.03125L107.344 7.14844H109.57C109.859 7.03125 110.074 6.83594 110.215 6.5625V4.16016C110.152 3.61328 109.879 3.33984 109.395 3.33984H107.344L107.227 3.45703ZM107.227 10.1953V14.1797L107.637 14.2383H109.277C110.02 14.2383 110.391 13.9258 110.391 13.3008V11.3086C110.391 10.4883 110.078 10.0781 109.453 10.0781H107.344L107.227 10.1953ZM116.438 0H120.773C121.062 0 121.512 0.644531 122.121 1.93359L123.996 4.98047H124.113C125.934 1.71484 126.891 0.0742187 126.984 0.0585938L127.219 0H131.555V0.175781C127.914 6.41797 126.078 9.64062 126.047 9.84375V17.4023L125.871 17.5781H122.121L121.945 17.4023V9.84375C121.875 9.5625 120.039 6.33984 116.438 0.175781V0ZM137.004 0H142.629C142.848 0.171875 143.375 1.57813 144.211 4.21875L146.145 9.96094H146.32L146.309 0.457031C146.379 0.152344 146.461 0 146.555 0H150.539L150.715 0.175781V17.4023L150.539 17.5781H145.09C144.84 17.5781 144.664 17.3047 144.562 16.7578L141.457 7.55859H141.281V8.08594V17.1094C141.281 17.4219 141.164 17.5781 140.93 17.5781H137.004L136.828 17.4023V0.175781L137.004 0ZM155.355 0H161.156C161.852 0.140625 162.535 0.550781 163.207 1.23047C163.793 2.05859 164.086 2.72266 164.086 3.22266L164.145 4.80469V12.3047C164.145 14.375 163.988 15.4102 163.676 15.4102C163.387 16.1055 162.762 16.75 161.801 17.3438L161.156 17.5781H155.355C154.254 17.2109 153.395 16.4883 152.777 15.4102C152.582 15.0273 152.484 14.4414 152.484 13.6523V3.86719C152.484 1.91406 153.441 0.625 155.355 0ZM156.762 4.16016V12.9492C156.762 13.6914 156.996 14.0625 157.465 14.0625C158.949 14.1406 159.691 13.9453 159.691 13.4766L159.75 12.9492V4.33594C159.789 3.75 159.555 3.41797 159.047 3.33984H157.289C156.859 3.49609 156.684 3.76953 156.762 4.16016ZM166.09 0H169.723C169.895 0 170.266 1.67969 170.836 5.03906L172.359 12.5977L172.418 12.6562H172.535C172.691 12.6562 172.926 11.7188 173.238 9.84375C174.215 4.57031 174.859 1.30859 175.172 0.0585938L175.406 0H178.863L178.98 0.117188V0.175781L175.875 15.2344C175.555 16.7969 175.32 17.5781 175.172 17.5781H169.84C169.66 17.5781 169.328 16.2695 168.844 13.6523C167.516 7.80078 166.539 3.32812 165.914 0.234375V0.175781L166.09 0ZM182.859 0H189.012C189.379 0 189.613 0.644531 189.715 1.93359L192.762 17.3438C192.723 17.5 192.605 17.5781 192.41 17.5781H188.777C188.465 17.5781 188.27 17.1094 188.191 16.1719C187.934 14.4844 187.738 13.5664 187.605 13.418H185.789H184.266C184.117 13.418 183.863 14.7266 183.504 17.3438L183.27 17.5781H179.285L179.109 17.4023C180.242 11.6758 181.082 7.14453 181.629 3.80859L182.391 0.234375C182.555 0.078125 182.711 0 182.859 0ZM184.383 10.1367L184.441 10.1953H186.668L186.785 10.0781L185.672 3.86719L185.613 3.80859H185.555C185.375 3.80859 185.195 4.49219 185.016 5.85938C184.594 8.21094 184.383 9.63672 184.383 10.1367Z" fill="black"/>
</svg>
