<svg width="640" height="960" viewBox="0 0 640 960" fill="none" xmlns="http://www.w3.org/2000/svg">
<g clip-path="url(#clip0_213_720)">
<rect width="640" height="960" fill="white"/>
<path d="M640 0H0V960H640V0Z" fill="#0A69ED"/>
<g filter="url(#filter0_d_213_720)">
<path d="M105.103 827.917L181.936 782.184L147.693 863.993L355 932.556L171.634 926.668L200.002 1026.61L110.013 944.814L32.6089 1061L36.0978 934.573L-96 935.931L21.0509 881.251L-54.7036 780.179L45.1056 851.532L51.2335 662L105.103 827.917Z" fill="white"/>
</g>
<g filter="url(#filter1_d_213_720)">
<path d="M432.518 762.412C438.347 762.428 443.996 763.746 449.384 765.943L449.621 765.919C449.404 766.181 449.709 766.329 449.897 766.418C450.037 766.482 450.213 766.446 450.345 766.502C451.282 766.88 452.083 767.563 453.076 767.8C452.879 768.049 453.16 768.25 453.34 768.322C453.508 768.386 453.66 768.398 453.804 768.406C453.884 768.411 453.98 768.398 454.056 768.419C454.893 769.54 456.31 770.166 457.459 770.938C457.543 770.938 457.704 771.006 457.78 770.974C457.904 771.709 458.668 772.047 459.257 772.589C461.527 774.667 463.38 777.013 465.266 779.436C469.021 784.261 473.865 787.886 479.43 789.778C481.888 790.614 484.174 791.582 486.868 791.856C490.744 792.245 494.631 792.539 498.47 791.631C498.875 791.534 499.191 791.602 499.527 791.309C499.719 791.168 500.216 791.064 500.456 791.024C505.929 790.128 513.275 784.615 516.466 780.067C518.864 776.651 521.75 773.863 524.58 770.982C526.154 770.022 528.031 768.977 529.505 767.764C529.725 767.804 529.945 767.744 530.137 767.583C530.277 767.462 530.381 767.358 530.209 767.181C530.626 767.165 530.994 766.96 531.37 766.815L535.686 765.116C535.906 765.027 535.998 764.774 535.842 764.666C536.018 764.666 536.202 764.646 536.378 764.613C537.467 764.417 538.692 764.324 539.601 763.669C541.05 763.488 542.524 763.203 543.897 762.709C544.081 762.641 544.385 762.705 544.585 762.709C545.438 762.745 546.283 762.661 547.1 762.408C547.348 762.331 547.692 762.408 547.952 762.404C562.477 762.203 577.269 770.669 583.515 784.193C585.837 789.22 587.078 794.455 587.29 800.004C587.502 805.509 586.173 810.688 584.319 816.072C587.618 816.108 597.15 816.277 598.988 818.676C600.057 819.584 600.561 820.765 600.273 822.232C599.716 825.064 596.169 825.341 593.547 824.811C584.115 822.899 574.143 825.41 567.097 831.814C566.872 831.77 566.628 831.835 566.48 832.044C566.396 832.16 566.372 832.317 566.428 832.469C566.076 832.514 565.976 833.084 565.707 833.185C564.831 833.51 564.482 834.515 563.986 835.258C563.522 835.957 562.765 836.552 562.665 837.444C561.972 837.424 561.844 838.227 561.764 838.79C561.74 838.962 561.756 839.151 561.716 839.324C560.623 839.65 560.643 841.192 560.479 842.205C560.467 842.289 560.463 842.39 560.471 842.474C560.195 842.277 559.975 842.571 559.926 842.743C559.838 843.049 559.935 843.29 559.926 843.523L559.906 844.045C559.498 844.17 559.606 844.748 559.578 845.094C559.554 845.379 559.542 845.673 559.542 845.958C558.83 846.436 558.914 847.461 558.998 848.24C559.038 848.594 558.89 849.044 558.97 849.381C558.389 849.839 558.681 850.707 558.661 851.37L558.645 851.884C558.169 852.121 558.209 852.881 558.561 853.234V853.765C558.529 853.696 558.317 853.584 558.241 853.721C557.865 854.456 557.801 855.456 558.241 856.035C558.153 856.256 558.185 856.654 558.213 856.891C557.404 856.36 557.737 859.205 557.729 859.539L557.701 860.366C557.476 860.222 556.748 864.69 557.292 864.517C557.212 864.907 557.224 865.296 557.272 865.686C556.468 865.148 556.792 868.001 556.792 868.338C556.792 868.587 556.844 868.973 556.768 869.202C556.351 869.889 556.492 870.697 556.472 871.476L556.46 871.994C556.139 871.609 555.927 873.582 556.383 873.32C556.279 873.69 556.311 874.116 556.347 874.49C555.515 873.987 555.867 876.78 555.859 877.133L555.839 877.965C555.162 878.632 555.607 879.705 555.531 880.581C555.511 880.838 555.559 881.168 555.483 881.413C555.058 882.751 554.838 884.221 554.93 885.623C554.954 886.001 554.898 886.383 554.902 886.761C554.398 886.282 554.578 889.682 554.574 889.987V890.517C554.013 891.594 554.258 892.916 553.977 894.101C554.029 894.752 553.653 895.359 553.309 895.885C553.077 895.833 552.848 895.934 552.692 896.139C552.604 896.251 552.552 896.392 552.592 896.556L552.116 896.593C551.908 896.609 551.675 896.564 551.443 896.737C551.343 896.814 551.211 896.938 551.363 897.107L550.819 897.131C550.607 896.729 549.794 896.733 549.558 897.103C549.378 897.083 549.193 897.095 549.013 897.091C548.661 896.368 547.648 896.408 547.084 895.873L547.076 895.636C547.048 894.937 546.363 894.238 546.483 893.443C546.655 892.285 546.899 891.261 546.695 890.216C546.627 889.854 546.771 889.453 546.731 889.087C547.348 888.352 546.987 887.351 547.024 886.459C547.032 886.222 546.963 885.857 547.052 885.636C547.484 884.559 547.624 883.241 547.448 882.108C547.372 881.634 547.588 881.119 547.476 880.621C548.301 881.196 547.952 878.054 547.96 877.656L547.972 877.129C548.653 876.466 548.285 875.386 548.313 874.502L548.329 874.007C548.597 874.04 548.577 873.686 548.613 873.469C548.641 873.312 548.665 872.963 548.373 872.987L548.605 871.48C549.073 870.91 548.997 870.19 548.889 869.475C548.853 869.226 548.977 868.872 548.905 868.643C549.474 868.402 549.169 867.627 549.229 867.012L550.47 854.408C550.498 854.142 550.506 853.853 550.498 853.584C550.763 853.684 550.795 853.323 550.807 853.062C550.811 852.945 550.759 852.736 550.551 852.849C550.635 852.387 550.647 851.864 550.603 851.394C551.379 851.808 551.103 849.654 551.079 849.369C551.039 848.903 551.183 848.373 551.111 847.915C551.691 847.453 551.387 846.585 551.407 845.918L551.431 845.094C551.82 844.789 551.76 844.395 551.547 843.872C551.379 843.459 551.187 843.39 550.783 843.724L547.388 843.764C546.951 845.026 546.911 846.291 546.967 847.465C546.115 847.573 546.287 848.951 546.695 849.462C546.427 849.787 546.679 850.611 546.463 850.944C545.975 851.438 546.167 852.001 546.171 852.624C546.179 854.982 545.694 857.602 545.522 859.74C545.474 860.326 544.97 861.435 545.222 862.042C545.33 862.307 545.178 862.902 545.194 863.183C544.285 866.152 544.245 871.464 543.933 874.606L543.324 880.782C543.268 881.356 542.624 882.064 543.032 882.783C543.156 883 542.9 883.377 543.004 883.602C542.716 883.53 542.72 883.956 542.7 884.129C542.68 884.302 542.644 884.723 542.948 884.651C542.62 886.041 542.804 887.592 542.404 888.962C542.103 889.991 541.891 891.028 542.059 892.213C542.083 892.374 542.027 892.546 542.039 892.711C541.523 893.197 541.767 894.021 541.735 894.672C541.098 895.785 540.234 896.87 538.925 897.091C538.68 896.705 537.86 896.737 537.636 897.127C537.399 897.047 537.059 897.091 536.811 897.083C536.999 896.83 536.675 896.657 536.523 896.629L536.066 896.548C535.794 896.5 535.55 896.223 535.262 896.223C534.929 895.456 534.701 894.612 534.189 893.949L534.181 893.149L534.189 892.406L534.217 891.586C534.753 891.12 534.445 890.365 534.537 889.621C534.917 886.507 535.346 883.546 535.378 880.581C535.378 880.412 535.362 880.063 535.446 879.922C536.054 879.054 535.67 877.917 535.81 876.772C535.906 875.956 536.418 875.161 535.878 874.558C535.866 874.381 535.922 874.192 535.898 874.015C536.683 874.49 536.37 872.043 536.37 871.982C536.378 871.645 536.33 871.159 536.398 870.845C537.083 869.917 536.599 868.696 536.731 867.595C536.751 867.43 536.675 867.189 536.743 867.04C537.095 866.237 537.784 860.342 537.636 859.426C537.612 859.273 537.616 859.056 537.648 858.904C538.452 855.199 538.789 851.354 538.929 847.545L538.949 846.962C539.549 845.536 539.141 843.86 539.585 842.229C539.881 841.152 539.849 840.148 539.885 839.043C539.945 837.375 540.55 835.812 540.17 834.314C540.09 834 540.33 833.53 540.27 833.165C540.51 833.357 540.766 833.048 540.77 832.755L540.826 829.962C540.846 829.018 541.235 828.194 541.106 827.363C541.082 827.21 541.126 827.045 541.11 826.888C541.239 826.74 541.355 826.571 541.403 826.35C541.443 826.173 541.223 825.996 541.171 825.852C541.243 825.382 541.279 824.851 541.211 824.373C542.011 824.904 541.695 822.087 541.699 821.725C541.699 821.464 541.667 821.155 541.723 820.902C542.247 818.515 542.568 816.004 542.624 813.549L542.652 812.408C543.016 812.757 543.228 807.144 543.256 807.265C543.208 807.08 543.256 806.871 543.216 806.682C543.721 805.959 543.573 804.998 543.585 804.155L543.597 803.303C544.149 802.668 543.925 801.78 543.893 800.992C543.881 800.739 543.933 800.321 543.825 800.1C543.841 800.1 544.121 800.068 544.129 799.988L544.814 793.84C545.07 791.53 545.214 789.336 545.194 787.223L545.182 785.961C545.514 786.041 545.734 785.929 545.782 785.744C545.682 786.134 546.179 781.324 546.087 780.886C546.039 780.645 546.087 780.308 546.111 780.063C546.127 779.89 546.471 779.761 546.419 779.52C546.383 779.364 546.487 778.934 546.171 779.014C546.243 778.54 546.271 778.005 546.411 777.535C546.463 777.363 546.787 777.258 546.735 777.009C546.703 776.848 546.795 776.418 546.483 776.499C546.675 776.009 546.407 775.153 546.719 774.703C547.264 773.923 547.012 773.023 547.02 772.087L547.028 771.235C547.028 771.095 547.124 770.849 547.048 770.729C546.779 770.315 544.333 770.616 544.818 770.906L544.297 770.922C543.713 770.906 542.616 770.58 542.6 771.416L542.051 771.424C541.207 771.436 537.668 772.103 538.232 772.714L537.664 772.81C536.555 773.003 535.758 773.847 535.818 774.976C535.834 775.261 535.802 775.55 535.798 775.836C535.334 776.302 535.49 776.945 535.526 777.535C535.554 778.009 535.47 778.504 535.466 778.978C535.466 779.135 535.145 779.299 535.177 779.516C535.201 779.681 535.117 780.027 535.418 779.994C535.189 780.416 535.358 781.095 535.201 781.509C534.597 782.248 534.917 783.213 534.893 784.125L534.873 784.957C534.309 785.587 534.605 786.479 534.569 787.263L534.545 787.789C534.273 787.287 533.88 791.928 533.968 792.297C534.056 792.667 533.896 793.073 533.944 793.443C533.312 794.162 533.668 795.166 533.636 796.058L533.608 796.882C533.14 797.147 533.348 797.814 533.336 798.268L533.316 799.092C532.783 799.626 532.976 800.406 533.032 801.097C533.064 801.471 532.992 801.856 533.004 802.234C532.479 802.772 532.663 803.544 532.715 804.231C532.743 804.609 532.675 804.998 532.687 805.376C532.499 804.898 531.702 810.025 532.279 809.205L532.079 810.728C531.498 811.367 531.747 812.223 531.783 813.034C531.791 813.271 531.843 813.681 531.759 813.894C531.27 814.67 531.502 815.602 531.45 816.482L531.402 817.314C531.046 817.683 530.994 818.246 531.342 818.631C531.262 819.017 531.262 819.411 531.318 819.801C530.533 819.359 530.846 821.677 530.854 821.834C530.866 822.215 530.834 822.597 530.826 822.975C530.309 823.505 530.465 824.281 530.521 824.964C530.541 825.225 530.441 825.538 530.493 825.787C530.069 825.928 530.237 826.515 530.225 826.86L530.189 828.307C529.705 828.761 529.865 829.408 529.913 830.002C529.941 830.356 529.937 830.794 529.889 831.143C529.785 831.385 529.501 831.638 529.509 832.108L529.565 835.31C529.569 835.591 529.561 835.877 529.553 836.158C529.377 835.198 528.76 841.55 529.148 840.626C529.064 841.012 529.068 841.405 529.128 841.795C528.34 841.325 528.66 843.776 528.66 843.824L528.628 845.279C528.063 845.91 528.352 846.798 528.324 847.585L528.304 848.099C527.923 848.457 527.847 849.036 528.22 849.425C528.151 849.815 528.151 850.209 528.199 850.603C527.379 850.133 527.723 852.704 527.719 852.941L527.687 854.388C527.191 854.934 527.411 855.701 527.391 856.385L527.375 856.907C526.918 857.357 527.014 858.012 527.091 858.598C527.127 858.868 527.059 859.157 527.079 859.426C526.434 860.141 526.794 861.158 526.774 862.05L526.762 862.568C526.122 863.283 526.486 864.296 526.454 865.184L526.426 866.008C525.982 866.47 526.086 867.113 526.142 867.703C526.166 867.96 526.142 868.266 526.118 868.523C526.106 868.684 525.801 868.808 525.805 869.045C525.809 869.218 525.958 869.399 526.042 869.539L525.817 871.364C525.313 872.043 525.445 872.842 525.525 873.674C525.561 874.052 525.481 874.437 525.493 874.815C524.981 875.362 525.233 876.129 525.201 876.812L525.145 877.953C525.141 878.033 524.997 878.126 524.949 878.238C524.881 878.391 525.081 878.536 525.113 878.656C525.137 879.211 524.881 879.902 525.073 880.452C524.881 880.28 524.777 880.452 524.701 880.541C524.508 880.766 524.576 881.139 524.552 881.465L523.92 889.694L523.612 892.767C523.447 894.411 522.963 896.424 521.47 896.585L521.001 896.637C520.845 896.653 520.537 896.846 520.717 897.099C520.385 897.119 519.888 897.043 519.58 897.147C519.048 896.709 518.263 896.761 517.606 896.585C517.254 896.271 516.586 896.187 516.417 895.628C516.357 895.122 516.201 894.596 515.765 894.298C515.933 893.35 515.493 892.213 515.773 891.281C515.997 890.538 516.313 889.826 516.065 888.962C516.025 888.826 516.073 888.589 516.081 888.452C516.177 888.295 516.353 888.163 516.389 887.934C516.417 887.753 516.205 887.58 516.153 887.436C516.225 886.961 516.261 886.443 516.193 885.957C517.018 886.459 516.658 883.699 516.666 883.614C516.71 883.181 516.558 882.578 516.702 882.168C517.122 880.987 517.034 879.528 517.082 878.299L517.134 876.852C517.919 877.342 517.602 874.831 517.602 874.811L517.631 873.67C518.255 872.951 517.911 871.946 517.939 871.054L517.955 870.54C518.107 870.395 518.247 870.218 518.259 870.002C518.267 869.841 518.323 869.411 518.023 869.499L518.267 868.025C518.715 867.434 518.651 866.743 518.547 866.016C518.507 865.746 518.587 865.461 518.571 865.188C519.156 864.565 518.852 863.669 518.868 862.882L518.888 862.046C519.46 861.423 519.212 860.527 519.192 859.74C519.184 859.482 519.304 859.165 519.24 858.916C519.824 856.445 519.989 853.825 520.125 851.254C520.185 850.153 520.281 849.02 520.225 847.919C520.645 848.14 520.809 847.617 520.801 847.368C520.789 846.958 520.917 846.396 520.529 846.247C520.929 845.644 520.641 844.584 520.745 843.8C519.488 843.692 518.491 843.647 517.43 843.668C517.386 843.511 517.338 843.386 517.298 843.29C517.23 843.125 517.006 843.053 516.874 843.141C516.65 843.294 516.71 843.563 516.682 843.768C516.658 843.941 516.602 844.134 516.622 844.31C515.813 843.852 516.157 846.307 516.157 846.344L516.121 847.798C515.617 848.031 515.845 848.718 515.829 849.164L515.693 852.8C514.784 852.817 515.252 853.934 515.256 854.528C515.256 855.051 515.297 855.782 515.184 856.276C514.74 856.863 514.916 857.55 514.892 858.273L514.856 859.406C514.66 858.667 513.875 864.911 514.436 864.501C514.5 864.637 514.404 864.883 514.428 865.039C513.655 864.565 513.951 866.968 513.951 867.068C513.951 867.442 513.963 867.836 513.919 868.209C513.399 868.527 513.583 869.905 513.859 869.568C513.747 870.046 513.771 870.568 513.611 871.038C513.583 871.127 513.435 871.199 513.379 871.323C513.307 871.484 513.495 871.641 513.555 871.769C513.491 872.304 513.415 872.975 513.491 873.529C512.682 873.043 513.023 875.675 513.019 875.872L512.995 877.017C512.362 877.736 512.718 878.741 512.682 879.629C512.674 879.797 512.686 879.978 512.666 880.143C512.654 880.231 512.498 880.316 512.446 880.436C512.378 880.593 512.558 880.75 512.61 880.878C512.55 881.405 512.466 882.088 512.55 882.634C511.762 882.164 512.082 884.619 512.082 884.663L512.05 886.118C511.433 886.845 511.786 887.845 511.745 888.737C511.737 888.89 511.782 889.107 511.725 889.252C511.029 891.08 511.225 893.109 510.777 895.01C510.268 895.283 510.1 896.532 509.259 896.548C509.119 896.548 508.963 896.581 508.803 896.637C508.651 896.689 508.327 896.834 508.511 897.087C508.243 897.051 507.95 897.131 507.686 897.131C507.61 897.111 507.514 897.006 507.422 896.954C507.262 896.87 507.13 897.123 507.013 897.119L506.157 897.087C506.069 896.376 505.108 896.408 504.543 896.203C504.555 896.114 504.523 896.018 504.527 895.93C502.502 892.852 504.263 891.313 503.655 889.637C503.647 889.3 503.755 888.83 503.675 888.464C504.475 888.946 504.151 886.395 504.147 886.435C504.207 885.901 504.043 885.19 504.211 884.679C504.451 884.133 504.655 883.631 504.475 882.988C504.407 882.739 504.531 882.417 504.499 882.164C504.495 882.076 504.691 881.991 504.724 881.863C504.764 881.698 504.659 881.529 504.531 881.409L504.539 880.866C504.984 879.934 505.46 878.648 504.912 877.696C505.26 877.399 504.884 876.503 505.12 876.185C505.524 875.671 505.5 875.137 505.404 874.498C505.332 874.028 505.484 873.525 505.444 873.051C505.933 872.497 505.712 871.729 505.732 871.042L505.748 870.528C505.884 870.391 506.005 870.231 506.061 870.014C506.105 869.837 505.868 869.664 505.828 869.519L506.037 867.997C506.689 867.273 506.321 866.293 506.345 865.385C506.353 865.043 506.277 864.573 506.381 864.248C507.118 861.901 507.27 859.378 507.294 856.943L507.306 855.754C507.822 855.219 507.57 854.444 507.61 853.765L507.658 852.941C508.094 852.371 508.114 851.563 507.73 850.96L507.71 850.43C508.571 851 508.214 848.316 508.218 848.099L508.247 846.962C508.867 846.235 508.547 845.227 508.579 844.331L508.595 843.828C509.063 843.262 508.831 842.506 508.867 841.823L508.911 841C509.428 840.337 509.151 839.465 509.171 838.673L509.183 838.159C509.86 837.343 509.403 836.214 509.52 835.218C509.54 835.041 509.532 834.852 509.528 834.671C510.096 832.325 510.344 829.822 510.412 827.363L510.444 826.225C510.949 825.679 510.777 824.912 510.741 824.224C510.729 823.955 510.777 823.67 510.785 823.401C510.785 823.3 510.985 823.208 511.001 823.087C511.021 822.943 511.105 822.569 510.817 822.666L511.065 820.877C511.317 820.395 511.725 819.684 511.169 819.242C511.401 818.949 511.193 818.338 511.361 818.037C511.934 817.398 511.689 816.534 511.661 815.73C511.649 815.445 511.681 815.152 511.689 814.867C511.922 814.497 512.25 813.798 511.762 813.553C511.926 813.207 511.85 812.741 511.998 812.387C511.77 812.946 512.874 811.222 512.078 811.066L512.294 809.233C512.802 808.659 512.654 807.976 512.594 807.244C512.57 806.935 512.494 806.377 512.606 806.091C513.019 805.079 513.183 803.93 512.991 802.861C512.874 802.198 513.243 801.467 513.051 800.788C513.951 800.763 513.479 799.65 513.487 799.06C513.491 798.513 513.487 797.834 513.555 797.308C513.911 796.818 513.843 796.243 513.843 795.624V795.106C513.843 794.977 514.007 794.588 513.823 794.511C513.139 794.23 512.258 794.692 512.282 795.359C509.876 796.46 507.642 797.935 505.12 798.762C504.479 798.971 503.903 799.196 503.29 799.486C502.678 799.775 502.229 799.699 502.233 800.727L502.281 808.004L502.021 882.968C502.009 886.487 501.749 889.65 502.269 892.812C502.418 893.7 502.562 894.013 501.849 894.821C501.048 895.725 500.212 896.721 498.935 896.617C498.478 896.544 498.014 896.613 497.561 896.585L496.745 896.54C496.605 896.303 496.336 896.215 496.076 896.167C495.183 895.636 495.023 894.531 494.523 893.684L494.491 844.339C494.491 844.29 494.475 844.009 494.395 843.764L488.842 843.772L488.802 893.643C488.802 895.46 486.724 896.444 485.575 896.609C483.718 896.878 482.052 896.247 481.336 894.644C481.28 894.483 481.352 894.246 481.063 894.286L480.967 807.614L481.003 800.691C481.003 800.072 480.515 799.506 479.906 799.341C475.715 798.196 472.22 796.175 468.525 793.652C468.617 795.954 468.493 797.971 469.117 799.759C469.033 802.146 469.457 804.416 469.742 807.015L474.101 846.85C473.789 845.528 474.614 856.176 474.986 853.881C474.79 855.079 475.202 856.316 475.126 857.518C475.098 857.968 474.934 858.651 475.415 858.888C475.359 859.362 475.471 859.864 475.443 860.342C475.423 860.676 475.126 863.541 475.923 862.994C475.855 863.476 475.875 864.011 475.947 864.481C475.887 864.625 475.647 864.842 475.723 864.967L476.035 865.485C476.303 865.935 476.063 866.651 476.083 867.233C476.091 867.474 476.027 867.96 476.343 868.001L476.371 869.142C476.391 869.949 476.123 870.797 476.676 871.444L476.888 872.963C476.532 873.035 476.644 873.505 476.624 873.754C476.596 874.124 476.664 874.767 477.168 874.618C477.096 875.177 477.248 875.828 477.232 876.378C477.184 876.458 477.092 876.563 477.052 876.667C476.976 876.86 477.276 876.989 477.28 877.117L477.312 878.254C477.324 878.709 477.1 879.384 477.596 879.633L477.681 881.999C477.689 882.196 477.56 882.61 477.572 882.815C477.588 883.068 477.668 883.586 478.113 883.418C478.033 883.984 478.113 884.623 478.169 885.182C478.117 885.262 478.033 885.37 477.993 885.471C477.909 885.672 478.213 885.784 478.221 885.921C478.233 886.182 478.329 886.491 478.297 886.753C478.209 887.444 478.213 888.111 478.593 888.689C478.629 889.24 478.573 889.939 478.581 890.505C478.589 891.072 478.325 891.755 478.87 892.185C478.918 892.667 478.97 893.149 479.054 893.623C478.761 893.443 478.601 893.772 478.561 893.941C478.509 894.178 478.537 894.535 478.593 894.716C478.509 895.339 478.069 895.966 477.464 896.388C475.703 897.613 473.677 897.143 471.988 896.151C471.98 895.291 471.219 894.576 471.115 893.583L468.064 865.248L465.806 843.479C464.329 843.358 463.216 843.852 461.787 843.515C461.311 845.162 461.751 846.669 461.947 848.533L466.631 892.715C466.803 894.347 465.947 895.946 464.79 896.536C464.621 896.621 464.349 896.528 464.133 896.725C464.045 896.806 463.873 896.89 464.045 897.071C462.199 897.308 460.35 897.01 459.457 895.287C459.425 895.026 459.281 894.821 459.117 894.628C458.981 894.467 458.929 894.242 458.844 894.053C459.017 893.905 459.129 893.728 459.069 893.579C458.965 893.318 458.732 893.053 458.536 893.33L458.516 893.113C458.452 892.354 458.54 891.574 458.436 890.811C458.412 890.646 458.38 890.469 458.38 890.3C458.38 890.096 458.416 889.887 458.436 889.682C458.508 888.882 458.66 888.014 458.156 887.363C458.18 886.873 457.976 886.09 458.116 885.603C458.332 884.864 458.052 884.515 457.832 883.92C457.443 882.875 457.595 881.662 457.511 880.569C457.463 879.954 457.695 879.388 457.223 878.877C457.087 878.371 457.143 877.64 457.183 877.117L457.243 876.318C457.259 876.089 457.155 875.546 456.715 875.715C456.891 875.032 456.655 874.297 456.667 873.614C456.667 873.357 456.951 873.188 456.631 872.919C456.543 872.493 456.607 871.914 456.567 871.468C456.526 871.022 456.799 870.347 456.29 870.082C456.486 869.58 455.982 868.816 456.218 868.338C456.522 867.723 456.01 867.414 455.962 866.956L454.189 849.952L452.123 829.291L451.598 824.883C451.37 822.951 451.174 821.123 451.242 819.31C451.254 818.969 451.374 818.378 450.962 818.246L450.922 816.799C450.914 816.586 451.002 816.265 450.982 815.988C450.966 815.751 450.894 815.22 450.461 815.385C450.882 813.926 449.837 809.507 449.993 808.305C450.077 807.662 449.485 800.976 449.096 800.671C449.06 800.197 449.012 799.666 449.052 799.192C449.108 798.562 449.196 798.007 448.756 797.513C448.668 796.986 448.744 796.291 448.728 795.745C448.712 795.158 449.132 794.057 448.263 794.025C448.524 792.735 447.275 782.208 446.914 780.352C446.838 779.95 446.894 779.488 446.874 779.078C446.858 778.741 447.191 775.9 446.382 776.434C446.47 775.916 446.394 775.438 446.306 774.928C446.29 774.707 446.47 774.47 446.394 774.293C446.242 773.939 445.99 773.682 445.673 773.634C445.565 773.529 445.453 773.429 445.337 773.329C443.299 771.621 440.225 771.018 437.562 770.926L436.834 770.902C436.537 770.552 435.332 770.351 435.288 771.026C435.208 772.316 435.248 773.614 435.613 774.695L435.657 775.53C435.705 776.418 435.336 777.427 435.969 778.146L436.053 779.062L440.653 822.308C440.829 823.955 441.145 825.273 441.049 826.712C441.037 826.909 440.921 827.222 440.993 827.499C441.037 827.668 441.181 828.005 441.478 827.817C441.438 829.311 441.534 830.714 441.714 832.421L447.991 891.08C448.191 892.964 448.239 894.387 447.275 895.881C447.139 895.966 447.058 896.171 446.91 896.207L446.458 896.315C446.262 896.364 446.134 896.605 446.198 896.846C445.845 896.99 445.365 896.926 445.033 897.107C444.684 896.621 443.908 896.785 443.459 897.079C443.279 897.079 443.091 897.047 442.915 897.067C443.087 896.886 442.915 896.802 442.823 896.725C442.595 896.54 442.362 896.593 442.174 896.532C441.954 896.46 441.758 896.299 441.534 896.243C440.697 895.138 440.453 893.953 440.289 892.406L436.197 854.432V853.242C436.205 853.001 436.281 852.543 435.969 852.487C436.009 851.784 435.733 850.8 435.677 850.08C435.901 850.177 435.845 849.984 435.889 849.859C435.973 849.614 435.633 849.478 435.657 849.349C435.741 848.927 435.449 848.3 435.597 847.89C435.845 847.191 435.477 846.782 435.308 846.207C435.072 845.403 435.393 844.443 434.868 843.467L431.265 843.792C430.761 843.836 430.833 844.64 430.729 844.929C430.689 845.038 430.664 845.283 430.676 845.415C430.693 845.596 430.881 845.938 431.145 845.733C431.065 848.24 431.349 850.787 431.878 853.238C431.946 853.548 432.038 853.825 432.13 854.122C432.314 854.725 432.098 855.4 432.158 856.011L435.713 890.847C435.853 892.233 436.289 894.029 435.661 895.206C434.656 897.083 432.27 897.24 430.388 897.075C430.208 896.729 429.804 896.544 429.407 896.484C429.235 896.331 429.143 895.837 428.767 895.885C428.959 895.307 428.286 894.869 428.21 894.17L423.094 847.497C423.054 847.119 423.174 846.717 423.106 846.336C423.042 845.99 423.23 845.431 422.822 845.263C421.493 835.768 414.21 828.717 405.323 826.117C405.535 825.944 405.283 825.659 405.087 825.562C404.947 825.494 404.75 825.591 404.638 825.779C404.462 825.779 404.278 825.739 404.098 825.751C404.27 825.579 404.122 825.458 404.014 825.386C403.758 825.217 403.525 825.293 403.321 825.293C402.188 825.297 401.167 824.638 400.026 824.807C400.459 824.012 398.173 824.325 398.013 824.329L396.227 824.357L394.362 824.317C393.953 824.309 390.434 823.999 391.095 824.803C390.71 824.747 390.338 824.9 389.962 824.904C389.481 824.912 389.017 824.851 388.625 825.185L387.776 825.289C386.235 825.293 384.597 825.112 383.408 823.951C382.471 823.035 382.043 822.031 382.139 820.845C382.175 820.371 382.163 819.897 382.127 819.423C383.032 819.455 383.921 818.68 384.597 818.001C385.17 817.788 386.159 817.876 386.263 817.153C386.823 817.289 387.44 817.044 388 817.02C388.252 817.008 388.653 817.052 388.741 816.755L389.249 816.731C389.954 816.699 390.654 816.823 391.255 816.434C391.683 816.345 392.28 816.361 392.728 816.333C394.338 816.237 395.995 816.639 397.913 816.1C391.595 800.868 395.595 783.534 407.549 772.521C409.026 771.163 410.619 770.279 411.872 768.913C412.865 768.129 414.399 767.828 415.275 766.831C415.379 766.811 415.496 766.86 415.596 766.827C416.104 766.663 416.925 766.582 416.937 765.935L421.541 764.292C422.101 764.272 422.942 764.356 423.142 763.722C424.143 763.898 425.164 763.03 426.189 763.276C426.401 763.328 426.921 763.276 426.937 762.994C428.775 762.886 430.697 762.379 432.55 762.384L432.518 762.412ZM578.026 807.715C578.202 807.136 578.702 806.73 578.634 806.031C578.578 805.456 578.891 804.874 578.767 804.283C579.575 804.81 579.247 801.973 579.247 801.631V798.598C579.243 797.911 579.515 797.139 578.959 796.601L578.923 795.468C578.899 794.785 578.847 793.969 578.322 793.471L578.31 792.944C578.31 792.808 578.346 792.659 578.294 792.466C578.25 792.306 578.074 791.988 577.822 792.177C577.802 791.574 577.578 791.004 577.409 790.425C577.241 789.847 577.305 788.794 576.545 788.73C574.527 783.968 571.232 779.609 566.58 776.286L561.444 825.422C563.201 825.096 563.71 823.951 564.843 823.256C570.363 819.853 576.148 813.918 578.026 807.707V807.715ZM405.195 789.999C404.418 789.999 404.478 791.076 404.33 791.675C404.262 791.956 404.326 792.261 404.274 792.547C403.91 792.494 404.082 793.013 403.962 793.206C403.798 793.471 403.822 793.816 403.706 794.09C403.601 794.335 403.365 794.519 403.413 794.829C403.437 794.99 403.401 795.215 403.397 795.355C403.397 795.44 403.209 795.512 403.161 795.636C403.109 795.777 403.209 795.942 403.309 796.062C402.793 798.3 403.093 800.695 403.089 802.977V804.151C403.089 804.492 402.953 805.075 403.385 805.191L403.401 805.714C403.429 806.525 403.493 807.582 404.27 807.992C404.298 808.514 404.426 809.02 404.622 809.507C404.67 809.631 404.614 809.804 404.69 809.957C404.766 810.109 404.919 810.411 405.163 810.234C405.663 812.203 407.176 813.778 408.261 815.542C409.238 817.129 410.631 817.856 411.796 818.933C412.821 819.877 413.83 820.436 414.959 821.171C416.757 822.344 418.41 823.907 420.724 825.048L416.52 785.374C416.224 782.558 416.328 779.681 415.644 776.563C411.256 778.897 406.412 785.816 405.191 789.991L405.195 789.999Z" fill="white" fill-opacity="0.9"/>
<path d="M569.571 757.911C567.409 760.76 563.71 762.287 560.327 762.018C554.686 761.563 550.483 757.184 550.134 751.88C549.766 746.263 553.365 741.646 558.886 740.328C563.798 739.155 569.339 742.426 571.044 746.854C572.537 750.719 572.053 754.636 569.571 757.915V757.911Z" fill="white" fill-opacity="0.9"/>
<path d="M620.338 828.704C619.541 828.901 618.704 829.158 618.056 829.673C617.78 829.669 617.499 829.721 617.227 829.697C616.358 829.624 615.482 829.713 614.613 829.693L614.093 829.681C613.976 829.255 613.392 829.363 613.044 829.323C612.96 829.315 612.863 829.315 612.779 829.323C612.659 828.756 612.047 828.624 611.53 828.692C611.33 828.447 610.894 828.033 610.558 828.013C610.265 827.322 609.729 826.772 609.024 826.514C608.408 825.096 603.528 822.087 604.865 820.765L610.722 814.975C613.928 811.805 619.137 812.612 622.243 815.738L626.939 820.463C627.3 820.825 627.6 821.138 627.5 821.637C627.348 822.404 621.495 828.27 620.338 828.708V828.704Z" fill="white" fill-opacity="0.9"/>
<path d="M604.58 796.645C605.637 797.593 607.326 796.183 608.119 797.658V805.079C607.503 805.537 607.851 806.417 607.827 807.084C607.815 807.462 607.791 807.879 607.743 808.257C607.15 808.47 607.134 809.254 606.722 809.772L605.06 811.853C604.952 811.99 604.612 812.054 604.612 812.303C604.372 812.331 604.016 812.327 603.98 812.629C603.411 812.717 602.807 813.035 602.218 813.075C602.01 813.091 601.758 812.978 601.517 813.159C601.385 813.26 601.289 813.392 601.453 813.565L594.055 813.593C593.387 813.095 592.522 813.348 591.733 813.316C590.716 810.306 591.601 806.875 591.285 803.653C591.469 803.833 591.541 803.653 591.605 803.556C591.441 803.793 592.53 797.597 598.687 796.918C599.452 796.834 600.184 797.212 600.645 796.641H604.576L604.58 796.645Z" fill="white" fill-opacity="0.9"/>
<path d="M608.055 845.552C604.997 845.709 602.258 845.689 599.316 845.608C594.952 845.492 591.469 841.912 591.445 837.532C591.429 834.639 591.357 831.999 591.513 829.034C594.64 828.942 597.542 828.881 600.565 829.022C604.989 829.227 608.159 832.803 608.123 837.182L608.055 845.552Z" fill="white" fill-opacity="0.9"/>
<path d="M421.833 740.051C423.899 740.505 425.888 741.204 427.73 742.245C427.93 742.357 428.074 742.603 428.33 742.623C428.526 743.394 429.407 743.687 429.948 744.218C430.18 744.603 430.232 745.102 430.592 745.423C430.68 745.499 430.616 745.757 430.684 745.873C430.788 746.046 430.917 746.351 431.177 746.138C431.205 746.307 431.177 746.512 431.229 746.673C431.449 747.328 431.353 748.151 431.897 748.629L431.909 749.156C431.921 749.718 431.653 750.47 432.158 750.859V751.35C431.885 751.318 431.893 751.683 431.873 751.888C431.857 752.045 431.825 752.471 432.126 752.398C432.081 753.391 431.449 754.5 431.505 755.516C431.189 755.765 430.957 756.151 430.704 756.585C427.305 762.407 420.031 763.645 414.659 759.936C413.021 758.273 411.34 756.581 410.827 754.255C409.438 748.83 411.824 743.193 417.197 741.035C417.877 740.762 418.486 740.545 418.906 740.051C419.831 740.308 420.924 739.854 421.837 740.051H421.833Z" fill="white" fill-opacity="0.9"/>
<path d="M384.009 828.95L385.882 828.934L391.147 829.094C391.587 830.4 391.383 831.646 391.455 832.843C391.507 833.707 391.311 834.724 391.415 835.583C391.003 835.808 391.015 836.684 391.419 836.909C391.323 837.978 391.195 839.264 390.879 840.288C390.586 840.385 390.53 840.71 390.51 840.984C390.506 841.064 390.498 841.144 390.502 841.225C390.334 841.108 390.194 841.18 390.094 841.281C389.882 841.494 389.958 841.763 389.906 841.968C389.798 842.402 389.329 842.727 389.273 843.125C389.121 843.065 388.969 843.101 388.849 843.181C388.641 843.322 388.512 843.551 388.605 843.784C388.408 843.832 388.24 844.021 388.052 844.093C387.48 844.182 386.679 844.323 386.735 845.026C386.659 845.026 386.575 845.022 386.499 845.03C386.287 845.058 383.636 845.379 384.193 845.894L377.647 845.966C377.263 845.97 376.714 846.054 376.35 845.954C375.794 845.801 375.181 845.717 374.589 845.335L374.545 837.813C374.537 836.56 374.801 835.443 375.101 834.39C375.181 834.109 375.253 833.795 375.281 833.502C375.525 833.703 375.678 833.365 375.742 833.209C375.806 833.052 375.83 832.907 375.83 832.775C376.919 831.541 377.96 830.135 379.573 829.709C381.022 829.323 382.483 828.962 384.005 828.946L384.009 828.95Z" fill="white" fill-opacity="0.9"/>
<path d="M374.925 825.594C374.012 826.008 373.528 826.707 372.915 827.33C369.544 830.749 364.324 831.035 360.889 827.671C360.481 827.274 360.048 826.988 359.628 826.828C358.447 824.738 356.513 823.702 355 821.677C357.226 819.29 359.336 816.755 361.862 814.774C365.305 812.078 369.973 812.925 372.867 815.895C374.737 817.811 376.474 819.555 378.188 821.564C378.112 822.721 375.525 824.196 374.929 825.59L374.925 825.594Z" fill="white" fill-opacity="0.9"/>
<path d="M382.343 813.657C381.414 813.725 380.573 813.255 379.657 813.211C379.809 812.897 379.368 812.756 379.048 812.592L377.379 811.72C377.199 811.627 376.93 811.776 376.722 811.74C376.914 811.354 376.762 810.844 376.454 810.446C374.196 807.561 374.508 803.523 374.648 799.666C374.672 798.991 374.212 797.255 375.293 797.126C377.955 796.801 380.605 796.942 383.38 797.01C387.271 797.102 390.85 800.281 391.146 804.182C391.391 807.409 391.162 810.382 391.19 813.685L382.343 813.661V813.657Z" fill="white" fill-opacity="0.9"/>
<path d="M534.881 743.933C536.006 745.769 536.947 747.677 537.343 749.819C537.475 750.538 537.503 751.969 537.359 752.68C536.218 758.221 531.658 762.351 525.729 762.046C520.805 761.789 517.098 758.172 515.773 753.656C515.725 753.351 515.729 753.037 515.701 752.728C515.681 752.503 515.805 752.021 515.481 752.001L515.473 750.205C515.793 750.185 515.685 749.703 515.701 749.478L515.773 748.332C516.217 747.79 516.345 747.071 516.409 746.388C518.815 741.847 523.852 739.115 528.956 740.369C531.418 740.971 533.172 742.378 534.881 743.933Z" fill="white" fill-opacity="0.9"/>
<path d="M502.266 779.038C501.998 779.15 501.857 779.403 501.713 779.725C499.932 783.658 496.301 786.346 491.977 786.382C489.271 786.403 486.741 785.844 484.775 784.092C480.896 780.625 479.55 775.116 481.956 770.483C484.359 765.863 489.663 763.56 494.731 765.023C499.479 766.393 502.834 770.929 502.53 776.181C502.474 777.137 501.998 778.19 502.266 779.042V779.038Z" fill="white" fill-opacity="0.9"/>
<path d="M466.595 753.234C465.934 753.813 466.247 754.632 466.003 755.114C464.309 758.429 461.759 760.824 458.56 761.66C455.125 762.556 451.09 761.913 448.512 759.55C444.576 755.942 443.628 750.445 445.982 745.985C448.34 741.513 453.512 739.042 458.44 740.461C464.277 742.14 467.124 747.484 466.595 753.242V753.234Z" fill="white" fill-opacity="0.9"/>
</g>
<g filter="url(#filter2_d_213_720)">
<path d="M640 237.635C606.867 217.157 574.22 244.551 548.637 214.106C530.834 192.912 533.594 171.145 529.418 170.071C528.631 169.871 526.515 170.1 525.557 170.673L495.37 188.917C487.133 199.571 484.001 211.958 485.274 225.419C487.304 246.9 498.315 266.619 517.22 277.574C529.518 284.706 543.418 287.412 557.503 287.971L582.056 288.93C589.821 289.231 597.457 290.563 604.45 293.742C612.916 297.58 616.72 306.172 614.303 315.165C609.341 333.724 599.531 346.126 595.799 366.661C592.038 387.368 599.216 407.904 616.419 420.148C623.827 425.418 631.82 428.611 640 430V237.635Z" fill="white"/>
</g>
<g filter="url(#filter3_d_213_720)">
<path d="M4.30184 142.608C30.3163 157.75 54.8852 135.781 75.2987 158.819C89.505 174.857 87.863 191.797 91.1077 192.537C91.7189 192.675 93.3462 192.45 94.0724 191.985L116.949 177.167C123.064 168.722 125.202 159.047 123.92 148.638C121.873 132.027 112.939 116.982 98.1124 108.908C88.4671 103.651 77.6854 101.862 66.8083 101.742L47.8484 101.544C41.8524 101.484 35.9325 100.621 30.4678 98.3117C23.8522 95.5241 20.7261 88.9463 22.389 81.9193C25.8014 67.4181 33.0907 57.5838 35.5103 41.5777C37.9482 25.4376 31.9519 9.67416 18.409 0.562908C12.5776 -3.35859 6.34042 -5.65694 0.000195951 -6.55207L4.30184 142.608Z" fill="white"/>
</g>
</g>
<defs>
<filter id="filter0_d_213_720" x="-100" y="662" width="459" height="407" filterUnits="userSpaceOnUse" color-interpolation-filters="sRGB">
<feFlood flood-opacity="0" result="BackgroundImageFix"/>
<feColorMatrix in="SourceAlpha" type="matrix" values="0 0 0 0 0 0 0 0 0 0 0 0 0 0 0 0 0 0 127 0" result="hardAlpha"/>
<feOffset dy="4"/>
<feGaussianBlur stdDeviation="2"/>
<feComposite in2="hardAlpha" operator="out"/>
<feColorMatrix type="matrix" values="0 0 0 0 0 0 0 0 0 0 0 0 0 0 0 0 0 0 0.25 0"/>
<feBlend mode="normal" in2="BackgroundImageFix" result="effect1_dropShadow_213_720"/>
<feBlend mode="normal" in="SourceGraphic" in2="effect1_dropShadow_213_720" result="shape"/>
</filter>
<filter id="filter1_d_213_720" x="351" y="740" width="280.52" height="165.147" filterUnits="userSpaceOnUse" color-interpolation-filters="sRGB">
<feFlood flood-opacity="0" result="BackgroundImageFix"/>
<feColorMatrix in="SourceAlpha" type="matrix" values="0 0 0 0 0 0 0 0 0 0 0 0 0 0 0 0 0 0 127 0" result="hardAlpha"/>
<feOffset dy="4"/>
<feGaussianBlur stdDeviation="2"/>
<feComposite in2="hardAlpha" operator="out"/>
<feColorMatrix type="matrix" values="0 0 0 0 0 0 0 0 0 0 0 0 0 0 0 0 0 0 0.7 0"/>
<feBlend mode="normal" in2="BackgroundImageFix" result="effect1_dropShadow_213_720"/>
<feBlend mode="normal" in="SourceGraphic" in2="effect1_dropShadow_213_720" result="shape"/>
</filter>
<filter id="filter2_d_213_720" x="481" y="170" width="163" height="268" filterUnits="userSpaceOnUse" color-interpolation-filters="sRGB">
<feFlood flood-opacity="0" result="BackgroundImageFix"/>
<feColorMatrix in="SourceAlpha" type="matrix" values="0 0 0 0 0 0 0 0 0 0 0 0 0 0 0 0 0 0 127 0" result="hardAlpha"/>
<feOffset dy="4"/>
<feGaussianBlur stdDeviation="2"/>
<feComposite in2="hardAlpha" operator="out"/>
<feColorMatrix type="matrix" values="0 0 0 0 0 0 0 0 0 0 0 0 0 0 0 0 0 0 0.25 0"/>
<feBlend mode="normal" in2="BackgroundImageFix" result="effect1_dropShadow_213_720"/>
<feBlend mode="normal" in="SourceGraphic" in2="effect1_dropShadow_213_720" result="shape"/>
</filter>
<filter id="filter3_d_213_720" x="-4" y="-6.55225" width="132.277" height="207.129" filterUnits="userSpaceOnUse" color-interpolation-filters="sRGB">
<feFlood flood-opacity="0" result="BackgroundImageFix"/>
<feColorMatrix in="SourceAlpha" type="matrix" values="0 0 0 0 0 0 0 0 0 0 0 0 0 0 0 0 0 0 127 0" result="hardAlpha"/>
<feOffset dy="4"/>
<feGaussianBlur stdDeviation="2"/>
<feComposite in2="hardAlpha" operator="out"/>
<feColorMatrix type="matrix" values="0 0 0 0 0 0 0 0 0 0 0 0 0 0 0 0 0 0 0.25 0"/>
<feBlend mode="normal" in2="BackgroundImageFix" result="effect1_dropShadow_213_720"/>
<feBlend mode="normal" in="SourceGraphic" in2="effect1_dropShadow_213_720" result="shape"/>
</filter>
<clipPath id="clip0_213_720">
<rect width="640" height="960" fill="white"/>
</clipPath>
</defs>
</svg>
