<svg width="223" height="187" viewBox="0 0 223 187" fill="none" xmlns="http://www.w3.org/2000/svg">
<g filter="url(#filter0_d_401_2)">
<path d="M54.9688 140.844H69.9688L70.3203 141.195V146.703C70.3203 147.125 70.1641 147.398 69.8516 147.523H59.1875C57.9375 147.883 57.3125 148.547 57.3125 149.516V151.977C57.3125 153.273 58.4844 154.094 60.8281 154.438C61.4219 154.438 63.8828 155.023 68.2109 156.195C70.3203 157.461 71.375 159.57 71.375 162.523V167.445C71.375 171.305 69.6953 173.961 66.3359 175.414L63.4062 176H50.1641C49.7422 176 49.3906 175.766 49.1094 175.297V169.438L49.8125 168.852L50.6328 168.969H60.9453C62.1953 168.719 62.8203 168.094 62.8203 167.094V164.164C62.8203 163.102 62.3125 162.398 61.2969 162.055C54.2656 160.57 50.75 159.516 50.75 158.891C49.4219 157.75 48.7578 155.953 48.7578 153.5V148.461C48.7578 145.242 50.3594 142.859 53.5625 141.312L54.9688 140.844ZM75.3828 140.844H95.6562L96.0078 141.195V146.469C96.0078 147.016 95.7344 147.289 95.1875 147.289H83.5859C83.1172 147.289 82.8828 147.523 82.8828 147.992V154.086L83.2344 154.438H93.0781C93.7812 154.438 94.1328 154.711 94.1328 155.258V160.297C94.1328 160.766 93.8984 161 93.4297 161H83.5859C83.1172 161 82.8828 161.234 82.8828 161.703V167.562C82.8828 168.891 83.8984 169.555 85.9297 169.555H95.7734C96.3203 169.555 96.5938 169.828 96.5938 170.375V175.648L96.2422 176H81.125C78.8906 175.406 77.2109 174.234 76.0859 172.484C75.3047 170.906 74.9141 169.383 74.9141 167.914V142.25C74.9141 141.312 75.0703 140.844 75.3828 140.844ZM100.484 140.844H116.422C118.453 141.328 120.094 142.344 121.344 143.891C122.281 144.938 122.75 146.891 122.75 149.75V152.445C122.75 155.117 122.281 156.875 121.344 157.719L120.875 158.305V158.539C122.203 159.789 122.867 161.508 122.867 163.695V175.297C122.664 175.766 122.352 176 121.93 176H115.367C114.742 176 114.43 175.648 114.43 174.945V163.578C114.195 162.25 113.531 161.586 112.438 161.586H109.156L108.688 162.055V174.711C108.688 175.57 108.375 176 107.75 176H101.141C100.688 176 100.375 175.648 100.203 174.945L100.133 141.195L100.484 140.844ZM108.688 147.992V154.906L109.039 155.258H112.672C113.594 155.258 114.18 154.555 114.43 153.148V149.398C114.148 148.148 113.367 147.523 112.086 147.523H109.156L108.688 147.992ZM126.852 140.844H147.125L147.477 141.195V146.469C147.477 147.016 147.203 147.289 146.656 147.289H135.055C134.586 147.289 134.352 147.523 134.352 147.992V154.086L134.703 154.438H144.547C145.25 154.438 145.602 154.711 145.602 155.258V160.297C145.602 160.766 145.367 161 144.898 161H135.055C134.586 161 134.352 161.234 134.352 161.703V167.562C134.352 168.891 135.367 169.555 137.398 169.555H147.242C147.789 169.555 148.062 169.828 148.062 170.375V175.648L147.711 176H132.594C130.359 175.406 128.68 174.234 127.555 172.484C126.773 170.906 126.383 169.383 126.383 167.914V142.25C126.383 141.312 126.539 140.844 126.852 140.844ZM157.812 140.844H172.812L173.164 141.195V146.703C173.164 147.125 173.008 147.398 172.695 147.523H162.031C160.781 147.883 160.156 148.547 160.156 149.516V151.977C160.156 153.273 161.328 154.094 163.672 154.438C164.266 154.438 166.727 155.023 171.055 156.195C173.164 157.461 174.219 159.57 174.219 162.523V167.445C174.219 171.305 172.539 173.961 169.18 175.414L166.25 176H153.008C152.586 176 152.234 175.766 151.953 175.297V169.438L152.656 168.852L153.477 168.969H163.789C165.039 168.719 165.664 168.094 165.664 167.094V164.164C165.664 163.102 165.156 162.398 164.141 162.055C157.109 160.57 153.594 159.516 153.594 158.891C152.266 157.75 151.602 155.953 151.602 153.5V148.461C151.602 145.242 153.203 142.859 156.406 141.312L157.812 140.844Z" fill="white"/>
</g>
<g filter="url(#filter1_d_401_2)">
<path d="M65.1575 17.6813C69.7562 17.694 74.2128 18.7337 78.4641 20.4677L78.6504 20.4487C78.4799 20.6547 78.7199 20.772 78.8684 20.8418C78.9789 20.8925 79.1179 20.864 79.2221 20.9083C79.9612 21.2063 80.5929 21.7452 81.3762 21.9322C81.2214 22.1288 81.4425 22.2873 81.5846 22.3443C81.7173 22.3951 81.8373 22.4046 81.951 22.4109C82.0142 22.4141 82.09 22.4046 82.15 22.4204C82.8101 23.3048 83.9282 23.7994 84.8347 24.408C84.901 24.408 85.0274 24.4619 85.0874 24.4365C85.1853 25.0166 85.7886 25.2829 86.2529 25.7109C88.0437 27.3497 89.5061 29.201 90.9937 31.1125C93.9564 34.9196 97.7781 37.779 102.168 39.272C104.108 39.9314 105.911 40.6953 108.037 40.9109C111.094 41.2184 114.161 41.4498 117.19 40.7334C117.509 40.6573 117.759 40.7112 118.024 40.4798C118.175 40.3688 118.567 40.2864 118.757 40.2547C123.074 39.5478 128.87 35.1986 131.387 31.6102C133.279 28.9157 135.557 26.7157 137.79 24.4429C139.031 23.6852 140.512 22.861 141.674 21.9037C141.848 21.9354 142.022 21.8879 142.174 21.7611C142.284 21.666 142.366 21.5835 142.23 21.4441C142.559 21.4314 142.849 21.2697 143.146 21.1556L146.551 19.8147C146.725 19.745 146.798 19.5452 146.674 19.4597C146.813 19.4597 146.959 19.4438 147.098 19.4184C147.957 19.2631 148.923 19.1902 149.64 18.6735C150.783 18.5309 151.946 18.3058 153.029 17.9159C153.174 17.862 153.414 17.9127 153.572 17.9159C154.245 17.9444 154.912 17.8778 155.556 17.6781C155.752 17.6179 156.023 17.6781 156.229 17.675C167.688 17.5165 179.358 24.1956 184.285 34.8657C186.117 38.8314 187.096 42.9619 187.264 47.3396C187.431 51.6825 186.383 55.7686 184.92 60.0163C187.523 60.0449 195.043 60.178 196.493 62.0705C197.336 62.7869 197.734 63.7189 197.507 64.8759C197.068 67.1108 194.269 67.3295 192.2 66.911C184.759 65.4021 176.891 67.3834 171.332 72.4363C171.156 72.4014 170.963 72.4522 170.846 72.617C170.78 72.7089 170.761 72.8326 170.805 72.953C170.527 72.9879 170.448 73.438 170.236 73.5173C169.545 73.774 169.27 74.5665 168.878 75.153C168.512 75.7046 167.915 76.1737 167.836 76.8774C167.29 76.8616 167.189 77.4956 167.125 77.9394C167.106 78.0757 167.119 78.2247 167.087 78.361C166.225 78.6178 166.241 79.835 166.112 80.6339C166.102 80.7004 166.099 80.7797 166.105 80.8463C165.887 80.6909 165.714 80.9223 165.676 81.0587C165.606 81.2996 165.682 81.4898 165.676 81.6736L165.66 82.0857C165.338 82.184 165.423 82.6405 165.401 82.9131C165.382 83.1382 165.372 83.3696 165.372 83.5946C164.81 83.9719 164.877 84.7802 164.943 85.3952C164.974 85.6741 164.858 86.0292 164.921 86.2955C164.463 86.6568 164.693 87.3415 164.678 87.8646L164.665 88.2703C164.289 88.4574 164.321 89.0565 164.599 89.3355V89.7539C164.573 89.7 164.406 89.6112 164.346 89.719C164.049 90.2991 163.999 91.0885 164.346 91.5449C164.276 91.7193 164.302 92.0331 164.324 92.2201C163.686 91.8017 163.948 94.046 163.942 94.3092L163.92 94.9622C163.743 94.8481 163.168 98.3731 163.597 98.2367C163.534 98.5442 163.544 98.8517 163.582 99.1592C162.947 98.7344 163.203 100.985 163.203 101.251C163.203 101.448 163.244 101.752 163.184 101.933C162.855 102.475 162.966 103.112 162.95 103.727L162.94 104.136C162.688 103.832 162.52 105.388 162.88 105.182C162.798 105.474 162.824 105.81 162.852 106.105C162.195 105.708 162.473 107.912 162.467 108.19L162.451 108.847C161.917 109.373 162.268 110.219 162.208 110.91C162.192 111.113 162.23 111.373 162.17 111.567C161.835 112.622 161.661 113.782 161.734 114.889C161.753 115.187 161.709 115.488 161.712 115.786C161.314 115.409 161.456 118.09 161.453 118.331V118.75C161.011 119.599 161.203 120.642 160.982 121.577C161.023 122.091 160.726 122.569 160.455 122.985C160.272 122.944 160.091 123.023 159.968 123.184C159.899 123.273 159.858 123.384 159.889 123.514L159.513 123.543C159.349 123.555 159.166 123.52 158.983 123.657C158.904 123.717 158.8 123.815 158.92 123.948L158.49 123.967C158.323 123.65 157.682 123.654 157.495 123.945C157.353 123.929 157.208 123.939 157.066 123.936C156.788 123.365 155.989 123.397 155.543 122.975L155.537 122.788C155.515 122.237 154.975 121.685 155.07 121.057C155.205 120.144 155.398 119.336 155.237 118.512C155.183 118.227 155.297 117.91 155.265 117.621C155.752 117.041 155.467 116.252 155.496 115.548C155.502 115.361 155.449 115.072 155.518 114.898C155.859 114.049 155.97 113.009 155.831 112.115C155.771 111.741 155.941 111.335 155.853 110.942C156.503 111.395 156.229 108.916 156.235 108.603L156.244 108.187C156.781 107.664 156.491 106.812 156.513 106.114L156.526 105.724C156.737 105.75 156.721 105.471 156.75 105.299C156.772 105.176 156.791 104.9 156.56 104.919L156.744 103.73C157.113 103.28 157.053 102.713 156.968 102.148C156.939 101.952 157.037 101.673 156.98 101.492C157.429 101.302 157.189 100.69 157.236 100.205L158.215 90.2611C158.237 90.0519 158.244 89.8236 158.237 89.6112C158.446 89.6905 158.471 89.4052 158.481 89.1992C158.484 89.1072 158.443 88.9424 158.279 89.0311C158.345 88.6666 158.354 88.2545 158.32 87.8836C158.932 88.2101 158.714 86.511 158.695 86.2859C158.664 85.9182 158.778 85.4998 158.721 85.1384C159.179 84.7739 158.939 84.0891 158.954 83.5629L158.973 82.9131C159.28 82.6722 159.232 82.3615 159.065 81.9494C158.932 81.6229 158.781 81.569 158.462 81.8321L155.783 81.8638C155.439 82.8592 155.407 83.8577 155.452 84.7834C154.779 84.869 154.915 85.9563 155.237 86.3588C155.025 86.6156 155.224 87.2655 155.054 87.5286C154.668 87.9185 154.82 88.3623 154.823 88.8536C154.829 90.7144 154.447 92.7812 154.311 94.4677C154.274 94.9305 153.876 95.8054 154.075 96.284C154.16 96.4933 154.04 96.9624 154.052 97.1843C153.336 99.5269 153.304 103.718 153.058 106.197L152.577 111.069C152.533 111.522 152.025 112.08 152.347 112.647C152.445 112.819 152.243 113.117 152.325 113.294C152.097 113.237 152.101 113.573 152.085 113.709C152.069 113.846 152.041 114.179 152.281 114.122C152.022 115.218 152.167 116.442 151.851 117.523C151.614 118.334 151.447 119.152 151.579 120.087C151.598 120.214 151.554 120.351 151.564 120.48C151.156 120.864 151.349 121.514 151.324 122.027C150.821 122.906 150.139 123.761 149.106 123.936C148.914 123.631 148.266 123.657 148.089 123.964C147.903 123.901 147.634 123.936 147.439 123.929C147.587 123.73 147.331 123.593 147.211 123.571L146.851 123.508C146.636 123.47 146.444 123.251 146.216 123.251C145.954 122.646 145.774 121.98 145.37 121.457L145.364 120.826L145.37 120.24L145.392 119.593C145.815 119.225 145.572 118.629 145.645 118.043C145.945 115.586 146.283 113.25 146.308 110.91C146.308 110.777 146.295 110.501 146.362 110.39C146.842 109.706 146.539 108.809 146.649 107.905C146.725 107.262 147.129 106.634 146.703 106.159C146.693 106.019 146.737 105.87 146.719 105.731C147.338 106.105 147.091 104.174 147.091 104.127C147.098 103.86 147.06 103.477 147.113 103.229C147.653 102.497 147.271 101.534 147.376 100.665C147.391 100.535 147.331 100.345 147.385 100.227C147.663 99.5935 148.206 94.9432 148.089 94.2204C148.07 94.0999 148.074 93.9287 148.099 93.8083C148.734 90.8856 148.999 87.8519 149.109 84.8468L149.125 84.3871C149.599 83.2618 149.277 81.9399 149.627 80.6529C149.861 79.8033 149.836 79.0108 149.864 78.1391C149.912 76.8236 150.389 75.5904 150.089 74.408C150.025 74.1608 150.215 73.7899 150.168 73.5014C150.357 73.6536 150.559 73.4095 150.562 73.1781L150.607 70.9749C150.622 70.23 150.929 69.5802 150.828 68.924C150.809 68.8035 150.843 68.6735 150.831 68.5499C150.932 68.4326 151.024 68.2995 151.061 68.1251C151.093 67.9857 150.919 67.8462 150.878 67.7321C150.935 67.3612 150.964 66.9427 150.91 66.5655C151.542 66.984 151.292 64.7618 151.295 64.4765C151.295 64.2705 151.27 64.0264 151.314 63.8267C151.728 61.9437 151.981 59.9625 152.025 58.0256L152.047 57.1253C152.334 57.4011 152.502 52.9727 152.524 53.0678C152.486 52.9219 152.524 52.7571 152.492 52.6081C152.89 52.0375 152.773 51.2799 152.783 50.6142L152.792 49.9422C153.228 49.4413 153.051 48.7407 153.026 48.1194C153.017 47.9197 153.058 47.59 152.972 47.4157C152.985 47.4157 153.206 47.3903 153.212 47.3269L153.752 42.4769C153.955 40.6541 154.068 38.9233 154.052 37.2559L154.043 36.2605C154.305 36.3239 154.479 36.2352 154.517 36.0894C154.438 36.3968 154.829 32.6024 154.757 32.2569C154.719 32.0667 154.757 31.8004 154.776 31.607C154.788 31.4707 155.06 31.3693 155.019 31.1791C154.991 31.0554 155.073 30.7162 154.823 30.7796C154.88 30.4056 154.902 29.984 155.013 29.6131C155.054 29.4768 155.31 29.3944 155.269 29.1978C155.243 29.071 155.316 28.7318 155.07 28.7952C155.221 28.4085 155.01 27.7333 155.256 27.3783C155.685 26.7633 155.486 26.0532 155.493 25.3146L155.499 24.6426C155.499 24.5316 155.575 24.3383 155.515 24.2432C155.303 23.9166 153.373 24.1544 153.756 24.3826L153.345 24.3953C152.884 24.3826 152.018 24.1259 152.006 24.7852L151.573 24.7916C150.907 24.8011 148.115 25.3273 148.56 25.8091L148.111 25.8852C147.237 26.0374 146.608 26.7031 146.655 27.5938C146.668 27.8189 146.643 28.0471 146.64 28.2722C146.273 28.6399 146.396 29.1471 146.425 29.6131C146.447 29.9872 146.381 30.3771 146.377 30.7511C146.377 30.8747 146.125 31.0047 146.15 31.1759C146.169 31.3059 146.103 31.5785 146.34 31.5531C146.159 31.886 146.292 32.4217 146.169 32.7482C145.692 33.3315 145.945 34.0923 145.926 34.8119L145.91 35.468C145.465 35.9657 145.698 36.6695 145.67 37.2876L145.651 37.7029C145.436 37.3066 145.127 40.968 145.196 41.2596C145.266 41.5512 145.139 41.8714 145.177 42.163C144.678 42.7305 144.959 43.523 144.934 44.2267L144.912 44.8765C144.542 45.0858 144.707 45.612 144.697 45.9702L144.681 46.62C144.261 47.0416 144.413 47.6566 144.457 48.2018C144.482 48.4966 144.425 48.801 144.435 49.0989C144.021 49.5237 144.167 50.1324 144.208 50.6744C144.23 50.9724 144.176 51.2799 144.185 51.5779C144.037 51.2006 143.408 55.2455 143.863 54.5989L143.705 55.8003C143.247 56.3043 143.443 56.9795 143.472 57.6198C143.478 57.8069 143.519 58.1302 143.453 58.2982C143.067 58.91 143.251 59.6455 143.209 60.3397L143.172 60.9959C142.89 61.2875 142.849 61.7313 143.124 62.0356C143.061 62.3399 143.061 62.6506 143.105 62.9581C142.486 62.6094 142.733 64.4385 142.739 64.5621C142.748 64.8632 142.723 65.1644 142.717 65.4624C142.309 65.8808 142.432 66.4926 142.477 67.0315C142.493 67.2376 142.414 67.4848 142.455 67.6813C142.12 67.7923 142.252 68.2551 142.243 68.5277L142.215 69.6689C141.832 70.0271 141.959 70.5375 141.997 71.0067C142.019 71.2856 142.016 71.6311 141.978 71.9069C141.896 72.0971 141.671 72.2968 141.678 72.6677L141.722 75.1942C141.725 75.4161 141.719 75.6412 141.712 75.8631C141.573 75.1054 141.087 80.1172 141.393 79.3881C141.327 79.6924 141.33 80.003 141.378 80.3105C140.755 79.9396 141.008 81.8733 141.008 81.9114L140.983 83.0589C140.537 83.5566 140.765 84.2572 140.743 84.8785L140.727 85.2842C140.427 85.5664 140.367 86.0228 140.661 86.3303C140.607 86.6378 140.607 86.9485 140.645 87.2591C139.997 86.8882 140.269 88.917 140.266 89.104L140.241 90.2452C139.849 90.6764 140.023 91.2818 140.007 91.8207L139.994 92.2328C139.634 92.5879 139.71 93.1046 139.77 93.5674C139.798 93.7798 139.745 94.008 139.76 94.2204C139.252 94.7847 139.536 95.5867 139.52 96.2904L139.511 96.6993C139.006 97.2636 139.293 98.0624 139.268 98.763L139.246 99.4128C138.895 99.7774 138.977 100.285 139.021 100.751C139.04 100.953 139.021 101.194 139.002 101.397C138.993 101.524 138.753 101.622 138.756 101.809C138.759 101.946 138.876 102.088 138.942 102.199L138.766 103.638C138.368 104.174 138.472 104.805 138.535 105.461C138.563 105.759 138.5 106.063 138.51 106.361C138.105 106.793 138.304 107.398 138.279 107.937L138.235 108.837C138.232 108.901 138.118 108.973 138.08 109.062C138.026 109.183 138.184 109.297 138.21 109.392C138.229 109.829 138.026 110.375 138.178 110.809C138.026 110.673 137.944 110.809 137.884 110.879C137.733 111.056 137.786 111.351 137.767 111.608L137.268 118.1L137.025 120.525C136.896 121.821 136.514 123.41 135.335 123.536L134.966 123.578C134.843 123.59 134.6 123.742 134.742 123.942C134.479 123.958 134.088 123.898 133.845 123.98C133.425 123.635 132.805 123.676 132.288 123.536C132.01 123.289 131.482 123.223 131.349 122.782C131.302 122.382 131.179 121.967 130.835 121.733C130.967 120.985 130.62 120.087 130.841 119.352C131.018 118.766 131.267 118.204 131.071 117.523C131.04 117.415 131.078 117.228 131.084 117.12C131.16 116.997 131.299 116.892 131.327 116.711C131.349 116.569 131.182 116.432 131.141 116.318C131.198 115.944 131.226 115.535 131.173 115.152C131.823 115.548 131.539 113.37 131.545 113.304C131.58 112.961 131.46 112.486 131.574 112.162C131.905 111.23 131.836 110.08 131.874 109.11L131.915 107.969C132.534 108.355 132.284 106.374 132.284 106.358L132.306 105.458C132.799 104.891 132.528 104.098 132.55 103.394L132.562 102.989C132.682 102.874 132.793 102.735 132.802 102.564C132.809 102.437 132.853 102.098 132.616 102.168L132.809 101.004C133.162 100.538 133.112 99.9929 133.03 99.4192C132.998 99.2068 133.061 98.9817 133.049 98.7661C133.51 98.2748 133.27 97.5679 133.282 96.9466L133.298 96.2872C133.75 95.7959 133.554 95.089 133.538 94.4677C133.532 94.2648 133.627 94.0143 133.576 93.8178C134.037 91.8683 134.167 89.8014 134.274 87.7727C134.322 86.9041 134.397 86.0101 134.353 85.1416C134.685 85.3159 134.814 84.9038 134.808 84.7073C134.798 84.384 134.9 83.9402 134.593 83.8229C134.909 83.3474 134.682 82.5105 134.764 81.8923C133.772 81.8068 132.986 81.7719 132.149 81.7877C132.114 81.6641 132.076 81.5658 132.044 81.4898C131.991 81.3598 131.814 81.3027 131.71 81.3725C131.533 81.4929 131.58 81.7053 131.558 81.867C131.539 82.0033 131.495 82.1555 131.511 82.2949C130.873 81.9336 131.144 83.8704 131.144 83.8989L131.116 85.0465C130.718 85.2303 130.898 85.7724 130.885 86.1243L130.778 88.9931C130.061 89.0058 130.43 89.887 130.433 90.3562C130.433 90.7683 130.465 91.3452 130.377 91.7351C130.026 92.198 130.165 92.74 130.146 93.3106L130.118 94.2045C129.963 93.6213 129.344 98.5474 129.786 98.2241C129.837 98.3318 129.761 98.5252 129.78 98.6488C129.17 98.2748 129.404 100.17 129.404 100.25C129.404 100.544 129.413 100.855 129.379 101.15C128.968 101.4 129.113 102.488 129.331 102.221C129.243 102.599 129.262 103.011 129.135 103.382C129.113 103.451 128.996 103.508 128.952 103.607C128.895 103.733 129.044 103.857 129.091 103.959C129.041 104.38 128.981 104.91 129.041 105.347C128.403 104.963 128.671 107.04 128.668 107.195L128.649 108.099C128.15 108.666 128.431 109.458 128.403 110.159C128.396 110.292 128.406 110.435 128.39 110.565C128.38 110.635 128.257 110.701 128.216 110.796C128.163 110.92 128.305 111.043 128.346 111.145C128.298 111.56 128.232 112.099 128.298 112.53C127.676 112.159 127.929 114.096 127.929 114.131L127.904 115.279C127.417 115.852 127.695 116.642 127.664 117.345C127.657 117.466 127.692 117.637 127.648 117.751C127.098 119.193 127.253 120.794 126.899 122.294C126.498 122.509 126.365 123.495 125.702 123.508C125.592 123.508 125.468 123.533 125.342 123.578C125.222 123.619 124.966 123.733 125.111 123.933C124.9 123.904 124.669 123.967 124.461 123.967C124.401 123.952 124.325 123.869 124.252 123.828C124.126 123.761 124.022 123.961 123.93 123.958L123.254 123.933C123.185 123.371 122.427 123.397 121.981 123.235C121.991 123.165 121.966 123.089 121.969 123.02C120.371 120.591 121.76 119.377 121.28 118.055C121.274 117.789 121.359 117.418 121.296 117.13C121.928 117.51 121.672 115.497 121.669 115.529C121.716 115.107 121.587 114.546 121.719 114.144C121.909 113.713 122.07 113.316 121.928 112.809C121.874 112.613 121.972 112.359 121.947 112.159C121.944 112.09 122.098 112.023 122.124 111.922C122.155 111.792 122.073 111.658 121.972 111.563L121.978 111.135C122.329 110.4 122.705 109.386 122.272 108.634C122.547 108.4 122.25 107.693 122.436 107.442C122.755 107.037 122.736 106.615 122.66 106.111C122.604 105.74 122.724 105.344 122.692 104.97C123.077 104.532 122.904 103.927 122.919 103.385L122.932 102.979C123.04 102.871 123.134 102.744 123.178 102.573C123.213 102.434 123.027 102.297 122.995 102.183L123.16 100.982C123.674 100.411 123.384 99.6379 123.403 98.9215C123.409 98.652 123.349 98.2811 123.431 98.0244C124.012 96.1731 124.132 94.1824 124.151 92.2613L124.161 91.323C124.568 90.9014 124.369 90.2896 124.401 89.7539L124.439 89.104C124.783 88.6539 124.799 88.0167 124.496 87.5413L124.48 87.1228C125.159 87.573 124.878 85.4554 124.881 85.2842L124.903 84.3871C125.393 83.8134 125.14 83.0177 125.165 82.3108L125.178 81.9145C125.547 81.4676 125.364 80.8716 125.393 80.3327L125.427 79.6829C125.835 79.1598 125.617 78.4719 125.633 77.8475L125.642 77.4417C126.176 76.7982 125.816 75.9074 125.907 75.1213C125.923 74.9818 125.917 74.8328 125.914 74.6902C126.362 72.8389 126.558 70.864 126.612 68.924L126.637 68.0269C127.035 67.5958 126.899 66.9903 126.871 66.4482C126.861 66.2358 126.899 66.0108 126.905 65.7984C126.905 65.7191 127.063 65.6462 127.076 65.5511C127.092 65.437 127.158 65.1422 126.931 65.2183L127.127 63.8076C127.326 63.4272 127.648 62.8662 127.209 62.5175C127.392 62.286 127.228 61.8042 127.36 61.5665C127.812 61.0624 127.619 60.3809 127.597 59.7469C127.588 59.5218 127.613 59.2904 127.619 59.0653C127.802 58.7737 128.061 58.2221 127.676 58.0288C127.806 57.7561 127.746 57.3884 127.862 57.1095C127.682 57.5501 128.554 56.1902 127.926 56.0666L128.096 54.621C128.497 54.1677 128.38 53.6288 128.333 53.0519C128.314 52.8078 128.254 52.3672 128.343 52.1421C128.668 51.3433 128.797 50.4367 128.646 49.5935C128.554 49.0704 128.845 48.4935 128.693 47.9577C129.404 47.9387 129.031 47.0606 129.037 46.5947C129.041 46.1635 129.037 45.6278 129.091 45.2126C129.372 44.8258 129.319 44.3725 129.319 43.8843V43.4754C129.319 43.374 129.448 43.0665 129.303 43.0062C128.763 42.7843 128.068 43.1489 128.087 43.6751C126.189 44.5437 124.426 45.7071 122.436 46.3601C121.931 46.5249 121.476 46.7024 120.993 46.9307C120.51 47.1589 120.156 47.0987 120.159 47.9102L120.197 53.651L119.992 112.793C119.982 115.57 119.777 118.065 120.187 120.56C120.304 121.26 120.418 121.508 119.856 122.145C119.224 122.858 118.564 123.644 117.556 123.562C117.196 123.505 116.83 123.559 116.473 123.536L115.829 123.501C115.718 123.314 115.507 123.245 115.301 123.207C114.597 122.788 114.471 121.916 114.076 121.248L114.051 82.3171C114.051 82.2791 114.038 82.0572 113.975 81.8638L109.594 81.8702L109.562 121.216C109.562 122.649 107.923 123.425 107.017 123.555C105.551 123.768 104.237 123.27 103.672 122.005C103.628 121.878 103.684 121.691 103.457 121.723L103.381 53.3435L103.41 47.8817C103.41 47.3935 103.024 46.9465 102.544 46.8166C99.2373 45.9131 96.48 44.3186 93.5647 42.3279C93.6374 44.1443 93.5394 45.7356 94.0322 47.1462C93.9658 49.0292 94.3006 50.8202 94.5249 52.8712L97.9644 84.2984C97.7181 83.2554 98.3687 91.6559 98.6625 89.8458C98.5077 90.7905 98.833 91.7668 98.773 92.7147C98.7509 93.0697 98.6214 93.6086 99.0004 93.7956C98.9562 94.1697 99.0446 94.5659 99.0225 94.9431C99.0067 95.2063 98.773 97.4664 99.4015 97.0353C99.3479 97.4157 99.3636 97.8373 99.4205 98.2082C99.3731 98.3223 99.1836 98.4935 99.2436 98.5918L99.49 99.0007C99.7016 99.3558 99.5121 99.92 99.5279 100.38C99.5342 100.57 99.4837 100.953 99.7332 100.985L99.7553 101.885C99.7711 102.523 99.5595 103.191 99.9953 103.702L100.163 104.9C99.8816 104.957 99.9701 105.328 99.9543 105.525C99.9322 105.816 99.9859 106.323 100.384 106.206C100.327 106.647 100.447 107.16 100.434 107.595C100.396 107.658 100.324 107.74 100.292 107.823C100.232 107.975 100.469 108.076 100.472 108.178L100.498 109.075C100.507 109.433 100.33 109.966 100.722 110.162L100.788 112.029C100.794 112.185 100.693 112.511 100.703 112.673C100.715 112.873 100.779 113.281 101.129 113.148C101.066 113.595 101.129 114.099 101.173 114.54C101.132 114.603 101.066 114.689 101.034 114.768C100.968 114.927 101.208 115.015 101.215 115.123C101.224 115.329 101.3 115.573 101.275 115.779C101.205 116.325 101.208 116.851 101.508 117.307C101.537 117.742 101.492 118.293 101.499 118.74C101.505 119.187 101.297 119.726 101.726 120.065C101.764 120.446 101.805 120.826 101.871 121.2C101.641 121.057 101.515 121.317 101.483 121.45C101.442 121.638 101.464 121.92 101.508 122.062C101.442 122.554 101.094 123.048 100.618 123.381C99.2278 124.348 97.6296 123.977 96.2968 123.194C96.2905 122.516 95.6904 121.951 95.6082 121.168L93.2015 98.8137L91.4201 81.6388C90.2546 81.5437 89.3766 81.9336 88.249 81.6673C87.8731 82.967 88.2206 84.1557 88.3753 85.6266L92.0707 120.484C92.2066 121.771 91.5306 123.032 90.6179 123.498C90.4852 123.565 90.2704 123.492 90.0999 123.647C90.0304 123.711 89.8946 123.777 90.0304 123.92C88.5743 124.107 87.1151 123.872 86.4108 122.512C86.3855 122.306 86.2718 122.145 86.1423 121.993C86.0349 121.866 85.9939 121.688 85.9275 121.539C86.0633 121.422 86.1518 121.282 86.1044 121.165C86.0223 120.959 85.8391 120.75 85.6843 120.969L85.6685 120.797C85.618 120.198 85.6875 119.583 85.6054 118.981C85.5864 118.851 85.5611 118.712 85.5611 118.578C85.5611 118.417 85.5896 118.252 85.6054 118.09C85.6622 117.459 85.7822 116.775 85.3843 116.261C85.4032 115.875 85.2421 115.256 85.3527 114.873C85.5232 114.29 85.3021 114.014 85.1284 113.545C84.8221 112.72 84.9421 111.763 84.8758 110.901C84.8379 110.416 85.021 109.969 84.6483 109.566C84.541 109.167 84.5852 108.59 84.6168 108.178L84.6641 107.547C84.6768 107.366 84.5947 106.938 84.2472 107.071C84.3862 106.533 84.1998 105.952 84.2093 105.414C84.2093 105.211 84.4336 105.078 84.1809 104.865C84.1114 104.529 84.1619 104.073 84.1304 103.721C84.0988 103.369 84.3136 102.836 83.9124 102.627C84.0672 102.231 83.6692 101.629 83.8556 101.251C84.0956 100.766 83.6913 100.522 83.6534 100.161L82.2542 86.7456L80.6245 70.4456L80.2107 66.9681C80.0307 65.4433 79.8759 64.001 79.9296 62.5713C79.9391 62.3019 80.0338 61.8359 79.7085 61.7313L79.6769 60.5901C79.6706 60.4221 79.7401 60.1685 79.7243 59.9498C79.7117 59.7627 79.6548 59.3443 79.3137 59.4743C79.6453 58.3236 78.821 54.8366 78.9442 53.8888C79.0105 53.3816 78.543 48.1067 78.2367 47.8658C78.2082 47.4918 78.1703 47.0733 78.2019 46.6993C78.2461 46.2016 78.3156 45.7641 77.9682 45.3742C77.8987 44.959 77.9587 44.4105 77.9461 43.9794C77.9334 43.5166 78.2651 42.648 77.5797 42.6227C77.785 41.6051 76.7996 33.2998 76.5153 31.8352C76.4553 31.5183 76.4995 31.1537 76.4837 30.8304C76.4711 30.5641 76.7332 28.3229 76.0952 28.7445C76.1647 28.3356 76.1047 27.9584 76.0352 27.5558C76.0226 27.3814 76.1647 27.1944 76.1047 27.0549C75.9847 26.776 75.7857 26.5731 75.5362 26.535C75.4509 26.4526 75.3625 26.3734 75.2709 26.2941C73.6632 24.9469 71.2375 24.4714 69.1371 24.3985L68.5623 24.3795C68.3286 24.1037 67.3779 23.9452 67.3431 24.4777C67.2799 25.4953 67.3115 26.5192 67.5989 27.3719L67.6337 28.0313C67.6716 28.7318 67.381 29.5275 67.8801 30.0949L67.9464 30.8177L71.5755 64.9361C71.7144 66.2358 71.9639 67.2756 71.8881 68.4104C71.8787 68.5658 71.7871 68.813 71.8439 69.0318C71.8787 69.1649 71.9924 69.4312 72.2261 69.2822C72.1945 70.4614 72.2703 71.5677 72.4125 72.915L77.3649 119.193C77.5229 120.68 77.5608 121.802 76.7996 122.982C76.6922 123.048 76.629 123.21 76.5121 123.238L76.1552 123.324C76.0005 123.362 75.8994 123.552 75.9499 123.742C75.672 123.856 75.293 123.806 75.0308 123.948C74.756 123.565 74.1433 123.695 73.7895 123.926C73.6474 123.926 73.499 123.901 73.36 123.917C73.4958 123.774 73.36 123.708 73.2873 123.647C73.1073 123.501 72.9241 123.543 72.7757 123.495C72.602 123.438 72.4472 123.311 72.2703 123.267C71.6102 122.395 71.4175 121.46 71.288 120.24L68.0601 90.2801V89.3418C68.0664 89.1516 68.1264 88.7902 67.8801 88.7458C67.9116 88.1911 67.6937 87.4145 67.6495 86.847C67.8264 86.9231 67.7821 86.771 67.8169 86.6727C67.8832 86.4793 67.6147 86.3715 67.6337 86.2701C67.7 85.9372 67.4695 85.4427 67.5863 85.1194C67.7821 84.5678 67.4916 84.2445 67.3589 83.7912C67.1726 83.1572 67.4252 82.3996 67.0115 81.6292L64.1688 81.886C63.7709 81.9209 63.8277 82.5549 63.7456 82.7831C63.714 82.8687 63.6951 83.0621 63.7046 83.1667C63.7172 83.3093 63.8656 83.5788 64.0741 83.4171C64.0109 85.3952 64.2352 87.4049 64.6521 89.3386C64.7058 89.5827 64.7784 89.8014 64.8511 90.036C64.9964 90.5115 64.8258 91.0441 64.8732 91.5259L67.6779 119.01C67.7885 120.103 68.1327 121.52 67.6368 122.449C66.8441 123.929 64.9616 124.053 63.4771 123.923C63.335 123.65 63.016 123.505 62.7033 123.457C62.5675 123.337 62.4949 122.947 62.198 122.985C62.3496 122.528 61.8189 122.183 61.7589 121.631L57.7224 84.8087C57.6908 84.5108 57.7856 84.1938 57.7319 83.8926C57.6814 83.62 57.8298 83.1794 57.5076 83.0462C56.459 75.5556 50.7138 69.9923 43.702 67.9413C43.8694 67.805 43.6704 67.5799 43.5156 67.5038C43.4051 67.4499 43.2503 67.526 43.1619 67.675C43.0229 67.675 42.8776 67.6433 42.7355 67.6528C42.8713 67.5165 42.7544 67.4214 42.6692 67.3643C42.467 67.2312 42.2838 67.2914 42.1228 67.2914C41.2289 67.2946 40.4235 66.7747 39.5233 66.9079C39.8644 66.2802 38.061 66.5275 37.9346 66.5306L36.526 66.5528L35.0541 66.5211C34.7319 66.5148 31.9556 66.2707 32.4768 66.9047C32.1736 66.8603 31.8798 66.9808 31.5829 66.984C31.2039 66.9903 30.8375 66.9427 30.528 67.2058L29.8584 67.2883C28.6424 67.2914 27.3506 67.1488 26.4125 66.2327C25.6735 65.5099 25.3355 64.7174 25.4113 63.7823C25.4397 63.4082 25.4303 63.0342 25.4018 62.6601C26.1156 62.6855 26.8168 62.0737 27.3506 61.5379C27.8023 61.3699 28.5824 61.4397 28.6645 60.8691C29.1067 60.9768 29.5931 60.7835 30.0353 60.7645C30.2343 60.7549 30.5501 60.7898 30.6196 60.5552L31.0207 60.5362C31.5766 60.5109 32.1294 60.6091 32.6031 60.3016C32.9411 60.2319 33.4117 60.2446 33.7654 60.2224C35.0352 60.1463 36.3428 60.4633 37.8557 60.0385C32.8716 48.0211 36.0269 34.3459 45.4581 25.657C46.6236 24.5855 47.8806 23.8881 48.8692 22.8103C49.6525 22.1922 50.8622 21.9544 51.5539 21.1683C51.6361 21.1524 51.7276 21.1905 51.8066 21.1651C52.2077 21.0351 52.8552 20.9717 52.8647 20.4614L56.4969 19.1649C56.9391 19.149 57.6024 19.2156 57.7603 18.7147C58.5499 18.8542 59.3553 18.1695 60.1639 18.3628C60.3313 18.4041 60.7419 18.3628 60.7545 18.1409C62.2043 18.0554 63.7203 17.6559 65.1827 17.6591L65.1575 17.6813ZM179.955 53.4228C180.094 52.9663 180.489 52.6461 180.435 52.0946C180.391 51.6413 180.637 51.1816 180.539 50.7156C181.177 51.1309 180.918 48.8929 180.918 48.6234V46.2301C180.915 45.688 181.13 45.0794 180.691 44.6546L180.663 43.7607C180.644 43.2218 180.603 42.5783 180.189 42.1852L180.179 41.77C180.179 41.6622 180.208 41.5449 180.167 41.3927C180.132 41.2659 179.993 41.0155 179.794 41.1645C179.778 40.689 179.601 40.2389 179.469 39.7824C179.336 39.3259 179.387 38.4954 178.786 38.4447C177.195 34.6882 174.595 31.2488 170.925 28.6272L166.873 67.3929C168.259 67.1361 168.66 66.2327 169.554 65.6843C173.91 62.9993 178.474 58.3172 179.955 53.4165V53.4228ZM43.6009 39.4464C42.9882 39.4464 43.0355 40.2959 42.9187 40.7682C42.865 40.9901 42.9155 41.2311 42.8745 41.4561C42.587 41.4149 42.7229 41.8238 42.6281 41.976C42.4986 42.1852 42.5176 42.4578 42.426 42.6734C42.3438 42.8668 42.1575 43.0126 42.1954 43.2567C42.2143 43.3835 42.1859 43.561 42.1828 43.6719C42.1828 43.7385 42.0343 43.7956 41.9964 43.8938C41.9554 44.0048 42.0343 44.1348 42.1133 44.2299C41.7058 45.9955 41.9427 47.8848 41.9396 49.6854V50.611C41.9396 50.8805 41.8322 51.3401 42.1733 51.432L42.1859 51.8441C42.208 52.4845 42.2586 53.3182 42.8713 53.6415C42.8934 54.0536 42.9945 54.453 43.1493 54.8366C43.1872 54.9349 43.1429 55.0712 43.2029 55.1916C43.263 55.3121 43.383 55.5498 43.5756 55.4104C43.9705 56.9637 45.1644 58.2063 46.0203 59.5979C46.791 60.85 47.8901 61.4238 48.8092 62.2734C49.6178 63.0183 50.4137 63.4589 51.3044 64.039C52.7226 64.9647 54.027 66.1978 55.8526 67.0981L52.5362 35.7977C52.3025 33.5756 52.3846 31.3059 51.8445 28.846C48.3828 30.6877 44.5611 36.1464 43.5978 39.44L43.6009 39.4464Z" fill="white" fill-opacity="0.9"/>
<path d="M173.284 14.1309C171.579 16.3784 168.66 17.583 165.992 17.3706C161.541 17.0124 158.225 13.5571 157.95 9.37276C157.66 4.94113 160.499 1.29882 164.854 0.259071C168.73 -0.666562 173.101 1.9138 174.447 5.40711C175.625 8.45663 175.243 11.5474 173.284 14.1341V14.1309Z" fill="white" fill-opacity="0.9"/>
<path d="M213.337 69.9828C212.708 70.1381 212.048 70.341 211.537 70.7467C211.319 70.7436 211.098 70.7848 210.883 70.7658C210.197 70.7087 209.506 70.7784 208.82 70.7626L208.41 70.7531C208.318 70.4171 207.857 70.5026 207.582 70.4709C207.516 70.4646 207.44 70.4646 207.374 70.4709C207.279 70.024 206.796 69.9194 206.388 69.9733C206.23 69.7799 205.886 69.4534 205.621 69.4375C205.39 68.8923 204.967 68.458 204.411 68.2551C203.925 67.1361 200.075 64.7618 201.129 63.7189L205.75 59.151C208.28 56.6499 212.389 57.287 214.84 59.7533L218.545 63.4811C218.829 63.7664 219.066 64.0137 218.987 64.4068C218.867 65.0122 214.25 69.6404 213.337 69.9859V69.9828Z" fill="white" fill-opacity="0.9"/>
<path d="M200.905 44.6894C201.739 45.4376 203.072 44.3249 203.697 45.4883V51.3432C203.211 51.7046 203.486 52.3988 203.467 52.9251C203.457 53.223 203.438 53.5527 203.4 53.8507C202.933 54.0187 202.92 54.6368 202.595 55.0458L201.284 56.6878C201.199 56.7956 200.93 56.8463 200.93 57.0428C200.741 57.065 200.46 57.0619 200.431 57.2996C199.983 57.3694 199.506 57.6198 199.042 57.6515C198.877 57.6642 198.678 57.5754 198.489 57.7181C198.385 57.7973 198.309 57.9019 198.438 58.0382L192.602 58.0604C192.074 57.6673 191.392 57.867 190.77 57.8417C189.967 55.4674 190.665 52.7602 190.416 50.2179C190.561 50.3605 190.618 50.2179 190.669 50.1418C190.539 50.3288 191.398 45.4407 196.256 44.905C196.859 44.8384 197.437 45.1364 197.8 44.6863H200.902L200.905 44.6894Z" fill="white" fill-opacity="0.9"/>
<path d="M203.647 83.2744C201.234 83.3981 199.073 83.3822 196.752 83.3188C193.309 83.2269 190.561 80.4024 190.542 76.9472C190.53 74.6648 190.473 72.5821 190.596 70.2427C193.063 70.1698 195.353 70.1222 197.737 70.2332C201.227 70.3948 203.729 73.2161 203.7 76.6714L203.647 83.2744Z" fill="white" fill-opacity="0.9"/>
<path d="M56.7274 0.0402948C58.3571 0.398502 59.9269 0.950078 61.3798 1.7711C61.5377 1.85986 61.6514 2.05323 61.8536 2.06908C62.0083 2.67772 62.7032 2.90912 63.1296 3.32756C63.3128 3.63188 63.3538 4.02496 63.6381 4.27855C63.7076 4.33878 63.657 4.54166 63.7107 4.63359C63.7929 4.7699 63.8939 5.01082 64.0992 4.84281C64.1213 4.97595 64.0992 5.13762 64.1403 5.26442C64.314 5.78112 64.2382 6.43097 64.6678 6.8082L64.6772 7.22346C64.6867 7.66726 64.4751 8.26005 64.8731 8.56753V8.95427C64.6583 8.92891 64.6646 9.21738 64.6488 9.37905C64.6362 9.50268 64.6109 9.83869 64.8478 9.78163C64.813 10.5646 64.314 11.4395 64.3582 12.2415C64.1087 12.4381 63.9255 12.7424 63.7265 13.0847C61.045 17.678 55.3061 18.6544 51.0674 15.7285C49.7756 14.4161 48.449 13.0816 48.0447 11.2462C46.9488 6.96669 48.8312 2.51922 53.0699 0.816939C53.6068 0.601381 54.0869 0.430202 54.4185 0.0402948C55.1481 0.243173 56.0104 -0.115034 56.7305 0.0402948H56.7274Z" fill="white" fill-opacity="0.9"/>
<path d="M26.8862 70.1761L28.3644 70.1635L32.5177 70.2903C32.8652 71.3205 32.7041 72.3032 32.7609 73.2478C32.802 73.9294 32.6472 74.7314 32.7294 75.4098C32.404 75.5873 32.4135 76.2783 32.7325 76.4559C32.6567 77.2991 32.5556 78.3135 32.3061 79.1218C32.0756 79.1979 32.0313 79.4547 32.0155 79.6702C32.0124 79.7336 32.0061 79.797 32.0092 79.8604C31.8766 79.7685 31.766 79.8255 31.6871 79.9048C31.5197 80.0728 31.5797 80.2852 31.5386 80.4469C31.4533 80.7892 31.0838 81.046 31.0396 81.3598C30.9196 81.3123 30.7995 81.3408 30.7048 81.4042C30.5405 81.5151 30.4395 81.6958 30.5121 81.8797C30.3573 81.9177 30.2247 82.0667 30.0762 82.1238C29.6246 82.1935 28.9929 82.3045 29.0371 82.8592C28.9771 82.8592 28.9108 82.856 28.8508 82.8624C28.6834 82.8846 26.5925 83.1382 27.0315 83.5439L21.8674 83.601C21.5642 83.6042 21.1315 83.6707 20.844 83.5915C20.405 83.471 19.9218 83.4044 19.4543 83.1033L19.4196 77.1691C19.4133 76.1801 19.6217 75.2988 19.8586 74.4683C19.9218 74.2464 19.9786 73.9991 20.0007 73.7677C20.1934 73.9262 20.3134 73.6599 20.364 73.5363C20.4145 73.4127 20.4334 73.2986 20.4334 73.1939C21.2925 72.2208 22.1137 71.1113 23.3866 70.7753C24.53 70.4709 25.6828 70.1856 26.883 70.173L26.8862 70.1761Z" fill="white" fill-opacity="0.9"/>
<path d="M19.7197 67.5292C18.9996 67.8557 18.6174 68.4073 18.1341 68.8986C15.4747 71.5963 11.3561 71.8213 8.6461 69.168C8.32394 68.8542 7.98283 68.6292 7.65119 68.5024C6.71944 66.854 5.1939 66.0361 4 64.4384C5.75611 62.5555 7.42062 60.5552 9.41361 58.9924C12.1299 56.8654 15.8127 57.5342 18.0962 59.8768C19.5712 61.3889 20.942 62.7647 22.2938 64.3497C22.2338 65.2626 20.1935 66.426 19.7228 67.526L19.7197 67.5292Z" fill="white" fill-opacity="0.9"/>
<path d="M25.5724 58.1112C24.8396 58.1651 24.1764 57.7942 23.4531 57.7593C23.5731 57.5121 23.2257 57.4011 22.973 57.2712L21.6559 56.5833C21.5138 56.5104 21.3022 56.6277 21.1379 56.5991C21.2895 56.2948 21.1695 55.8922 20.9263 55.5784C19.1449 53.3024 19.3913 50.1165 19.5018 47.0733C19.5208 46.5408 19.1576 45.1714 20.0103 45.0699C22.1107 44.8131 24.2016 44.9241 26.3904 44.978C29.4605 45.0509 32.2841 47.5584 32.5179 50.6364C32.7105 53.1819 32.5305 55.5277 32.5526 58.1334L25.5724 58.1144V58.1112Z" fill="white" fill-opacity="0.9"/>
<path d="M145.916 3.10252C146.804 4.5512 147.546 6.05693 147.859 7.74653C147.963 8.31396 147.985 9.44247 147.871 10.0036C146.971 14.375 143.374 17.6337 138.696 17.3928C134.811 17.1899 131.886 14.3369 130.841 10.7739C130.803 10.5329 130.806 10.2857 130.784 10.0416C130.768 9.86408 130.866 9.48368 130.61 9.46783L130.604 8.05085C130.857 8.035 130.771 7.6546 130.784 7.47708L130.841 6.57364C131.191 6.14569 131.293 5.57827 131.343 5.03937C133.241 1.4573 137.215 -0.698286 141.242 0.290747C143.184 0.766243 144.568 1.87574 145.916 3.10252Z" fill="white" fill-opacity="0.9"/>
<path d="M120.184 30.7987C119.973 30.8874 119.862 31.0871 119.748 31.3407C118.343 34.4441 115.478 36.5649 112.067 36.5934C109.932 36.6092 107.936 36.1686 106.385 34.7865C103.324 32.0508 102.263 27.7048 104.161 24.0498C106.056 20.4043 110.241 18.5879 114.24 19.7418C117.986 20.8227 120.633 24.4017 120.393 28.5448C120.348 29.2993 119.973 30.1298 120.184 30.8018V30.7987Z" fill="white" fill-opacity="0.9"/>
<path d="M92.0422 10.4411C91.521 10.8975 91.7674 11.5442 91.5747 11.9246C90.2387 14.5399 88.2268 16.4292 85.7031 17.0885C82.9932 17.7954 79.8094 17.2882 77.7754 15.4243C74.6706 12.5776 73.9221 8.24111 75.7792 4.72243C77.6396 1.19425 81.7203 -0.755288 85.6084 0.363713C90.2134 1.68876 92.4591 5.90483 92.0422 10.4474V10.4411Z" fill="white" fill-opacity="0.9"/>
</g>
<defs>
<filter id="filter0_d_401_2" x="44.7578" y="140.844" width="133.461" height="43.1562" filterUnits="userSpaceOnUse" color-interpolation-filters="sRGB">
<feFlood flood-opacity="0" result="BackgroundImageFix"/>
<feColorMatrix in="SourceAlpha" type="matrix" values="0 0 0 0 0 0 0 0 0 0 0 0 0 0 0 0 0 0 127 0" result="hardAlpha"/>
<feOffset dy="4"/>
<feGaussianBlur stdDeviation="2"/>
<feComposite in2="hardAlpha" operator="out"/>
<feColorMatrix type="matrix" values="0 0 0 0 0 0 0 0 0 0 0 0 0 0 0 0 0 0 0.7 0"/>
<feBlend mode="normal" in2="BackgroundImageFix" result="effect1_dropShadow_401_2"/>
<feBlend mode="normal" in="SourceGraphic" in2="effect1_dropShadow_401_2" result="shape"/>
</filter>
<filter id="filter1_d_401_2" x="0" y="0" width="223.003" height="131.98" filterUnits="userSpaceOnUse" color-interpolation-filters="sRGB">
<feFlood flood-opacity="0" result="BackgroundImageFix"/>
<feColorMatrix in="SourceAlpha" type="matrix" values="0 0 0 0 0 0 0 0 0 0 0 0 0 0 0 0 0 0 127 0" result="hardAlpha"/>
<feOffset dy="4"/>
<feGaussianBlur stdDeviation="2"/>
<feComposite in2="hardAlpha" operator="out"/>
<feColorMatrix type="matrix" values="0 0 0 0 0 0 0 0 0 0 0 0 0 0 0 0 0 0 0.7 0"/>
<feBlend mode="normal" in2="BackgroundImageFix" result="effect1_dropShadow_401_2"/>
<feBlend mode="normal" in="SourceGraphic" in2="effect1_dropShadow_401_2" result="shape"/>
</filter>
</defs>
</svg>
