<svg width="341" height="197" viewBox="0 0 341 197" fill="none" xmlns="http://www.w3.org/2000/svg">
<path d="M96.9973 28.0433C104.291 28.0634 111.359 29.7125 118.102 32.4626L118.398 32.4324C118.127 32.7592 118.508 32.9453 118.743 33.0559C118.919 33.1363 119.139 33.0911 119.304 33.1614C120.476 33.634 121.478 34.4887 122.721 34.7854C122.475 35.0971 122.826 35.3485 123.051 35.439C123.262 35.5194 123.452 35.5345 123.632 35.5446C123.733 35.5496 123.853 35.5345 123.948 35.5596C124.995 36.9624 126.768 37.7467 128.206 38.712C128.311 38.712 128.512 38.7975 128.607 38.7572C128.762 39.6773 129.719 40.0996 130.455 40.7784C133.296 43.3777 135.615 46.3138 137.974 49.3455C142.673 55.3837 148.735 59.9187 155.698 62.2867C158.773 63.3325 161.634 64.5441 165.005 64.886C169.854 65.3737 174.718 65.7407 179.522 64.6045C180.028 64.4838 180.424 64.5693 180.845 64.2022C181.085 64.0263 181.706 63.8956 182.007 63.8453C188.855 62.7241 198.047 55.8262 202.04 50.1348C205.04 45.8613 208.652 42.3721 212.194 38.7673C214.162 37.5657 216.512 36.2585 218.355 34.7401C218.631 34.7904 218.906 34.715 219.147 34.5139C219.322 34.3631 219.452 34.2323 219.237 34.0111C219.758 33.991 220.219 33.7346 220.69 33.5536L226.09 31.4269C226.365 31.3163 226.481 30.9995 226.285 30.8638C226.506 30.8638 226.736 30.8387 226.956 30.7984C228.319 30.5521 229.852 30.4364 230.989 29.6169C232.802 29.3907 234.646 29.0337 236.364 28.4153C236.595 28.3299 236.975 28.4103 237.226 28.4153C238.293 28.4606 239.35 28.355 240.372 28.0383C240.682 27.9427 241.113 28.0382 241.439 28.0332C259.613 27.7818 278.123 38.3751 285.937 55.2983C288.843 61.5879 290.396 68.1389 290.661 75.0821C290.927 81.97 289.264 88.4507 286.944 95.1878C291.072 95.233 302.999 95.4442 305.299 98.4457C306.636 99.5819 307.267 101.06 306.907 102.895C306.21 106.44 301.772 106.787 298.491 106.123C286.689 103.73 274.21 106.872 265.394 114.886C265.113 114.831 264.808 114.911 264.622 115.173C264.517 115.319 264.487 115.515 264.557 115.706C264.116 115.761 263.991 116.475 263.655 116.601C262.558 117.008 262.123 118.265 261.501 119.195C260.92 120.07 259.974 120.814 259.848 121.93C258.982 121.905 258.821 122.91 258.721 123.614C258.691 123.83 258.711 124.067 258.661 124.283C257.293 124.69 257.319 126.621 257.113 127.888C257.098 127.993 257.093 128.119 257.103 128.225C256.757 127.978 256.482 128.345 256.422 128.561C256.312 128.943 256.432 129.245 256.422 129.537L256.397 130.19C255.886 130.346 256.021 131.07 255.986 131.503C255.956 131.86 255.941 132.227 255.941 132.584C255.049 133.182 255.154 134.464 255.26 135.439C255.31 135.882 255.124 136.445 255.225 136.867C254.498 137.44 254.864 138.526 254.839 139.356L254.819 139.999C254.223 140.296 254.273 141.246 254.714 141.689V142.352C254.674 142.267 254.408 142.126 254.313 142.297C253.842 143.217 253.762 144.469 254.313 145.193C254.203 145.469 254.243 145.967 254.278 146.264C253.266 145.6 253.682 149.16 253.672 149.577L253.637 150.613C253.356 150.432 252.444 156.023 253.126 155.806C253.025 156.294 253.04 156.782 253.101 157.269C252.094 156.596 252.499 160.165 252.499 160.588C252.499 160.899 252.565 161.382 252.469 161.669C251.948 162.528 252.124 163.539 252.099 164.514L252.084 165.163C251.683 164.68 251.417 167.149 251.989 166.822C251.858 167.284 251.898 167.817 251.943 168.285C250.901 167.657 251.342 171.151 251.332 171.593L251.307 172.634C250.461 173.469 251.017 174.811 250.922 175.907C250.896 176.229 250.957 176.641 250.861 176.948C250.33 178.622 250.055 180.462 250.17 182.217C250.2 182.689 250.13 183.167 250.135 183.639C249.504 183.041 249.729 187.295 249.724 187.677V188.34C249.023 189.688 249.329 191.342 248.978 192.825C249.043 193.639 248.572 194.399 248.141 195.057C247.851 194.992 247.565 195.118 247.37 195.374C247.26 195.515 247.195 195.691 247.245 195.897L246.648 195.942C246.388 195.962 246.097 195.907 245.807 196.123C245.682 196.219 245.516 196.375 245.707 196.586L245.025 196.616C244.76 196.113 243.743 196.118 243.447 196.581C243.222 196.556 242.992 196.571 242.766 196.566C242.325 195.661 241.058 195.711 240.352 195.042L240.342 194.746C240.307 193.871 239.45 192.996 239.6 192C239.816 190.553 240.121 189.27 239.866 187.963C239.781 187.511 239.961 187.008 239.911 186.55C240.682 185.63 240.231 184.379 240.277 183.262C240.287 182.966 240.201 182.508 240.312 182.232C240.853 180.884 241.028 179.235 240.808 177.817C240.712 177.224 240.983 176.581 240.843 175.957C241.875 176.676 241.439 172.745 241.449 172.247L241.464 171.588C242.315 170.759 241.854 169.406 241.89 168.3L241.91 167.682C242.245 167.722 242.22 167.279 242.265 167.008C242.3 166.812 242.33 166.374 241.965 166.405L242.255 164.519C242.841 163.805 242.746 162.905 242.611 162.01C242.566 161.699 242.721 161.256 242.631 160.97C243.342 160.668 242.962 159.698 243.037 158.928L244.59 143.157C244.625 142.825 244.635 142.463 244.625 142.126C244.955 142.252 244.995 141.799 245.01 141.472C245.015 141.327 244.95 141.065 244.69 141.206C244.795 140.628 244.81 139.974 244.755 139.386C245.727 139.904 245.381 137.209 245.351 136.852C245.301 136.269 245.481 135.605 245.391 135.032C246.117 134.454 245.737 133.368 245.762 132.533L245.792 131.503C246.278 131.12 246.203 130.628 245.937 129.974C245.727 129.456 245.486 129.371 244.98 129.788L240.732 129.838C240.186 131.417 240.136 133.001 240.206 134.469C239.139 134.605 239.355 136.329 239.866 136.968C239.53 137.375 239.846 138.406 239.575 138.823C238.964 139.441 239.204 140.145 239.21 140.924C239.22 143.876 238.613 147.154 238.398 149.828C238.338 150.562 237.707 151.95 238.022 152.709C238.158 153.041 237.967 153.785 237.987 154.137C236.85 157.853 236.8 164.499 236.409 168.431L235.648 176.158C235.578 176.877 234.771 177.762 235.282 178.662C235.437 178.934 235.117 179.406 235.247 179.688C234.886 179.597 234.891 180.13 234.866 180.346C234.841 180.563 234.796 181.09 235.177 181C234.766 182.74 234.997 184.68 234.496 186.395C234.12 187.682 233.854 188.979 234.065 190.462C234.095 190.663 234.025 190.879 234.04 191.085C233.394 191.694 233.699 192.724 233.659 193.539C232.863 194.932 231.781 196.289 230.142 196.566C229.837 196.083 228.81 196.123 228.529 196.611C228.234 196.51 227.808 196.566 227.498 196.556C227.733 196.239 227.327 196.023 227.137 195.987L226.566 195.887C226.225 195.827 225.92 195.48 225.559 195.48C225.143 194.519 224.858 193.464 224.216 192.634L224.206 191.633L224.216 190.703L224.251 189.678C224.923 189.094 224.537 188.149 224.652 187.219C225.128 183.323 225.664 179.617 225.704 175.907C225.704 175.696 225.684 175.258 225.789 175.082C226.551 173.996 226.07 172.574 226.245 171.141C226.365 170.12 227.007 169.125 226.33 168.37C226.315 168.149 226.385 167.913 226.355 167.692C227.337 168.285 226.946 165.223 226.946 165.148C226.956 164.725 226.896 164.117 226.982 163.725C227.838 162.563 227.232 161.035 227.397 159.658C227.422 159.451 227.327 159.15 227.412 158.964C227.853 157.958 228.715 150.583 228.529 149.436C228.499 149.245 228.504 148.974 228.544 148.783C229.551 144.147 229.972 139.336 230.147 134.569L230.173 133.84C230.924 132.056 230.413 129.959 230.969 127.918C231.34 126.57 231.3 125.314 231.345 123.931C231.42 121.844 232.176 119.889 231.7 118.013C231.6 117.621 231.901 117.033 231.826 116.575C232.126 116.817 232.447 116.43 232.452 116.063L232.522 112.568C232.547 111.387 233.033 110.356 232.873 109.315C232.843 109.124 232.898 108.918 232.878 108.722C233.038 108.536 233.183 108.325 233.243 108.049C233.293 107.827 233.018 107.606 232.953 107.425C233.043 106.837 233.088 106.173 233.003 105.575C234.005 106.239 233.609 102.714 233.614 102.262C233.614 101.935 233.574 101.548 233.644 101.231C234.3 98.2446 234.701 95.1023 234.771 92.0304L234.806 90.6025C235.262 91.0399 235.528 84.0163 235.563 84.1671C235.503 83.9358 235.563 83.6744 235.513 83.4381C236.144 82.5331 235.958 81.3315 235.973 80.2757L235.988 79.2098C236.68 78.4155 236.399 77.3043 236.359 76.3189C236.344 76.0022 236.409 75.4793 236.274 75.2028C236.294 75.2028 236.645 75.1626 236.655 75.062L237.511 67.3697C237.832 64.4788 238.012 61.7337 237.987 59.0891L237.972 57.5104C238.388 57.611 238.663 57.4702 238.724 57.2389C238.598 57.7266 239.22 51.7085 239.104 51.1605C239.044 50.8588 239.104 50.4365 239.134 50.1298C239.154 49.9136 239.585 49.7527 239.52 49.4511C239.475 49.255 239.605 48.717 239.21 48.8176C239.3 48.2243 239.335 47.5556 239.51 46.9674C239.575 46.7512 239.981 46.6205 239.916 46.3088C239.876 46.1077 239.991 45.5697 239.6 45.6703C239.841 45.0569 239.505 43.986 239.896 43.4229C240.577 42.4475 240.262 41.3213 240.272 40.1499L240.282 39.084C240.282 38.9081 240.402 38.6014 240.307 38.4505C239.971 37.9327 236.91 38.3098 237.516 38.6718L236.865 38.6919C236.134 38.6718 234.761 38.2645 234.741 39.3103L234.055 39.3203C232.998 39.3354 228.57 40.17 229.276 40.9342L228.565 41.0549C227.177 41.2962 226.18 42.352 226.255 43.7648C226.275 44.1218 226.235 44.4837 226.23 44.8407C225.649 45.4239 225.844 46.2283 225.889 46.9674C225.925 47.5607 225.819 48.1791 225.814 48.7723C225.814 48.9684 225.414 49.1746 225.454 49.446C225.484 49.6522 225.379 50.0846 225.754 50.0443C225.469 50.5722 225.679 51.4219 225.484 51.9398C224.727 52.8649 225.128 54.0715 225.098 55.2128L225.073 56.2535C224.367 57.0429 224.737 58.159 224.692 59.1394L224.662 59.798C224.322 59.1696 223.831 64.9765 223.941 65.4391C224.051 65.9016 223.851 66.4094 223.911 66.8719C223.119 67.7719 223.565 69.0288 223.525 70.145L223.49 71.1756C222.904 71.5075 223.164 72.342 223.149 72.9102L223.124 73.9408C222.458 74.6095 222.699 75.5849 222.769 76.4496C222.809 76.9172 222.719 77.3999 222.734 77.8725C222.077 78.5462 222.308 79.5115 222.373 80.3712C222.408 80.8438 222.323 81.3315 222.338 81.8041C222.102 81.2058 221.106 87.6211 221.827 86.5955L221.576 88.501C220.85 89.3004 221.161 90.3713 221.206 91.3868C221.216 91.6835 221.281 92.1963 221.176 92.4628C220.564 93.4331 220.855 94.5995 220.79 95.7006L220.73 96.7413C220.284 97.2038 220.219 97.9077 220.655 98.3904C220.554 98.873 220.554 99.3657 220.625 99.8534C219.643 99.3004 220.033 102.201 220.044 102.397C220.059 102.875 220.018 103.353 220.008 103.825C219.362 104.489 219.558 105.459 219.628 106.314C219.653 106.641 219.528 107.033 219.593 107.345C219.062 107.521 219.272 108.255 219.257 108.687L219.212 110.497C218.606 111.065 218.806 111.875 218.866 112.619C218.901 113.061 218.896 113.609 218.836 114.047C218.706 114.348 218.35 114.665 218.36 115.253L218.43 119.26C218.435 119.612 218.425 119.969 218.415 120.321C218.195 119.119 217.424 127.068 217.91 125.912C217.804 126.394 217.809 126.887 217.884 127.375C216.898 126.787 217.298 129.854 217.298 129.914L217.258 131.734C216.552 132.523 216.913 133.634 216.878 134.62L216.853 135.263C216.377 135.711 216.281 136.435 216.747 136.922C216.662 137.41 216.662 137.903 216.722 138.396C215.695 137.807 216.126 141.025 216.121 141.322L216.081 143.132C215.46 143.815 215.735 144.776 215.71 145.63L215.69 146.284C215.119 146.847 215.239 147.667 215.335 148.401C215.38 148.737 215.295 149.099 215.32 149.436C214.513 150.331 214.964 151.603 214.939 152.719L214.924 153.368C214.122 154.263 214.578 155.53 214.538 156.641L214.503 157.672C213.947 158.25 214.077 159.054 214.147 159.793C214.177 160.115 214.147 160.497 214.117 160.819C214.102 161.02 213.722 161.176 213.727 161.473C213.732 161.689 213.917 161.915 214.022 162.091L213.742 164.373C213.11 165.223 213.276 166.224 213.376 167.264C213.421 167.737 213.321 168.22 213.336 168.692C212.695 169.376 213.01 170.336 212.97 171.191L212.9 172.619C212.895 172.719 212.715 172.835 212.655 172.976C212.569 173.167 212.82 173.348 212.86 173.499C212.89 174.192 212.569 175.057 212.81 175.746C212.569 175.53 212.439 175.746 212.344 175.857C212.104 176.138 212.189 176.606 212.159 177.013L211.367 187.31L210.981 191.156C210.776 193.212 210.17 195.731 208.301 195.932L207.715 195.997C207.52 196.018 207.134 196.259 207.36 196.576C206.944 196.601 206.323 196.505 205.937 196.636C205.271 196.088 204.289 196.153 203.467 195.932C203.027 195.54 202.19 195.434 201.98 194.736C201.904 194.102 201.709 193.443 201.163 193.071C201.373 191.885 200.822 190.462 201.173 189.296C201.454 188.365 201.849 187.476 201.539 186.395C201.489 186.224 201.549 185.927 201.559 185.756C201.679 185.56 201.899 185.394 201.945 185.108C201.98 184.881 201.714 184.665 201.649 184.484C201.739 183.891 201.784 183.242 201.699 182.634C202.731 183.262 202.28 179.808 202.29 179.703C202.345 179.16 202.155 178.406 202.335 177.893C202.861 176.415 202.751 174.59 202.811 173.051L202.876 171.241C203.858 171.855 203.462 168.712 203.462 168.687L203.497 167.259C204.279 166.359 203.848 165.102 203.883 163.986L203.903 163.343C204.094 163.162 204.269 162.941 204.284 162.669C204.294 162.468 204.364 161.93 203.988 162.041L204.294 160.195C204.855 159.456 204.775 158.592 204.645 157.682C204.594 157.345 204.695 156.988 204.675 156.646C205.406 155.867 205.025 154.745 205.045 153.76L205.07 152.714C205.787 151.935 205.476 150.814 205.451 149.828C205.441 149.507 205.591 149.109 205.511 148.798C206.243 145.706 206.448 142.428 206.618 139.21C206.693 137.832 206.814 136.415 206.744 135.037C207.27 135.314 207.475 134.66 207.465 134.348C207.45 133.835 207.61 133.132 207.124 132.946C207.625 132.191 207.265 130.864 207.395 129.884C205.822 129.748 204.574 129.693 203.247 129.718C203.192 129.522 203.132 129.366 203.082 129.245C202.996 129.039 202.716 128.949 202.551 129.059C202.27 129.25 202.345 129.587 202.31 129.843C202.28 130.06 202.21 130.301 202.235 130.522C201.223 129.949 201.654 133.021 201.654 133.066L201.609 134.886C200.978 135.178 201.263 136.038 201.243 136.596L201.073 141.146C199.936 141.166 200.522 142.563 200.527 143.308C200.527 143.961 200.577 144.876 200.437 145.495C199.881 146.229 200.101 147.088 200.071 147.993L200.026 149.411C199.78 148.486 198.799 156.299 199.5 155.786C199.58 155.957 199.46 156.264 199.49 156.46C198.523 155.867 198.894 158.873 198.894 158.999C198.894 159.466 198.909 159.959 198.854 160.427C198.202 160.824 198.433 162.548 198.779 162.126C198.638 162.724 198.668 163.378 198.468 163.966C198.433 164.077 198.248 164.167 198.177 164.323C198.087 164.524 198.323 164.72 198.398 164.881C198.318 165.55 198.223 166.39 198.318 167.083C197.306 166.475 197.732 169.768 197.727 170.014L197.697 171.447C196.905 172.347 197.351 173.604 197.306 174.715C197.296 174.927 197.311 175.153 197.286 175.359C197.271 175.47 197.075 175.575 197.01 175.726C196.925 175.922 197.15 176.118 197.216 176.279C197.14 176.938 197.035 177.792 197.14 178.476C196.154 177.888 196.554 180.96 196.554 181.015L196.514 182.835C195.743 183.745 196.184 184.997 196.134 186.113C196.124 186.304 196.179 186.576 196.109 186.757C195.237 189.044 195.482 191.583 194.921 193.961C194.285 194.303 194.075 195.867 193.023 195.887C192.847 195.887 192.652 195.927 192.452 195.997C192.261 196.063 191.856 196.244 192.086 196.561C191.75 196.515 191.385 196.616 191.054 196.616C190.959 196.591 190.839 196.46 190.723 196.395C190.523 196.289 190.358 196.606 190.212 196.601L189.14 196.561C189.03 195.671 187.828 195.711 187.122 195.454C187.137 195.344 187.097 195.223 187.102 195.113C184.567 191.261 186.771 189.336 186.01 187.239C186 186.817 186.135 186.229 186.035 185.771C187.036 186.375 186.631 183.182 186.626 183.232C186.701 182.564 186.495 181.674 186.706 181.035C187.006 180.351 187.262 179.723 187.036 178.918C186.951 178.607 187.107 178.205 187.067 177.888C187.062 177.777 187.307 177.672 187.347 177.511C187.397 177.305 187.267 177.093 187.107 176.943L187.117 176.264C187.673 175.097 188.269 173.489 187.583 172.297C188.018 171.925 187.547 170.804 187.843 170.407C188.349 169.763 188.319 169.094 188.199 168.295C188.109 167.707 188.299 167.078 188.249 166.485C188.86 165.791 188.584 164.831 188.609 163.971L188.629 163.328C188.8 163.157 188.95 162.956 189.02 162.684C189.075 162.463 188.78 162.247 188.73 162.066L188.99 160.16C189.807 159.255 189.346 158.029 189.376 156.892C189.386 156.465 189.291 155.877 189.421 155.469C190.343 152.533 190.533 149.376 190.563 146.329L190.578 144.841C191.224 144.172 190.909 143.202 190.959 142.352L191.019 141.322C191.565 140.608 191.59 139.597 191.109 138.843L191.084 138.179C192.161 138.893 191.715 135.535 191.72 135.263L191.755 133.84C192.532 132.93 192.131 131.668 192.171 130.547L192.191 129.919C192.777 129.21 192.487 128.265 192.532 127.41L192.587 126.379C193.233 125.55 192.887 124.459 192.913 123.468L192.928 122.825C193.774 121.804 193.203 120.391 193.348 119.145C193.373 118.923 193.363 118.687 193.358 118.461C194.07 115.525 194.38 112.392 194.465 109.315L194.506 107.893C195.137 107.209 194.921 106.249 194.876 105.389C194.861 105.052 194.921 104.695 194.931 104.358C194.931 104.233 195.182 104.117 195.202 103.966C195.227 103.785 195.332 103.317 194.971 103.438L195.282 101.201C195.598 100.598 196.109 99.7076 195.412 99.1546C195.703 98.7876 195.442 98.0234 195.653 97.6463C196.369 96.8469 196.063 95.7659 196.028 94.7604C196.013 94.4034 196.053 94.0364 196.063 93.6795C196.354 93.2169 196.765 92.3421 196.154 92.0354C196.359 91.603 196.264 91.0198 196.449 90.5774C196.164 91.2762 197.546 89.1194 196.549 88.9233L196.82 86.6307C197.456 85.9117 197.271 85.057 197.196 84.142C197.166 83.7548 197.07 83.056 197.211 82.699C197.727 81.4321 197.932 79.9941 197.692 78.6568C197.546 77.8272 198.007 76.9122 197.767 76.0625C198.894 76.0323 198.303 74.6397 198.313 73.9006C198.318 73.2169 198.313 72.3672 198.398 71.7086C198.844 71.0952 198.759 70.3762 198.759 69.602V68.9534C198.759 68.7925 198.964 68.3048 198.733 68.2093C197.877 67.8574 196.775 68.4355 196.805 69.2701C193.794 70.6477 190.999 72.4929 187.843 73.5286C187.042 73.79 186.32 74.0716 185.554 74.4335C184.787 74.7955 184.226 74.7 184.231 75.9871L184.291 85.0922L183.966 178.893C183.951 183.298 183.625 187.254 184.276 191.211C184.462 192.322 184.642 192.714 183.75 193.725C182.748 194.856 181.701 196.103 180.103 195.972C179.532 195.882 178.951 195.967 178.385 195.932L177.363 195.877C177.188 195.58 176.852 195.47 176.527 195.409C175.41 194.746 175.209 193.363 174.583 192.302L174.543 130.557C174.543 130.497 174.523 130.145 174.423 129.838L167.475 129.848L167.425 192.252C167.425 194.524 164.825 195.756 163.387 195.962C161.063 196.299 158.979 195.51 158.082 193.504C158.012 193.303 158.102 193.006 157.741 193.056L157.621 84.6045L157.666 75.9418C157.666 75.1676 157.055 74.4587 156.294 74.2526C151.049 72.8197 146.676 70.2907 142.052 67.1334C142.167 70.0142 142.012 72.5381 142.793 74.7754C142.688 77.7619 143.219 80.6025 143.575 83.8554L149.03 133.7C148.639 132.046 149.671 145.369 150.137 142.498C149.892 143.996 150.408 145.545 150.313 147.048C150.277 147.611 150.072 148.466 150.673 148.763C150.603 149.356 150.743 149.984 150.708 150.583C150.683 151 150.312 154.585 151.309 153.901C151.224 154.504 151.249 155.173 151.339 155.761C151.264 155.942 150.964 156.214 151.059 156.369L151.45 157.018C151.785 157.581 151.485 158.476 151.51 159.205C151.52 159.507 151.44 160.115 151.835 160.165L151.87 161.593C151.895 162.604 151.56 163.665 152.251 164.474L152.517 166.374C152.071 166.465 152.211 167.053 152.186 167.365C152.151 167.827 152.236 168.632 152.867 168.446C152.777 169.145 152.967 169.959 152.947 170.648C152.887 170.749 152.772 170.879 152.722 171.01C152.627 171.251 153.003 171.412 153.008 171.573L153.048 172.996C153.063 173.564 152.782 174.409 153.403 174.72L153.509 177.682C153.519 177.928 153.358 178.446 153.373 178.702C153.393 179.019 153.493 179.668 154.05 179.456C153.949 180.165 154.05 180.965 154.12 181.664C154.055 181.764 153.949 181.9 153.899 182.026C153.794 182.277 154.175 182.418 154.185 182.589C154.2 182.915 154.32 183.303 154.28 183.629C154.17 184.494 154.175 185.329 154.651 186.053C154.696 186.742 154.626 187.616 154.636 188.325C154.646 189.034 154.315 189.889 154.996 190.427C155.056 191.03 155.122 191.633 155.227 192.227C154.861 192 154.661 192.413 154.611 192.624C154.545 192.921 154.581 193.368 154.651 193.594C154.545 194.374 153.994 195.158 153.238 195.686C151.034 197.219 148.499 196.631 146.385 195.389C146.375 194.313 145.423 193.418 145.293 192.176L141.476 156.721L138.651 129.481C136.802 129.331 135.41 129.949 133.621 129.527C133.025 131.588 133.576 133.473 133.822 135.806L139.683 191.09C139.898 193.132 138.826 195.133 137.378 195.872C137.168 195.977 136.827 195.862 136.557 196.108C136.446 196.209 136.231 196.314 136.446 196.54C134.137 196.837 131.823 196.465 130.706 194.308C130.666 193.981 130.485 193.725 130.28 193.484C130.11 193.283 130.044 193.001 129.939 192.765C130.155 192.579 130.295 192.357 130.22 192.171C130.09 191.845 129.799 191.513 129.554 191.86L129.528 191.588C129.448 190.638 129.559 189.663 129.428 188.707C129.398 188.501 129.358 188.28 129.358 188.069C129.358 187.812 129.403 187.551 129.428 187.295C129.518 186.294 129.709 185.208 129.078 184.394C129.108 183.78 128.852 182.8 129.028 182.191C129.298 181.266 128.947 180.829 128.672 180.085C128.186 178.778 128.376 177.259 128.271 175.892C128.211 175.123 128.502 174.414 127.91 173.775C127.74 173.142 127.81 172.227 127.86 171.573L127.935 170.573C127.956 170.286 127.825 169.607 127.274 169.818C127.495 168.964 127.199 168.044 127.214 167.189C127.214 166.867 127.57 166.656 127.169 166.319C127.059 165.786 127.139 165.062 127.089 164.504C127.039 163.946 127.379 163.101 126.743 162.77C126.989 162.141 126.358 161.186 126.653 160.588C127.034 159.818 126.393 159.431 126.332 158.858L124.113 137.581L121.528 111.729L120.872 106.213C120.587 103.795 120.341 101.508 120.426 99.2401C120.441 98.8127 120.592 98.0736 120.076 97.9077L120.026 96.0978C120.016 95.8313 120.126 95.4291 120.101 95.0822C120.081 94.7855 119.991 94.1219 119.45 94.328C119.976 92.503 118.668 86.9725 118.863 85.4693C118.969 84.6648 118.227 76.2988 117.741 75.9167C117.696 75.3234 117.636 74.6598 117.686 74.0665C117.756 73.2772 117.867 72.5834 117.316 71.965C117.205 71.3063 117.3 70.4366 117.28 69.7528C117.26 69.0188 117.786 67.6412 116.699 67.601C117.025 65.9871 115.462 52.8146 115.011 50.4918C114.916 49.989 114.986 49.4109 114.961 48.898C114.941 48.4757 115.357 44.9212 114.345 45.5898C114.455 44.9413 114.36 44.343 114.25 43.7045C114.23 43.4279 114.455 43.1313 114.36 42.9101C114.17 42.4676 113.854 42.1459 113.458 42.0855C113.323 41.9548 113.183 41.8291 113.037 41.7034C110.488 39.5667 106.64 38.8125 103.309 38.6969L102.397 38.6667C102.027 38.2293 100.519 37.9779 100.464 38.8226C100.364 40.4365 100.414 42.0604 100.87 43.4129L100.925 44.4586C100.985 45.5697 100.524 46.8317 101.315 47.7316L101.421 48.8779L107.176 102.991C107.397 105.052 107.793 106.701 107.672 108.501C107.657 108.747 107.512 109.14 107.602 109.486C107.657 109.698 107.838 110.12 108.208 109.884C108.158 111.754 108.279 113.509 108.504 115.645L116.359 189.044C116.609 191.402 116.669 193.182 115.462 195.052C115.292 195.158 115.192 195.414 115.006 195.46L114.44 195.595C114.195 195.656 114.034 195.957 114.115 196.259C113.674 196.44 113.073 196.359 112.657 196.586C112.221 195.977 111.249 196.184 110.688 196.551C110.463 196.551 110.227 196.51 110.007 196.535C110.222 196.309 110.007 196.204 109.892 196.108C109.606 195.877 109.315 195.942 109.08 195.867C108.805 195.776 108.559 195.575 108.279 195.505C107.232 194.122 106.926 192.639 106.721 190.703L101.601 143.187V141.699C101.611 141.397 101.706 140.824 101.315 140.753C101.366 139.874 101.02 138.642 100.95 137.742C101.23 137.863 101.16 137.621 101.215 137.465C101.32 137.159 100.895 136.988 100.925 136.827C101.03 136.299 100.664 135.515 100.85 135.002C101.16 134.127 100.699 133.614 100.489 132.895C100.193 131.89 100.594 130.688 99.9379 129.466L95.4294 129.874C94.7982 129.929 94.8884 130.934 94.7581 131.296C94.708 131.432 94.678 131.739 94.693 131.905C94.7131 132.131 94.9485 132.558 95.2791 132.302C95.1789 135.439 95.5346 138.627 96.1958 141.694C96.281 142.081 96.3962 142.428 96.5114 142.8C96.7419 143.554 96.4714 144.399 96.5465 145.163L100.995 188.753C101.17 190.487 101.716 192.735 100.93 194.208C99.6724 196.556 96.6868 196.752 94.3323 196.545C94.1069 196.113 93.601 195.882 93.105 195.806C92.8896 195.615 92.7744 194.997 92.3035 195.057C92.544 194.333 91.7024 193.785 91.6072 192.91L85.2052 134.509C85.1551 134.037 85.3054 133.534 85.2202 133.056C85.1401 132.624 85.3755 131.925 84.8646 131.714C83.2014 119.833 74.0893 111.01 62.9684 107.757C63.2339 107.541 62.9183 107.184 62.6729 107.063C62.4975 106.978 62.2521 107.098 62.1118 107.335C61.8914 107.335 61.661 107.284 61.4355 107.299C61.6509 107.083 61.4656 106.932 61.3303 106.842C61.0097 106.631 60.7192 106.726 60.4637 106.726C59.046 106.731 57.7686 105.907 56.341 106.118C56.882 105.122 54.0216 105.515 53.8212 105.52L51.587 105.555L49.2526 105.505C48.7417 105.494 44.3384 105.107 45.165 106.113C44.6841 106.042 44.2182 106.234 43.7473 106.239C43.1462 106.249 42.5651 106.173 42.0742 106.59L41.0122 106.721C39.0835 106.726 37.0347 106.5 35.5469 105.047C34.3747 103.901 33.8387 102.644 33.9589 101.161C34.004 100.567 33.989 99.9741 33.9439 99.3808C35.076 99.421 36.1881 98.4507 37.0347 97.601C37.751 97.3346 38.9884 97.4452 39.1186 96.5402C39.8199 96.7111 40.5914 96.4044 41.2927 96.3743C41.6083 96.3592 42.1092 96.4145 42.2194 96.0424L42.8556 96.0123C43.7373 95.9721 44.6139 96.1279 45.3653 95.6402C45.9014 95.5296 46.6478 95.5497 47.2088 95.5145C49.2226 95.3939 51.2965 95.8966 53.696 95.2229C45.7911 76.1631 50.7955 54.4737 65.7536 40.6929C67.6021 38.9935 69.5959 37.8874 71.1638 36.178C72.4061 35.1976 74.3247 34.8206 75.4218 33.5737C75.5521 33.5486 75.6973 33.6089 75.8226 33.5687C76.4588 33.3625 77.4857 33.262 77.5007 32.4525L83.2615 30.3962C83.9629 30.3711 85.0148 30.4767 85.2653 29.6823C86.5177 29.9035 87.7951 28.8175 89.0775 29.1242C89.343 29.1896 89.9942 29.1242 90.0142 28.7723C92.3135 28.6365 94.7181 28.0031 97.0374 28.0081L96.9973 28.0433ZM279.069 84.7302C279.29 84.0062 279.916 83.4984 279.831 82.6236C279.761 81.9047 280.151 81.1756 279.996 80.4366C281.008 81.0952 280.597 77.5457 280.597 77.1183V73.3224C280.592 72.4627 280.933 71.4974 280.237 70.8237L280.192 69.4059C280.161 68.5512 280.096 67.5306 279.44 66.9071L279.425 66.2485C279.425 66.0776 279.47 65.8915 279.405 65.6502C279.35 65.4491 279.13 65.0519 278.814 65.2882C278.789 64.5341 278.508 63.8201 278.298 63.0962C278.088 62.3722 278.168 61.0549 277.216 60.9745C274.691 55.0167 270.568 49.5617 264.747 45.4038L258.32 106.887C260.52 106.48 261.156 105.047 262.573 104.177C269.481 99.9188 276.72 92.4929 279.069 84.7201V84.7302ZM62.8081 62.5632C61.8363 62.5632 61.9114 63.9106 61.7261 64.6598C61.6409 65.0117 61.7211 65.3938 61.656 65.7508C61.2001 65.6854 61.4155 66.334 61.2652 66.5753C61.0598 66.9071 61.0899 67.3395 60.9446 67.6814C60.8144 67.9881 60.5188 68.2194 60.5789 68.6065C60.609 68.8076 60.5639 69.0891 60.5589 69.2651C60.5589 69.3707 60.3235 69.4612 60.2633 69.617C60.1982 69.793 60.3234 69.9991 60.4487 70.15C59.8025 72.9504 60.1782 75.9469 60.1732 78.8026V80.2707C60.1732 80.698 60.0028 81.427 60.5439 81.5728L60.5639 82.2264C60.599 83.242 60.6791 84.5643 61.6509 85.0771C61.686 85.7307 61.8463 86.3642 62.0918 86.9725C62.1519 87.1284 62.0818 87.3446 62.1769 87.5356C62.2721 87.7267 62.4625 88.1038 62.768 87.8826C63.3942 90.3461 65.2878 92.3169 66.6453 94.5241C67.8676 96.51 69.6109 97.42 71.0686 98.7674C72.351 99.9489 73.6134 100.648 75.0261 101.568C77.2753 103.036 79.3442 104.992 82.2396 106.42L76.9797 56.7764C76.609 53.252 76.7393 49.6522 75.8827 45.7507C70.3924 48.6718 64.331 57.3294 62.8031 62.5532L62.8081 62.5632Z" fill="white" fill-opacity="0.9"/>
<path d="M268.49 22.4119C265.785 25.9765 261.156 27.887 256.923 27.5501C249.865 26.982 244.605 21.5018 244.169 14.8653C243.708 7.83665 248.212 2.05986 255.12 0.410788C261.266 -1.05729 268.199 3.03523 270.333 8.57572C272.202 13.4123 271.596 18.3143 268.49 22.4169V22.4119Z" fill="white" fill-opacity="0.9"/>
<path d="M332.014 110.994C331.017 111.241 329.97 111.562 329.158 112.206C328.813 112.201 328.462 112.266 328.121 112.236C327.034 112.146 325.937 112.256 324.85 112.231L324.199 112.216C324.054 111.683 323.322 111.819 322.886 111.769C322.781 111.758 322.661 111.758 322.556 111.769C322.406 111.06 321.639 110.894 320.993 110.979C320.742 110.672 320.196 110.155 319.776 110.13C319.41 109.265 318.739 108.576 317.857 108.254C317.086 106.479 310.979 102.714 312.652 101.06L319.981 93.8147C323.994 89.8479 330.511 90.8585 334.398 94.77L340.274 100.683C340.725 101.135 341.101 101.527 340.975 102.151C340.785 103.111 333.461 110.451 332.014 110.999V110.994Z" fill="white" fill-opacity="0.9"/>
<path d="M312.296 70.879C313.619 72.0656 315.733 70.3009 316.725 72.146V81.4321C315.953 82.0053 316.389 83.1063 316.359 83.9409C316.344 84.4135 316.314 84.9364 316.254 85.409C315.512 85.6755 315.492 86.6559 314.976 87.3044L312.897 89.9088C312.762 90.0797 312.336 90.1601 312.336 90.4719C312.036 90.5071 311.59 90.502 311.545 90.8791C310.834 90.9897 310.077 91.3869 309.341 91.4372C309.08 91.4573 308.765 91.3165 308.464 91.5428C308.299 91.6685 308.179 91.8344 308.384 92.0506L299.127 92.0857C298.29 91.4623 297.208 91.7791 296.221 91.7388C294.949 87.9731 296.056 83.6795 295.66 79.6473C295.891 79.8735 295.981 79.6473 296.061 79.5266C295.855 79.8233 297.218 72.0706 304.923 71.2209C305.879 71.1154 306.796 71.588 307.372 70.874H312.291L312.296 70.879Z" fill="white" fill-opacity="0.9"/>
<path d="M316.645 132.076C312.817 132.272 309.391 132.247 305.709 132.146C300.249 132 295.891 127.521 295.86 122.041C295.84 118.421 295.75 115.117 295.946 111.407C299.858 111.291 303.49 111.216 307.272 111.392C312.807 111.648 316.775 116.123 316.73 121.603L316.645 132.076Z" fill="white" fill-opacity="0.9"/>
<path d="M83.627 0.0639087C86.2119 0.632035 88.7016 1.50685 91.0059 2.80901C91.2564 2.94979 91.4367 3.25648 91.7573 3.28162C92.0028 4.24693 93.1049 4.61395 93.7811 5.2776C94.0717 5.76026 94.1368 6.38369 94.5876 6.7859C94.6978 6.88142 94.6177 7.2032 94.7029 7.349C94.8331 7.56519 94.9934 7.94729 95.319 7.68082C95.3541 7.89199 95.319 8.1484 95.3841 8.3495C95.6597 9.16901 95.5394 10.1997 96.2207 10.798L96.2357 11.4566C96.2508 12.1605 95.9151 13.1006 96.5463 13.5883V14.2017C96.2057 14.1615 96.2157 14.619 96.1906 14.8754C96.1706 15.0715 96.1305 15.6044 96.5062 15.5139C96.4511 16.7558 95.6597 18.1434 95.7298 19.4154C95.334 19.7271 95.0435 20.2098 94.7279 20.7528C90.4749 28.0378 81.3728 29.5864 74.6502 24.9458C72.6013 22.8644 70.4974 20.7477 69.8562 17.8367C68.1179 11.0494 71.1035 3.99554 77.8261 1.29569C78.6777 0.953806 79.4392 0.682312 79.9652 0.0639087C81.1223 0.385679 82.4899 -0.182447 83.6321 0.0639087H83.627Z" fill="white" fill-opacity="0.9"/>
<path d="M36.298 111.301L38.6424 111.281L45.2298 111.482C45.7808 113.116 45.5254 114.675 45.6155 116.173C45.6807 117.254 45.4352 118.526 45.5654 119.602C45.0495 119.884 45.0645 120.98 45.5705 121.261C45.4502 122.599 45.2899 124.207 44.8942 125.489C44.5285 125.61 44.4584 126.017 44.4333 126.359C44.4283 126.46 44.4183 126.56 44.4233 126.661C44.2129 126.515 44.0376 126.606 43.9123 126.731C43.6468 126.998 43.742 127.335 43.6769 127.591C43.5416 128.134 42.9555 128.541 42.8854 129.039C42.6951 128.964 42.5047 129.009 42.3544 129.109C42.0939 129.285 41.9336 129.572 42.0488 129.863C41.8034 129.924 41.593 130.16 41.3575 130.251C40.6412 130.361 39.6393 130.537 39.7094 131.417C39.6143 131.417 39.5091 131.412 39.4139 131.422C39.1484 131.457 35.8322 131.859 36.5285 132.503L28.3381 132.594C27.8572 132.599 27.1709 132.704 26.715 132.578C26.0187 132.387 25.2523 132.282 24.5109 131.804L24.4558 122.392C24.4458 120.824 24.7764 119.426 25.1521 118.109C25.2523 117.757 25.3425 117.365 25.3775 116.998C25.6831 117.249 25.8735 116.827 25.9536 116.631C26.0338 116.435 26.0638 116.254 26.0638 116.088C27.4264 114.544 28.7288 112.785 30.7476 112.252C32.561 111.769 34.3894 111.316 36.293 111.296L36.298 111.301Z" fill="white" fill-opacity="0.9"/>
<path d="M24.9318 107.103C23.7897 107.62 23.1835 108.495 22.4171 109.274C18.1992 113.553 11.6669 113.91 7.36884 109.702C6.85788 109.204 6.31687 108.847 5.79088 108.646C4.3131 106.032 1.89356 104.734 0 102.201C2.78523 99.2141 5.42519 96.0416 8.58613 93.563C12.8942 90.1894 18.7352 91.2503 22.357 94.9657C24.6964 97.3639 26.8705 99.5459 29.0145 102.06C28.9193 103.508 25.6832 105.353 24.9368 107.097L24.9318 107.103Z" fill="white" fill-opacity="0.9"/>
<path d="M34.2138 92.1653C33.0516 92.2508 31.9997 91.6625 30.8525 91.6072C31.0429 91.2151 30.4918 91.0391 30.0911 90.833L28.0021 89.742C27.7767 89.6263 27.4411 89.8123 27.1806 89.7671C27.4211 89.2844 27.2307 88.6459 26.845 88.1482C24.0197 84.5383 24.4104 79.4855 24.5857 74.659C24.6158 73.8143 24.0397 71.6424 25.3922 71.4815C28.7235 71.0742 32.0397 71.2502 35.5112 71.3357C40.3804 71.4513 44.8588 75.4282 45.2295 80.3101C45.5351 84.3473 45.2495 88.0677 45.2846 92.2005L34.2138 92.1703V92.1653Z" fill="white" fill-opacity="0.9"/>
<path d="M225.083 4.92098C226.491 7.21863 227.668 9.60677 228.164 12.2865C228.329 13.1865 228.364 14.9763 228.184 15.8662C226.756 22.7994 221.05 27.9678 213.631 27.5857C207.47 27.2639 202.831 22.739 201.173 17.0879C201.113 16.7058 201.118 16.3137 201.083 15.9265C201.058 15.645 201.213 15.0417 200.807 15.0165L200.797 12.7692C201.198 12.744 201.063 12.1407 201.083 11.8592L201.173 10.4263C201.729 9.74754 201.889 8.84759 201.97 7.99289C204.98 2.31163 211.282 -1.10719 217.669 0.461444C220.75 1.21559 222.944 2.97528 225.083 4.92098Z" fill="white" fill-opacity="0.9"/>
<path d="M184.272 48.847C183.936 48.9877 183.761 49.3045 183.58 49.7067C181.351 54.6288 176.808 57.9923 171.397 58.0375C168.011 58.0627 164.845 57.3638 162.385 55.1718C157.531 50.8329 155.848 43.9399 158.859 38.1431C161.865 32.3612 168.502 29.4804 174.844 31.3105C180.785 33.0249 184.983 38.7011 184.602 45.2723C184.532 46.4689 183.936 47.7861 184.272 48.852V48.847Z" fill="white" fill-opacity="0.9"/>
<path d="M139.637 16.5594C138.811 17.2834 139.202 18.309 138.896 18.9124C136.777 23.0602 133.586 26.0567 129.583 27.1024C125.285 28.2236 120.236 27.4192 117.01 24.4629C112.086 19.9481 110.898 13.0702 113.844 7.4895C116.794 1.8937 123.267 -1.19831 129.433 0.576455C136.737 2.67802 140.299 9.36481 139.637 16.5695V16.5594Z" fill="white" fill-opacity="0.9"/>
</svg>
