<?xml version="1.0" encoding="utf-8"?>
<!-- Generator: Adobe Illustrator 28.4.1, SVG Export Plug-In . SVG Version: 6.00 Build 0)  -->
<svg version="1.1" xmlns="http://www.w3.org/2000/svg" xmlns:xlink="http://www.w3.org/1999/xlink" x="0px" y="0px"
	 viewBox="0 0 640 960" style="enable-background:new 0 0 640 960;" xml:space="preserve">
<style type="text/css">
	.st0{fill:url(#SVGID_1_);}
	.st1{opacity:0.21;}
	.st2{fill:none;stroke:#92B6DF;stroke-width:2;stroke-miterlimit:10;}
	.st3{opacity:0.42;fill:#92B6DF;stroke:#3B73B9;stroke-width:2;stroke-miterlimit:10;}
</style>
<g id="CALCA">
</g>
<g id="FONDO">
	<g id="FONDO_00000097462951522979553160000000010888839977309838_">
		
			<radialGradient id="SVGID_1_" cx="318.5388" cy="481" r="407.9216" gradientTransform="matrix(1.0158 0 0 1 0.0417 0)" gradientUnits="userSpaceOnUse">
			<stop  offset="0" style="stop-color:#0F101E;stop-opacity:0.999"/>
			<stop  offset="0.4553" style="stop-color:#121626;stop-opacity:0.9977"/>
			<stop  offset="1" style="stop-color:#19253B;stop-opacity:0.9918"/>
		</radialGradient>
		<rect x="-1.44" y="1" class="st0" width="650.13" height="960"/>
	</g>
</g>
<g id="FONDO_2">
	<g class="st1">
		<rect x="-0.11" class="st2" width="319.29" height="332.17"/>
		<line class="st2" x1="-0.11" y1="276.81" x2="319.19" y2="276.81"/>
		<line class="st2" x1="-0.11" y1="221.44" x2="319.19" y2="221.44"/>
		<line class="st2" x1="-0.11" y1="166.08" x2="319.19" y2="166.08"/>
		<line class="st2" x1="-0.11" y1="110.72" x2="319.19" y2="110.72"/>
		<line class="st2" x1="-0.11" y1="55.36" x2="319.19" y2="55.36"/>
		<line class="st2" x1="265.97" y1="0" x2="265.97" y2="332.17"/>
		<line class="st2" x1="212.76" y1="0" x2="212.76" y2="332.17"/>
		<line class="st2" x1="159.54" y1="0" x2="159.54" y2="332.17"/>
		<line class="st2" x1="106.32" y1="0" x2="106.32" y2="332.17"/>
		<line class="st2" x1="53.11" y1="0" x2="53.11" y2="332.17"/>
	</g>
	<g class="st1">
		<rect x="319.19" class="st2" width="319.29" height="332.17"/>
		<line class="st2" x1="319.19" y1="276.81" x2="638.48" y2="276.81"/>
		<line class="st2" x1="319.19" y1="221.44" x2="638.48" y2="221.44"/>
		<line class="st2" x1="319.19" y1="166.08" x2="638.48" y2="166.08"/>
		<line class="st2" x1="319.19" y1="110.72" x2="638.48" y2="110.72"/>
		<line class="st2" x1="319.19" y1="55.36" x2="638.48" y2="55.36"/>
		<line class="st2" x1="585.26" y1="0" x2="585.26" y2="332.17"/>
		<line class="st2" x1="532.05" y1="0" x2="532.05" y2="332.17"/>
		<line class="st2" x1="478.83" y1="0" x2="478.83" y2="332.17"/>
		<line class="st2" x1="425.62" y1="0" x2="425.62" y2="332.17"/>
		<line class="st2" x1="372.4" y1="0" x2="372.4" y2="332.17"/>
	</g>
	<g class="st1">
		<rect x="-0.11" y="332.17" class="st2" width="319.29" height="332.17"/>
		<line class="st2" x1="-0.11" y1="608.97" x2="319.19" y2="608.97"/>
		<line class="st2" x1="-0.11" y1="553.61" x2="319.19" y2="553.61"/>
		<line class="st2" x1="-0.11" y1="498.25" x2="319.19" y2="498.25"/>
		<line class="st2" x1="-0.11" y1="442.89" x2="319.19" y2="442.89"/>
		<line class="st2" x1="-0.11" y1="387.53" x2="319.19" y2="387.53"/>
		<line class="st2" x1="265.97" y1="332.17" x2="265.97" y2="664.33"/>
		<line class="st2" x1="212.76" y1="332.17" x2="212.76" y2="664.33"/>
		<line class="st2" x1="159.54" y1="332.17" x2="159.54" y2="664.33"/>
		<line class="st2" x1="106.32" y1="332.17" x2="106.32" y2="664.33"/>
		<line class="st2" x1="53.11" y1="332.17" x2="53.11" y2="664.33"/>
	</g>
	<g class="st1">
		<rect x="319.19" y="332.17" class="st2" width="319.29" height="332.17"/>
		<line class="st2" x1="319.19" y1="608.97" x2="638.48" y2="608.97"/>
		<line class="st2" x1="319.19" y1="553.61" x2="638.48" y2="553.61"/>
		<line class="st2" x1="319.19" y1="498.25" x2="638.48" y2="498.25"/>
		<line class="st2" x1="319.19" y1="442.89" x2="638.48" y2="442.89"/>
		<line class="st2" x1="319.19" y1="387.53" x2="638.48" y2="387.53"/>
		<line class="st2" x1="585.26" y1="332.17" x2="585.26" y2="664.33"/>
		<line class="st2" x1="532.05" y1="332.17" x2="532.05" y2="664.33"/>
		<line class="st2" x1="478.83" y1="332.17" x2="478.83" y2="664.33"/>
		<line class="st2" x1="425.62" y1="332.17" x2="425.62" y2="664.33"/>
		<line class="st2" x1="372.4" y1="332.17" x2="372.4" y2="664.33"/>
	</g>
	<g class="st1">
		<rect x="-0.11" y="664.33" class="st2" width="319.29" height="332.17"/>
		<line class="st2" x1="-0.11" y1="941.14" x2="319.19" y2="941.14"/>
		<line class="st2" x1="-0.11" y1="885.78" x2="319.19" y2="885.78"/>
		<line class="st2" x1="-0.11" y1="830.42" x2="319.19" y2="830.42"/>
		<line class="st2" x1="-0.11" y1="775.06" x2="319.19" y2="775.06"/>
		<line class="st2" x1="-0.11" y1="719.69" x2="319.19" y2="719.69"/>
		<line class="st2" x1="265.97" y1="664.33" x2="265.97" y2="996.5"/>
		<line class="st2" x1="212.76" y1="664.33" x2="212.76" y2="996.5"/>
		<line class="st2" x1="159.54" y1="664.33" x2="159.54" y2="996.5"/>
		<line class="st2" x1="106.32" y1="664.33" x2="106.32" y2="996.5"/>
		<line class="st2" x1="53.11" y1="664.33" x2="53.11" y2="996.5"/>
	</g>
	<g class="st1">
		<rect x="319.19" y="664.33" class="st2" width="319.29" height="332.17"/>
		<line class="st2" x1="319.19" y1="941.14" x2="638.48" y2="941.14"/>
		<line class="st2" x1="319.19" y1="885.78" x2="638.48" y2="885.78"/>
		<line class="st2" x1="319.19" y1="830.42" x2="638.48" y2="830.42"/>
		<line class="st2" x1="319.19" y1="775.06" x2="638.48" y2="775.06"/>
		<line class="st2" x1="319.19" y1="719.69" x2="638.48" y2="719.69"/>
		<line class="st2" x1="585.26" y1="664.33" x2="585.26" y2="996.5"/>
		<line class="st2" x1="532.05" y1="664.33" x2="532.05" y2="996.5"/>
		<line class="st2" x1="478.83" y1="664.33" x2="478.83" y2="996.5"/>
		<line class="st2" x1="425.62" y1="664.33" x2="425.62" y2="996.5"/>
		<line class="st2" x1="372.4" y1="664.33" x2="372.4" y2="996.5"/>
	</g>
</g>
<g id="Capa_4">
	<rect x="-0.36" y="941.14" class="st3" width="53.22" height="55.36"/>
	<rect x="52.86" y="941.14" class="st3" width="53.22" height="55.36"/>
	<rect x="106.38" y="941.14" class="st3" width="53.22" height="55.36"/>
	<rect x="159.6" y="941.14" class="st3" width="53.22" height="55.36"/>
	<rect x="212.31" y="941.14" class="st3" width="53.22" height="55.36"/>
	<rect x="265.34" y="941.14" class="st3" width="53.22" height="55.36"/>
	<rect x="318.55" y="941.14" class="st3" width="53.22" height="55.36"/>
	<rect x="371.77" y="941.14" class="st3" width="53.22" height="55.36"/>
	<rect x="-0.36" y="885.78" class="st3" width="53.22" height="55.36"/>
	<rect x="52.86" y="885.78" class="st3" width="53.22" height="55.36"/>
	<rect x="106.38" y="885.78" class="st3" width="53.22" height="55.36"/>
	<rect x="159.6" y="885.78" class="st3" width="53.22" height="55.36"/>
	<rect x="212.31" y="885.78" class="st3" width="53.22" height="55.36"/>
	<rect x="265.34" y="885.78" class="st3" width="53.22" height="55.36"/>
	<rect x="318.55" y="885.78" class="st3" width="53.22" height="55.36"/>
	<rect x="371.77" y="885.78" class="st3" width="53.22" height="55.36"/>
	<rect x="-0.36" y="830.42" class="st3" width="53.22" height="55.36"/>
	<rect x="158.6" y="830.42" class="st3" width="53.22" height="55.36"/>
	<rect x="265.34" y="830.42" class="st3" width="53.22" height="55.36"/>
	<rect x="318.55" y="830.42" class="st3" width="53.22" height="55.36"/>
	<rect x="371.77" y="830.42" class="st3" width="53.22" height="55.36"/>
	<rect x="265.34" y="775.06" class="st3" width="53.22" height="55.36"/>
	<rect x="371.77" y="775.06" class="st3" width="53.22" height="55.36"/>
	<rect x="-0.36" y="775.06" class="st3" width="53.22" height="55.36"/>
	<rect x="478.83" y="219.95" class="st3" width="53.22" height="55.36"/>
	<rect x="478.83" y="164.59" class="st3" width="53.22" height="55.36"/>
	<rect x="532.05" y="164.59" class="st3" width="53.22" height="55.36"/>
	<rect x="478.83" y="109.23" class="st3" width="53.22" height="55.36"/>
	<rect x="105.69" y="331.06" class="st3" width="53.22" height="55.36"/>
	<rect x="105.19" y="386.53" class="st3" width="53.22" height="55.36"/>
	<rect x="52.47" y="441.78" class="st3" width="53.22" height="55.36"/>
	<rect x="105.69" y="441.78" class="st3" width="53.22" height="55.36"/>
	<rect x="107.07" y="0.69" class="st3" width="53.22" height="55.36"/>
	<rect x="160.29" y="0.69" class="st3" width="53.22" height="55.36"/>
	<rect x="213" y="0.69" class="st3" width="53.22" height="55.36"/>
	<rect x="531.91" y="941.14" class="st3" width="53.22" height="55.36"/>
	<rect x="478.7" y="941.14" class="st3" width="53.22" height="55.36"/>
	<rect x="425.18" y="941.14" class="st3" width="53.22" height="55.36"/>
	<rect x="531.91" y="885.78" class="st3" width="53.22" height="55.36"/>
	<rect x="478.7" y="885.78" class="st3" width="53.22" height="55.36"/>
	<rect x="425.18" y="885.78" class="st3" width="53.22" height="55.36"/>
	<rect x="478.7" y="830.42" class="st3" width="53.22" height="55.36"/>
	<rect x="585.26" y="941.14" class="st3" width="53.22" height="55.36"/>
	<rect x="585.26" y="885.78" class="st3" width="53.22" height="55.36"/>
	<rect x="585.26" y="830.42" class="st3" width="53.22" height="55.36"/>
	<rect x="585.26" y="775.06" class="st3" width="53.22" height="55.36"/>
	<rect x="532.05" y="663.23" class="st3" width="53.22" height="55.36"/>
	<rect x="532.05" y="607.87" class="st3" width="53.22" height="55.36"/>
	<rect x="532.05" y="552.51" class="st3" width="53.22" height="55.36"/>
	<rect x="50.82" y="830.42" class="st3" width="53.22" height="55.36"/>
	<rect x="104.34" y="830.42" class="st3" width="53.22" height="55.36"/>
	<rect x="424.62" y="830.42" class="st3" width="53.22" height="55.36"/>
	<rect x="-0.36" y="719.69" class="st3" width="53.22" height="55.36"/>
</g>
</svg>
