<svg width="58" height="93" viewBox="0 0 58 93" fill="none" xmlns="http://www.w3.org/2000/svg">
<g filter="url(#filter0_d_98_5893)">
<path d="M2.8343 63.6021C13.9269 70.0585 24.4031 60.6913 33.1075 70.5147C39.1651 77.3533 38.4649 84.5763 39.8485 84.8918C40.1091 84.9506 40.8029 84.8548 41.1126 84.6563L50.8671 78.3379C53.4746 74.7371 54.3865 70.6118 53.8395 66.1732C52.9669 59.0904 49.1574 52.675 42.8353 49.2322C38.7225 46.991 34.1252 46.228 29.4872 46.1769L21.4026 46.0926C18.8459 46.0668 16.3217 45.6989 13.9915 44.7141C11.1706 43.5255 9.83762 40.7207 10.5467 37.7243C12.0018 31.541 15.1099 27.3477 16.1416 20.5226C17.1811 13.6405 14.6243 6.9189 8.84961 3.03385C6.3631 1.36172 3.70355 0.381694 1.00007 3.62843e-06L2.8343 63.6021Z" fill="white"/>
</g>
<defs>
<filter id="filter0_d_98_5893" x="-2.99988" y="0" width="60.9916" height="92.909" filterUnits="userSpaceOnUse" color-interpolation-filters="sRGB">
<feFlood flood-opacity="0" result="BackgroundImageFix"/>
<feColorMatrix in="SourceAlpha" type="matrix" values="0 0 0 0 0 0 0 0 0 0 0 0 0 0 0 0 0 0 127 0" result="hardAlpha"/>
<feOffset dy="4"/>
<feGaussianBlur stdDeviation="2"/>
<feComposite in2="hardAlpha" operator="out"/>
<feColorMatrix type="matrix" values="0 0 0 0 0 0 0 0 0 0 0 0 0 0 0 0 0 0 0.25 0"/>
<feBlend mode="normal" in2="BackgroundImageFix" result="effect1_dropShadow_98_5893"/>
<feBlend mode="normal" in="SourceGraphic" in2="effect1_dropShadow_98_5893" result="shape"/>
</filter>
</defs>
</svg>
