<svg width="56" height="94" viewBox="0 0 56 94" fill="none" xmlns="http://www.w3.org/2000/svg">
<g filter="url(#filter0_d_98_4164)">
<path d="M55 22.3715C44.0981 15.598 33.3562 24.6593 24.9387 14.589C19.0807 7.57867 19.9888 0.378839 18.6149 0.0235844C18.3561 -0.0427298 17.6598 0.033057 17.3445 0.222526L7.41193 6.25712C4.70175 9.78125 3.67131 13.8785 4.09007 18.3311C4.7582 25.4361 8.38119 31.9586 14.6014 35.5822C18.6479 37.9411 23.2213 38.8364 27.8559 39.0211L35.9347 39.3385C38.4896 39.4379 41.0021 39.8784 43.303 40.93C46.0884 42.1994 47.34 45.0415 46.5448 48.0161C44.9121 54.155 41.6844 58.257 40.4563 65.0494C39.2189 71.8988 41.5809 78.6912 47.2412 82.7411C49.6785 84.4843 52.3086 85.5405 55 86V22.3715Z" fill="white"/>
</g>
<defs>
<filter id="filter0_d_98_4164" x="0" y="0" width="59" height="94" filterUnits="userSpaceOnUse" color-interpolation-filters="sRGB">
<feFlood flood-opacity="0" result="BackgroundImageFix"/>
<feColorMatrix in="SourceAlpha" type="matrix" values="0 0 0 0 0 0 0 0 0 0 0 0 0 0 0 0 0 0 127 0" result="hardAlpha"/>
<feOffset dy="4"/>
<feGaussianBlur stdDeviation="2"/>
<feComposite in2="hardAlpha" operator="out"/>
<feColorMatrix type="matrix" values="0 0 0 0 0 0 0 0 0 0 0 0 0 0 0 0 0 0 0.25 0"/>
<feBlend mode="normal" in2="BackgroundImageFix" result="effect1_dropShadow_98_4164"/>
<feBlend mode="normal" in="SourceGraphic" in2="effect1_dropShadow_98_4164" result="shape"/>
</filter>
</defs>
</svg>
