<svg width="349" height="205" viewBox="0 0 349 205" fill="none" xmlns="http://www.w3.org/2000/svg">
<g filter="url(#filter0_d_213_947)">
<path d="M100.997 28.0433C108.291 28.0634 115.359 29.7125 122.102 32.4626L122.398 32.4324C122.127 32.7592 122.508 32.9453 122.743 33.0559C122.919 33.1363 123.139 33.0911 123.304 33.1614C124.476 33.634 125.478 34.4887 126.721 34.7854C126.475 35.0971 126.826 35.3485 127.051 35.439C127.262 35.5194 127.452 35.5345 127.632 35.5446C127.733 35.5496 127.853 35.5345 127.948 35.5596C128.995 36.9624 130.768 37.7467 132.206 38.712C132.311 38.712 132.512 38.7975 132.607 38.7572C132.762 39.6773 133.719 40.0996 134.455 40.7784C137.296 43.3777 139.615 46.3138 141.974 49.3455C146.673 55.3837 152.735 59.9187 159.698 62.2867C162.773 63.3325 165.634 64.5441 169.005 64.886C173.854 65.3737 178.718 65.7407 183.522 64.6045C184.028 64.4838 184.424 64.5693 184.845 64.2022C185.085 64.0263 185.706 63.8956 186.007 63.8453C192.855 62.7241 202.047 55.8262 206.04 50.1348C209.04 45.8613 212.652 42.3721 216.194 38.7673C218.162 37.5657 220.512 36.2585 222.355 34.7401C222.631 34.7904 222.906 34.715 223.147 34.5139C223.322 34.3631 223.452 34.2323 223.237 34.0111C223.758 33.991 224.219 33.7346 224.69 33.5536L230.09 31.4269C230.365 31.3163 230.481 30.9995 230.285 30.8638C230.506 30.8638 230.736 30.8387 230.956 30.7984C232.319 30.5521 233.852 30.4364 234.989 29.6169C236.802 29.3907 238.646 29.0337 240.364 28.4153C240.595 28.3299 240.975 28.4103 241.226 28.4153C242.293 28.4606 243.35 28.355 244.372 28.0383C244.682 27.9427 245.113 28.0382 245.439 28.0332C263.613 27.7818 282.123 38.3751 289.937 55.2983C292.843 61.5879 294.396 68.1389 294.661 75.0821C294.927 81.97 293.264 88.4507 290.944 95.1878C295.072 95.233 306.999 95.4442 309.299 98.4457C310.636 99.5819 311.267 101.06 310.907 102.895C310.21 106.44 305.772 106.787 302.491 106.123C290.689 103.73 278.21 106.872 269.394 114.886C269.113 114.831 268.808 114.911 268.622 115.173C268.517 115.319 268.487 115.515 268.557 115.706C268.116 115.761 267.991 116.475 267.655 116.601C266.558 117.008 266.123 118.265 265.501 119.195C264.92 120.07 263.974 120.814 263.848 121.93C262.982 121.905 262.821 122.91 262.721 123.614C262.691 123.83 262.711 124.067 262.661 124.283C261.293 124.69 261.319 126.621 261.113 127.888C261.098 127.993 261.093 128.119 261.103 128.225C260.757 127.978 260.482 128.345 260.422 128.561C260.312 128.943 260.432 129.245 260.422 129.537L260.397 130.19C259.886 130.346 260.021 131.07 259.986 131.503C259.956 131.86 259.941 132.227 259.941 132.584C259.049 133.182 259.154 134.464 259.26 135.439C259.31 135.882 259.124 136.445 259.225 136.867C258.498 137.44 258.864 138.526 258.839 139.356L258.819 139.999C258.223 140.296 258.273 141.246 258.714 141.689V142.352C258.674 142.267 258.408 142.126 258.313 142.297C257.842 143.217 257.762 144.469 258.313 145.193C258.203 145.469 258.243 145.967 258.278 146.264C257.266 145.6 257.682 149.16 257.672 149.577L257.637 150.613C257.356 150.432 256.444 156.022 257.126 155.806C257.025 156.294 257.04 156.782 257.101 157.269C256.094 156.596 256.499 160.165 256.499 160.588C256.499 160.899 256.565 161.382 256.469 161.669C255.948 162.528 256.124 163.539 256.099 164.514L256.084 165.163C255.683 164.68 255.417 167.149 255.989 166.822C255.858 167.284 255.898 167.817 255.943 168.285C254.901 167.657 255.342 171.151 255.332 171.593L255.307 172.634C254.461 173.468 255.017 174.811 254.922 175.907C254.896 176.229 254.957 176.641 254.861 176.948C254.33 178.622 254.055 180.462 254.17 182.217C254.2 182.689 254.13 183.167 254.135 183.639C253.504 183.041 253.729 187.295 253.724 187.677V188.34C253.023 189.688 253.329 191.342 252.978 192.825C253.043 193.639 252.572 194.399 252.141 195.057C251.851 194.992 251.565 195.118 251.37 195.374C251.26 195.515 251.195 195.691 251.245 195.897L250.648 195.942C250.388 195.962 250.097 195.907 249.807 196.123C249.682 196.219 249.516 196.375 249.707 196.586L249.025 196.616C248.76 196.113 247.743 196.118 247.447 196.581C247.222 196.556 246.992 196.571 246.766 196.566C246.325 195.661 245.058 195.711 244.352 195.042L244.342 194.746C244.307 193.871 243.45 192.996 243.6 192C243.816 190.553 244.121 189.27 243.866 187.963C243.781 187.511 243.961 187.008 243.911 186.55C244.682 185.63 244.231 184.379 244.277 183.262C244.287 182.966 244.201 182.508 244.312 182.232C244.853 180.884 245.028 179.235 244.808 177.817C244.712 177.224 244.983 176.581 244.843 175.957C245.875 176.676 245.439 172.745 245.449 172.247L245.464 171.588C246.315 170.759 245.854 169.406 245.89 168.3L245.91 167.682C246.245 167.722 246.22 167.279 246.265 167.008C246.3 166.812 246.33 166.374 245.965 166.405L246.255 164.519C246.841 163.805 246.746 162.905 246.611 162.01C246.566 161.699 246.721 161.256 246.631 160.97C247.342 160.668 246.962 159.698 247.037 158.928L248.59 143.157C248.625 142.825 248.635 142.463 248.625 142.126C248.955 142.252 248.995 141.799 249.01 141.472C249.015 141.327 248.95 141.065 248.69 141.206C248.795 140.628 248.81 139.974 248.755 139.386C249.727 139.904 249.381 137.209 249.351 136.852C249.301 136.269 249.481 135.605 249.391 135.032C250.117 134.454 249.737 133.368 249.762 132.533L249.792 131.503C250.278 131.12 250.203 130.628 249.937 129.974C249.727 129.456 249.486 129.371 248.98 129.788L244.732 129.838C244.186 131.417 244.136 133.001 244.206 134.469C243.139 134.605 243.355 136.329 243.866 136.968C243.53 137.375 243.846 138.406 243.575 138.823C242.964 139.441 243.205 140.145 243.21 140.924C243.22 143.876 242.613 147.154 242.398 149.828C242.338 150.562 241.707 151.95 242.022 152.709C242.158 153.041 241.967 153.785 241.987 154.137C240.85 157.853 240.8 164.499 240.409 168.431L239.648 176.158C239.578 176.877 238.771 177.762 239.282 178.662C239.437 178.934 239.117 179.406 239.247 179.688C238.886 179.597 238.891 180.13 238.866 180.346C238.841 180.563 238.796 181.09 239.177 181C238.766 182.74 238.997 184.68 238.496 186.395C238.12 187.682 237.854 188.979 238.065 190.462C238.095 190.663 238.025 190.879 238.04 191.085C237.394 191.694 237.699 192.724 237.659 193.539C236.863 194.932 235.781 196.289 234.142 196.566C233.837 196.083 232.81 196.123 232.529 196.611C232.234 196.51 231.808 196.566 231.498 196.556C231.733 196.239 231.327 196.023 231.137 195.987L230.566 195.887C230.225 195.827 229.92 195.48 229.559 195.48C229.143 194.519 228.858 193.464 228.216 192.634L228.206 191.633L228.216 190.703L228.251 189.678C228.923 189.094 228.537 188.149 228.652 187.219C229.128 183.323 229.664 179.617 229.704 175.907C229.704 175.696 229.684 175.258 229.789 175.082C230.551 173.996 230.07 172.574 230.245 171.141C230.365 170.12 231.007 169.125 230.33 168.37C230.315 168.149 230.385 167.913 230.355 167.692C231.337 168.285 230.946 165.223 230.946 165.148C230.957 164.725 230.896 164.117 230.982 163.725C231.838 162.563 231.232 161.035 231.397 159.658C231.422 159.451 231.327 159.15 231.412 158.964C231.853 157.958 232.715 150.583 232.529 149.436C232.499 149.245 232.504 148.974 232.544 148.783C233.551 144.147 233.972 139.336 234.147 134.569L234.173 133.84C234.924 132.056 234.413 129.959 234.969 127.918C235.34 126.57 235.3 125.314 235.345 123.931C235.42 121.844 236.176 119.889 235.7 118.013C235.6 117.621 235.901 117.033 235.826 116.575C236.126 116.817 236.447 116.43 236.452 116.063L236.522 112.568C236.547 111.387 237.033 110.356 236.873 109.315C236.843 109.124 236.898 108.918 236.878 108.722C237.038 108.536 237.183 108.325 237.243 108.049C237.293 107.827 237.018 107.606 236.953 107.425C237.043 106.837 237.088 106.173 237.003 105.575C238.005 106.239 237.609 102.714 237.614 102.262C237.614 101.935 237.574 101.548 237.644 101.231C238.3 98.2446 238.701 95.1023 238.771 92.0304L238.806 90.6025C239.262 91.0399 239.528 84.0163 239.563 84.1671C239.503 83.9358 239.563 83.6744 239.513 83.4381C240.144 82.5331 239.958 81.3315 239.973 80.2757L239.988 79.2098C240.68 78.4155 240.399 77.3043 240.359 76.3189C240.344 76.0022 240.409 75.4793 240.274 75.2028C240.294 75.2028 240.645 75.1626 240.655 75.062L241.511 67.3697C241.832 64.4788 242.012 61.7337 241.987 59.0891L241.972 57.5104C242.388 57.611 242.663 57.4702 242.724 57.2389C242.598 57.7266 243.22 51.7085 243.104 51.1605C243.044 50.8588 243.104 50.4365 243.134 50.1298C243.154 49.9136 243.585 49.7527 243.52 49.4511C243.475 49.255 243.605 48.717 243.21 48.8176C243.3 48.2243 243.335 47.5556 243.51 46.9674C243.575 46.7512 243.981 46.6205 243.916 46.3088C243.876 46.1077 243.991 45.5697 243.6 45.6703C243.841 45.0569 243.505 43.986 243.896 43.4229C244.577 42.4475 244.261 41.3213 244.272 40.1499L244.282 39.084C244.282 38.9081 244.402 38.6014 244.307 38.4505C243.971 37.9327 240.91 38.3098 241.516 38.6718L240.865 38.6919C240.134 38.6718 238.761 38.2645 238.741 39.3103L238.055 39.3203C236.998 39.3354 232.57 40.17 233.276 40.9342L232.565 41.0549C231.177 41.2962 230.18 42.352 230.255 43.7648C230.275 44.1218 230.235 44.4837 230.23 44.8407C229.649 45.4239 229.844 46.2283 229.889 46.9674C229.925 47.5607 229.819 48.1791 229.814 48.7723C229.814 48.9684 229.414 49.1746 229.454 49.446C229.484 49.6522 229.379 50.0846 229.754 50.0443C229.469 50.5722 229.679 51.4219 229.484 51.9398C228.727 52.8649 229.128 54.0715 229.098 55.2128L229.073 56.2535C228.367 57.0429 228.737 58.159 228.692 59.1394L228.662 59.798C228.322 59.1696 227.831 64.9765 227.941 65.4391C228.051 65.9016 227.851 66.4094 227.911 66.8719C227.119 67.7719 227.565 69.0288 227.525 70.145L227.49 71.1756C226.904 71.5074 227.164 72.342 227.149 72.9102L227.124 73.9408C226.458 74.6095 226.699 75.5849 226.769 76.4496C226.809 76.9172 226.719 77.3999 226.734 77.8725C226.077 78.5462 226.308 79.5115 226.373 80.3712C226.408 80.8438 226.323 81.3315 226.338 81.8041C226.102 81.2058 225.106 87.6211 225.827 86.5955L225.576 88.501C224.85 89.3004 225.161 90.3712 225.206 91.3868C225.216 91.6835 225.281 92.1963 225.176 92.4628C224.564 93.4331 224.855 94.5995 224.79 95.7006L224.73 96.7413C224.284 97.2038 224.219 97.9077 224.655 98.3904C224.554 98.873 224.554 99.3657 224.625 99.8534C223.643 99.3004 224.033 102.201 224.044 102.397C224.059 102.875 224.018 103.353 224.008 103.825C223.362 104.489 223.558 105.459 223.628 106.314C223.653 106.641 223.528 107.033 223.593 107.345C223.062 107.521 223.272 108.255 223.257 108.687L223.212 110.497C222.606 111.065 222.806 111.875 222.866 112.619C222.901 113.061 222.896 113.609 222.836 114.047C222.706 114.348 222.35 114.665 222.36 115.253L222.43 119.26C222.435 119.612 222.425 119.969 222.415 120.321C222.195 119.119 221.424 127.068 221.91 125.912C221.804 126.394 221.809 126.887 221.884 127.375C220.898 126.787 221.298 129.854 221.298 129.914L221.258 131.734C220.552 132.523 220.913 133.634 220.878 134.62L220.853 135.263C220.377 135.711 220.281 136.435 220.747 136.922C220.662 137.41 220.662 137.903 220.722 138.396C219.695 137.807 220.126 141.025 220.121 141.322L220.081 143.132C219.46 143.815 219.735 144.776 219.71 145.63L219.69 146.284C219.119 146.847 219.239 147.667 219.335 148.401C219.38 148.737 219.295 149.099 219.32 149.436C218.513 150.331 218.964 151.603 218.939 152.719L218.924 153.368C218.122 154.263 218.578 155.53 218.538 156.641L218.503 157.672C217.947 158.25 218.077 159.054 218.147 159.793C218.177 160.115 218.147 160.497 218.117 160.819C218.102 161.02 217.722 161.176 217.727 161.472C217.732 161.689 217.917 161.915 218.022 162.091L217.742 164.373C217.11 165.223 217.276 166.224 217.376 167.264C217.421 167.737 217.321 168.22 217.336 168.692C216.695 169.376 217.01 170.336 216.97 171.191L216.9 172.619C216.895 172.719 216.715 172.835 216.655 172.976C216.569 173.167 216.82 173.348 216.86 173.499C216.89 174.192 216.569 175.057 216.81 175.746C216.569 175.53 216.439 175.746 216.344 175.857C216.104 176.138 216.189 176.606 216.159 177.013L215.367 187.31L214.981 191.156C214.776 193.212 214.17 195.731 212.301 195.932L211.715 195.997C211.52 196.018 211.134 196.259 211.36 196.576C210.944 196.601 210.323 196.505 209.937 196.636C209.271 196.088 208.289 196.153 207.467 195.932C207.027 195.54 206.19 195.434 205.98 194.736C205.904 194.102 205.709 193.443 205.163 193.071C205.373 191.885 204.822 190.462 205.173 189.296C205.454 188.365 205.849 187.476 205.539 186.395C205.489 186.224 205.549 185.927 205.559 185.756C205.679 185.56 205.899 185.394 205.945 185.108C205.98 184.881 205.714 184.665 205.649 184.484C205.739 183.891 205.784 183.242 205.699 182.634C206.731 183.262 206.28 179.808 206.29 179.703C206.345 179.16 206.155 178.406 206.335 177.893C206.861 176.415 206.751 174.59 206.811 173.051L206.876 171.241C207.858 171.855 207.462 168.712 207.462 168.687L207.497 167.259C208.279 166.359 207.848 165.102 207.883 163.986L207.903 163.343C208.094 163.162 208.269 162.941 208.284 162.669C208.294 162.468 208.364 161.93 207.988 162.041L208.294 160.195C208.855 159.456 208.775 158.592 208.645 157.682C208.594 157.345 208.695 156.988 208.675 156.646C209.406 155.867 209.025 154.745 209.045 153.76L209.07 152.714C209.787 151.935 209.476 150.814 209.451 149.828C209.441 149.507 209.591 149.109 209.511 148.798C210.243 145.706 210.448 142.428 210.618 139.21C210.693 137.832 210.814 136.415 210.744 135.037C211.27 135.314 211.475 134.66 211.465 134.348C211.45 133.835 211.61 133.132 211.124 132.946C211.625 132.191 211.265 130.864 211.395 129.884C209.822 129.748 208.574 129.693 207.247 129.718C207.192 129.522 207.132 129.366 207.082 129.245C206.996 129.039 206.716 128.949 206.551 129.059C206.27 129.25 206.345 129.587 206.31 129.843C206.28 130.06 206.21 130.301 206.235 130.522C205.223 129.949 205.654 133.021 205.654 133.066L205.609 134.886C204.978 135.178 205.263 136.038 205.243 136.596L205.073 141.146C203.936 141.166 204.522 142.563 204.527 143.308C204.527 143.961 204.577 144.876 204.437 145.495C203.881 146.229 204.101 147.088 204.071 147.993L204.026 149.411C203.78 148.486 202.799 156.299 203.5 155.786C203.58 155.957 203.46 156.264 203.49 156.46C202.523 155.867 202.894 158.873 202.894 158.999C202.894 159.466 202.909 159.959 202.854 160.427C202.202 160.824 202.433 162.548 202.779 162.126C202.638 162.724 202.668 163.378 202.468 163.966C202.433 164.077 202.248 164.167 202.177 164.323C202.087 164.524 202.323 164.72 202.398 164.881C202.318 165.55 202.223 166.39 202.318 167.083C201.306 166.475 201.732 169.768 201.727 170.014L201.697 171.447C200.905 172.347 201.351 173.604 201.306 174.715C201.296 174.927 201.311 175.153 201.286 175.359C201.271 175.47 201.075 175.575 201.01 175.726C200.925 175.922 201.151 176.118 201.216 176.279C201.14 176.938 201.035 177.792 201.14 178.476C200.154 177.888 200.554 180.96 200.554 181.015L200.514 182.835C199.743 183.745 200.184 184.997 200.134 186.113C200.124 186.304 200.179 186.576 200.109 186.757C199.237 189.044 199.482 191.583 198.921 193.961C198.285 194.303 198.075 195.867 197.023 195.887C196.847 195.887 196.652 195.927 196.452 195.997C196.261 196.063 195.856 196.244 196.086 196.561C195.75 196.515 195.385 196.616 195.054 196.616C194.959 196.591 194.839 196.46 194.723 196.395C194.523 196.289 194.358 196.606 194.212 196.601L193.14 196.561C193.03 195.671 191.828 195.711 191.122 195.454C191.137 195.344 191.097 195.223 191.102 195.113C188.567 191.261 190.771 189.336 190.01 187.239C190 186.817 190.135 186.229 190.035 185.771C191.036 186.375 190.631 183.182 190.626 183.232C190.701 182.564 190.495 181.674 190.706 181.035C191.006 180.351 191.262 179.723 191.036 178.918C190.951 178.607 191.107 178.205 191.067 177.888C191.062 177.777 191.307 177.672 191.347 177.511C191.397 177.305 191.267 177.093 191.107 176.943L191.117 176.264C191.673 175.097 192.269 173.489 191.583 172.297C192.018 171.925 191.547 170.804 191.843 170.407C192.349 169.763 192.319 169.094 192.199 168.295C192.109 167.707 192.299 167.078 192.249 166.485C192.86 165.791 192.584 164.831 192.609 163.971L192.629 163.328C192.8 163.157 192.95 162.956 193.02 162.684C193.075 162.463 192.78 162.247 192.73 162.066L192.99 160.16C193.807 159.255 193.346 158.029 193.376 156.892C193.386 156.465 193.291 155.877 193.421 155.469C194.343 152.533 194.533 149.376 194.563 146.329L194.578 144.841C195.224 144.172 194.909 143.202 194.959 142.352L195.019 141.322C195.565 140.608 195.59 139.597 195.109 138.843L195.084 138.179C196.161 138.893 195.715 135.535 195.72 135.263L195.755 133.84C196.532 132.93 196.131 131.668 196.171 130.547L196.191 129.919C196.777 129.21 196.487 128.265 196.532 127.41L196.587 126.379C197.233 125.55 196.887 124.459 196.913 123.468L196.928 122.825C197.774 121.804 197.203 120.391 197.348 119.145C197.373 118.923 197.363 118.687 197.358 118.461C198.07 115.525 198.38 112.392 198.465 109.315L198.506 107.893C199.137 107.209 198.921 106.249 198.876 105.389C198.861 105.052 198.921 104.695 198.931 104.358C198.931 104.233 199.182 104.117 199.202 103.966C199.227 103.785 199.332 103.317 198.971 103.438L199.282 101.201C199.598 100.598 200.109 99.7076 199.412 99.1546C199.703 98.7876 199.442 98.0234 199.653 97.6463C200.369 96.8469 200.063 95.7659 200.028 94.7604C200.013 94.4034 200.053 94.0364 200.063 93.6795C200.354 93.2169 200.765 92.3421 200.154 92.0354C200.359 91.603 200.264 91.0198 200.449 90.5774C200.164 91.2762 201.546 89.1194 200.549 88.9233L200.82 86.6307C201.456 85.9117 201.271 85.057 201.196 84.142C201.166 83.7548 201.07 83.056 201.211 82.699C201.727 81.4321 201.932 79.9941 201.692 78.6568C201.546 77.8272 202.007 76.9122 201.767 76.0625C202.894 76.0323 202.303 74.6397 202.313 73.9006C202.318 73.2169 202.313 72.3672 202.398 71.7086C202.844 71.0952 202.759 70.3762 202.759 69.602V68.9534C202.759 68.7925 202.964 68.3048 202.733 68.2093C201.877 67.8574 200.775 68.4355 200.805 69.2701C197.794 70.6477 194.999 72.4929 191.843 73.5286C191.042 73.79 190.32 74.0716 189.554 74.4335C188.787 74.7955 188.226 74.7 188.231 75.9871L188.291 85.0922L187.966 178.893C187.951 183.298 187.625 187.254 188.276 191.211C188.462 192.322 188.642 192.714 187.75 193.725C186.748 194.856 185.701 196.103 184.103 195.972C183.532 195.882 182.951 195.967 182.385 195.932L181.363 195.877C181.188 195.58 180.852 195.47 180.527 195.409C179.41 194.746 179.209 193.363 178.583 192.302L178.543 130.557C178.543 130.497 178.523 130.145 178.423 129.838L171.475 129.848L171.425 192.252C171.425 194.524 168.825 195.756 167.387 195.962C165.063 196.299 162.979 195.51 162.082 193.504C162.012 193.303 162.102 193.006 161.741 193.056L161.621 84.6045L161.666 75.9418C161.666 75.1676 161.055 74.4587 160.294 74.2526C155.049 72.8197 150.676 70.2908 146.052 67.1334C146.167 70.0142 146.012 72.5381 146.793 74.7754C146.688 77.7619 147.219 80.6025 147.575 83.8554L153.03 133.7C152.639 132.046 153.671 145.369 154.137 142.498C153.892 143.996 154.408 145.545 154.313 147.048C154.277 147.611 154.072 148.466 154.673 148.763C154.603 149.356 154.743 149.984 154.708 150.583C154.683 151 154.313 154.585 155.309 153.901C155.224 154.504 155.249 155.173 155.339 155.761C155.264 155.942 154.964 156.214 155.059 156.369L155.45 157.018C155.785 157.581 155.485 158.476 155.51 159.205C155.52 159.507 155.44 160.115 155.835 160.165L155.87 161.593C155.895 162.604 155.56 163.665 156.251 164.474L156.517 166.374C156.071 166.465 156.211 167.053 156.186 167.365C156.151 167.827 156.236 168.632 156.867 168.446C156.777 169.145 156.967 169.959 156.947 170.648C156.887 170.749 156.772 170.879 156.722 171.01C156.627 171.251 157.003 171.412 157.008 171.573L157.048 172.996C157.063 173.564 156.782 174.409 157.403 174.72L157.509 177.682C157.519 177.928 157.358 178.446 157.373 178.702C157.393 179.019 157.493 179.668 158.05 179.456C157.949 180.165 158.05 180.965 158.12 181.664C158.055 181.764 157.949 181.9 157.899 182.026C157.794 182.277 158.175 182.418 158.185 182.589C158.2 182.915 158.32 183.303 158.28 183.629C158.17 184.494 158.175 185.329 158.651 186.053C158.696 186.742 158.626 187.616 158.636 188.325C158.646 189.034 158.315 189.889 158.996 190.427C159.056 191.03 159.122 191.633 159.227 192.227C158.861 192 158.661 192.413 158.611 192.624C158.545 192.921 158.581 193.368 158.651 193.594C158.545 194.374 157.994 195.158 157.238 195.686C155.034 197.219 152.499 196.631 150.385 195.389C150.375 194.313 149.423 193.418 149.293 192.176L145.476 156.721L142.651 129.481C140.802 129.331 139.41 129.949 137.621 129.527C137.025 131.588 137.576 133.473 137.822 135.806L143.683 191.09C143.898 193.132 142.826 195.133 141.378 195.872C141.168 195.977 140.827 195.862 140.557 196.108C140.446 196.209 140.231 196.314 140.446 196.54C138.137 196.837 135.823 196.465 134.706 194.308C134.666 193.981 134.485 193.725 134.28 193.484C134.11 193.283 134.044 193.001 133.939 192.765C134.155 192.579 134.295 192.357 134.22 192.171C134.09 191.845 133.799 191.513 133.554 191.86L133.528 191.588C133.448 190.638 133.559 189.663 133.428 188.707C133.398 188.501 133.358 188.28 133.358 188.069C133.358 187.812 133.403 187.551 133.428 187.295C133.518 186.294 133.709 185.208 133.078 184.394C133.108 183.78 132.852 182.8 133.028 182.192C133.298 181.266 132.947 180.829 132.672 180.085C132.186 178.778 132.376 177.259 132.271 175.892C132.211 175.123 132.502 174.414 131.91 173.775C131.74 173.142 131.81 172.227 131.86 171.573L131.935 170.573C131.956 170.286 131.825 169.607 131.274 169.818C131.495 168.964 131.199 168.044 131.214 167.189C131.214 166.867 131.57 166.656 131.169 166.319C131.059 165.786 131.139 165.062 131.089 164.504C131.039 163.946 131.379 163.101 130.743 162.77C130.989 162.141 130.358 161.186 130.653 160.588C131.034 159.818 130.393 159.431 130.332 158.858L128.113 137.581L125.528 111.729L124.872 106.213C124.587 103.795 124.341 101.508 124.426 99.24C124.441 98.8127 124.592 98.0736 124.076 97.9077L124.026 96.0978C124.016 95.8313 124.126 95.4291 124.101 95.0822C124.081 94.7855 123.991 94.1219 123.45 94.328C123.976 92.503 122.668 86.9725 122.863 85.4693C122.969 84.6648 122.227 76.2988 121.741 75.9167C121.696 75.3234 121.636 74.6598 121.686 74.0665C121.756 73.2772 121.867 72.5834 121.316 71.965C121.205 71.3063 121.3 70.4366 121.28 69.7528C121.26 69.0188 121.786 67.6412 120.699 67.601C121.025 65.9871 119.462 52.8146 119.011 50.4918C118.916 49.989 118.986 49.4109 118.961 48.898C118.941 48.4757 119.357 44.9212 118.345 45.5898C118.455 44.9413 118.36 44.343 118.25 43.7045C118.23 43.4279 118.455 43.1313 118.36 42.9101C118.17 42.4676 117.854 42.1459 117.458 42.0855C117.323 41.9548 117.183 41.8291 117.037 41.7034C114.488 39.5667 110.64 38.8125 107.309 38.6969L106.397 38.6667C106.027 38.2293 104.519 37.9779 104.464 38.8226C104.364 40.4365 104.414 42.0604 104.87 43.4129L104.925 44.4586C104.985 45.5697 104.524 46.8317 105.315 47.7316L105.421 48.8779L111.176 102.991C111.397 105.052 111.793 106.701 111.672 108.501C111.657 108.747 111.512 109.14 111.602 109.486C111.657 109.698 111.838 110.12 112.208 109.884C112.158 111.754 112.279 113.509 112.504 115.645L120.359 189.044C120.609 191.402 120.669 193.182 119.462 195.052C119.292 195.158 119.192 195.414 119.006 195.46L118.44 195.595C118.195 195.656 118.034 195.957 118.115 196.259C117.674 196.44 117.073 196.359 116.657 196.586C116.221 195.977 115.249 196.183 114.688 196.551C114.463 196.551 114.227 196.51 114.007 196.535C114.222 196.309 114.007 196.204 113.892 196.108C113.606 195.877 113.315 195.942 113.08 195.867C112.805 195.776 112.559 195.575 112.279 195.505C111.232 194.122 110.926 192.639 110.721 190.703L105.601 143.187V141.699C105.611 141.397 105.706 140.824 105.315 140.753C105.366 139.874 105.02 138.642 104.95 137.742C105.23 137.863 105.16 137.621 105.215 137.465C105.32 137.159 104.895 136.988 104.925 136.827C105.03 136.299 104.664 135.515 104.85 135.002C105.16 134.127 104.699 133.614 104.489 132.895C104.193 131.89 104.594 130.688 103.938 129.466L99.4294 129.874C98.7982 129.929 98.8884 130.934 98.7581 131.296C98.708 131.432 98.678 131.739 98.693 131.905C98.7131 132.131 98.9485 132.558 99.2791 132.302C99.1789 135.439 99.5346 138.627 100.196 141.694C100.281 142.081 100.396 142.428 100.511 142.8C100.742 143.554 100.471 144.399 100.546 145.163L104.995 188.753C105.17 190.487 105.716 192.735 104.93 194.208C103.672 196.556 100.687 196.752 98.3323 196.545C98.1069 196.113 97.601 195.882 97.105 195.806C96.8896 195.615 96.7744 194.997 96.3035 195.057C96.544 194.333 95.7024 193.785 95.6072 192.91L89.2052 134.509C89.1551 134.037 89.3054 133.534 89.2202 133.056C89.1401 132.624 89.3755 131.925 88.8646 131.714C87.2014 119.833 78.0893 111.01 66.9684 107.757C67.2339 107.541 66.9183 107.184 66.6729 107.063C66.4975 106.978 66.2521 107.098 66.1118 107.335C65.8914 107.335 65.661 107.284 65.4355 107.299C65.6509 107.083 65.4656 106.932 65.3303 106.842C65.0097 106.631 64.7192 106.726 64.4637 106.726C63.046 106.731 61.7686 105.907 60.341 106.118C60.882 105.122 58.0216 105.515 57.8212 105.52L55.587 105.555L53.2526 105.505C52.7417 105.494 48.3384 105.107 49.165 106.113C48.6841 106.042 48.2182 106.234 47.7473 106.239C47.1462 106.249 46.5651 106.173 46.0742 106.59L45.0122 106.721C43.0835 106.726 41.0347 106.5 39.5469 105.047C38.3747 103.901 37.8387 102.644 37.9589 101.161C38.004 100.567 37.989 99.9741 37.9439 99.3808C39.076 99.421 40.1881 98.4507 41.0347 97.601C41.751 97.3346 42.9884 97.4452 43.1186 96.5402C43.8199 96.7111 44.5914 96.4044 45.2927 96.3743C45.6083 96.3592 46.1092 96.4145 46.2194 96.0425L46.8556 96.0123C47.7373 95.9721 48.6139 96.1279 49.3653 95.6402C49.9014 95.5296 50.6478 95.5497 51.2088 95.5145C53.2226 95.3939 55.2965 95.8966 57.696 95.2229C49.7911 76.1631 54.7955 54.4737 69.7536 40.6929C71.6021 38.9935 73.5959 37.8874 75.1638 36.178C76.4061 35.1976 78.3247 34.8206 79.4218 33.5737C79.5521 33.5486 79.6973 33.6089 79.8226 33.5687C80.4588 33.3625 81.4857 33.262 81.5007 32.4525L87.2615 30.3962C87.9629 30.3711 89.0148 30.4767 89.2653 29.6823C90.5177 29.9035 91.7951 28.8175 93.0775 29.1242C93.343 29.1896 93.9942 29.1242 94.0142 28.7723C96.3135 28.6365 98.7181 28.0031 101.037 28.0081L100.997 28.0433ZM283.069 84.7302C283.29 84.0062 283.916 83.4984 283.831 82.6236C283.761 81.9047 284.151 81.1756 283.996 80.4366C285.008 81.0952 284.597 77.5457 284.597 77.1183V73.3224C284.592 72.4627 284.933 71.4974 284.237 70.8237L284.192 69.4059C284.161 68.5512 284.096 67.5306 283.44 66.9071L283.425 66.2485C283.425 66.0776 283.47 65.8915 283.405 65.6502C283.35 65.4491 283.13 65.0519 282.814 65.2882C282.789 64.5341 282.508 63.8201 282.298 63.0962C282.088 62.3722 282.168 61.0549 281.216 60.9745C278.691 55.0167 274.568 49.5617 268.747 45.4038L262.32 106.887C264.52 106.48 265.156 105.047 266.573 104.177C273.481 99.9188 280.72 92.4929 283.069 84.7201V84.7302ZM66.8081 62.5632C65.8363 62.5632 65.9114 63.9106 65.7261 64.6598C65.6409 65.0117 65.7211 65.3938 65.656 65.7508C65.2001 65.6854 65.4155 66.334 65.2652 66.5753C65.0598 66.9071 65.0899 67.3395 64.9446 67.6814C64.8144 67.9881 64.5188 68.2194 64.5789 68.6065C64.609 68.8076 64.5639 69.0891 64.5589 69.2651C64.5589 69.3707 64.3234 69.4612 64.2633 69.617C64.1982 69.793 64.3234 69.9991 64.4487 70.15C63.8025 72.9504 64.1782 75.9469 64.1732 78.8026V80.2707C64.1732 80.698 64.0028 81.427 64.5439 81.5728L64.5639 82.2264C64.599 83.242 64.6791 84.5643 65.6509 85.0771C65.686 85.7307 65.8463 86.3642 66.0918 86.9725C66.1519 87.1284 66.0818 87.3446 66.1769 87.5356C66.2721 87.7267 66.4625 88.1038 66.768 87.8826C67.3942 90.3461 69.2878 92.317 70.6453 94.5241C71.8676 96.51 73.6109 97.42 75.0686 98.7674C76.351 99.9489 77.6134 100.648 79.0261 101.568C81.2753 103.036 83.3442 104.992 86.2396 106.42L80.9797 56.7764C80.609 53.252 80.7393 49.6522 79.8827 45.7507C74.3924 48.6718 68.331 57.3294 66.8031 62.5532L66.8081 62.5632Z" fill="white" fill-opacity="0.9"/>
<path d="M272.49 22.4119C269.785 25.9765 265.156 27.887 260.923 27.5501C253.865 26.982 248.605 21.5018 248.169 14.8653C247.708 7.83665 252.212 2.05986 259.12 0.410788C265.266 -1.05729 272.199 3.03523 274.333 8.57572C276.202 13.4123 275.596 18.3143 272.49 22.4169V22.4119Z" fill="white" fill-opacity="0.9"/>
<path d="M336.014 110.994C335.017 111.241 333.97 111.562 333.158 112.206C332.813 112.201 332.462 112.266 332.121 112.236C331.034 112.146 329.937 112.256 328.85 112.231L328.199 112.216C328.054 111.683 327.322 111.819 326.886 111.769C326.781 111.758 326.661 111.758 326.556 111.769C326.406 111.06 325.639 110.894 324.993 110.979C324.742 110.672 324.196 110.155 323.776 110.13C323.41 109.265 322.739 108.576 321.857 108.254C321.086 106.479 314.979 102.714 316.652 101.06L323.981 93.8147C327.994 89.8479 334.511 90.8585 338.398 94.77L344.274 100.683C344.725 101.135 345.101 101.527 344.975 102.151C344.785 103.111 337.461 110.451 336.014 110.999V110.994Z" fill="white" fill-opacity="0.9"/>
<path d="M316.296 70.879C317.619 72.0656 319.733 70.3009 320.725 72.146V81.4321C319.953 82.0053 320.389 83.1063 320.359 83.9409C320.344 84.4135 320.314 84.9364 320.254 85.409C319.512 85.6755 319.492 86.6559 318.976 87.3044L316.897 89.9088C316.762 90.0797 316.336 90.1601 316.336 90.4719C316.036 90.5071 315.59 90.502 315.545 90.8791C314.834 90.9897 314.077 91.3869 313.341 91.4372C313.08 91.4573 312.765 91.3165 312.464 91.5428C312.299 91.6685 312.179 91.8344 312.384 92.0506L303.127 92.0857C302.29 91.4623 301.208 91.7791 300.221 91.7388C298.949 87.9731 300.056 83.6795 299.66 79.6473C299.891 79.8735 299.981 79.6473 300.061 79.5266C299.855 79.8233 301.218 72.0706 308.923 71.2209C309.879 71.1154 310.796 71.588 311.372 70.874H316.291L316.296 70.879Z" fill="white" fill-opacity="0.9"/>
<path d="M320.645 132.076C316.817 132.272 313.391 132.247 309.709 132.146C304.249 132 299.891 127.521 299.86 122.041C299.84 118.421 299.75 115.117 299.946 111.407C303.858 111.291 307.49 111.216 311.272 111.392C316.807 111.648 320.775 116.123 320.73 121.603L320.645 132.076Z" fill="white" fill-opacity="0.9"/>
<path d="M87.627 0.0639087C90.2119 0.632035 92.7016 1.50685 95.0059 2.80901C95.2564 2.94979 95.4367 3.25648 95.7573 3.28162C96.0028 4.24693 97.1049 4.61395 97.7811 5.2776C98.0717 5.76026 98.1368 6.38369 98.5876 6.7859C98.6978 6.88142 98.6177 7.2032 98.7029 7.349C98.8331 7.56519 98.9934 7.94729 99.319 7.68082C99.3541 7.89199 99.319 8.1484 99.3841 8.3495C99.6597 9.16901 99.5394 10.1997 100.221 10.798L100.236 11.4566C100.251 12.1605 99.9151 13.1006 100.546 13.5883V14.2017C100.206 14.1615 100.216 14.619 100.191 14.8754C100.171 15.0715 100.131 15.6044 100.506 15.5139C100.451 16.7558 99.6597 18.1434 99.7298 19.4154C99.334 19.7271 99.0435 20.2098 98.7279 20.7528C94.4749 28.0378 85.3728 29.5864 78.6502 24.9458C76.6013 22.8644 74.4974 20.7477 73.8562 17.8367C72.1179 11.0494 75.1035 3.99554 81.8261 1.29569C82.6777 0.953806 83.4392 0.682312 83.9652 0.0639087C85.1223 0.385679 86.4899 -0.182447 87.6321 0.0639087H87.627Z" fill="white" fill-opacity="0.9"/>
<path d="M40.298 111.301L42.6424 111.281L49.2298 111.482C49.7808 113.116 49.5254 114.675 49.6155 116.173C49.6807 117.254 49.4352 118.526 49.5654 119.602C49.0495 119.884 49.0645 120.98 49.5705 121.261C49.4502 122.599 49.2899 124.207 48.8942 125.489C48.5285 125.61 48.4584 126.017 48.4333 126.359C48.4283 126.46 48.4183 126.56 48.4233 126.661C48.2129 126.515 48.0376 126.606 47.9123 126.731C47.6468 126.998 47.742 127.335 47.6769 127.591C47.5416 128.134 46.9555 128.541 46.8854 129.039C46.6951 128.964 46.5047 129.009 46.3544 129.109C46.0939 129.285 45.9336 129.572 46.0488 129.863C45.8034 129.924 45.593 130.16 45.3575 130.251C44.6412 130.361 43.6393 130.537 43.7094 131.417C43.6143 131.417 43.5091 131.412 43.4139 131.422C43.1484 131.457 39.8322 131.859 40.5285 132.503L32.3381 132.594C31.8572 132.599 31.1709 132.704 30.715 132.578C30.0187 132.387 29.2523 132.282 28.5109 131.804L28.4558 122.392C28.4458 120.824 28.7764 119.426 29.1521 118.109C29.2523 117.757 29.3425 117.365 29.3775 116.998C29.6831 117.249 29.8735 116.827 29.9536 116.631C30.0338 116.435 30.0638 116.254 30.0638 116.088C31.4264 114.544 32.7288 112.785 34.7476 112.252C36.561 111.769 38.3894 111.316 40.293 111.296L40.298 111.301Z" fill="white" fill-opacity="0.9"/>
<path d="M28.9318 107.103C27.7897 107.62 27.1835 108.495 26.4171 109.274C22.1992 113.553 15.6669 113.91 11.3688 109.702C10.8579 109.204 10.3169 108.847 9.79088 108.646C8.3131 106.032 5.89356 104.734 4 102.201C6.78523 99.2141 9.42519 96.0416 12.5861 93.563C16.8942 90.1894 22.7352 91.2503 26.357 94.9657C28.6964 97.3639 30.8705 99.5459 33.0145 102.06C32.9193 103.508 29.6832 105.353 28.9368 107.097L28.9318 107.103Z" fill="white" fill-opacity="0.9"/>
<path d="M38.2138 92.1653C37.0516 92.2508 35.9997 91.6625 34.8525 91.6072C35.0429 91.2151 34.4918 91.0391 34.0911 90.833L32.0021 89.742C31.7767 89.6263 31.4411 89.8124 31.1806 89.7671C31.4211 89.2844 31.2307 88.6459 30.845 88.1482C28.0197 84.5383 28.4104 79.4855 28.5857 74.659C28.6158 73.8143 28.0397 71.6424 29.3922 71.4815C32.7235 71.0742 36.0397 71.2502 39.5112 71.3357C44.3804 71.4513 48.8588 75.4282 49.2295 80.3101C49.5351 84.3473 49.2495 88.0677 49.2846 92.2005L38.2138 92.1703V92.1653Z" fill="white" fill-opacity="0.9"/>
<path d="M229.083 4.92098C230.491 7.21863 231.668 9.60677 232.164 12.2865C232.329 13.1865 232.364 14.9763 232.184 15.8662C230.756 22.7994 225.05 27.9678 217.631 27.5857C211.47 27.2639 206.831 22.739 205.173 17.0879C205.113 16.7058 205.118 16.3137 205.083 15.9265C205.058 15.645 205.213 15.0417 204.807 15.0165L204.797 12.7692C205.198 12.744 205.063 12.1407 205.083 11.8592L205.173 10.4263C205.729 9.74754 205.889 8.84759 205.97 7.99289C208.98 2.31162 215.282 -1.10719 221.669 0.461444C224.75 1.21559 226.944 2.97528 229.083 4.92098Z" fill="white" fill-opacity="0.9"/>
<path d="M188.272 48.847C187.936 48.9877 187.761 49.3045 187.58 49.7067C185.351 54.6288 180.808 57.9923 175.397 58.0375C172.011 58.0627 168.845 57.3638 166.385 55.1718C161.531 50.8329 159.848 43.94 162.859 38.1431C165.865 32.3612 172.502 29.4804 178.844 31.3105C184.785 33.0249 188.983 38.7011 188.602 45.2723C188.532 46.4689 187.936 47.7861 188.272 48.852V48.847Z" fill="white" fill-opacity="0.9"/>
<path d="M143.637 16.5594C142.811 17.2834 143.202 18.309 142.896 18.9124C140.777 23.0602 137.586 26.0567 133.583 27.1024C129.285 28.2236 124.236 27.4192 121.01 24.4629C116.086 19.9481 114.898 13.0702 117.844 7.4895C120.794 1.8937 127.267 -1.19831 133.433 0.576455C140.737 2.67802 144.299 9.36481 143.637 16.5695V16.5594Z" fill="white" fill-opacity="0.9"/>
</g>
<defs>
<filter id="filter0_d_213_947" x="0" y="0" width="349" height="204.636" filterUnits="userSpaceOnUse" color-interpolation-filters="sRGB">
<feFlood flood-opacity="0" result="BackgroundImageFix"/>
<feColorMatrix in="SourceAlpha" type="matrix" values="0 0 0 0 0 0 0 0 0 0 0 0 0 0 0 0 0 0 127 0" result="hardAlpha"/>
<feOffset dy="4"/>
<feGaussianBlur stdDeviation="2"/>
<feComposite in2="hardAlpha" operator="out"/>
<feColorMatrix type="matrix" values="0 0 0 0 0 0 0 0 0 0 0 0 0 0 0 0 0 0 0.7 0"/>
<feBlend mode="normal" in2="BackgroundImageFix" result="effect1_dropShadow_213_947"/>
<feBlend mode="normal" in="SourceGraphic" in2="effect1_dropShadow_213_947" result="shape"/>
</filter>
</defs>
</svg>
