<svg width="235" height="76" viewBox="0 0 235 76" fill="none" xmlns="http://www.w3.org/2000/svg">
<g filter="url(#filter0_d_98_4839)">
<path d="M196.701 39.9449H168.565C168.126 43.067 168.471 45.9495 168.376 48.9953C168.355 49.7286 169 50.2078 169.74 50.2078L200.874 50.2223C201.726 50.2223 202.585 50.7052 202.585 51.6019C202.578 55.9873 202.748 60.2493 202.476 64.6456C199.54 65.2265 196.919 65.0958 193.971 65.0958L153.455 65.103C152.548 65.103 151.881 65.0849 151.105 64.6638L151.116 29.0576L151.334 1.08231L200.486 1.14039C201.371 1.14039 201.831 1.88824 201.824 2.57437L201.719 14.5435C201.708 15.6072 201.088 16.1445 200.026 16.1481L168.547 16.1881C168.467 19.6587 168.3 22.7444 168.583 26.0807L196.556 26.1533C197.731 26.1533 198.369 26.8068 198.365 27.9576L198.34 38.4782C198.34 39.3931 197.803 39.9413 196.698 39.9413L196.701 39.9449Z" fill="white"/>
<path d="M97.0588 46.327C91.9326 46.9187 87.3212 46.661 82.3835 46.8243C81.6113 47.5831 81.8107 48.6939 81.7925 49.7213L81.517 64.8779L65.6598 65.1284C64.8477 65.1429 64.3402 64.7146 64.2604 63.8542L64.2749 2.28754C64.2749 1.65587 64.7462 1.07138 65.3589 1.07501L91.7658 1.1694C96.3845 1.18755 100.662 2.0552 104.81 3.70337C113.395 7.11587 118.691 15.0554 118.263 24.349C118.097 27.9684 117.828 31.6568 115.932 34.8189C111.912 41.5204 104.944 45.423 97.0625 46.3342L97.0588 46.327ZM100.684 25.1695C101.152 20.0834 98.1899 16.326 93.2123 15.9121C89.558 15.6072 85.9182 15.6253 81.9557 15.7415V32.5935C86.288 32.7532 90.3302 32.9456 94.3652 32.4083C98.1102 31.911 100.343 28.8688 100.684 25.1695Z" fill="white"/>
<path d="M51.3651 60.4852C41.5223 67.194 28.0216 66.9871 17.1891 63.0591C14.6151 62.1261 4.10524 57.2941 4.0001 55.3555C3.96747 54.7783 11.7474 45.383 13.2556 44.5226C14.3214 44.3411 15.6918 45.285 16.6489 45.8949C22.8156 49.8048 30.1134 51.7905 37.3205 50.5308C39.2565 50.1932 40.7936 48.7592 41.1126 47.3216C42.1205 42.7656 37.0486 41.4296 33.4741 40.5365C21.989 37.6613 6.90037 34.9604 7.2339 19.6186C7.51305 6.77818 18.0156 0.617522 29.8125 0.0511915C39.2819 -0.402599 48.4249 2.15678 56.0418 7.8818C56.6653 8.35011 55.9765 9.55538 55.6792 9.98375L49.2914 19.1794C48.7984 19.8909 47.8594 20.2539 47.0945 19.6912C39.9779 14.449 24.94 12.2164 24.4796 18.8672C24.3672 20.4863 25.3606 22.0945 27.0427 22.8605C32.4916 25.34 40.3223 25.5724 48.2074 29.1301C55.4762 32.4119 59.1088 39.3603 58.4309 47.2272C57.9632 52.6582 55.9874 57.3377 51.3687 60.4852H51.3651Z" fill="white"/>
<path d="M141.89 64.9542L124.506 65.1611C123.952 65.1684 123.716 64.0648 123.716 63.4912V2.59252C123.716 2.07338 123.868 1.75754 123.962 1.48527C124.06 1.19847 124.626 1.03148 125.123 1.03511L140.719 1.10045C141.455 1.10045 141.955 1.82652 141.955 2.53806L141.893 28.3424V64.9542H141.89Z" fill="white"/>
<path d="M229.043 51.119C231.573 54.4735 231.57 59.0477 229.496 62.4892C227.422 65.9308 223.601 67.8294 219.338 67.4156C213.653 66.8638 209.368 61.6978 210.082 55.9728C210.63 51.5801 213.82 48.3419 217.576 47.3072C221.821 46.1346 226.295 47.4815 229.043 51.1227V51.119Z" fill="white"/>
</g>
<defs>
<filter id="filter0_d_98_4839" x="0" y="0" width="235" height="75.4717" filterUnits="userSpaceOnUse" color-interpolation-filters="sRGB">
<feFlood flood-opacity="0" result="BackgroundImageFix"/>
<feColorMatrix in="SourceAlpha" type="matrix" values="0 0 0 0 0 0 0 0 0 0 0 0 0 0 0 0 0 0 127 0" result="hardAlpha"/>
<feOffset dy="4"/>
<feGaussianBlur stdDeviation="2"/>
<feComposite in2="hardAlpha" operator="out"/>
<feColorMatrix type="matrix" values="0 0 0 0 0 0 0 0 0 0 0 0 0 0 0 0 0 0 0.7 0"/>
<feBlend mode="normal" in2="BackgroundImageFix" result="effect1_dropShadow_98_4839"/>
<feBlend mode="normal" in="SourceGraphic" in2="effect1_dropShadow_98_4839" result="shape"/>
</filter>
</defs>
</svg>
