<svg width="244" height="305" viewBox="0 0 244 305" fill="none" xmlns="http://www.w3.org/2000/svg">
<g opacity="0.59" filter="url(#filter0_d_98_4620)">
<path d="M164.063 274.19C164.943 273.44 166.053 273.15 167.133 273.64C168.673 274.33 174.563 281.37 176.713 283.18C213.443 314.12 253.323 275.95 237.163 234.56C235.903 231.32 232.493 227.16 232.913 223.76C233.223 221.29 237.853 218.43 239.743 216.08C252.133 200.69 251.143 176.32 238.793 161.26C237.363 159.52 230.973 154.16 230.933 152.71C230.893 151.06 237.153 144.87 238.693 142.71C249.703 127.22 249.713 107.34 238.133 92.2303C236.463 90.0503 232.233 87.3103 232.183 84.3303C232.143 82.0903 239.833 73.3903 241.563 69.9803C258.093 37.3303 227.873 -5.90967 191.313 0.670327C158.963 6.49033 161.413 46.1503 177.393 67.5003C179.123 69.8103 188.053 78.6203 188.213 79.7603C188.733 83.5903 183.133 86.0003 180.953 88.2703C167.863 101.91 168.473 123.78 178.043 139.16C179.873 142.11 186.693 148.94 186.863 151.42C187.033 153.9 182.293 157.83 180.683 160.31C173.643 171.08 174.543 184.44 180.053 195.67C181.553 198.73 187.113 204.34 184.943 207.31C183.953 208.66 172.033 213.25 168.453 216.45C165.723 218.89 159.603 229.59 158.823 229.85C155.943 230.82 151.433 226.39 148.753 224.99C133.593 217.03 115.913 216.79 103.023 229.25C101.323 230.89 97.0835 237.84 95.1635 237.85C93.2435 237.86 89.7234 231.34 88.2435 229.63C57.5034 194.12 -17.0665 217.2 9.69345 268.08C23.8035 294.91 67.9435 307.66 89.5635 282.84C91.0235 281.17 95.1335 273.92 97.0235 274.08C99.2135 274.26 101.273 279.16 102.743 280.87C117.713 298.29 141.803 299.59 157.943 282.85C159.923 280.79 162.623 275.4 164.053 274.18L164.063 274.19Z" fill="black"/>
</g>
<defs>
<filter id="filter0_d_98_4620" x="0" y="0" width="252.56" height="304.152" filterUnits="userSpaceOnUse" color-interpolation-filters="sRGB">
<feFlood flood-opacity="0" result="BackgroundImageFix"/>
<feColorMatrix in="SourceAlpha" type="matrix" values="0 0 0 0 0 0 0 0 0 0 0 0 0 0 0 0 0 0 127 0" result="hardAlpha"/>
<feOffset dy="4"/>
<feGaussianBlur stdDeviation="2"/>
<feComposite in2="hardAlpha" operator="out"/>
<feColorMatrix type="matrix" values="0 0 0 0 0 0 0 0 0 0 0 0 0 0 0 0 0 0 0.25 0"/>
<feBlend mode="normal" in2="BackgroundImageFix" result="effect1_dropShadow_98_4620"/>
<feBlend mode="normal" in="SourceGraphic" in2="effect1_dropShadow_98_4620" result="shape"/>
</filter>
</defs>
</svg>
