<svg width="640" height="960" viewBox="0 0 640 960" fill="none" xmlns="http://www.w3.org/2000/svg">
<g clip-path="url(#clip0_213_501)">
<rect width="640" height="960" fill="white"/>
<path d="M640 0H0V960H640V0Z" fill="#000072"/>
<path d="M76.1448 292.411C65.1742 291.099 55.2998 284.373 50.2536 274.65C47.0833 268.53 45.0618 255.165 38.6313 252.469C30.6986 249.148 14.6428 250.185 5.67314 249.584C-11.5783 248.423 -26.6038 245.145 -34.4461 228.176C-48.4291 197.949 -14.7282 178.528 11.3122 178.145C43.1375 177.671 62.7856 193.361 82.2293 216.168C86.7192 221.437 89.5634 228.605 97.7181 229.036C101.488 229.231 111.237 226.063 111.625 221.725C112.062 216.81 96.7126 204.072 93.3117 199.013C85.4015 187.258 86.0696 174.475 96.7229 164.721C101.429 160.415 111.078 156.442 110.965 149.168C110.888 144.274 97.416 133.483 93.7351 129.162C43.2915 70.1071 136.74 -23.8608 200.357 -8.99705C223.893 -3.50563 231.214 22.7126 210.106 36.9536C189.351 50.9427 142.68 50.6128 135.136 79.202C123.531 123.248 181.889 110.216 188.559 142.303C192.841 162.908 171.86 170.3 161.213 182.722C156.529 188.188 156.219 191.015 160.373 196.989C165.027 203.695 172.339 209.067 176.838 216.565C191.305 240.667 174.86 273.109 146.404 273.28C139.287 273.319 133.202 270.759 126.379 270.379C105.896 269.25 101.448 295.437 76.143 292.423L76.1448 292.411Z" fill="#0A69ED"/>
<path d="M480.87 867.801C483.177 864.334 471.784 856.841 468.981 854.691C434.118 828.019 344.221 786.574 348.563 734.454C352.632 685.575 417.283 698.828 445.368 718.659C477.025 740.997 493.173 778.19 519.98 799.376C537.216 813.009 537.051 795.255 536.412 781.86C535.714 767.301 532.106 753.608 533.478 738.693C536.01 711.154 555.032 688.876 581.378 681.656C660.911 659.853 637.76 778.19 633.962 821.013C631.36 850.357 632.211 878.062 623.966 906.812C615.188 937.415 609.367 952.306 574.918 954.456C541.156 956.558 505.251 953.173 471.193 954.42C427.871 956.011 321.188 972.459 289.484 940.075C269.444 919.602 284.385 897.193 304.496 884.985C346.055 859.75 401.372 867.742 447.592 868.977C452.087 869.096 479.758 869.535 480.905 867.813L480.87 867.801Z" fill="#0A69ED"/>
<path d="M561.289 98.8928C585.958 115.23 618.68 147.796 623.945 176.81C625.529 185.536 621.768 193.332 613.52 196.76C600.687 203.092 581.58 200 566.746 198.25C571.327 223.851 574.216 248.609 573.678 274.023C573.644 275.592 571.831 274.85 571.211 274.643C570.143 274.286 569.8 273.104 569.533 271.693C564.633 245.644 557.772 220.314 550.043 194.514C524.374 187.967 499.9 179.809 475.288 169.401C477.608 185.867 479.158 201.557 478.925 217.827C476.307 218.346 474.193 216.653 473.196 214.162C469.27 197.08 465.749 180.351 460.461 163.186L437.432 151.469C427.559 161.669 419.349 172.724 411.623 184.539L406.471 192.414C404.466 192.723 402.773 192.64 400.927 191.571C407.407 175.399 415.96 160.484 426.48 145.531C404.308 132.151 379.496 116.581 363.624 96.4283C355.782 86.3104 350.58 73.1524 360.265 62.3422C378.875 41.5685 424.866 43.924 449.584 49.8539C449.509 50.9865 449.024 53.3645 448.004 53.658C430.444 50.7645 402.988 50.6366 388.598 62.2482C381.429 68.0352 379.421 76.9226 383.137 85.3434C391.956 105.331 415.772 122.831 434.333 134.303C438.549 129.303 442.175 124.69 446.492 120.178L442.664 110.516C435.638 92.7747 427.706 75.9292 417.603 59.2606L442.543 67.5573C449.426 80.1848 454.823 92.9478 459.675 106.885C473.614 93.8433 488.433 82.6155 504.936 72.6218C500.589 63.2076 495.85 55.1141 490.704 45.5269L518.262 52.6985C521.342 56.9578 523.388 61.4317 525.938 66.0635C531.016 75.7825 534.713 85.6783 539.241 96.2251C548.099 85.4224 556.746 76.2453 566.863 67.6476C576.254 59.4299 585.89 52.2432 596.809 46.2079L621.083 53.0146C598.889 67.0343 581.197 81.1142 561.285 98.8928H561.289ZM521.143 171.294C528.992 173.224 536.481 175.2 544.477 175.441C535.006 146.547 525.149 119.618 513.579 91.8604C496.519 101.888 480.726 112.924 465.351 125.096C468.363 134.992 470.458 144.338 472.677 154.343C488.591 161.447 504.406 167.174 521.143 171.294ZM592.119 153.467C590.818 145.249 587.511 138.314 583.325 131.496C576.747 120.317 568.386 110.741 558.382 101.76C553.594 105.948 549.415 110.064 545.146 114.7C551.371 135.477 557.11 155.513 562.188 176.709C568.807 176.584 575.371 175.779 581.234 173.115C589.133 169.526 593.537 162.399 592.123 153.459L592.119 153.467ZM454.887 145.682C454.248 142.25 453.21 139.853 451.976 137.453L447 141.652C449.832 143.085 451.908 144.681 454.887 145.678V145.682Z" fill="white" fill-opacity="0.9"/>
<path d="M473.678 73.5819C470.026 75.6176 466.727 75.9825 463.03 74.5414C460.115 73.4051 457.456 70.933 456.369 67.065C453.831 58.0045 457.975 47.977 466.562 44.0977C473.358 41.0273 480.444 43.9584 482.859 50.9946C485.792 59.5397 481.745 69.0856 473.678 73.5782V73.5819Z" fill="white" fill-opacity="0.9"/>
<path d="M549.686 59.5695C543.044 61.0256 537.853 57.1538 536.371 51.1147C534.284 42.5998 538.786 33.4678 546.959 30.0137C552.315 27.7486 559.179 29.2724 561.849 34.6568C566.829 44.6919 560.822 57.135 549.686 59.5732V59.5695Z" fill="white" fill-opacity="0.9"/>
</g>
<defs>
<clipPath id="clip0_213_501">
<rect width="640" height="960" fill="white"/>
</clipPath>
</defs>
</svg>
