<svg width="159" height="172" viewBox="0 0 159 172" fill="none" xmlns="http://www.w3.org/2000/svg">
<g filter="url(#filter0_d_98_2952)">
<path d="M33.1555 163.169C24.0467 162.079 15.848 156.494 11.6582 148.422C9.02599 143.34 7.34752 132.243 2.00836 130.005C-4.57813 127.247 -17.9092 128.109 -25.3566 127.61C-39.6803 126.646 -52.1559 123.924 -58.6673 109.835C-70.2773 84.7376 -42.2957 68.6122 -20.6745 68.2941C5.7498 67.9007 22.0635 80.9278 38.2074 99.8641C41.9354 104.239 44.2969 110.19 51.0677 110.549C54.1979 110.71 62.2919 108.08 62.6144 104.479C62.9777 100.398 50.2328 89.8213 47.409 85.6211C40.8413 75.8607 41.396 65.2471 50.2414 57.1483C54.1488 53.5734 62.1602 50.2742 62.0661 44.2349C62.0022 40.1715 50.8168 31.2116 47.7606 27.6238C5.87762 -21.409 83.4674 -99.4298 136.288 -87.0886C155.83 -82.5291 161.909 -60.7603 144.382 -48.9361C127.149 -37.321 88.3995 -37.5949 82.1354 -13.8575C72.4999 22.7139 120.955 11.8928 126.492 38.535C130.048 55.6427 112.627 61.7808 103.787 72.0943C99.8983 76.6324 99.6408 78.98 103.09 83.9403C106.954 89.5082 113.025 93.9682 116.761 100.194C128.772 120.205 115.118 147.142 91.491 147.284C85.5821 147.316 80.5294 145.191 74.8643 144.876C57.8576 143.938 54.1643 165.681 33.154 163.179L33.1555 163.169Z" fill="#0A69ED"/>
</g>
<defs>
<filter id="filter0_d_98_2952" x="-65.3881" y="-88.3936" width="224.123" height="259.773" filterUnits="userSpaceOnUse" color-interpolation-filters="sRGB">
<feFlood flood-opacity="0" result="BackgroundImageFix"/>
<feColorMatrix in="SourceAlpha" type="matrix" values="0 0 0 0 0 0 0 0 0 0 0 0 0 0 0 0 0 0 127 0" result="hardAlpha"/>
<feOffset dy="4"/>
<feGaussianBlur stdDeviation="2"/>
<feComposite in2="hardAlpha" operator="out"/>
<feColorMatrix type="matrix" values="0 0 0 0 0 0 0 0 0 0 0 0 0 0 0 0 0 0 0.25 0"/>
<feBlend mode="normal" in2="BackgroundImageFix" result="effect1_dropShadow_98_2952"/>
<feBlend mode="normal" in="SourceGraphic" in2="effect1_dropShadow_98_2952" result="shape"/>
</filter>
</defs>
</svg>
