<svg width="640" height="960" viewBox="0 0 640 960" fill="none" xmlns="http://www.w3.org/2000/svg">
<g clip-path="url(#clip0_213_501)">
<rect width="640" height="960" fill="white"/>
<path d="M640 0H0V960H640V0Z" fill="#000072"/>
<g filter="url(#filter0_d_213_501)">
<path d="M76.1448 292.411C65.1742 291.099 55.2998 284.373 50.2536 274.65C47.0833 268.53 45.0618 255.165 38.6314 252.469C30.6986 249.148 14.6428 250.185 5.67313 249.584C-11.5783 248.423 -26.6038 245.145 -34.4461 228.176C-48.4291 197.949 -14.7282 178.528 11.3122 178.145C43.1375 177.671 62.7856 193.361 82.2293 216.168C86.7192 221.437 89.5634 228.605 97.7181 229.036C101.488 229.231 111.237 226.063 111.625 221.725C112.062 216.81 96.7126 204.072 93.3117 199.013C85.4015 187.258 86.0696 174.475 96.7229 164.721C101.429 160.415 111.078 156.442 110.965 149.168C110.888 144.274 97.416 133.483 93.7351 129.162C43.2915 70.1071 136.74 -23.8608 200.357 -8.99706C223.893 -3.50562 231.214 22.7126 210.106 36.9536C189.351 50.9427 142.68 50.6128 135.136 79.202C123.531 123.248 181.889 110.216 188.559 142.303C192.841 162.908 171.86 170.3 161.213 182.722C156.529 188.188 156.219 191.015 160.373 196.989C165.027 203.695 172.339 209.067 176.838 216.565C191.305 240.667 174.86 273.109 146.404 273.28C139.287 273.319 133.202 270.759 126.379 270.379C105.896 269.25 101.448 295.437 76.143 292.423L76.1448 292.411Z" fill="#0A69ED"/>
</g>
<g filter="url(#filter1_d_213_501)">
<path d="M480.87 867.802C483.177 864.334 471.784 856.841 468.981 854.691C434.118 828.019 344.221 786.574 348.563 734.454C352.632 685.575 417.283 698.828 445.368 718.659C477.025 740.997 493.173 778.19 519.98 799.376C537.216 813.009 537.051 795.255 536.412 781.86C535.714 767.301 532.106 753.608 533.478 738.693C536.01 711.154 555.032 688.876 581.378 681.656C660.911 659.853 637.76 778.19 633.962 821.013C631.36 850.357 632.211 878.062 623.966 906.812C615.188 937.415 609.367 952.306 574.918 954.456C541.156 956.558 505.251 953.173 471.193 954.42C427.871 956.011 321.188 972.459 289.484 940.075C269.444 919.602 284.385 897.193 304.496 884.985C346.055 859.75 401.372 867.742 447.592 868.977C452.087 869.096 479.758 869.535 480.905 867.813L480.87 867.802Z" fill="#0A69ED"/>
</g>
<g filter="url(#filter2_d_213_501)">
<path d="M555.289 254.893C579.958 271.23 612.68 303.796 617.945 332.81C619.529 341.536 615.768 349.332 607.52 352.76C594.687 359.092 575.58 356 560.746 354.25C565.327 379.851 568.216 404.609 567.678 430.023C567.644 431.592 565.831 430.85 565.211 430.643C564.143 430.286 563.8 429.104 563.533 427.693C558.633 401.644 551.772 376.314 544.043 350.514C518.374 343.967 493.9 335.809 469.288 325.401C471.608 341.867 473.158 357.557 472.925 373.827C470.307 374.346 468.193 372.653 467.196 370.162C463.27 353.08 459.749 336.351 454.461 319.186L431.432 307.469C421.559 317.669 413.349 328.724 405.623 340.539L400.471 348.414C398.466 348.723 396.773 348.64 394.927 347.571C401.407 331.399 409.96 316.484 420.48 301.531C398.308 288.151 373.496 272.581 357.624 252.428C349.782 242.31 344.58 229.152 354.265 218.342C372.875 197.569 418.866 199.924 443.584 205.854C443.509 206.986 443.024 209.364 442.004 209.658C424.444 206.764 396.988 206.637 382.598 218.248C375.429 224.035 373.421 232.923 377.137 241.343C385.956 261.331 409.772 278.831 428.333 290.303C432.549 285.303 436.175 280.69 440.492 276.178L436.664 266.516C429.638 248.775 421.706 231.929 411.603 215.261L436.543 223.557C443.426 236.185 448.823 248.948 453.675 262.885C467.614 249.843 482.433 238.615 498.936 228.622C494.589 219.208 489.85 211.114 484.704 201.527L512.262 208.699C515.342 212.958 517.388 217.432 519.938 222.064C525.016 231.782 528.713 241.678 533.241 252.225C542.099 241.422 550.746 232.245 560.863 223.648C570.254 215.43 579.89 208.243 590.809 202.208L615.083 209.015C592.889 223.034 575.197 237.114 555.285 254.893H555.289ZM515.143 327.294C522.992 329.224 530.481 331.2 538.477 331.441C529.006 302.547 519.149 275.618 507.579 247.86C490.519 257.888 474.726 268.924 459.351 281.096C462.363 290.992 464.458 300.338 466.677 310.343C482.591 317.447 498.406 323.174 515.143 327.294ZM586.119 309.467C584.817 301.249 581.511 294.314 577.325 287.496C570.747 276.317 562.386 266.741 552.382 257.76C547.594 261.948 543.415 266.064 539.146 270.7C545.371 291.477 551.11 311.513 556.188 332.709C562.807 332.584 569.371 331.779 575.234 329.115C583.133 325.526 587.537 318.399 586.123 309.459L586.119 309.467ZM448.887 301.682C448.248 298.25 447.21 295.853 445.976 293.453L441 297.652C443.832 299.085 445.908 300.681 448.887 301.678V301.682Z" fill="white" fill-opacity="0.9"/>
<path d="M467.678 229.582C464.026 231.618 460.727 231.983 457.03 230.541C454.115 229.405 451.456 226.933 450.369 223.065C447.831 214.004 451.975 203.977 460.562 200.098C467.358 197.027 474.444 199.958 476.859 206.995C479.792 215.54 475.745 225.086 467.678 229.578V229.582Z" fill="white" fill-opacity="0.9"/>
<path d="M543.686 215.569C537.044 217.026 531.853 213.154 530.371 207.115C528.284 198.6 532.786 189.468 540.959 186.014C546.315 183.749 553.179 185.272 555.849 190.657C560.829 200.692 554.822 213.135 543.686 215.573V215.569Z" fill="white" fill-opacity="0.9"/>
</g>
</g>
<defs>
<filter id="filter0_d_213_501" x="-41.7229" y="-10.5688" width="268.298" height="311.234" filterUnits="userSpaceOnUse" color-interpolation-filters="sRGB">
<feFlood flood-opacity="0" result="BackgroundImageFix"/>
<feColorMatrix in="SourceAlpha" type="matrix" values="0 0 0 0 0 0 0 0 0 0 0 0 0 0 0 0 0 0 127 0" result="hardAlpha"/>
<feOffset dy="4"/>
<feGaussianBlur stdDeviation="2"/>
<feComposite in2="hardAlpha" operator="out"/>
<feColorMatrix type="matrix" values="0 0 0 0 0 0 0 0 0 0 0 0 0 0 0 0 0 0 0.25 0"/>
<feBlend mode="normal" in2="BackgroundImageFix" result="effect1_dropShadow_213_501"/>
<feBlend mode="normal" in="SourceGraphic" in2="effect1_dropShadow_213_501" result="shape"/>
</filter>
<filter id="filter1_d_213_501" x="276" y="679" width="368" height="289" filterUnits="userSpaceOnUse" color-interpolation-filters="sRGB">
<feFlood flood-opacity="0" result="BackgroundImageFix"/>
<feColorMatrix in="SourceAlpha" type="matrix" values="0 0 0 0 0 0 0 0 0 0 0 0 0 0 0 0 0 0 127 0" result="hardAlpha"/>
<feOffset dy="4"/>
<feGaussianBlur stdDeviation="2"/>
<feComposite in2="hardAlpha" operator="out"/>
<feColorMatrix type="matrix" values="0 0 0 0 0 0 0 0 0 0 0 0 0 0 0 0 0 0 0.25 0"/>
<feBlend mode="normal" in2="BackgroundImageFix" result="effect1_dropShadow_213_501"/>
<feBlend mode="normal" in="SourceGraphic" in2="effect1_dropShadow_213_501" result="shape"/>
</filter>
<filter id="filter2_d_213_501" x="345" y="185" width="277.3" height="254" filterUnits="userSpaceOnUse" color-interpolation-filters="sRGB">
<feFlood flood-opacity="0" result="BackgroundImageFix"/>
<feColorMatrix in="SourceAlpha" type="matrix" values="0 0 0 0 0 0 0 0 0 0 0 0 0 0 0 0 0 0 127 0" result="hardAlpha"/>
<feOffset dy="4"/>
<feGaussianBlur stdDeviation="2"/>
<feComposite in2="hardAlpha" operator="out"/>
<feColorMatrix type="matrix" values="0 0 0 0 0 0 0 0 0 0 0 0 0 0 0 0 0 0 0.7 0"/>
<feBlend mode="normal" in2="BackgroundImageFix" result="effect1_dropShadow_213_501"/>
<feBlend mode="normal" in="SourceGraphic" in2="effect1_dropShadow_213_501" result="shape"/>
</filter>
<clipPath id="clip0_213_501">
<rect width="640" height="960" fill="white"/>
</clipPath>
</defs>
</svg>
