<svg width="257" height="208" viewBox="0 0 257 208" fill="none" xmlns="http://www.w3.org/2000/svg">
<g filter="url(#filter0_d_401_3)">
<path d="M205.859 51.7085C224.11 63.7954 248.318 87.8884 252.214 109.354C253.385 115.809 250.603 121.577 244.501 124.113C235.007 128.798 220.871 126.51 209.897 125.215C213.286 144.155 215.423 162.472 215.025 181.273C215 182.434 213.659 181.886 213.2 181.733C212.41 181.468 212.156 180.594 211.959 179.55C208.333 160.279 203.258 141.539 197.54 122.451C178.549 117.607 160.443 111.572 142.234 103.872C143.95 116.054 145.097 127.662 144.924 139.699C142.988 140.083 141.424 138.83 140.687 136.987C137.782 124.349 135.177 111.973 131.265 99.2737L114.227 90.6053C106.923 98.1519 100.849 106.33 95.1334 115.071L91.3213 120.898C89.8382 121.126 88.586 121.065 87.2198 120.274C92.0141 108.31 98.3416 97.275 106.124 86.2126C89.7213 76.3137 71.3648 64.7947 59.6224 49.8852C53.8208 42.3998 49.9725 32.6651 57.1376 24.6675C70.9057 9.29869 104.931 11.0413 123.218 15.4284C123.162 16.2663 122.803 18.0256 122.049 18.2427C109.057 16.1021 88.7446 16.0074 78.0986 24.598C72.795 28.8793 71.3091 35.4544 74.0583 41.6844C80.5834 56.4714 98.2025 69.4184 111.934 77.906C115.054 74.2064 117.736 70.7936 120.93 67.4559L118.098 60.3074C112.9 47.1822 107.032 34.7195 99.5576 22.3877L118.009 28.5258C123.101 37.8679 127.094 47.3102 130.683 57.6211C140.995 47.9728 151.959 39.6662 164.168 32.2726C160.952 25.3078 157.446 19.32 153.639 12.2271L174.027 17.5329C176.306 20.6841 177.82 23.9939 179.706 27.4206C183.463 34.611 186.198 41.9321 189.548 49.7348C196.101 41.7428 202.498 34.9534 209.983 28.5926C216.931 22.513 224.06 17.1961 232.138 12.731L250.097 17.7667C233.677 28.1388 220.588 38.5555 205.857 51.7085H205.859ZM176.159 105.273C181.966 106.701 187.506 108.162 193.421 108.34C186.415 86.9642 179.122 67.0412 170.563 46.5057C157.941 53.9243 146.257 62.0889 134.882 71.0942C137.111 78.4154 138.661 85.3301 140.303 92.732C152.076 97.9877 163.776 102.224 176.159 105.273ZM228.668 92.0834C227.705 86.0038 225.259 80.8734 222.162 75.8293C217.296 67.5589 211.11 60.4744 203.709 53.8297C200.166 56.928 197.075 59.9733 193.917 63.4029C198.522 78.7745 202.768 93.5977 206.525 109.278C211.422 109.187 216.277 108.591 220.615 106.62C226.459 103.964 229.717 98.6919 228.671 92.0778L228.668 92.0834ZM127.141 86.3239C126.668 83.7852 125.9 82.0119 124.987 80.2359L121.306 83.3426C123.401 84.4032 124.937 85.5835 127.141 86.3211V86.3239Z" fill="white" fill-opacity="0.9"/>
<path d="M141.043 32.9825C138.341 34.4885 135.9 34.7585 133.165 33.6924C131.009 32.8517 129.041 31.0228 128.237 28.1611C126.359 21.458 129.425 14.0394 135.778 11.1694C140.806 8.89788 146.048 11.0664 147.835 16.2719C150.005 22.5937 147.011 29.656 141.043 32.9797V32.9825Z" fill="white" fill-opacity="0.9"/>
<path d="M197.275 22.616C192.361 23.6933 188.521 20.8288 187.425 16.361C185.881 10.0615 189.211 3.3054 195.258 0.749954C199.22 -0.925838 204.298 0.201564 206.274 4.18505C209.958 11.6092 205.514 20.8149 197.275 22.6188V22.616Z" fill="white" fill-opacity="0.9"/>
</g>
<g filter="url(#filter1_d_401_3)">
<path d="M4.82031 161.844H26.9688L27.3203 162.195L27.2969 167.703C27.2188 168.328 26.9453 168.641 26.4766 168.641H20.7578C20.2109 168.641 19.9375 168.914 19.9375 169.461V196.062C19.9375 196.688 19.7031 197 19.2344 197H12.2031C11.6562 197 11.3828 196.609 11.3828 195.828V174.617V169.109L10.7266 168.641H5.17188C4.39062 168.594 4 168.414 4 168.102V163.062V162.664C4.09375 162.117 4.36719 161.844 4.82031 161.844ZM31.6797 161.844H38.9453C39.2578 161.953 39.4141 162.305 39.4141 162.898L39.2969 188.328C39.7031 189.578 40.3672 190.203 41.2891 190.203H43.6328C44.2109 190.203 44.7969 189.734 45.3906 188.797V162.898C45.3906 162.305 45.5469 161.953 45.8594 161.844H53.125C53.6719 161.844 53.9453 162.156 53.9453 162.781V189.031C53.9453 191.938 52.5781 194.281 49.8438 196.062L47.1484 197H37.5391C34.9453 196.266 33.1484 195.094 32.1484 193.484C31.7734 193.484 31.3828 192.078 30.9766 189.266L30.8594 162.664C30.9531 162.117 31.2266 161.844 31.6797 161.844ZM58.3047 161.844H80.4531L80.8047 162.195L80.7812 167.703C80.7031 168.328 80.4297 168.641 79.9609 168.641H74.2422C73.6953 168.641 73.4219 168.914 73.4219 169.461V196.062C73.4219 196.688 73.1875 197 72.7188 197H65.6875C65.1406 197 64.8672 196.609 64.8672 195.828V174.617V169.109L64.2109 168.641H58.6562C57.875 168.594 57.4844 168.414 57.4844 168.102V163.062V162.664C57.5781 162.117 57.8516 161.844 58.3047 161.844ZM90.0859 161.844H101.688C103.078 162.125 104.445 162.945 105.789 164.305C106.961 165.961 107.547 167.289 107.547 168.289L107.664 171.453V186.453C107.664 190.594 107.352 192.664 106.727 192.664C106.148 194.055 104.898 195.344 102.977 196.531L101.688 197H90.0859C87.8828 196.266 86.1641 194.82 84.9297 192.664C84.5391 191.898 84.3438 190.727 84.3438 189.148V169.578C84.3438 165.672 86.2578 163.094 90.0859 161.844ZM92.8984 170.164V187.742C92.8984 189.227 93.3672 189.969 94.3047 189.969C97.2734 190.125 98.7578 189.734 98.7578 188.797L98.875 187.742V170.516C98.9531 169.344 98.4844 168.68 97.4688 168.523H93.9531C93.0938 168.836 92.7422 169.383 92.8984 170.164ZM111.555 161.844H127.492C129.523 162.328 131.164 163.344 132.414 164.891C133.352 165.938 133.82 167.891 133.82 170.75V173.445C133.82 176.117 133.352 177.875 132.414 178.719L131.945 179.305V179.539C133.273 180.789 133.938 182.508 133.938 184.695V196.297C133.734 196.766 133.422 197 133 197H126.438C125.812 197 125.5 196.648 125.5 195.945V184.578C125.266 183.25 124.602 182.586 123.508 182.586H120.227L119.758 183.055V195.711C119.758 196.57 119.445 197 118.82 197H112.211C111.758 197 111.445 196.648 111.273 195.945L111.203 162.195L111.555 161.844ZM119.758 168.992V175.906L120.109 176.258H123.742C124.664 176.258 125.25 175.555 125.5 174.148V170.398C125.219 169.148 124.438 168.523 123.156 168.523H120.227L119.758 168.992ZM137.922 161.844H158.195L158.547 162.195V167.469C158.547 168.016 158.273 168.289 157.727 168.289H146.125C145.656 168.289 145.422 168.523 145.422 168.992V175.086L145.773 175.438H155.617C156.32 175.438 156.672 175.711 156.672 176.258V181.297C156.672 181.766 156.438 182 155.969 182H146.125C145.656 182 145.422 182.234 145.422 182.703V188.562C145.422 189.891 146.438 190.555 148.469 190.555H158.312C158.859 190.555 159.133 190.828 159.133 191.375V196.648L158.781 197H143.664C141.43 196.406 139.75 195.234 138.625 193.484C137.844 191.906 137.453 190.383 137.453 188.914V163.25C137.453 162.312 137.609 161.844 137.922 161.844ZM168.883 161.844H183.883L184.234 162.195V167.703C184.234 168.125 184.078 168.398 183.766 168.523H173.102C171.852 168.883 171.227 169.547 171.227 170.516V172.977C171.227 174.273 172.398 175.094 174.742 175.438C175.336 175.438 177.797 176.023 182.125 177.195C184.234 178.461 185.289 180.57 185.289 183.523V188.445C185.289 192.305 183.609 194.961 180.25 196.414L177.32 197H164.078C163.656 197 163.305 196.766 163.023 196.297V190.438L163.727 189.852L164.547 189.969H174.859C176.109 189.719 176.734 189.094 176.734 188.094V185.164C176.734 184.102 176.227 183.398 175.211 183.055C168.18 181.57 164.664 180.516 164.664 179.891C163.336 178.75 162.672 176.953 162.672 174.5V169.461C162.672 166.242 164.273 163.859 167.477 162.312L168.883 161.844Z" fill="white"/>
</g>
<defs>
<filter id="filter0_d_401_3" x="49.2422" y="0" width="207.234" height="189.996" filterUnits="userSpaceOnUse" color-interpolation-filters="sRGB">
<feFlood flood-opacity="0" result="BackgroundImageFix"/>
<feColorMatrix in="SourceAlpha" type="matrix" values="0 0 0 0 0 0 0 0 0 0 0 0 0 0 0 0 0 0 127 0" result="hardAlpha"/>
<feOffset dy="4"/>
<feGaussianBlur stdDeviation="2"/>
<feComposite in2="hardAlpha" operator="out"/>
<feColorMatrix type="matrix" values="0 0 0 0 0 0 0 0 0 0 0 0 0 0 0 0 0 0 0.7 0"/>
<feBlend mode="normal" in2="BackgroundImageFix" result="effect1_dropShadow_401_3"/>
<feBlend mode="normal" in="SourceGraphic" in2="effect1_dropShadow_401_3" result="shape"/>
</filter>
<filter id="filter1_d_401_3" x="0" y="161.844" width="189.289" height="43.1562" filterUnits="userSpaceOnUse" color-interpolation-filters="sRGB">
<feFlood flood-opacity="0" result="BackgroundImageFix"/>
<feColorMatrix in="SourceAlpha" type="matrix" values="0 0 0 0 0 0 0 0 0 0 0 0 0 0 0 0 0 0 127 0" result="hardAlpha"/>
<feOffset dy="4"/>
<feGaussianBlur stdDeviation="2"/>
<feComposite in2="hardAlpha" operator="out"/>
<feColorMatrix type="matrix" values="0 0 0 0 0 0 0 0 0 0 0 0 0 0 0 0 0 0 0.7 0"/>
<feBlend mode="normal" in2="BackgroundImageFix" result="effect1_dropShadow_401_3"/>
<feBlend mode="normal" in="SourceGraphic" in2="effect1_dropShadow_401_3" result="shape"/>
</filter>
</defs>
</svg>
