<?xml version="1.0" encoding="utf-8"?>
<!-- Generator: Adobe Illustrator 28.4.1, SVG Export Plug-In . SVG Version: 6.00 Build 0)  -->
<svg version="1.1" xmlns="http://www.w3.org/2000/svg" xmlns:xlink="http://www.w3.org/1999/xlink" x="0px" y="0px"
	 viewBox="0 0 640 960" style="enable-background:new 0 0 640 960;" xml:space="preserve">
<style type="text/css">
	.st0{fill:url(#SVGID_1_);}
	.st1{opacity:0.6;fill:none;stroke:#FFFFFF;stroke-width:2;stroke-miterlimit:10;}
	.st2{opacity:0.6;}
	.st3{fill:none;stroke:#FFFFFF;stroke-width:2;stroke-miterlimit:10;}
	.st4{fill:#FFFFFF;stroke:#FFFFFF;stroke-miterlimit:10;}
	.st5{fill:none;}
	.st6{opacity:0.6;fill:#FFFFFF;stroke:#FFFFFF;stroke-miterlimit:10;}
	.st7{font-family:'Hyperspace-Bold';}
	.st8{font-size:36px;}
	.st9{letter-spacing:3;}
</style>
<g id="Capa_3">
	<g id="FONDO">
		
			<radialGradient id="SVGID_1_" cx="317.3662" cy="480" r="407.9216" gradientTransform="matrix(1.0158 0 0 1 0.0417 0)" gradientUnits="userSpaceOnUse">
			<stop  offset="0" style="stop-color:#0F101E;stop-opacity:0.999"/>
			<stop  offset="0.3212" style="stop-color:#101121;stop-opacity:0.9989"/>
			<stop  offset="0.4777" style="stop-color:#131125;stop-opacity:0.9986"/>
			<stop  offset="0.8296" style="stop-color:#14162B;stop-opacity:0.995"/>
			<stop  offset="0.9804" style="stop-color:#17192F;stop-opacity:0.9926"/>
		</radialGradient>
		<rect x="-2.63" y="0" class="st0" width="650.13" height="960"/>
	</g>
</g>
<g id="Capa_2">
	<polygon class="st1" points="136.36,113.01 170.64,132.72 147.93,145.15 183.5,170.86 161.64,209.86 117.5,212.43 114.93,222.29 
		73.78,197.43 76.36,176.43 54.5,145.15 83.21,117.29 112.78,125.86 	"/>
	<polygon class="st1" points="198.45,378.67 206.96,393.64 211.73,390.58 226.36,399.43 228.75,422.91 205.6,436.87 192.67,425.3 
		178.71,431.76 174.63,419.51 180.75,391.6 	"/>
	<polygon class="st1" points="340.96,503.84 311.82,541.98 320.39,546.69 319.53,589.55 355.53,617.41 382.53,585.27 394.53,609.27 
		418.1,577.12 406.96,553.55 418.1,521.84 394.53,491.84 360.67,509.41 	"/>
	<polygon class="st1" points="280.53,236.47 315.91,232.48 280.07,219.34 305.49,201.99 317.96,214.75 323.41,199.11 355.1,219.07 
		360.84,250.08 341.74,268.5 320.45,275.78 287.31,256.31 	"/>
	<polygon class="st1" points="148.53,284.22 165.72,272.6 163.4,287.47 175.95,282.83 175.95,292.59 168.98,292.59 168.51,305.6 
		148.53,295.38 154.57,289.1 	"/>
	<g class="st2">
		<polyline class="st3" points="588.62,92.51 578.87,98.5 549,116.88 566.39,72.78 		"/>
		<line class="st3" x1="578.87" y1="98.5" x2="562.38" y2="82.94"/>
		<polyline class="st3" points="579.47,93.56 584.48,76.68 569.81,83.83 		"/>
	</g>
	<g class="st2">
		<circle class="st4" cx="527.41" cy="141.77" r="2.85"/>
		<circle class="st4" cx="493.74" cy="181.68" r="2.85"/>
		<circle class="st4" cx="460.27" cy="219.53" r="2.85"/>
	</g>
	<rect x="41.93" y="45.71" class="st5" width="166.77" height="41.41"/>
	<text transform="matrix(1 0 0 1 41.9287 72.4331)" class="st6 st7 st8 st9">86950</text>
	<polygon class="st1" points="403.65,373.79 420.84,362.17 418.52,377.04 431.07,372.39 431.07,382.15 424.1,382.15 423.63,395.17 
		403.65,384.94 409.69,378.67 	"/>
	<polygon class="st1" points="330.08,93.62 347.27,82 344.95,96.88 357.5,92.23 357.5,101.99 350.53,101.99 350.06,115 
		330.08,104.78 336.12,98.5 	"/>
	<polygon class="st1" points="77.63,300.51 47.44,310.93 50.46,316.7 34.21,340.14 43.92,368.83 70.71,360.95 68.53,378.67 
		93.42,369.52 95.92,352.36 113.77,338.88 111.74,313.58 86.51,310.86 	"/>
	<polygon class="st1" points="579.54,259.28 597.91,271.03 585.08,277.28 604,292.37 590.96,313.28 566.58,313.56 564.91,318.92 
		542.89,304.16 544.85,292.67 533.62,274.87 550.16,260.27 566.22,265.75 	"/>
	<polygon class="st1" points="135.45,919.83 169.73,900.11 147.02,887.68 182.59,861.97 160.73,822.97 116.59,820.4 114.02,810.54 
		72.88,835.4 75.45,856.4 53.59,887.68 82.31,915.54 111.88,906.97 	"/>
	<polygon class="st1" points="198.11,692.99 207.53,676.4 212.81,679.8 229.01,670 231.65,643.99 206.02,628.54 191.7,641.35 
		176.25,634.19 171.72,647.76 178.51,678.67 	"/>
	<polygon class="st1" points="590.04,848.8 565.39,889.99 557.84,883.77 518.34,900.43 479.14,877.3 499,840.32 472.27,838.05 
		493.4,804.26 519.42,805.89 544.76,783.8 581.36,794.59 577.56,832.55 	"/>
	<polygon class="st1" points="268.79,784.84 306.92,789.15 268.29,803.31 295.68,822 309.12,808.25 315,825.11 349.15,803.59 
		355.34,770.18 334.75,750.33 311.81,742.48 276.1,763.47 	"/>
	<polygon class="st1" points="64.92,715.61 82.12,727.23 79.8,712.36 92.35,717.01 92.35,707.24 85.37,707.24 84.91,694.23 
		64.92,704.46 70.97,710.73 	"/>
	<polygon class="st1" points="431.07,735.6 448.27,747.22 445.94,732.34 458.49,736.99 458.49,727.23 451.52,727.23 451.05,714.22 
		431.07,724.44 437.11,730.72 	"/>
	<polygon class="st1" points="329.17,916.52 346.37,928.14 344.04,913.26 356.59,917.91 356.59,908.15 349.62,908.15 349.16,895.14 
		329.17,905.36 335.21,911.64 	"/>
	<polygon class="st1" points="95.99,564.35 65.8,553.93 68.81,548.16 52.57,524.72 62.27,496.04 89.07,503.92 86.89,486.2 
		111.78,495.34 114.28,512.51 132.12,525.98 130.1,551.29 104.87,554.01 	"/>
	<polygon class="st1" points="579.09,679.28 600.88,665.35 585.67,657.93 608.11,640.05 592.64,615.25 563.73,614.92 561.75,608.56 
		535.65,626.06 537.97,639.69 524.65,660.79 544.26,678.11 563.31,671.6 	"/>
	<polygon class="st1" points="554.98,433.63 563.49,448.61 568.25,445.55 582.89,454.4 585.27,477.88 562.12,491.84 549.19,480.26 
		535.24,486.73 531.15,474.48 537.28,446.57 	"/>
</g>
</svg>
