<?xml version="1.0" encoding="utf-8"?>
<!-- Generator: Adobe Illustrator 28.4.1, SVG Export Plug-In . SVG Version: 6.00 Build 0)  -->
<svg version="1.1" xmlns="http://www.w3.org/2000/svg" xmlns:xlink="http://www.w3.org/1999/xlink" x="0px" y="0px"
	 viewBox="0 0 640 960" style="enable-background:new 0 0 640 960;" xml:space="preserve">
<style type="text/css">
	.st0{fill:url(#SVGID_1_);}
	.st1{opacity:0.61;}
	.st2{fill:none;stroke:#644998;stroke-width:2;stroke-miterlimit:10;}
	.st3{opacity:0.61;fill:#644998;stroke:#644998;stroke-width:2;stroke-miterlimit:10;}
	.st4{opacity:0.61;fill:none;stroke:#644998;stroke-width:2;stroke-miterlimit:10;}
	.st5{fill:#644998;}
	.st6{opacity:0.61;fill:#644998;stroke:#644998;stroke-miterlimit:10;}
</style>
<g id="FONDO">
	<radialGradient id="SVGID_1_" cx="321.5714" cy="480.1165" r="417.8414" gradientUnits="userSpaceOnUse">
		<stop  offset="0.014" style="stop-color:#141027"/>
		<stop  offset="0.4358" style="stop-color:#121026"/>
		<stop  offset="0.7626" style="stop-color:#1B162F"/>
		<stop  offset="1" style="stop-color:#241B38"/>
	</radialGradient>
	<rect x="-8.21" y="-10.21" class="st0" width="659.57" height="980.66"/>
</g>
<g id="ELEMENTOS">
	<g class="st1">
		<path class="st2" d="M521.25,61.08c10.52-1.36,28.35-2.3,49.26,3.47c19.53,5.39,33.64,14.39,41.91,20.61
			c3.77,12.14,7.81,31.02,5.26,53.69c-5.34,47.47-35.69,77.2-45.3,85.92c-10.64,0.84-27.55,0.85-47.09-5.01
			c-16.81-5.05-29.42-12.61-37.55-18.39c-3.88-12.65-11.87-44.8-0.4-82.79C496.07,89.63,512.1,70.51,521.25,61.08z"/>
		<path class="st2" d="M519.57,62.83c7.44,6.41,21.12,16.5,40.88,22.38c23.85,7.09,44.13,4.35,54.17,2.29"/>
		<path class="st2" d="M512.72,73.31c1.39,1.31,3.03,2.8,4.93,4.39c8.25,6.92,21.36,15.9,39.34,21.38
			c26.6,8.11,49.18,4.09,59.28,1.64"/>
		<path class="st2" d="M496.89,98.46c9.8,8.16,27.22,20.52,52.01,27.87c30.39,9.01,56.28,5.85,69.48,3.3"/>
		<path class="st2" d="M490.22,110.04c9.37,8.53,27.67,22.91,54.81,30.94c32.19,9.53,59.45,5,72.11,2.05"/>
		<path class="st2" d="M483.1,137.15c9.98,8.67,28.31,22.29,54.8,30.27c32.6,9.82,60.35,5.92,73.89,3.07"/>
		<path class="st2" d="M481.52,153.18c9.42,8.21,26.99,21.34,52.51,28.9c30.68,9.08,56.73,5.34,69.43,2.64"/>
		<path class="st2" d="M482.7,178.3c7.31,7.13,22.56,20.08,45.88,27.17c26.66,8.1,49.25,4.07,59.28,1.64"/>
		<path class="st2" d="M595.22,82.02c-0.66,2.76-16.71,1.85-29.65-1.47c-14.05-3.61-27.94-10.96-27.17-13.53
			c0.76-2.52,15.44-0.11,18.67,0.42C576.11,70.57,595.99,78.82,595.22,82.02z"/>
		<path class="st2" d="M502.78,102.25c1.28-3.47,3.04-7.48,5.51-11.74c3.1-5.34,6.43-9.59,9.36-12.81"/>
		<path class="st2" d="M539.76,124.09c0.21-4.04,0.84-9.19,2.48-14.95c1.55-5.44,3.57-9.93,5.41-13.36"/>
		<path class="st2" d="M566.69,130.4c1.58-3.36,3.21-7.49,4.52-12.31c1.48-5.5,2.15-10.45,2.42-14.52"/>
		<path class="st2" d="M607.97,132.15c0.72-3.74,1.3-8.03,1.53-12.79c0.32-6.51-0.09-12.29-0.74-17.08"/>
		<path class="st2" d="M491.03,144.7c0.54-3.85,1.32-8.05,2.43-12.52c1.42-5.73,3.13-10.84,4.88-15.29"/>
		<path class="st2" d="M528.28,164.16c0.74-4.03,1.75-8.43,3.13-13.12c1.38-4.72,2.93-9,4.48-12.81"/>
		<path class="st2" d="M556.02,171.65c1.21-2.98,2.4-6.4,3.39-10.22c1.5-5.76,2.19-11.01,2.47-15.42"/>
		<path class="st2" d="M598.8,173.16c1.41-3.75,2.78-7.98,3.96-12.65c1.41-5.56,2.29-10.71,2.84-15.3"/>
		<path class="st2" d="M491.92,186.37c-0.78-3.05-1.47-6.53-1.9-10.39c-0.69-6.13-0.55-11.57-0.11-16.03"/>
		<path class="st2" d="M522.63,204.37c-0.05-3.06,0.15-6.83,0.97-11.05c1.06-5.47,2.82-9.92,4.4-13.18"/>
		<path class="st2" d="M543.99,208.97c1.06-2.31,2.1-4.82,3.08-7.51c1.91-5.28,3.19-10.23,4.05-14.66"/>
		<path class="st2" d="M577.14,209.16c2.17-1.91,4.64-4.41,7.02-7.62c3.86-5.2,6-10.26,7.23-13.99"/>
	</g>
	<ellipse transform="matrix(0.956 -0.2934 0.2934 0.956 3.8206 73.6138)" class="st3" cx="247.25" cy="24.07" rx="7.26" ry="5.39"/>
	<ellipse class="st3" cx="182.95" cy="78.78" rx="2.04" ry="4.07"/>
	<ellipse class="st3" cx="184.07" cy="92.4" rx="2.58" ry="4.85"/>
	
		<ellipse transform="matrix(0.5476 -0.8368 0.8368 0.5476 0.2328 221.3624)" class="st3" cx="204.82" cy="110.47" rx="3.92" ry="5.32"/>
	<path class="st4" d="M182.95,74.71c8.89-2,48.08-11.67,56.69-39.86c0.68-2.23,1.19-4.63,1.46-7.21"/>
	<path class="st4" d="M184.07,87.55c5.33-1.25,47.38-11.69,56.98-44.01c1.19-4,2.03-8.84,1.92-14.52"/>
	<path class="st4" d="M202.6,106.16c7.52-4.93,45.49-30.72,44.09-65.91c-0.13-3.33-0.62-6.9-1.63-10.67"/>
	<path class="st4" d="M254.27,24.07c0.89,2.47,2.08,5.25,3.7,8.19c1.31,2.38,2.69,4.49,4.04,6.34c0,0,2.79,4.44,5.24,10.77
		c2.71,6.99,3.63,28.6-9.75,45.37c-11.9,14.91-31.85,21.92-51.92,18.79"/>
	<path class="st4" d="M184.07,96.16c1.55,1.64,4.52,4.34,9.06,6.11c5.82,2.26,10.95,1.71,13.26,1.32"/>
	<path class="st4" d="M182.79,81.6c1.82,1.62,3.63,3.24,5.45,4.86"/>
	<path class="st4" d="M184.74,80.68c1.52,0.76,3.66,1.62,6.33,2.04c4.81,0.75,8.73-0.34,10.77-1.08"/>
	<path class="st4" d="M186.52,93.94c2.58,0.64,5.41,1.19,8.48,1.57c8.98,1.1,16.81,0.29,22.79-0.9"/>
	<path class="st4" d="M207.46,110.47c3.31-0.33,29.41-3.38,43.46-26.28c8.41-13.72,8.16-27.48,7.75-33.01"/>
	<path class="st4" d="M41.75,49.82"/>
	<path class="st4" d="M26.75,118.19c-0.88-0.45-7.25-3.88-8.52-11c-1.01-5.7,1.35-13.27,6.72-14.89c6.38-1.92,12.5,5.92,13.15,6.77
		c3.52,4.64,3.78,9.72,3.77,11.71"/>
	<g class="st1">
		<path class="st5" d="M25.93,101.73c0.95,0.58,1.82,1.31,2.65,2.1c0.81,0.8,1.53,1.71,2.14,2.69c0.61,0.97,1.3,1.98,1.49,3.15
			c0.2,1.15,0.2,2.36-0.25,3.51l-0.2,0.02c-0.64-1.04-1.05-2.01-1.47-2.97c-0.43-0.94-0.57-1.99-0.99-2.96
			c-0.41-0.96-0.92-1.9-1.5-2.8c-0.57-0.91-1.26-1.76-2-2.58L25.93,101.73z"/>
	</g>
	<path class="st4" d="M26.15,90.97c-0.55-3.87-1.28-12.73,2.94-22.66c3.17-7.46,7.88-12.58,11.67-15.8
		c2.01-1.71,3.75-2.88,4.88-3.59"/>
	<path class="st4" d="M40.76,52.51c0.32-3.7,1.86-15.73,11.72-24.47c5.23-4.64,17.16-12.19,26.04-7.68c0.6,0.3,2.74,1.45,4.36,3.66
		c5.29,7.23,1.51,21.13-8.27,34.89c0.22-0.91,1.57-7.03-2.44-12.53c-3.24-4.44-7.88-5.59-9.07-5.84"/>
	<path class="st4" d="M125.88,96.35c0.59-0.8,4.8-6.68,2.8-13.63c-1.6-5.57-7.06-11.32-12.59-10.41
		c-6.58,1.08-8.61,10.82-8.82,11.87c-1.12,5.71,0.89,10.39,1.77,12.18"/>
	<g class="st1">
		<path class="st5" d="M119.55,81.3c-0.3,1.06-0.55,2.12-0.66,3.19c-0.13,1.07-0.17,2.13-0.11,3.18c0.05,1.06,0.39,2.06,0.42,3.09
			c0.05,1.04,0.11,2.09-0.01,3.31L119,94.14c-0.92-0.83-1.44-1.92-1.77-3.04c-0.34-1.13-0.17-2.34-0.04-3.48
			c0.12-1.15,0.37-2.28,0.74-3.36c0.39-1.07,0.85-2.1,1.45-3.05L119.55,81.3z"/>
	</g>
	<path class="st4" d="M114.44,71.65c-1.05-3.79-3.65-11.22-10.24-18.2c-7.32-7.77-15.56-10.75-19.36-11.87"/>
	<path class="st4" d="M45.77,110.97c-4.44,0.03-13.68,0.76-19.02,7.22c-10.57,12.8,3.69,36.57,5.22,39.12
		c9.23,15.38,31.9,36.38,61.12,30.64c31.25-6.14,43.41-37.64,45.22-56.02c0.42-4.23,2.93-29.6-11.31-36.66
		c-8.45-4.19-18.49,0.21-21.99,1.95l-5.6-15.07c0.47-0.56,5.03-6.13,3.21-13.37c-1.12-4.44-4.6-9.33-9.39-10.21
		c-6.33-1.17-14.45,4.75-16.17,14.97c-5.4,1.25-10.8,2.51-16.2,3.76c-0.55-1.01-3.42-5.98-9.48-7.62
		c-1.03-0.28-7.73-2.09-12.14,2.11c-5.31,5.07-2,13.83-1.84,14.22c2.05,5.2,6.45,7.6,7.76,8.25c0.8,5.81,1.61,11.63,2.41,17.44"/>
	<path class="st4" d="M44.97,79.82c1.27,1.08,11.52,9.49,25.52,6.7c15.16-3.01,21.31-16.47,21.85-17.7"/>
	<path class="st4" d="M54.15,85.64c-2.67,8.01,1.32,15.17,6.24,16.32c3.48,0.82,8.33-1.16,10.2-5.41c1.38-3.13,0.86-6.87-1.32-9.73"
		/>
	<path class="st4" d="M87.28,77.95c5.92,6.02,5.49,14.2,1.58,17.4c-2.77,2.27-7.99,2.63-11.54-0.36c-2.62-2.2-3.8-5.78-3.1-9.32"/>
	<path class="st4" d="M46.23,114.49c0.73-1.02,2.7-3.51,6.25-4.84c2.67-1,5.02-0.9,6.26-0.75c0.16-0.47,1.87-5.16,6.77-6.6
		c3.83-1.13,8.07,0.18,10.79,3.34c0.98-4.25,4.36-7.41,8.37-7.91c4.73-0.58,8,2.84,8.34,3.21c1.24-0.68,3.18-1.53,5.67-1.85
		c4.26-0.55,7.62,0.77,9.09,1.47"/>
	<path class="st4" d="M34.75,137.55c12,22.58,34.87,34.59,54.02,30.25c24.26-5.5,34.66-35.45,35.97-39.21
		c1.79-5.15,2.62-9.64,3.04-12.77c-5.53,4.21-13.97,9.73-25.22,13.88c-5.75,2.12-10.23,3.07-19.19,4.98
		c-11.81,2.51-22.66,4.75-36.58,4.1C41.72,138.56,37.56,138,34.75,137.55z"/>
	<path class="st4" d="M46.79,138.79c1.52,4.03,3.72,8.86,6.93,14c3.05,4.87,6.24,8.79,9.05,11.83"/>
	<path class="st4" d="M63.21,138.98c1.27,4.29,3.15,9.43,6.03,14.95c3.19,6.12,6.7,11.01,9.76,14.71"/>
	<line class="st4" x1="82.7" y1="134.83" x2="90.27" y2="167.46"/>
	<path class="st4" d="M114.9,122.98c0.41,4.28,0.56,9.59-0.06,15.62c-0.59,5.71-1.73,10.64-2.92,14.6"/>
	<path class="st4" d="M101.61,130.06c0.75,4.41,1.32,9.85,1.17,16.07c-0.17,6.9-1.16,12.84-2.29,17.51"/>
	<path class="st4" d="M41.12,147.34c7.07,2.35,25.02,7.27,46.77,1.55c19.1-5.01,31.35-15.66,36.7-20.93"/>
	<circle class="st6" cx="62.38" cy="95.04" r="2.82"/>
	<circle class="st6" cx="83.44" cy="90.15" r="2.82"/>
	<g class="st1">
		<path class="st2" d="M249.9,164.53c2.53-1.21,23.63-10.9,43.1,0c12.03,6.74,16.89,17.67,18.43,21.27
			c11.14,26.07-1.9,63.21-25.8,72.59c-6.21,2.44-12.07,2.57-16.16,2.27C262.94,228.61,256.42,196.57,249.9,164.53z"/>
		<path class="st2" d="M319.65,161.97l-2.55,91.87h21.83V228.2c0-0.04,0.05-0.05,0.07-0.02l11.84,25.65l26.65-5.67l-23.43-40.7
			c-0.06-0.11-0.05-0.24,0.02-0.34l29.09-40.34l-30.34-9.36l-12.14,36.15c-0.01,0.03-0.05,0.02-0.05-0.01l0.56-32.74L319.65,161.97z
			"/>
		<path class="st2" d="M274.8,192.67c0.81-0.39,7.59-3.5,13.84,0c3.86,2.16,5.42,5.67,5.92,6.83c3.58,8.37-0.61,20.3-8.29,23.31
			c-1.99,0.78-3.88,0.83-5.19,0.73C278.99,213.25,276.9,202.96,274.8,192.67z"/>
		<path class="st2" d="M239.69,157.81l21.55,109.45c3.94,1,13.74,2.93,25.24-0.85c12.43-4.09,19.41-12.41,21.83-15.59l1.51,7.84
			c0.28,1.44,1.54,2.48,3,2.48h26.96c1.87,0,3.73,0.36,5.47,1.05l4.88,1.95c11.57-2.92,23.14-5.85,34.71-8.77
			c2.37-0.6,3.59-3.23,2.52-5.43c-2.33-4.79-4.86-9.71-7.6-14.72c-5.33-9.75-10.79-18.66-16.18-26.73c-0.33-0.49-0.3-1.13,0.05-1.6
			c10.34-13.57,20.68-27.14,31.02-40.71c0.94-1.23,0.49-3.02-0.93-3.63c-6.22-2.69-12.96-5.34-20.19-7.86
			c-7.5-2.61-14.68-4.78-21.43-6.57c-1.23-0.33-2.53-0.01-3.48,0.84l-1.35,1.2c-12.04,0.66-24.08,1.32-36.11,1.98
			c0,6.05,0,12.1,0,18.15c-2.91-4.41-6.11-7.6-9.07-9.92C278.89,142.19,243.8,156.11,239.69,157.81z"/>
	</g>
	
		<ellipse transform="matrix(0.956 -0.2934 0.2934 0.956 -56.3958 152.7697)" class="st3" cx="480.96" cy="264.34" rx="7.26" ry="5.39"/>
	<ellipse class="st3" cx="416.65" cy="319.05" rx="2.04" ry="4.07"/>
	<ellipse class="st3" cx="417.77" cy="332.67" rx="2.58" ry="4.85"/>
	
		<ellipse transform="matrix(0.5476 -0.8368 0.8368 0.5476 -95.0799 525.6194)" class="st3" cx="438.53" cy="350.73" rx="3.92" ry="5.32"/>
	<path class="st4" d="M416.65,314.98c8.89-2,48.08-11.67,56.69-39.86c0.68-2.23,1.19-4.63,1.46-7.21"/>
	<path class="st4" d="M417.77,327.82c5.33-1.25,47.38-11.69,56.98-44.01c1.19-4,2.03-8.84,1.92-14.52"/>
	<path class="st4" d="M436.3,346.43c7.52-4.93,45.49-30.72,44.09-65.91c-0.13-3.33-0.62-6.9-1.63-10.67"/>
	<path class="st4" d="M487.97,264.34c0.89,2.47,2.08,5.25,3.7,8.19c1.31,2.38,2.69,4.49,4.04,6.34c0,0,2.79,4.44,5.24,10.77
		c2.71,6.99,3.63,28.6-9.75,45.37c-11.9,14.91-31.85,21.92-51.92,18.79"/>
	<path class="st4" d="M417.77,336.43c1.55,1.64,4.52,4.34,9.06,6.11c5.82,2.26,10.95,1.71,13.26,1.32"/>
	<path class="st4" d="M416.5,321.87c1.82,1.62,3.63,3.24,5.45,4.86"/>
	<path class="st4" d="M418.44,320.95c1.52,0.76,3.66,1.62,6.33,2.04c4.81,0.75,8.73-0.34,10.77-1.08"/>
	<path class="st4" d="M420.22,334.21c2.58,0.64,5.41,1.19,8.48,1.57c8.98,1.1,16.81,0.29,22.79-0.9"/>
	<path class="st4" d="M441.16,350.73c3.31-0.33,29.41-3.38,43.46-26.28c8.41-13.72,8.16-27.48,7.75-33.01"/>
	<path class="st4" d="M595.58,353.63"/>
	<path class="st4" d="M610.58,421.99c0.88-0.45,7.25-3.88,8.52-11c1.01-5.7-1.35-13.27-6.72-14.89c-6.38-1.92-12.5,5.92-13.15,6.77
		c-3.52,4.64-3.78,9.72-3.77,11.71"/>
	<g class="st1">
		<path class="st5" d="M611.52,405.69c-0.74,0.82-1.43,1.67-2,2.58c-0.58,0.9-1.09,1.84-1.5,2.8c-0.42,0.97-0.56,2.02-0.99,2.96
			c-0.42,0.96-0.82,1.93-1.47,2.97l-0.2-0.02c-0.46-1.15-0.45-2.36-0.25-3.51c0.19-1.17,0.88-2.17,1.49-3.15
			c0.61-0.98,1.34-1.88,2.14-2.69c0.82-0.79,1.69-1.51,2.65-2.1L611.52,405.69z"/>
	</g>
	<path class="st4" d="M611.18,394.78c0.55-3.87,1.28-12.73-2.94-22.66c-3.17-7.46-7.88-12.58-11.67-15.8
		c-2.01-1.71-3.75-2.88-4.88-3.59"/>
	<path class="st4" d="M596.57,356.31c-0.32-3.7-1.86-15.73-11.72-24.47c-5.23-4.64-17.16-12.19-26.04-7.68
		c-0.6,0.3-2.74,1.45-4.36,3.66c-5.29,7.23-1.51,21.13,8.27,34.89c-0.22-0.91-1.57-7.03,2.44-12.53c3.24-4.44,7.88-5.59,9.07-5.84"
		/>
	<path class="st4" d="M511.45,400.16c-0.59-0.8-4.8-6.68-2.8-13.63c1.6-5.57,7.06-11.32,12.59-10.41
		c6.58,1.08,8.61,10.82,8.82,11.87c1.12,5.71-0.89,10.39-1.77,12.18"/>
	<g class="st1">
		<path class="st5" d="M517.96,385.02c0.6,0.95,1.06,1.98,1.45,3.05c0.37,1.08,0.62,2.2,0.74,3.36c0.12,1.14,0.3,2.35-0.04,3.48
			c-0.33,1.12-0.86,2.21-1.77,3.04l-0.19-0.07c-0.12-1.22-0.06-2.26-0.01-3.31c0.03-1.03,0.36-2.04,0.42-3.09
			c0.05-1.05,0.01-2.11-0.11-3.18c-0.11-1.07-0.36-2.13-0.66-3.19L517.96,385.02z"/>
	</g>
	<path class="st4" d="M522.89,375.46c1.05-3.79,3.65-11.22,10.24-18.2c7.32-7.77,15.56-10.75,19.36-11.87"/>
	<path class="st4" d="M591.56,414.77c4.44,0.03,13.68,0.76,19.02,7.22c10.57,12.8-3.69,36.57-5.22,39.12
		c-9.23,15.38-31.9,36.38-61.12,30.64c-31.25-6.14-43.41-37.64-45.22-56.02c-0.42-4.23-2.93-29.6,11.31-36.66
		c8.45-4.19,18.49,0.21,21.99,1.95l5.6-15.07c-0.47-0.56-5.03-6.13-3.21-13.37c1.12-4.44,4.6-9.33,9.39-10.21
		c6.33-1.17,14.45,4.75,16.17,14.97c5.4,1.25,10.8,2.51,16.2,3.76c0.55-1.01,3.42-5.98,9.48-7.62c1.03-0.28,7.73-2.09,12.14,2.11
		c5.31,5.07,2,13.83,1.84,14.22c-2.05,5.2-6.45,7.6-7.76,8.25c-0.8,5.81-1.61,11.63-2.41,17.44"/>
	<path class="st4" d="M592.36,383.63c-1.27,1.08-11.52,9.49-25.52,6.7c-15.16-3.01-21.31-16.47-21.85-17.7"/>
	<path class="st4" d="M583.17,389.45c2.67,8.01-1.32,15.17-6.24,16.32c-3.48,0.82-8.33-1.16-10.2-5.41
		c-1.38-3.13-0.86-6.87,1.32-9.73"/>
	<path class="st4" d="M550.04,381.76c-5.92,6.02-5.49,14.2-1.58,17.4c2.77,2.27,7.99,2.63,11.54-0.36c2.62-2.2,3.8-5.78,3.1-9.32"/>
	<path class="st4" d="M591.1,418.29c-0.73-1.02-2.7-3.51-6.25-4.84c-2.67-1-5.02-0.9-6.26-0.75c-0.16-0.47-1.87-5.16-6.77-6.6
		c-3.83-1.13-8.07,0.18-10.79,3.34c-0.98-4.25-4.36-7.41-8.37-7.91c-4.73-0.58-8,2.84-8.34,3.21c-1.24-0.68-3.18-1.53-5.67-1.85
		c-4.26-0.55-7.62,0.77-9.09,1.47"/>
	<path class="st4" d="M602.57,441.36c-12,22.58-34.87,34.59-54.02,30.25c-24.26-5.5-34.66-35.45-35.97-39.21
		c-1.79-5.15-2.62-9.64-3.04-12.77c5.53,4.21,13.97,9.73,25.22,13.88c5.75,2.12,10.23,3.07,19.19,4.98
		c11.81,2.51,22.66,4.75,36.58,4.1C595.6,442.36,599.77,441.81,602.57,441.36z"/>
	<path class="st4" d="M590.54,442.6c-1.52,4.03-3.72,8.86-6.93,14c-3.05,4.87-6.24,8.79-9.05,11.83"/>
	<path class="st4" d="M574.11,442.78c-1.27,4.29-3.15,9.43-6.03,14.95c-3.19,6.12-6.7,11.01-9.76,14.71"/>
	<line class="st4" x1="554.63" y1="438.63" x2="547.06" y2="471.26"/>
	<path class="st4" d="M522.43,426.79c-0.41,4.28-0.56,9.59,0.06,15.62c0.59,5.71,1.73,10.64,2.92,14.6"/>
	<path class="st4" d="M535.71,433.87c-0.75,4.41-1.32,9.85-1.17,16.07c0.17,6.9,1.16,12.84,2.29,17.51"/>
	<path class="st4" d="M596.21,451.14c-7.07,2.35-25.02,7.27-46.77,1.55c-19.1-5.01-31.35-15.66-36.7-20.93"/>
	<circle class="st6" cx="574.94" cy="398.85" r="2.82"/>
	<circle class="st6" cx="553.89" cy="393.96" r="2.82"/>
	<g class="st1">
		<path class="st2" d="M173.43,276.57c-10.52-1.36-28.35-2.3-49.26,3.47c-19.53,5.39-33.64,14.39-41.91,20.61
			c-3.77,12.14-7.81,31.02-5.26,53.69c5.34,47.47,35.69,77.2,45.3,85.92c10.64,0.84,27.55,0.85,47.09-5.01
			c16.81-5.05,29.42-12.61,37.55-18.39c3.88-12.65,11.87-44.8,0.4-82.79C198.61,305.12,182.58,286.01,173.43,276.57z"/>
		<path class="st2" d="M175.11,278.33c-7.44,6.41-21.12,16.5-40.88,22.38c-23.85,7.09-44.13,4.35-54.17,2.29"/>
		<path class="st2" d="M181.97,288.8c-1.39,1.31-3.03,2.8-4.93,4.39c-8.25,6.92-21.36,15.9-39.34,21.38
			c-26.6,8.11-49.18,4.09-59.28,1.64"/>
		<path class="st2" d="M197.79,313.95c-9.8,8.16-27.22,20.52-52.01,27.87c-30.39,9.01-56.28,5.85-69.48,3.3"/>
		<path class="st2" d="M204.47,325.54c-9.37,8.53-27.67,22.91-54.81,30.94c-32.19,9.53-59.45,5-72.11,2.05"/>
		<path class="st2" d="M211.58,352.64c-9.98,8.67-28.31,22.29-54.8,30.27c-32.6,9.82-60.35,5.92-73.89,3.07"/>
		<path class="st2" d="M213.16,368.68c-9.42,8.21-26.99,21.34-52.51,28.9c-30.68,9.08-56.73,5.34-69.43,2.64"/>
		<path class="st2" d="M211.98,393.79c-7.31,7.13-22.56,20.08-45.88,27.17c-26.66,8.1-49.25,4.07-59.28,1.64"/>
		<path class="st2" d="M99.46,297.51c0.66,2.76,16.71,1.85,29.65-1.47c14.05-3.61,27.94-10.96,27.17-13.53
			c-0.76-2.52-15.44-0.11-18.67,0.42C118.58,286.06,98.69,294.31,99.46,297.51z"/>
		<path class="st2" d="M191.9,317.75c-1.28-3.47-3.04-7.48-5.51-11.74c-3.1-5.34-6.43-9.59-9.36-12.81"/>
		<path class="st2" d="M154.92,339.58c-0.21-4.04-0.84-9.19-2.48-14.95c-1.55-5.44-3.57-9.93-5.41-13.36"/>
		<path class="st2" d="M127.99,345.89c-1.58-3.36-3.21-7.49-4.52-12.31c-1.48-5.5-2.15-10.45-2.42-14.52"/>
		<path class="st2" d="M86.71,347.64c-0.72-3.74-1.3-8.03-1.53-12.79c-0.32-6.51,0.09-12.29,0.74-17.08"/>
		<path class="st2" d="M203.65,360.2c-0.54-3.85-1.32-8.05-2.43-12.52c-1.42-5.73-3.13-10.84-4.88-15.29"/>
		<path class="st2" d="M166.4,379.65c-0.74-4.03-1.75-8.43-3.13-13.12c-1.38-4.72-2.93-9-4.48-12.81"/>
		<path class="st2" d="M138.66,387.14c-1.21-2.98-2.4-6.4-3.39-10.22c-1.5-5.76-2.19-11.01-2.47-15.42"/>
		<path class="st2" d="M95.88,388.66c-1.41-3.75-2.78-7.98-3.96-12.65c-1.41-5.56-2.29-10.71-2.84-15.3"/>
		<path class="st2" d="M202.76,401.86c0.78-3.05,1.47-6.53,1.9-10.39c0.69-6.13,0.55-11.57,0.11-16.03"/>
		<path class="st2" d="M172.05,419.87c0.05-3.06-0.15-6.83-0.97-11.05c-1.06-5.47-2.82-9.92-4.4-13.18"/>
		<path class="st2" d="M150.69,424.47c-1.06-2.31-2.1-4.82-3.08-7.51c-1.91-5.28-3.19-10.23-4.05-14.66"/>
		<path class="st2" d="M117.54,424.65c-2.17-1.91-4.64-4.41-7.02-7.62c-3.86-5.2-6-10.26-7.23-13.99"/>
	</g>
	<g class="st1">
		<path class="st2" d="M342.69,441.55c1.79-0.86,16.69-7.7,30.44,0c8.5,4.76,11.93,12.48,13.02,15.02
			c7.87,18.42-1.34,44.65-18.23,51.27c-4.39,1.72-8.53,1.82-11.42,1.6C351.9,486.82,347.29,464.18,342.69,441.55z"/>
		<path class="st2" d="M391.96,439.75l-1.8,64.89h15.42v-18.11c0-0.03,0.04-0.04,0.05-0.01l8.36,18.12l18.83-4.01l-16.55-28.75
			c-0.04-0.08-0.04-0.17,0.01-0.24l20.55-28.5l-21.43-6.61l-8.58,25.54c-0.01,0.02-0.03,0.01-0.03-0.01l0.4-23.13L391.96,439.75z"/>
		<path class="st2" d="M360.28,461.43c0.57-0.27,5.36-2.47,9.78,0c2.73,1.53,3.83,4.01,4.18,4.82c2.53,5.91-0.43,14.34-5.85,16.47
			c-1.41,0.55-2.74,0.58-3.67,0.51C363.24,475.97,361.76,468.7,360.28,461.43z"/>
		<path class="st2" d="M335.47,436.81l15.22,77.31c2.79,0.71,9.7,2.07,17.83-0.6c8.78-2.89,13.71-8.76,15.42-11.02l1.07,5.54
			c0.2,1.02,1.09,1.75,2.12,1.75h19.04c1.32,0,2.64,0.25,3.86,0.74l3.45,1.38c8.17-2.07,16.35-4.13,24.52-6.2
			c1.68-0.42,2.53-2.28,1.78-3.83c-1.65-3.38-3.43-6.86-5.37-10.4c-3.76-6.89-7.62-13.18-11.43-18.88c-0.23-0.35-0.21-0.8,0.04-1.13
			c7.3-9.58,14.61-19.17,21.91-28.75c0.66-0.87,0.34-2.13-0.66-2.57c-4.4-1.9-9.15-3.77-14.26-5.55c-5.3-1.84-10.37-3.37-15.14-4.64
			c-0.87-0.23-1.79,0-2.46,0.59l-0.95,0.85c-8.5,0.47-17.01,0.93-25.51,1.4c0,4.27,0,8.55,0,12.82c-2.06-3.12-4.31-5.37-6.41-7.01
			C363.17,425.77,338.38,435.61,335.47,436.81z"/>
	</g>
	<g class="st1">
		<path class="st2" d="M522.33,548.26c10.52-1.36,28.35-2.3,49.26,3.47c19.53,5.39,33.64,14.39,41.91,20.61
			c3.77,12.14,7.81,31.02,5.26,53.69c-5.34,47.47-35.69,77.2-45.3,85.92c-10.64,0.84-27.55,0.85-47.09-5.01
			c-16.81-5.05-29.42-12.61-37.55-18.39c-3.88-12.65-11.87-44.8-0.4-82.79C497.16,576.81,513.18,557.7,522.33,548.26z"/>
		<path class="st2" d="M520.66,550.02c7.44,6.41,21.12,16.5,40.88,22.38c23.85,7.09,44.13,4.35,54.17,2.29"/>
		<path class="st2" d="M513.8,560.49c1.39,1.31,3.03,2.8,4.93,4.39c8.25,6.92,21.36,15.9,39.34,21.38
			c26.6,8.11,49.18,4.09,59.28,1.64"/>
		<path class="st2" d="M497.97,585.64c9.8,8.16,27.22,20.52,52.01,27.87c30.39,9.01,56.28,5.85,69.48,3.3"/>
		<path class="st2" d="M491.3,597.23c9.37,8.53,27.67,22.91,54.81,30.94c32.19,9.53,59.45,5,72.11,2.05"/>
		<path class="st2" d="M484.19,624.34c9.98,8.67,28.31,22.29,54.8,30.27c32.6,9.82,60.35,5.92,73.89,3.07"/>
		<path class="st2" d="M482.61,640.37c9.42,8.21,26.99,21.34,52.51,28.9c30.68,9.08,56.73,5.34,69.43,2.64"/>
		<path class="st2" d="M483.79,665.48c7.31,7.13,22.56,20.08,45.88,27.17c26.66,8.1,49.25,4.07,59.28,1.64"/>
		<path class="st2" d="M596.31,569.21c-0.66,2.76-16.71,1.85-29.65-1.47c-14.05-3.61-27.94-10.96-27.17-13.53
			c0.76-2.52,15.44-0.11,18.67,0.42C577.19,557.75,597.08,566.01,596.31,569.21z"/>
		<path class="st2" d="M503.87,589.44c1.28-3.47,3.04-7.48,5.51-11.74c3.1-5.34,6.43-9.59,9.36-12.81"/>
		<path class="st2" d="M540.85,611.28c0.21-4.04,0.84-9.19,2.48-14.95c1.55-5.44,3.57-9.93,5.41-13.36"/>
		<path class="st2" d="M567.78,617.58c1.58-3.36,3.21-7.49,4.52-12.31c1.48-5.5,2.15-10.45,2.42-14.52"/>
		<path class="st2" d="M609.06,619.33c0.72-3.74,1.3-8.03,1.53-12.79c0.32-6.51-0.09-12.29-0.74-17.08"/>
		<path class="st2" d="M492.12,631.89c0.54-3.85,1.32-8.05,2.43-12.52c1.42-5.73,3.13-10.84,4.88-15.29"/>
		<path class="st2" d="M529.37,651.34c0.74-4.03,1.75-8.43,3.13-13.12c1.38-4.72,2.93-9,4.48-12.81"/>
		<path class="st2" d="M557.11,658.84c1.21-2.98,2.4-6.4,3.39-10.22c1.5-5.76,2.19-11.01,2.47-15.42"/>
		<path class="st2" d="M599.89,660.35c1.41-3.75,2.78-7.98,3.96-12.65c1.41-5.56,2.29-10.71,2.84-15.3"/>
		<path class="st2" d="M493.01,673.55c-0.78-3.05-1.47-6.53-1.9-10.39c-0.69-6.13-0.55-11.57-0.11-16.03"/>
		<path class="st2" d="M523.72,691.56c-0.05-3.06,0.15-6.83,0.97-11.05c1.06-5.47,2.82-9.92,4.4-13.18"/>
		<path class="st2" d="M545.08,696.16c1.06-2.31,2.1-4.82,3.08-7.51c1.91-5.28,3.19-10.23,4.05-14.66"/>
		<path class="st2" d="M578.23,696.34c2.17-1.91,4.64-4.41,7.02-7.62c3.86-5.2,6-10.26,7.23-13.99"/>
	</g>
	
		<ellipse transform="matrix(0.956 -0.2934 0.2934 0.956 -139.0915 95.3798)" class="st3" cx="248.34" cy="511.26" rx="7.26" ry="5.39"/>
	<ellipse class="st3" cx="184.03" cy="565.96" rx="2.04" ry="4.07"/>
	<ellipse class="st3" cx="185.16" cy="579.59" rx="2.58" ry="4.85"/>
	
		<ellipse transform="matrix(0.5476 -0.8368 0.8368 0.5476 -406.9298 442.6849)" class="st3" cx="205.91" cy="597.65" rx="3.92" ry="5.32"/>
	<path class="st4" d="M184.03,561.89c8.89-2,48.08-11.67,56.69-39.86c0.68-2.23,1.19-4.63,1.46-7.21"/>
	<path class="st4" d="M185.16,574.73c5.33-1.25,47.38-11.69,56.98-44.01c1.19-4,2.03-8.84,1.92-14.52"/>
	<path class="st4" d="M203.68,593.35c7.52-4.93,45.49-30.72,44.09-65.91c-0.13-3.33-0.62-6.9-1.63-10.67"/>
	<path class="st4" d="M255.35,511.26c0.89,2.47,2.08,5.25,3.7,8.19c1.31,2.38,2.69,4.49,4.04,6.34c0,0,2.79,4.44,5.24,10.77
		c2.71,6.99,3.63,28.6-9.75,45.37c-11.9,14.91-31.85,21.92-51.92,18.79"/>
	<path class="st4" d="M185.16,583.35c1.55,1.64,4.52,4.34,9.06,6.11c5.82,2.26,10.95,1.71,13.26,1.32"/>
	<path class="st4" d="M183.88,568.78c1.82,1.62,3.63,3.24,5.45,4.86"/>
	<path class="st4" d="M185.83,567.86c1.52,0.76,3.66,1.62,6.33,2.04c4.81,0.75,8.73-0.34,10.77-1.08"/>
	<path class="st4" d="M187.61,581.13c2.58,0.64,5.41,1.19,8.48,1.57c8.98,1.1,16.81,0.29,22.79-0.9"/>
	<path class="st4" d="M208.54,597.65c3.31-0.33,29.41-3.38,43.46-26.28c8.41-13.72,8.16-27.48,7.75-33.01"/>
	<path class="st4" d="M42.84,537.01"/>
	<path class="st4" d="M27.84,605.37c-0.88-0.45-7.25-3.88-8.52-11c-1.01-5.7,1.35-13.27,6.72-14.89c6.38-1.92,12.5,5.92,13.15,6.77
		c3.52,4.64,3.78,9.72,3.77,11.71"/>
	<g class="st1">
		<path class="st5" d="M27.02,588.91c0.95,0.58,1.82,1.31,2.65,2.1c0.81,0.8,1.53,1.71,2.14,2.69c0.61,0.97,1.3,1.98,1.49,3.15
			c0.2,1.15,0.2,2.36-0.25,3.51l-0.2,0.02c-0.64-1.04-1.05-2.01-1.47-2.97c-0.43-0.94-0.57-1.99-0.99-2.96
			c-0.41-0.96-0.92-1.9-1.5-2.8c-0.57-0.91-1.26-1.76-2-2.58L27.02,588.91z"/>
	</g>
	<path class="st4" d="M27.23,578.16c-0.55-3.87-1.28-12.73,2.94-22.66c3.17-7.46,7.88-12.58,11.67-15.8
		c2.01-1.71,3.75-2.88,4.88-3.59"/>
	<path class="st4" d="M41.84,539.69c0.32-3.7,1.86-15.73,11.72-24.47c5.23-4.64,17.16-12.19,26.04-7.68c0.6,0.3,2.74,1.45,4.36,3.66
		c5.29,7.23,1.51,21.13-8.27,34.89c0.22-0.91,1.57-7.03-2.44-12.53c-3.24-4.44-7.88-5.59-9.07-5.84"/>
	<path class="st4" d="M126.97,583.54c0.59-0.8,4.8-6.68,2.8-13.63c-1.6-5.57-7.06-11.32-12.59-10.41
		c-6.58,1.08-8.61,10.82-8.82,11.87c-1.12,5.71,0.89,10.39,1.77,12.18"/>
	<g class="st1">
		<path class="st5" d="M120.64,568.48c-0.3,1.06-0.55,2.12-0.66,3.19c-0.13,1.07-0.17,2.13-0.11,3.18c0.05,1.06,0.39,2.06,0.42,3.09
			c0.05,1.04,0.11,2.09-0.01,3.31l-0.19,0.07c-0.92-0.83-1.44-1.92-1.77-3.04c-0.34-1.13-0.17-2.34-0.04-3.48
			c0.12-1.15,0.37-2.28,0.74-3.36c0.39-1.07,0.85-2.1,1.45-3.05L120.64,568.48z"/>
	</g>
	<path class="st4" d="M115.52,558.84c-1.05-3.79-3.65-11.22-10.24-18.2c-7.32-7.77-15.56-10.75-19.36-11.87"/>
	<path class="st4" d="M46.86,598.15c-4.44,0.03-13.68,0.76-19.02,7.22c-10.57,12.8,3.69,36.57,5.22,39.12
		c9.23,15.38,31.9,36.38,61.12,30.64c31.25-6.14,43.41-37.64,45.22-56.02c0.42-4.23,2.93-29.6-11.31-36.66
		c-8.45-4.19-18.49,0.21-21.99,1.95l-5.6-15.07c0.47-0.56,5.03-6.13,3.21-13.37c-1.12-4.44-4.6-9.33-9.39-10.21
		c-6.33-1.17-14.45,4.75-16.17,14.97c-5.4,1.25-10.8,2.51-16.2,3.76c-0.55-1.01-3.42-5.98-9.48-7.62
		c-1.03-0.28-7.73-2.09-12.14,2.11c-5.31,5.07-2,13.83-1.84,14.22c2.05,5.2,6.45,7.6,7.76,8.25c0.8,5.81,1.61,11.63,2.41,17.44"/>
	<path class="st4" d="M46.06,567.01c1.27,1.08,11.52,9.49,25.52,6.7c15.16-3.01,21.31-16.47,21.85-17.7"/>
	<path class="st4" d="M55.24,572.83c-2.67,8.01,1.32,15.17,6.24,16.32c3.48,0.82,8.33-1.16,10.2-5.41c1.38-3.13,0.86-6.87-1.32-9.73
		"/>
	<path class="st4" d="M88.37,565.14c5.92,6.02,5.49,14.2,1.58,17.4c-2.77,2.27-7.99,2.63-11.54-0.36c-2.62-2.2-3.8-5.78-3.1-9.32"/>
	<path class="st4" d="M47.31,601.67c0.73-1.02,2.7-3.51,6.25-4.84c2.67-1,5.02-0.9,6.26-0.75c0.16-0.47,1.87-5.16,6.77-6.6
		c3.83-1.13,8.07,0.18,10.79,3.34c0.98-4.25,4.36-7.41,8.37-7.91c4.73-0.58,8,2.84,8.34,3.21c1.24-0.68,3.18-1.53,5.67-1.85
		c4.26-0.55,7.62,0.77,9.09,1.47"/>
	<path class="st4" d="M35.84,624.73c12,22.58,34.87,34.59,54.02,30.25c24.26-5.5,34.66-35.45,35.97-39.21
		c1.79-5.15,2.62-9.64,3.04-12.77c-5.53,4.21-13.97,9.73-25.22,13.88c-5.75,2.12-10.23,3.07-19.19,4.98
		c-11.81,2.51-22.66,4.75-36.58,4.1C42.81,625.74,38.65,625.19,35.84,624.73z"/>
	<path class="st4" d="M47.88,625.97c1.52,4.03,3.72,8.86,6.93,14c3.05,4.87,6.24,8.79,9.05,11.83"/>
	<path class="st4" d="M64.3,626.16c1.27,4.29,3.15,9.43,6.03,14.95c3.19,6.12,6.7,11.01,9.76,14.71"/>
	<line class="st4" x1="83.78" y1="622.01" x2="91.35" y2="654.64"/>
	<path class="st4" d="M115.98,610.17c0.41,4.28,0.56,9.59-0.06,15.62c-0.59,5.71-1.73,10.64-2.92,14.6"/>
	<path class="st4" d="M102.7,617.25c0.75,4.41,1.32,9.85,1.17,16.07c-0.17,6.9-1.16,12.84-2.29,17.51"/>
	<path class="st4" d="M42.21,634.52c7.07,2.35,25.02,7.27,46.77,1.55c19.1-5.01,31.35-15.66,36.7-20.93"/>
	<circle class="st6" cx="63.47" cy="582.22" r="2.82"/>
	<circle class="st6" cx="84.53" cy="577.34" r="2.82"/>
	<g class="st1">
		<path class="st2" d="M250.98,651.71c2.53-1.21,23.63-10.9,43.1,0c12.03,6.74,16.89,17.67,18.43,21.27
			c11.14,26.07-1.9,63.21-25.8,72.59c-6.21,2.44-12.07,2.57-16.16,2.27C264.02,715.79,257.5,683.75,250.98,651.71z"/>
		<path class="st2" d="M320.73,649.16l-2.55,91.87h21.83v-25.64c0-0.04,0.05-0.05,0.07-0.02l11.84,25.65l26.65-5.67l-23.43-40.7
			c-0.06-0.11-0.05-0.24,0.02-0.34l29.09-40.34l-30.34-9.36l-12.14,36.15c-0.01,0.03-0.05,0.02-0.05-0.01l0.56-32.74L320.73,649.16z
			"/>
		<path class="st2" d="M275.89,679.85c0.81-0.39,7.59-3.5,13.84,0c3.86,2.16,5.42,5.67,5.92,6.83c3.58,8.37-0.61,20.3-8.29,23.31
			c-1.99,0.78-3.88,0.83-5.19,0.73C280.08,700.43,277.98,690.14,275.89,679.85z"/>
		<path class="st2" d="M240.77,644.99l21.55,109.45c3.94,1,13.74,2.93,25.24-0.85c12.43-4.09,19.41-12.41,21.83-15.59l1.51,7.84
			c0.28,1.44,1.54,2.48,3,2.48h26.96c1.87,0,3.73,0.36,5.47,1.05l4.88,1.95c11.57-2.92,23.14-5.85,34.71-8.77
			c2.37-0.6,3.59-3.23,2.52-5.43c-2.33-4.79-4.86-9.71-7.6-14.72c-5.33-9.75-10.79-18.66-16.18-26.73c-0.33-0.49-0.3-1.13,0.05-1.6
			c10.34-13.57,20.68-27.14,31.02-40.71c0.94-1.23,0.49-3.02-0.93-3.63c-6.22-2.69-12.96-5.34-20.19-7.86
			c-7.5-2.61-14.68-4.78-21.43-6.57c-1.23-0.33-2.53-0.01-3.48,0.84l-1.35,1.2c-12.04,0.66-24.08,1.32-36.11,1.98
			c0,6.05,0,12.1,0,18.15c-2.91-4.41-6.11-7.6-9.07-9.92C279.97,629.37,244.88,643.3,240.77,644.99z"/>
	</g>
	
		<ellipse transform="matrix(0.956 -0.2934 0.2934 0.956 -199.3079 174.5358)" class="st3" cx="482.04" cy="751.53" rx="7.26" ry="5.39"/>
	<ellipse class="st3" cx="417.74" cy="806.23" rx="2.04" ry="4.07"/>
	<ellipse class="st3" cx="418.86" cy="819.86" rx="2.58" ry="4.85"/>
	
		<ellipse transform="matrix(0.5476 -0.8368 0.8368 0.5476 -502.2425 746.942)" class="st3" cx="439.61" cy="837.92" rx="3.92" ry="5.32"/>
	<path class="st4" d="M417.74,802.16c8.89-2,48.08-11.67,56.69-39.86c0.68-2.23,1.19-4.63,1.46-7.21"/>
	<path class="st4" d="M418.86,815c5.33-1.25,47.38-11.69,56.98-44.01c1.19-4,2.03-8.84,1.92-14.52"/>
	<path class="st4" d="M437.39,833.61c7.52-4.93,45.49-30.72,44.09-65.91c-0.13-3.33-0.62-6.9-1.63-10.67"/>
	<path class="st4" d="M489.06,751.53c0.89,2.47,2.08,5.25,3.7,8.19c1.31,2.38,2.69,4.49,4.04,6.34c0,0,2.79,4.44,5.24,10.77
		c2.71,6.99,3.63,28.6-9.75,45.37c-11.9,14.91-31.85,21.92-51.92,18.79"/>
	<path class="st4" d="M418.86,823.62c1.55,1.64,4.52,4.34,9.06,6.11c5.82,2.26,10.95,1.71,13.26,1.32"/>
	<path class="st4" d="M417.58,809.05c1.82,1.62,3.63,3.24,5.45,4.86"/>
	<path class="st4" d="M419.53,808.13c1.52,0.76,3.66,1.62,6.33,2.04c4.81,0.75,8.73-0.34,10.77-1.08"/>
	<path class="st4" d="M421.31,821.4c2.58,0.64,5.41,1.19,8.48,1.57c8.98,1.1,16.81,0.29,22.79-0.9"/>
	<path class="st4" d="M442.25,837.92c3.31-0.33,29.41-3.38,43.46-26.28c8.41-13.72,8.16-27.48,7.75-33.01"/>
	<path class="st4" d="M596.66,840.81"/>
	<path class="st4" d="M611.66,909.18c0.88-0.45,7.25-3.88,8.52-11c1.01-5.7-1.35-13.27-6.72-14.89c-6.38-1.92-12.5,5.92-13.15,6.77
		c-3.52,4.64-3.78,9.72-3.77,11.71"/>
	<g class="st1">
		<path class="st5" d="M612.61,892.87c-0.74,0.82-1.43,1.67-2,2.58c-0.58,0.9-1.09,1.84-1.5,2.8c-0.42,0.97-0.56,2.02-0.99,2.96
			c-0.42,0.96-0.82,1.93-1.47,2.97l-0.2-0.02c-0.46-1.15-0.45-2.36-0.25-3.51c0.19-1.17,0.88-2.17,1.49-3.15
			c0.61-0.98,1.34-1.88,2.14-2.69c0.82-0.79,1.69-1.51,2.65-2.1L612.61,892.87z"/>
	</g>
	<path class="st4" d="M612.27,881.96c0.55-3.87,1.28-12.73-2.94-22.66c-3.17-7.46-7.88-12.58-11.67-15.8
		c-2.01-1.71-3.75-2.88-4.88-3.59"/>
	<path class="st4" d="M597.66,843.5c-0.32-3.7-1.86-15.73-11.72-24.47c-5.23-4.64-17.16-12.19-26.04-7.68
		c-0.6,0.3-2.74,1.45-4.36,3.66c-5.29,7.23-1.51,21.13,8.27,34.89c-0.22-0.91-1.57-7.03,2.44-12.53c3.24-4.44,7.88-5.59,9.07-5.84"
		/>
	<path class="st4" d="M512.53,887.34c-0.59-0.8-4.8-6.68-2.8-13.63c1.6-5.57,7.06-11.32,12.59-10.41
		c6.58,1.08,8.61,10.82,8.82,11.87c1.12,5.71-0.89,10.39-1.77,12.18"/>
	<g class="st1">
		<path class="st5" d="M519.04,872.21c0.6,0.95,1.06,1.98,1.45,3.05c0.37,1.08,0.62,2.2,0.74,3.36c0.12,1.14,0.3,2.35-0.04,3.48
			c-0.33,1.12-0.86,2.21-1.77,3.04l-0.19-0.07c-0.12-1.22-0.06-2.26-0.01-3.31c0.03-1.03,0.36-2.04,0.42-3.09
			c0.05-1.05,0.01-2.11-0.11-3.18c-0.11-1.07-0.36-2.13-0.66-3.19L519.04,872.21z"/>
	</g>
	<path class="st4" d="M523.98,862.64c1.05-3.79,3.65-11.22,10.24-18.2c7.32-7.77,15.56-10.75,19.36-11.87"/>
	<path class="st4" d="M592.64,901.96c4.44,0.03,13.68,0.76,19.02,7.22c10.57,12.8-3.69,36.57-5.22,39.12
		c-9.23,15.38-31.9,36.38-61.12,30.64c-31.25-6.14-43.41-37.64-45.22-56.02c-0.42-4.23-2.93-29.6,11.31-36.66
		c8.45-4.19,18.49,0.21,21.99,1.95l5.6-15.07c-0.47-0.56-5.03-6.13-3.21-13.37c1.12-4.44,4.6-9.33,9.39-10.21
		c6.33-1.17,14.45,4.75,16.17,14.97c5.4,1.25,10.8,2.51,16.2,3.76c0.55-1.01,3.42-5.98,9.48-7.62c1.03-0.28,7.73-2.09,12.14,2.11
		c5.31,5.07,2,13.83,1.84,14.22c-2.05,5.2-6.45,7.6-7.76,8.25c-0.8,5.81-1.61,11.63-2.41,17.44"/>
	<path class="st4" d="M593.44,870.81c-1.27,1.08-11.52,9.49-25.52,6.7c-15.16-3.01-21.31-16.47-21.85-17.7"/>
	<path class="st4" d="M584.26,876.63c2.67,8.01-1.32,15.17-6.24,16.32c-3.48,0.82-8.33-1.16-10.2-5.41
		c-1.38-3.13-0.86-6.87,1.32-9.73"/>
	<path class="st4" d="M551.13,868.94c-5.92,6.02-5.49,14.2-1.58,17.4c2.77,2.27,7.99,2.63,11.54-0.36c2.62-2.2,3.8-5.78,3.1-9.32"/>
	<path class="st4" d="M592.19,905.48c-0.73-1.02-2.7-3.51-6.25-4.84c-2.67-1-5.02-0.9-6.26-0.75c-0.16-0.47-1.87-5.16-6.77-6.6
		c-3.83-1.13-8.07,0.18-10.79,3.34c-0.98-4.25-4.36-7.41-8.37-7.91c-4.73-0.58-8,2.84-8.34,3.21c-1.24-0.68-3.18-1.53-5.67-1.85
		c-4.26-0.55-7.62,0.77-9.09,1.47"/>
	<path class="st4" d="M603.66,928.54c-12,22.58-34.87,34.59-54.02,30.25c-24.26-5.5-34.66-35.45-35.97-39.21
		c-1.79-5.15-2.62-9.64-3.04-12.77c5.53,4.21,13.97,9.73,25.22,13.88c5.75,2.12,10.23,3.07,19.19,4.98
		c11.81,2.51,22.66,4.75,36.58,4.1C596.69,929.55,600.85,928.99,603.66,928.54z"/>
	<path class="st4" d="M591.62,929.78c-1.52,4.03-3.72,8.86-6.93,14c-3.05,4.87-6.24,8.79-9.05,11.83"/>
	<path class="st4" d="M575.2,929.97c-1.27,4.29-3.15,9.43-6.03,14.95c-3.19,6.12-6.7,11.01-9.76,14.71"/>
	<line class="st4" x1="555.72" y1="925.82" x2="548.14" y2="958.45"/>
	<path class="st4" d="M523.51,913.97c-0.41,4.28-0.56,9.59,0.06,15.62c0.59,5.71,1.73,10.64,2.92,14.6"/>
	<path class="st4" d="M536.8,921.05c-0.75,4.41-1.32,9.85-1.17,16.07c0.17,6.9,1.16,12.84,2.29,17.51"/>
	<path class="st4" d="M597.29,938.33c-7.07,2.35-25.02,7.27-46.77,1.55c-19.1-5.01-31.35-15.66-36.7-20.93"/>
	<circle class="st6" cx="576.03" cy="886.03" r="2.82"/>
	<circle class="st6" cx="554.97" cy="881.14" r="2.82"/>
	<g class="st1">
		<path class="st2" d="M174.52,763.75c-10.52-1.36-28.35-2.3-49.26,3.47c-19.53,5.39-33.64,14.39-41.91,20.61
			c-3.77,12.14-7.81,31.02-5.26,53.69c5.34,47.47,35.69,77.2,45.3,85.92c10.64,0.84,27.55,0.85,47.09-5.01
			c16.81-5.05,29.42-12.61,37.55-18.39c3.88-12.65,11.87-44.8,0.4-82.79C199.69,792.3,183.67,773.19,174.52,763.75z"/>
		<path class="st2" d="M176.19,765.51c-7.44,6.41-21.12,16.5-40.88,22.38c-23.85,7.09-44.13,4.35-54.17,2.29"/>
		<path class="st2" d="M183.05,775.99c-1.39,1.31-3.03,2.8-4.93,4.39c-8.25,6.92-21.36,15.9-39.34,21.38
			c-26.6,8.11-49.18,4.09-59.28,1.64"/>
		<path class="st2" d="M198.88,801.14c-9.8,8.16-27.22,20.52-52.01,27.87c-30.39,9.01-56.28,5.85-69.48,3.3"/>
		<path class="st2" d="M205.55,812.72c-9.37,8.53-27.67,22.91-54.81,30.94c-32.19,9.53-59.45,5-72.11,2.05"/>
		<path class="st2" d="M212.67,839.83c-9.98,8.67-28.31,22.29-54.8,30.27c-32.6,9.82-60.35,5.92-73.89,3.07"/>
		<path class="st2" d="M214.25,855.86c-9.42,8.21-26.99,21.34-52.51,28.9c-30.68,9.08-56.73,5.34-69.43,2.64"/>
		<path class="st2" d="M213.06,880.98c-7.31,7.13-22.56,20.08-45.88,27.17c-26.66,8.1-49.25,4.07-59.28,1.64"/>
		<path class="st2" d="M100.55,784.7c0.66,2.76,16.71,1.85,29.65-1.47c14.05-3.61,27.94-10.96,27.17-13.53
			c-0.76-2.52-15.44-0.11-18.67,0.42C119.66,773.25,99.78,781.5,100.55,784.7z"/>
		<path class="st2" d="M192.98,804.93c-1.28-3.47-3.04-7.48-5.51-11.74c-3.1-5.34-6.43-9.59-9.36-12.81"/>
		<path class="st2" d="M156,826.77c-0.21-4.04-0.84-9.19-2.48-14.95c-1.55-5.44-3.57-9.93-5.41-13.36"/>
		<path class="st2" d="M129.07,833.08c-1.58-3.36-3.21-7.49-4.52-12.31c-1.48-5.5-2.15-10.45-2.42-14.52"/>
		<path class="st2" d="M87.79,834.83c-0.72-3.74-1.3-8.03-1.53-12.79c-0.32-6.51,0.09-12.29,0.74-17.08"/>
		<path class="st2" d="M204.74,847.38c-0.54-3.85-1.32-8.05-2.43-12.52c-1.42-5.73-3.13-10.84-4.88-15.29"/>
		<path class="st2" d="M167.48,866.84c-0.74-4.03-1.75-8.43-3.13-13.12c-1.38-4.72-2.93-9-4.48-12.81"/>
		<path class="st2" d="M139.75,874.33c-1.21-2.98-2.4-6.4-3.39-10.22c-1.5-5.76-2.19-11.01-2.47-15.42"/>
		<path class="st2" d="M96.97,875.84c-1.41-3.75-2.78-7.98-3.96-12.65c-1.41-5.56-2.29-10.71-2.84-15.3"/>
		<path class="st2" d="M203.84,889.04c0.78-3.05,1.47-6.53,1.9-10.39c0.69-6.13,0.55-11.57,0.11-16.03"/>
		<path class="st2" d="M173.14,907.05c0.05-3.06-0.15-6.83-0.97-11.05c-1.06-5.47-2.82-9.92-4.4-13.18"/>
		<path class="st2" d="M151.77,911.65c-1.06-2.31-2.1-4.82-3.08-7.51c-1.91-5.28-3.19-10.23-4.05-14.66"/>
		<path class="st2" d="M118.63,911.83c-2.17-1.91-4.64-4.41-7.02-7.62c-3.86-5.2-6-10.26-7.23-13.99"/>
	</g>
	<g class="st1">
		<path class="st2" d="M343.77,928.74c1.79-0.86,16.69-7.7,30.44,0c8.5,4.76,11.93,12.48,13.02,15.02
			c7.87,18.42-1.34,44.65-18.23,51.27c-4.39,1.72-8.53,1.82-11.42,1.6C352.99,974,348.38,951.37,343.77,928.74z"/>
		<path class="st2" d="M393.04,926.93l-1.8,64.89h15.42v-18.11c0-0.03,0.04-0.04,0.05-0.01l8.36,18.12l18.83-4.01l-16.55-28.75
			c-0.04-0.08-0.04-0.17,0.01-0.24l20.55-28.5l-21.43-6.61l-8.58,25.54c-0.01,0.02-0.03,0.01-0.03-0.01l0.4-23.13L393.04,926.93z"/>
		<path class="st2" d="M361.37,948.62c0.57-0.27,5.36-2.47,9.78,0c2.73,1.53,3.83,4.01,4.18,4.82c2.53,5.91-0.43,14.34-5.85,16.47
			c-1.41,0.55-2.74,0.58-3.67,0.51C364.32,963.15,362.85,955.88,361.37,948.62z"/>
		<path class="st2" d="M336.56,923.99l15.22,77.31c2.78,0.71,9.7,2.07,17.83-0.6c8.78-2.89,13.71-8.76,15.42-11.02l1.07,5.54
			c0.2,1.02,1.09,1.75,2.12,1.75h19.04c1.32,0,2.64,0.25,3.86,0.74l3.45,1.38c8.17-2.07,16.35-4.13,24.52-6.2
			c1.68-0.42,2.53-2.28,1.78-3.83c-1.65-3.38-3.43-6.86-5.37-10.4c-3.76-6.89-7.62-13.18-11.43-18.88c-0.23-0.35-0.22-0.8,0.04-1.13
			c7.3-9.58,14.61-19.17,21.91-28.75c0.66-0.87,0.34-2.13-0.66-2.57c-4.4-1.9-9.15-3.77-14.26-5.55c-5.3-1.84-10.37-3.37-15.14-4.64
			c-0.87-0.23-1.79,0-2.46,0.59l-0.95,0.85c-8.5,0.47-17.01,0.93-25.51,1.4c0,4.27,0,8.55,0,12.82c-2.06-3.12-4.31-5.37-6.41-7.01
			C364.25,912.95,339.46,922.79,336.56,923.99z"/>
	</g>
</g>
</svg>
