<svg width="289" height="116" viewBox="0 0 289 116" fill="none" xmlns="http://www.w3.org/2000/svg">
<path d="M178.377 0.999192C185.833 -1.36074 195.269 0.568904 201.882 5.63477C206.948 9.5118 210.818 17.5808 210.897 24.9489C211.242 42.7682 209.356 61.1597 211.776 79.0411C214.179 92.8813 228.094 101.412 241.483 99.828C251.25 98.6658 260.031 91.8344 262.933 82.2704C263.958 78.6551 263.569 75.3725 263.684 71.7173L264.334 51.7067C264.961 32.3836 260.358 8.05237 280.647 2.25013C282.758 2.51186 284.521 6.20258 285.232 7.72855C286.451 10.3458 288.214 13.8147 289 16.6803C277.4 22.345 280.236 34.5173 280.121 41.2378C280.121 41.2378 279.631 70.3732 279.631 70.3909C279.335 87.8819 272.572 105.976 255 112.36C243.502 116.538 230.55 115.815 219.021 112.142C211.326 109.689 205.164 102.738 201.519 95.6848C194.421 81.9466 195.141 65.6178 195.547 50.6021C195.799 41.3132 197.756 26.883 190.489 19.5459C187.477 16.5029 182.472 19.7811 180.935 23.4895C177.803 31.0573 174.671 38.625 171.539 46.1928C165.69 60.3302 159.842 74.4676 153.993 88.6006C152.244 92.828 150.495 97.0511 148.75 101.279C147.376 104.601 146.559 108.536 144.028 111.211C141.62 113.757 138.104 115.247 134.606 115.105C129.831 114.915 129.641 111.858 127.993 108.252C127.207 106.531 126.42 104.81 125.634 103.088C119.41 89.4611 114.025 75.337 108.592 61.3815C105.699 53.9513 102.805 46.521 99.9077 39.0864C97.8404 33.7765 95.7686 28.4667 93.7013 23.1568C91.8858 18.4946 87.6938 15.5092 82.7685 15.6024C73.2138 15.7798 64.3836 15.212 54.6169 15.9129L54.6036 111.703C54.6036 112.049 54.4357 112.604 54.5418 112.892C50.0052 113.016 45.5348 113.952 40.3533 112.932C39.62 109.512 39.5759 106.389 39.5891 103.501L39.8012 62.6103L39.8144 15.9661C26.2223 15.5358 13.3502 16.5783 0.486986 15.3806L0.288206 12.9364C-0.0430931 8.80205 -0.498077 4.36609 1.5604 0.613264C8.5486 0.413645 15.5766 0.515672 22.5648 0.57334L66.7292 0.919345C69.4856 0.941525 72.242 0.977013 74.9763 0.586648C75.6742 0.489057 76.3987 0.644315 77.0966 0.586648C82.6624 0.112 88.3431 0.0632044 94.4655 1.22986C100.588 2.88448 105.473 6.94782 107.841 12.9852L137.15 87.6956L166.349 15.212C168.601 9.6227 172.639 2.82237 178.377 1.00806V0.999192Z" fill="white"/>
<path d="M221.437 45.6383C224.719 43.9393 228.947 44.6668 230.532 47.9007C231.796 50.4779 231.743 54.6123 228.894 56.1471C226.018 57.6997 222.042 57.7707 219.67 55.1268C217.528 52.7358 217.784 47.5236 221.437 45.6339V45.6383Z" fill="white"/>
<path d="M246.629 45.6383C249.911 43.9393 254.138 44.6668 255.724 47.9007C256.988 50.4779 256.935 54.6123 254.085 56.1471C251.21 57.6997 247.234 57.7707 244.862 55.1268C242.72 52.7358 242.976 47.5236 246.629 45.6339V45.6383Z" fill="white"/>
</svg>
