<svg width="297" height="124" viewBox="0 0 297 124" fill="none" xmlns="http://www.w3.org/2000/svg">
<g filter="url(#filter0_d_213_496)">
<path d="M182.377 0.999192C189.833 -1.36074 199.269 0.568904 205.882 5.63477C210.948 9.5118 214.818 17.5808 214.897 24.949C215.242 42.7682 213.356 61.1597 215.776 79.0411C218.179 92.8813 232.094 101.412 245.483 99.828C255.25 98.6658 264.031 91.8344 266.933 82.2704C267.958 78.6551 267.569 75.3725 267.684 71.7173L268.334 51.7067C268.961 32.3836 264.358 8.05237 284.647 2.25013C286.758 2.51186 288.521 6.20258 289.232 7.72855C290.451 10.3458 292.214 13.8147 293 16.6803C281.4 22.345 284.236 34.5173 284.121 41.2378C284.121 41.2378 283.631 70.3732 283.631 70.3909C283.335 87.8819 276.572 105.976 259 112.36C247.502 116.538 234.55 115.815 223.021 112.142C215.326 109.689 209.164 102.738 205.519 95.6848C198.421 81.9466 199.141 65.6178 199.547 50.6021C199.799 41.3132 201.756 26.883 194.489 19.5459C191.477 16.5029 186.472 19.7811 184.935 23.4895C181.803 31.0573 178.671 38.625 175.539 46.1928C169.69 60.3302 163.842 74.4676 157.993 88.6006C156.244 92.828 154.495 97.0511 152.75 101.279C151.376 104.601 150.559 108.536 148.028 111.211C145.62 113.757 142.104 115.247 138.606 115.105C133.831 114.915 133.641 111.858 131.993 108.252C131.207 106.531 130.42 104.81 129.634 103.088C123.41 89.4611 118.025 75.337 112.592 61.3815C109.699 53.9513 106.805 46.521 103.908 39.0864C101.84 33.7765 99.7686 28.4667 97.7013 23.1568C95.8858 18.4946 91.6938 15.5092 86.7685 15.6024C77.2138 15.7798 68.3836 15.212 58.6169 15.9129L58.6036 111.703C58.6036 112.049 58.4357 112.604 58.5418 112.892C54.0052 113.016 49.5348 113.952 44.3533 112.932C43.62 109.512 43.5759 106.389 43.5891 103.501L43.8012 62.6103L43.8144 15.9661C30.2223 15.5358 17.3502 16.5783 4.48699 15.3806L4.28821 12.9364C3.95691 8.80205 3.50192 4.36609 5.5604 0.613264C12.5486 0.413645 19.5766 0.515672 26.5648 0.57334L70.7292 0.919345C73.4856 0.941525 76.242 0.977012 78.9763 0.586648C79.6742 0.489057 80.3987 0.644315 81.0966 0.586648C86.6624 0.112 92.3431 0.0632044 98.4655 1.22986C104.588 2.88448 109.473 6.94782 111.841 12.9852L141.15 87.6956L170.349 15.212C172.601 9.6227 176.639 2.82237 182.377 1.00806V0.999192Z" fill="white"/>
<path d="M225.437 45.6383C228.719 43.9393 232.947 44.6668 234.532 47.9007C235.796 50.4779 235.743 54.6123 232.894 56.1471C230.018 57.6997 226.042 57.7707 223.67 55.1268C221.528 52.7358 221.784 47.5236 225.437 45.6339V45.6383Z" fill="white"/>
<path d="M250.629 45.6383C253.911 43.9393 258.138 44.6668 259.724 47.9007C260.988 50.4779 260.935 54.6123 258.085 56.1471C255.21 57.6997 251.234 57.7707 248.862 55.1268C246.72 52.7358 246.976 47.5236 250.629 45.6339V45.6383Z" fill="white"/>
</g>
<defs>
<filter id="filter0_d_213_496" x="0" y="0" width="297" height="123.206" filterUnits="userSpaceOnUse" color-interpolation-filters="sRGB">
<feFlood flood-opacity="0" result="BackgroundImageFix"/>
<feColorMatrix in="SourceAlpha" type="matrix" values="0 0 0 0 0 0 0 0 0 0 0 0 0 0 0 0 0 0 127 0" result="hardAlpha"/>
<feOffset dy="4"/>
<feGaussianBlur stdDeviation="2"/>
<feComposite in2="hardAlpha" operator="out"/>
<feColorMatrix type="matrix" values="0 0 0 0 0 0 0 0 0 0 0 0 0 0 0 0 0 0 0.7 0"/>
<feBlend mode="normal" in2="BackgroundImageFix" result="effect1_dropShadow_213_496"/>
<feBlend mode="normal" in="SourceGraphic" in2="effect1_dropShadow_213_496" result="shape"/>
</filter>
</defs>
</svg>
