<svg width="640" height="960" viewBox="0 0 640 960" fill="none" xmlns="http://www.w3.org/2000/svg">
<g clip-path="url(#clip0_213_283)">
<rect width="640" height="960" fill="white"/>
<path d="M640 0H0V960H640V0Z" fill="#594EB7"/>
<g filter="url(#filter0_d_213_283)">
<path d="M558.291 970.653C530.55 972.847 501.343 964.018 473.722 961.603C410.3 956.057 346.298 962.198 282.62 960.48C225.298 958.932 167.72 952.723 110.483 948.657C86.5933 946.956 39.1884 949.558 20.3594 936.204C14.5147 932.053 9.26646 924.67 6.74456 918.002C-9.28994 875.558 11.1239 774.627 32.6111 734.31C61.9027 679.328 120.281 692.801 128.631 753.941C132.09 779.237 120.605 827.976 131.101 846.842C136.043 855.756 149.641 862.68 159.745 861.251C189.514 857.049 192.513 793.17 238.742 799.43C265.955 803.105 276.196 826.462 292.656 842.147C315.762 864.143 335.818 833.794 351.648 819.708C375.027 798.937 396.429 788.424 424.153 810.93C445.76 828.469 465.543 875.728 499.895 855.858C530.124 838.37 520.002 786.757 507.546 760.644C454.279 649.03 347.678 778.421 273.93 719.544C206.605 665.787 274.85 551.451 353.182 585.083C376.22 594.984 378.179 615.755 392.339 630.76C408.408 647.805 422.449 618.222 431.838 607.743C458.693 577.819 494.528 583.093 519.747 611.877C530.959 624.687 538.729 641.494 549.311 654.185C563.846 671.588 569.537 662.129 588.178 663.66C594.943 664.222 600.856 666.246 606.309 670.278C641.837 696.595 640.917 791.129 639.486 831.514C637.475 888.18 629.159 965.005 558.308 970.636L558.291 970.653Z" fill="#0A69ED"/>
</g>
<g filter="url(#filter1_d_213_283)">
<path d="M650.631 -45.3017C682.507 -10.9659 622.112 33.218 596.697 49.4224C559.754 72.9605 519.865 88.888 484.423 116.226C451.692 141.471 430.232 177.136 388.491 143.859C357.729 119.33 337.624 84.463 301.765 64.8657C294.632 60.97 272.826 51.7756 265.257 53.158C255.959 54.8436 251.983 71.79 249.403 80.0039C239.015 113.048 236.607 148.518 224.783 181.189C210.85 219.665 196.464 221.766 158.648 221.084C125.171 220.482 46.2881 215.272 19.206 198.336C-11.5598 179.085 2.59228 153.203 30.3194 140.921C58.2351 128.561 113.298 128.909 133.881 109.096C153.562 90.1623 150.133 43.7221 154.241 17.8052C175.553 -116.835 315.658 -27.1077 391.781 -9.15228C411.176 -4.56963 452.247 -0.726412 471.115 -5.83765C506.389 -15.3911 542.166 -32.9375 576.81 -45.1829C599.096 -53.0657 631.632 -65.7142 650.608 -45.2672L650.631 -45.3017Z" fill="#0B69EF"/>
</g>
<g filter="url(#filter2_d_213_283)">
<path d="M354.377 193.999C361.833 191.639 371.269 193.569 377.882 198.635C382.948 202.512 386.818 210.581 386.897 217.949C387.242 235.768 385.356 254.16 387.776 272.041C390.179 285.881 404.094 294.412 417.483 292.828C427.25 291.666 436.031 284.834 438.933 275.27C439.958 271.655 439.569 268.373 439.684 264.717L440.334 244.707C440.961 225.384 436.358 201.052 456.647 195.25C458.758 195.512 460.521 199.203 461.232 200.729C462.451 203.346 464.214 206.815 465 209.68C453.4 215.345 456.236 227.517 456.121 234.238C456.121 234.238 455.631 263.373 455.631 263.391C455.335 280.882 448.572 298.976 431 305.36C419.502 309.538 406.55 308.815 395.021 305.142C387.326 302.689 381.164 295.738 377.519 288.685C370.421 274.947 371.141 258.618 371.547 243.602C371.799 234.313 373.756 219.883 366.489 212.546C363.477 209.503 358.472 212.781 356.935 216.49C353.803 224.057 350.671 231.625 347.539 239.193C341.69 253.33 335.842 267.468 329.993 281.601C328.244 285.828 326.495 290.051 324.75 294.279C323.376 297.601 322.559 301.536 320.028 304.211C317.62 306.757 314.104 308.247 310.606 308.105C305.831 307.915 305.641 304.858 303.993 301.252C303.207 299.531 302.42 297.81 301.634 296.088C295.41 282.461 290.025 268.337 284.592 254.382C281.699 246.951 278.805 239.521 275.908 232.086C273.84 226.777 271.769 221.467 269.701 216.157C267.886 211.495 263.694 208.509 258.768 208.602C249.214 208.78 240.384 208.212 230.617 208.913L230.604 304.703C230.604 305.049 230.436 305.604 230.542 305.892C226.005 306.016 221.535 306.952 216.353 305.932C215.62 302.512 215.576 299.389 215.589 296.501L215.801 255.61L215.814 208.966C202.222 208.536 189.35 209.578 176.487 208.381L176.288 205.936C175.957 201.802 175.502 197.366 177.56 193.613C184.549 193.414 191.577 193.516 198.565 193.573L242.729 193.919C245.486 193.942 248.242 193.977 250.976 193.587C251.674 193.489 252.399 193.644 253.097 193.587C258.662 193.112 264.343 193.063 270.466 194.23C276.588 195.884 281.473 199.948 283.841 205.985L313.15 280.696L342.349 208.212C344.601 202.623 348.639 195.822 354.377 194.008V193.999Z" fill="white"/>
<path d="M397.437 238.638C400.719 236.939 404.947 237.667 406.532 240.901C407.796 243.478 407.743 247.612 404.894 249.147C402.018 250.7 398.042 250.771 395.67 248.127C393.528 245.736 393.784 240.524 397.437 238.634V238.638Z" fill="white"/>
<path d="M422.629 238.638C425.911 236.939 430.138 237.667 431.724 240.901C432.988 243.478 432.935 247.612 430.085 249.147C427.21 250.7 423.234 250.771 420.862 248.127C418.72 245.736 418.976 240.524 422.629 238.634V238.638Z" fill="white"/>
</g>
</g>
<defs>
<filter id="filter0_d_213_283" x="-3" y="579" width="647" height="400" filterUnits="userSpaceOnUse" color-interpolation-filters="sRGB">
<feFlood flood-opacity="0" result="BackgroundImageFix"/>
<feColorMatrix in="SourceAlpha" type="matrix" values="0 0 0 0 0 0 0 0 0 0 0 0 0 0 0 0 0 0 127 0" result="hardAlpha"/>
<feOffset dy="4"/>
<feGaussianBlur stdDeviation="2"/>
<feComposite in2="hardAlpha" operator="out"/>
<feColorMatrix type="matrix" values="0 0 0 0 0 0 0 0 0 0 0 0 0 0 0 0 0 0 0.25 0"/>
<feBlend mode="normal" in2="BackgroundImageFix" result="effect1_dropShadow_213_283"/>
<feBlend mode="normal" in="SourceGraphic" in2="effect1_dropShadow_213_283" result="shape"/>
</filter>
<filter id="filter1_d_213_283" x="-2.15894" y="-56.3408" width="665.861" height="285.518" filterUnits="userSpaceOnUse" color-interpolation-filters="sRGB">
<feFlood flood-opacity="0" result="BackgroundImageFix"/>
<feColorMatrix in="SourceAlpha" type="matrix" values="0 0 0 0 0 0 0 0 0 0 0 0 0 0 0 0 0 0 127 0" result="hardAlpha"/>
<feOffset dy="4"/>
<feGaussianBlur stdDeviation="2"/>
<feComposite in2="hardAlpha" operator="out"/>
<feColorMatrix type="matrix" values="0 0 0 0 0 0 0 0 0 0 0 0 0 0 0 0 0 0 0.25 0"/>
<feBlend mode="normal" in2="BackgroundImageFix" result="effect1_dropShadow_213_283"/>
<feBlend mode="normal" in="SourceGraphic" in2="effect1_dropShadow_213_283" result="shape"/>
</filter>
<filter id="filter2_d_213_283" x="172" y="193" width="297" height="123.206" filterUnits="userSpaceOnUse" color-interpolation-filters="sRGB">
<feFlood flood-opacity="0" result="BackgroundImageFix"/>
<feColorMatrix in="SourceAlpha" type="matrix" values="0 0 0 0 0 0 0 0 0 0 0 0 0 0 0 0 0 0 127 0" result="hardAlpha"/>
<feOffset dy="4"/>
<feGaussianBlur stdDeviation="2"/>
<feComposite in2="hardAlpha" operator="out"/>
<feColorMatrix type="matrix" values="0 0 0 0 0 0 0 0 0 0 0 0 0 0 0 0 0 0 0.7 0"/>
<feBlend mode="normal" in2="BackgroundImageFix" result="effect1_dropShadow_213_283"/>
<feBlend mode="normal" in="SourceGraphic" in2="effect1_dropShadow_213_283" result="shape"/>
</filter>
<clipPath id="clip0_213_283">
<rect width="640" height="960" fill="white"/>
</clipPath>
</defs>
</svg>
