<svg width="213" height="90" viewBox="0 0 213 90" fill="none" xmlns="http://www.w3.org/2000/svg">
<g filter="url(#filter0_d_98_2504)">
<path d="M130.106 0.706393C135.378 -0.961994 142.048 0.402195 146.723 3.98358C150.305 6.72451 153.041 12.429 153.097 17.638C153.34 30.2356 152.007 43.2377 153.718 55.8792C155.417 65.6637 165.254 71.6944 174.72 70.5748C181.624 69.7532 187.833 64.9236 189.885 58.1623C190.609 55.6064 190.334 53.2857 190.415 50.7016L190.875 36.5548C191.318 22.8941 188.064 5.69274 202.407 1.59076C203.9 1.77579 205.146 4.385 205.649 5.46381C206.511 7.31409 207.757 9.76649 208.313 11.7924C200.112 15.7971 202.117 24.4025 202.036 29.1537C202.036 29.1537 201.689 49.7513 201.689 49.7639C201.48 62.1294 196.699 74.9214 184.276 79.4342C176.147 82.3884 166.991 81.8772 158.84 79.2806C153.4 77.5463 149.043 72.6321 146.467 67.6457C141.449 57.9333 141.958 46.3895 142.245 35.7739C142.423 29.207 143.806 19.0053 138.669 13.8183C136.539 11.6669 133.001 13.9845 131.914 16.6063C129.7 21.9564 127.486 27.3065 125.272 32.6566C121.137 42.6513 117.003 52.6459 112.868 62.6374C111.631 65.6261 110.395 68.6117 109.161 71.6003C108.19 73.9492 107.612 76.7309 105.823 78.622C104.121 80.4221 101.635 81.4758 99.1615 81.3755C95.7856 81.2406 95.6513 79.0798 94.4865 76.5302C93.9306 75.3134 93.3748 74.0966 92.8189 72.8798C88.4187 63.2458 84.6119 53.2606 80.7708 43.3945C78.7253 38.1416 76.6798 32.8887 74.6312 27.6327C73.1697 23.8788 71.705 20.1249 70.2435 16.371C68.96 13.075 65.9964 10.9645 62.5144 11.0303C55.7595 11.1558 49.5169 10.7544 42.6122 11.2499L42.6028 78.9701C42.6028 79.2147 42.4841 79.6067 42.5591 79.8106C39.3519 79.8984 36.1915 80.5601 32.5284 79.8388C32.01 77.4209 31.9787 75.2131 31.9881 73.1715L32.138 44.2632L32.1474 11.2875C22.5382 10.9833 13.4381 11.7203 4.34428 10.8735L4.20375 9.14555C3.96953 6.22274 3.64788 3.08667 5.10314 0.433556C10.0436 0.292433 15.0121 0.364562 19.9525 0.405331L51.1751 0.649944C53.1238 0.665625 55.0725 0.690713 57.0056 0.414739C57.499 0.345746 58.0111 0.455508 58.5046 0.414739C62.4394 0.07918 66.4554 0.0446832 70.7838 0.869469C75.1121 2.03922 78.566 4.91186 80.2399 9.18005L100.96 61.9977L121.603 10.7544C123.195 6.80291 126.05 1.99532 130.106 0.712666V0.706393Z" fill="white"/>
<path d="M160.548 32.2646C162.868 31.0635 165.857 31.5778 166.978 33.864C167.871 35.686 167.834 38.6088 165.819 39.6939C163.786 40.7915 160.976 40.8417 159.299 38.9726C157.784 37.2823 157.965 33.5974 160.548 32.2614V32.2646Z" fill="white"/>
<path d="M178.358 32.2646C180.678 31.0635 183.667 31.5778 184.788 33.864C185.681 35.686 185.644 38.6088 183.629 39.6939C181.596 40.7915 178.786 40.8417 177.109 38.9726C175.594 37.2823 175.775 33.5974 178.358 32.2614V32.2646Z" fill="white"/>
</g>
<defs>
<filter id="filter0_d_98_2504" x="0" y="0" width="212.313" height="89.4464" filterUnits="userSpaceOnUse" color-interpolation-filters="sRGB">
<feFlood flood-opacity="0" result="BackgroundImageFix"/>
<feColorMatrix in="SourceAlpha" type="matrix" values="0 0 0 0 0 0 0 0 0 0 0 0 0 0 0 0 0 0 127 0" result="hardAlpha"/>
<feOffset dy="4"/>
<feGaussianBlur stdDeviation="2"/>
<feComposite in2="hardAlpha" operator="out"/>
<feColorMatrix type="matrix" values="0 0 0 0 0 0 0 0 0 0 0 0 0 0 0 0 0 0 0.7 0"/>
<feBlend mode="normal" in2="BackgroundImageFix" result="effect1_dropShadow_98_2504"/>
<feBlend mode="normal" in="SourceGraphic" in2="effect1_dropShadow_98_2504" result="shape"/>
</filter>
</defs>
</svg>
