<svg width="640" height="960" viewBox="0 0 640 960" fill="none" xmlns="http://www.w3.org/2000/svg">
<g clip-path="url(#clip0_213_283)">
<rect width="640" height="960" fill="white"/>
<path d="M640 0H0V960H640V0Z" fill="#594EB7"/>
<g filter="url(#filter0_d_213_283)">
<path d="M558.291 970.653C530.55 972.847 501.343 964.018 473.722 961.603C410.299 956.057 346.298 962.198 282.62 960.48C225.298 958.932 167.72 952.723 110.483 948.657C86.5933 946.956 39.1884 949.558 20.3594 936.204C14.5147 932.053 9.26646 924.67 6.74456 918.002C-9.28994 875.558 11.1239 774.627 32.6111 734.31C61.9027 679.328 120.281 692.801 128.631 753.941C132.09 779.237 120.605 827.976 131.101 846.842C136.043 855.756 149.641 862.68 159.745 861.251C189.514 857.049 192.513 793.17 238.742 799.43C265.955 803.105 276.196 826.462 292.656 842.147C315.762 864.143 335.818 833.794 351.648 819.708C375.027 798.937 396.429 788.424 424.153 810.93C445.76 828.469 465.543 875.728 499.895 855.858C530.124 838.37 520.002 786.757 507.546 760.644C454.279 649.03 347.678 778.421 273.93 719.544C206.605 665.787 274.85 551.451 353.182 585.083C376.22 594.984 378.179 615.755 392.339 630.76C408.408 647.805 422.449 618.222 431.838 607.743C458.693 577.819 494.528 583.093 519.747 611.877C530.959 624.687 538.729 641.494 549.311 654.185C563.846 671.588 569.537 662.129 588.178 663.66C594.943 664.222 600.856 666.246 606.309 670.278C641.837 696.595 640.917 791.129 639.486 831.514C637.475 888.18 629.159 965.005 558.308 970.636L558.291 970.653Z" fill="#0A69ED"/>
</g>
<g filter="url(#filter1_d_213_283)">
<path d="M650.631 -45.3017C682.507 -10.9659 622.112 33.218 596.697 49.4224C559.754 72.9605 519.865 88.888 484.423 116.226C451.692 141.471 430.232 177.136 388.491 143.859C357.729 119.33 337.624 84.463 301.765 64.8657C294.632 60.97 272.826 51.7756 265.257 53.158C255.959 54.8436 251.983 71.79 249.403 80.0039C239.015 113.048 236.607 148.518 224.783 181.189C210.85 219.665 196.464 221.766 158.648 221.084C125.171 220.482 46.2881 215.272 19.206 198.336C-11.5599 179.085 2.59227 153.203 30.3194 140.921C58.2351 128.561 113.298 128.909 133.881 109.096C153.562 90.1623 150.133 43.7221 154.241 17.8052C175.553 -116.835 315.658 -27.1078 391.781 -9.15227C411.176 -4.56963 452.247 -0.726413 471.115 -5.83764C506.389 -15.3911 542.166 -32.9375 576.81 -45.1829C599.096 -53.0657 631.632 -65.7142 650.608 -45.2672L650.631 -45.3017Z" fill="#0B69EF"/>
</g>
</g>
<defs>
<filter id="filter0_d_213_283" x="-3" y="579" width="647" height="400" filterUnits="userSpaceOnUse" color-interpolation-filters="sRGB">
<feFlood flood-opacity="0" result="BackgroundImageFix"/>
<feColorMatrix in="SourceAlpha" type="matrix" values="0 0 0 0 0 0 0 0 0 0 0 0 0 0 0 0 0 0 127 0" result="hardAlpha"/>
<feOffset dy="4"/>
<feGaussianBlur stdDeviation="2"/>
<feComposite in2="hardAlpha" operator="out"/>
<feColorMatrix type="matrix" values="0 0 0 0 0 0 0 0 0 0 0 0 0 0 0 0 0 0 0.25 0"/>
<feBlend mode="normal" in2="BackgroundImageFix" result="effect1_dropShadow_213_283"/>
<feBlend mode="normal" in="SourceGraphic" in2="effect1_dropShadow_213_283" result="shape"/>
</filter>
<filter id="filter1_d_213_283" x="-2.15894" y="-56.3408" width="665.861" height="285.518" filterUnits="userSpaceOnUse" color-interpolation-filters="sRGB">
<feFlood flood-opacity="0" result="BackgroundImageFix"/>
<feColorMatrix in="SourceAlpha" type="matrix" values="0 0 0 0 0 0 0 0 0 0 0 0 0 0 0 0 0 0 127 0" result="hardAlpha"/>
<feOffset dy="4"/>
<feGaussianBlur stdDeviation="2"/>
<feComposite in2="hardAlpha" operator="out"/>
<feColorMatrix type="matrix" values="0 0 0 0 0 0 0 0 0 0 0 0 0 0 0 0 0 0 0.25 0"/>
<feBlend mode="normal" in2="BackgroundImageFix" result="effect1_dropShadow_213_283"/>
<feBlend mode="normal" in="SourceGraphic" in2="effect1_dropShadow_213_283" result="shape"/>
</filter>
<clipPath id="clip0_213_283">
<rect width="640" height="960" fill="white"/>
</clipPath>
</defs>
</svg>
