<svg width="375" height="247" viewBox="0 0 375 247" fill="none" xmlns="http://www.w3.org/2000/svg">
<g filter="url(#filter0_d_98_2298)">
<path d="M350.098 272.758C330.779 274.286 310.439 268.138 291.204 266.455C247.036 262.593 202.466 266.87 158.12 265.673C118.201 264.595 78.104 260.271 38.2442 257.44C21.6072 256.255 -11.4056 258.067 -24.5181 248.767C-28.5883 245.876 -32.2432 240.735 -33.9995 236.09C-45.1659 206.531 -30.9497 136.24 -15.986 108.162C4.41265 69.8713 45.0675 79.2544 50.8821 121.834C53.291 139.451 45.2929 173.394 52.6027 186.533C56.044 192.741 65.5136 197.563 72.5504 196.568C93.2813 193.641 95.3698 149.154 127.564 153.514C146.515 156.073 153.647 172.34 165.11 183.263C181.201 198.582 195.168 177.446 206.192 167.636C222.473 153.17 237.377 145.849 256.684 161.523C271.731 173.737 285.508 206.65 309.431 192.812C330.482 180.633 323.433 144.688 314.759 126.502C277.664 48.771 203.427 138.882 152.068 97.8785C105.184 60.4407 152.709 -19.1857 207.26 4.23668C223.303 11.1319 224.668 25.5975 234.529 36.0469C245.719 47.9181 255.497 27.3154 262.036 20.0174C280.737 -0.822231 305.693 2.85053 323.255 22.8964C331.064 31.8175 336.475 43.5227 343.844 52.3609C353.966 64.4808 357.929 57.8935 370.911 58.9598C375.622 59.3508 379.74 60.7606 383.537 63.5685C408.279 81.8964 407.639 147.732 406.642 175.858C405.241 215.322 399.451 268.825 350.109 272.746L350.098 272.758Z" fill="#0A69ED"/>
</g>
<defs>
<filter id="filter0_d_98_2298" x="-42" y="0" width="453" height="281" filterUnits="userSpaceOnUse" color-interpolation-filters="sRGB">
<feFlood flood-opacity="0" result="BackgroundImageFix"/>
<feColorMatrix in="SourceAlpha" type="matrix" values="0 0 0 0 0 0 0 0 0 0 0 0 0 0 0 0 0 0 127 0" result="hardAlpha"/>
<feOffset dy="4"/>
<feGaussianBlur stdDeviation="2"/>
<feComposite in2="hardAlpha" operator="out"/>
<feColorMatrix type="matrix" values="0 0 0 0 0 0 0 0 0 0 0 0 0 0 0 0 0 0 0.25 0"/>
<feBlend mode="normal" in2="BackgroundImageFix" result="effect1_dropShadow_98_2298"/>
<feBlend mode="normal" in="SourceGraphic" in2="effect1_dropShadow_98_2298" result="shape"/>
</filter>
</defs>
</svg>
