<?xml version="1.0" encoding="utf-8"?>
<!-- Generator: Adobe Illustrator 28.4.1, SVG Export Plug-In . SVG Version: 6.00 Build 0)  -->
<svg version="1.1" xmlns="http://www.w3.org/2000/svg" xmlns:xlink="http://www.w3.org/1999/xlink" x="0px" y="0px"
	 viewBox="0 0 640 960" style="enable-background:new 0 0 640 960;" xml:space="preserve">
<style type="text/css">
	.st0{fill:url(#SVGID_1_);}
	.st1{opacity:0.4;}
	.st2{fill:none;stroke:#19ACE4;stroke-width:2;stroke-miterlimit:10;}
	.st3{fill-rule:evenodd;clip-rule:evenodd;fill:#19ACE4;stroke:#19ACE4;stroke-width:2;stroke-miterlimit:10;}
	.st4{fill-rule:evenodd;clip-rule:evenodd;fill:none;stroke:#19ACE4;stroke-width:2;stroke-miterlimit:10;}
	.st5{fill:#19ACE4;}
	.st6{fill-rule:evenodd;clip-rule:evenodd;fill:none;stroke:#19ACE4;stroke-miterlimit:10;}
	.st7{fill-rule:evenodd;clip-rule:evenodd;fill:#19ACE4;stroke:#19ACE4;stroke-miterlimit:10;}
	.st8{fill:#19ACE4;stroke:#19ACE4;stroke-miterlimit:10;}
</style>
<g id="FONDO">
	<g id="FONDO_00000097462951522979553160000000010888839977309838_">
		
			<radialGradient id="SVGID_1_" cx="314.971" cy="480.1071" r="407.9216" gradientTransform="matrix(1.0158 0 0 1 0.0417 0)" gradientUnits="userSpaceOnUse">
			<stop  offset="0" style="stop-color:#0F101E;stop-opacity:0.999"/>
			<stop  offset="0.3212" style="stop-color:#101121;stop-opacity:0.9989"/>
			<stop  offset="0.4777" style="stop-color:#131125;stop-opacity:0.9986"/>
			<stop  offset="0.8296" style="stop-color:#14162B;stop-opacity:0.995"/>
			<stop  offset="0.9804" style="stop-color:#17192F;stop-opacity:0.9926"/>
		</radialGradient>
		<rect x="-5.07" y="0.11" class="st0" width="650.13" height="960"/>
	</g>
</g>
<g id="ELEMENTOS">
	<g class="st1">
		<path class="st2" d="M304.06,266.63c-0.59,3.07-1.77,11.42,3.1,17.98c5.02,6.76,13.4,7.52,24.38,8.52
			c10.64,0.97,18.51,1.68,24.87-3.68c6.48-5.47,7.44-13.91,7.63-16.93c-2.16-2.27-14.61-14.92-33.99-14.65
			C316.93,258.06,307.6,264.07,304.06,266.63z"/>
		<path class="st2" d="M303.46,271.29c-3.82-2.19-9.31-6.15-12.82-12.81c-8.65-16.41,0.59-38.17,13.17-50.08
			c3.06-2.9,16.95-15.28,37.13-13.32c21.59,2.09,33.13,18.93,35.89,23.32c7.09,11.29,14.08,32.46,3.12,47.44
			c-5.01,6.85-12.06,10.05-16.61,11.58"/>
		
			<ellipse transform="matrix(0.0977 -0.9952 0.9952 0.0977 20.9436 566.8677)" class="st3" cx="323.11" cy="271.88" rx="6.33" ry="1.49"/>
		
			<ellipse transform="matrix(0.0977 -0.9952 0.9952 0.0977 38.283 590.2269)" class="st3" cx="344.66" cy="274" rx="6.33" ry="1.49"/>
		<path class="st4" d="M298.57,214.19c0.98,2.9,2.87,9.84,0.84,18.28c-2.5,10.34-9.28,16.24-11.54,18.05"/>
		<path class="st4" d="M379.47,222.14c-1.52,2.66-4.73,9.1-4.38,17.77c0.44,10.63,5.95,17.74,7.81,19.96"/>
		<circle class="st4" cx="338.5" cy="224.91" r="24.74"/>
	</g>
	<g class="st1">
		<path class="st4" d="M44.32,164.52c-0.16,4.33,0.21,10.51,2.73,17.32c5.96,16.07,19.53,23.59,23.6,25.65
			c1.53,2.94,6.66,11.84,17.44,16.25c17.99,7.36,34.59-4.82,35.48-5.5c3.13,0.28,7.71,0.32,12.99-1.01
			c7.39-1.85,12.56-5.45,15.35-7.74c16.22,5.28,32.36,0.96,39.63-9.7c4.46-6.56,7.3-18.06,2.07-26.6c-0.77-1.26-3.49-5.55-8.87-7.39
			c-6.54-2.24-14.3,0.08-20.1,5.91c-3.64,5.71-7.89,8.46-10.34,9.75c-3.06,1.61-6.9,3.64-9.71,1.88c-2.48-1.55-3.04-5.35-2.4-8.09
			c1.1-4.74,5.85-6.41,6.17-6.52c-3.07-2.36-3.77-6.68-1.74-9.73c4.51-6.79,17.55,1.02,20.1-8.57c1.38-5.2-3.44-9.6-7.12-12.42
			c-8.48-6.52-9.38-7.86-12.39-11.51c-2.74-3.33-5.91-8.94-6.5-18.62"/>
		<path class="st4" d="M196.41,185.62c10.59-2.26,19.23-9.55,22.3-19.21c4.05-12.77-2.25-27.83-15.69-35.03"/>
		<path class="st4" d="M202.56,141.77c0.66-8.11,4.96-71.17-33.21-99.19c-5.29-3.88-16.98-12.45-33.1-11.83
			c-24.86,0.95-40,22.98-42.16,26.23"/>
		<path class="st4" d="M173.39,167.17c-0.97-16.82-5.55-47.76-28.27-74.06c-23.78-27.52-66.37-48.74-81.6-36.66
			c-4.46,3.54-5.7,9.19-6.47,12.72c-4.85,22.24,16.14,41,18.23,42.81"/>
		<g>
			<path class="st5" d="M116.74,113.54c2.65-7.9,10.23-13.1,18.58-13.63c9.17-0.8,18.52,6.72,15.73,16.4
				c-3.38-3.42-6.71-6.08-11.37-6.34C131.59,109.35,125.01,111.91,116.74,113.54L116.74,113.54z"/>
		</g>
		<g>
			<path class="st5" d="M80.22,96.28c-0.53-6.54,4.99-13.65,12.05-12.74c11.27,1.62,15.99,16.38,9.53,24.74
				c-3.35-6.16-5.74-12.08-11.17-15.41c-0.56-0.34-1.28-0.46-1.97-0.32C85.89,93.02,83.07,94.87,80.22,96.28L80.22,96.28z"/>
		</g>
		<path class="st6" d="M128.28,102.69"/>
		<path class="st4" d="M72.23,118.79c1.48-3.76,3.93-9.13,7.87-15.03c3.97-5.94,5.95-8.91,9.16-10.34
			c3.68-1.65,7.59-1.35,23.16,4.14c5.26,1.85,12.13,4.4,20.14,7.69"/>
		<path class="st4" d="M92.15,138.78c-6.6-14.15-20-21.78-31.55-19.36c-10.05,2.1-15.1,11.08-15.66,12.12
			c-5.52,10.08-2.71,22.24,3.04,29.27c8.93,10.91,28.12,13.32,44.17,2.76"/>
		<g>
			<path class="st5" d="M161.86,196.49c-2.19-6.28,0.56-14.01,6.26-17.61c2.91-1.97,6.62-3.36,10.18-2.59
				c3.53,0.69,6.77,2.86,8.19,6.02l-0.33,0.37c-3.17-0.97-5.82-1.44-8.42-1.42c-2.58,0.07-5.22-0.06-7.62,1.08
				c-5.23,2.48-8.25,8.21-7.77,14.05C162.35,196.39,161.86,196.49,161.86,196.49L161.86,196.49z"/>
		</g>
		<g>
			<path class="st5" d="M162.79,197.72c-1.48-4.17-0.28-9.24,3.27-12.06c1.87-1.59,4.72-2.84,7.2-1.94
				c2.37,0.79,4.25,2.53,4.84,4.98c0,0-0.35,0.36-0.35,0.36c-3.24-0.4-4.81-0.44-7.39-0.45c-4.42,0.04-6.88,4.99-7.07,9.05
				C163.29,197.64,162.79,197.72,162.79,197.72L162.79,197.72z"/>
		</g>
		<path class="st4" d="M73.23,187.52c1.3,3.72,4.07,10.05,9.97,15.81c3.17,3.09,10.89,10.62,17.49,9.15
			c7.4-1.65,13.16-14.57,11.54-31.8c-5.99,1.86-12.93,3.62-20.7,4.91C84.9,186.68,78.75,187.26,73.23,187.52z"/>
		<path class="st4" d="M90.78,209.22c-0.74-3.64-0.08-6.24,0.46-7.68c2.49-6.64,10.79-10.96,20.74-10.54"/>
		<path class="st4" d="M77.93,187.81l1.27,3.7c0.12,0.34,0.47,0.54,0.83,0.46c3.08,0.02,6.73-0.2,10.76-0.92
			c6.02-1.07,10.96-2.91,14.65-4.62c0.04-0.01,0.3-0.07,0.45-0.32c0.1-0.16,0.14-0.35,0.09-0.55c-0.24-0.97-0.47-1.94-0.71-2.91"/>
		<path class="st7" d="M42.13,150.96c-2.98,3.65-3.25,8.56-0.87,11.85c2.4,3.33,6.5,3.6,7.11,3.63c-0.06,0.4-0.64,4.65,2.63,7.81
			c3.24,3.13,7.42,2.44,7.83,2.37c0.27,0.97,1.27,4.11,4.29,5.91c3.67,2.19,8.83,1.5,12.67-1.88c0.31,0.5,3.6,5.73,9.94,6.17
			c4.75,0.33,9.34-2.16,11.83-6.38c3.56,3.44,8.62,4.72,13.15,3.28c5.41-1.72,7.6-6.55,7.93-7.32c5.56,0.72,10.95-2.13,13.35-7.01
			c2.17-4.42,1.55-9.78-1.59-13.73c-4.23,2.4-10.71,5.43-19.1,7.08c-7.79,1.54-14.47,1.34-19.13,0.85
			c-11.78,8.3-26.36,9.56-37.17,3.14C46.88,161.9,43.39,154.25,42.13,150.96z"/>
		<path class="st7" d="M74.19,188.05h2.88c0.25,0.77,0.52,1.56,0.81,2.37c0.27,0.74,0.54,1.45,0.81,2.14
			c3.71,0.29,9.12,0.28,15.37-1.26c5.36-1.32,9.59-3.32,12.56-5.02c-0.21-1.01-0.41-2.02-0.62-3.03l5.5-1.55v8.38
			c-1-0.02-13.34-0.08-19.12,9.16c-1.92,3.07-2.51,6.18-2.67,8.4c-2.45-1.66-5.61-4.18-8.65-7.84
			C77.41,195.41,75.35,191.09,74.19,188.05z"/>
		<path class="st4" d="M78.13,122.23c0.41-1.64,1.16-3.83,2.61-6.12c2.33-3.68,7.75-9.62,11.93-8.28
			c4.48,1.43,4.92,10.37,4.98,11.51c0.42,8.6-4.46,15.04-6.52,17.45"/>
		
			<ellipse transform="matrix(0.3901 -0.9208 0.9208 0.3901 -49.8906 198.5037)" class="st4" cx="124.9" cy="136.91" rx="20.96" ry="14.13"/>
		<path class="st4" d="M140.24,132.35c-0.19-0.78-1.13-4.28-4.29-5.83c0,0-0.57-0.28-1.5-0.49c0,0-1.7-0.38-3.6-0.03
			c-1.7,0.31-4.92,2.27-7.45,5.49c-0.56,0.71-2.55,3.35-3.65,7.39c-0.51,1.87-1.14,4.22-0.59,7.19c0.32,1.71,0.92,4.94,3.6,6.44
			c1.94,1.09,4.01,0.74,4.99,0.57c2.72-0.46,4.49-2.01,5.17-2.68"/>
		<path class="st4" d="M83.72,127.05c0.83-7.45,5.12-12.22,8.99-12.16c0.63,0.01,2.57,0.17,4.79,2.58"/>
		
			<ellipse transform="matrix(0.3463 -0.9381 0.9381 0.3463 -46.3482 216.4384)" class="st3" cx="132.13" cy="141.48" rx="7.98" ry="5.01"/>
		
			<ellipse transform="matrix(0.2846 -0.9586 0.9586 0.2846 -54.9436 179.2125)" class="st3" cx="92.6" cy="126.42" rx="6.41" ry="4.03"/>
		<path class="st4" d="M106.3,62.52c0.51-2.28,2.24-8.52,7.99-13.24c6.92-5.68,16.29-6.4,23.64-3.65
			c10.36,3.88,16.5,14.56,16.16,24.92c-0.4,12.17-9.6,19.37-10.91,20.36"/>
		<polygon class="st4" points="112.47,65.23 117.78,68.72 125.06,59.3 126.73,68.04 136.28,63.63 136.12,83.11 145.87,82.48 
			141.02,55.04 129,61.05 127.47,50.56 		"/>
	</g>
	<g class="st1">
		<path class="st2" d="M586.01,351.27c-0.33-1.65-0.58-3.33-0.71-5.06c-0.69-8.87-1.4-17.74-2.12-26.61
			c-0.92-11.31-1.45-17.08-4.53-23.23c-4.26-8.5-10.53-13.28-13.6-15.57c-3.1-2.31-14.33-10.44-30.12-10.03
			c-12.66,0.32-21.94,5.98-26.91,9c-4.02,2.45-4.9,3.62-19.97,14.77c-4.86,3.59-9.37,7.02-14.88,9.55
			c-5.8,2.67-12.33,4.46-17.62,8.12c-2.25,1.56-16.19,11.5-17.18,27.51c-1.1,17.83,14.26,36.44,37.74,40.7
			c6.67,1.33,14.99,3.63,24.04,7.74c11.24,5.1,19.78,11.23,25.73,16.25c14.45,14.69,36.66,16.8,51.65,6.18
			c8.52-6.04,14.03-15.92,15.5-26.18C594.78,372.25,588.34,362.81,586.01,351.27z"/>
		<path class="st2" d="M459.59,348.38c15.75,0.42,56.29,3.78,85.77,34.15c5.59,5.76,10.06,11.74,13.66,17.58"/>
		<path class="st2" d="M463.2,348.52c2.01-5.82,5.02-12.16,9.6-18.35c0.64-0.86,1.28-1.69,1.94-2.49c0.17-0.3,0.49-0.47,0.84-0.44
			c0.32,0.03,0.62,0.23,0.74,0.59c0.41,0.63,0.82,1.28,1.21,1.96c4.22,7.19,6.01,14.63,6.6,21.25"/>
		<path class="st2" d="M556.29,394.94c3.41-5.13,6.62-11.37,8.76-18.77c0.3-1.03,0.57-2.05,0.81-3.05c0.14-0.31,0.08-0.68-0.16-0.93
			c-0.22-0.24-0.56-0.36-0.92-0.23c-0.75,0.05-1.52,0.13-2.29,0.22c-8.27,1.01-15.27,4.11-20.89,7.65"/>
		
			<ellipse transform="matrix(0.5253 -0.8509 0.8509 0.5253 -28.2178 586.0674)" class="st2" cx="511.18" cy="318.33" rx="22.83" ry="15.35"/>
		
			<ellipse transform="matrix(0.3658 -0.9307 0.9307 0.3658 35.4467 725.0565)" class="st2" cx="549.75" cy="336.52" rx="22.83" ry="16.3"/>
		<g>
			<path class="st5" d="M535.81,320.74c6.39-2.44,12.29-5.99,17.11-10.83c3.64-3.58,7.28-7.73,11.72-10.6
				c6.12-3.88,12.88-7.7,20.45-7.58c6.63,0.14,11.5,5.33,12.28,11.7c0.56,3.72,0.15,7.35-0.91,10.74l-0.5-0.05
				c-0.36-3.46-0.9-6.84-2-9.83c-1.1-2.99-2.86-5.42-5.21-6.45c-7-2.7-15.79,1-22.17,4.58c-7.38,4.28-12.93,11.5-20.83,15.14
				c-3.15,1.57-6.43,2.78-9.79,3.66L535.81,320.74L535.81,320.74z"/>
		</g>
		<g>
			<path class="st5" d="M534.16,320.78c-2.67-4.4-4.43-9.48-4.86-14.66c-0.42-5.1,0.66-10.38,0.83-15.34
				c0.2-6.37-0.55-13.15-2.99-19.09c-2.4-5.9-6.57-9.17-13.12-8.16c-3.11,0.39-6.3,1.44-9.49,2.68l-0.28-0.42
				c2.47-2.47,5.46-4.47,8.95-5.68c5.69-2.19,12.61-0.57,16.06,4.7c3.2,4.62,3.91,10.45,4.3,15.74c0.24,3.42,0.32,7.02-0.11,10.49
				c-0.6,5.18-2.01,9.91-2.12,15.01c-0.05,5,1.2,9.92,3.28,14.49C534.6,320.55,534.16,320.78,534.16,320.78L534.16,320.78z"/>
		</g>
		<g>
			<path class="st5" d="M537.51,301.31c-3.8,3.77-5.4,8.65-4.6,13.67c0.23,1.54,0.86,2.97,1.67,3.34c0.76,0.46,2.28,0.1,3.62-0.65
				c4.42-2.45,7.4-6.69,8.09-11.97c1.47,6.55-3.09,13.77-9.5,15.65c-6.62,1.45-7.65-7.12-6.2-11.69
				C531.57,305.89,534.28,302.84,537.51,301.31L537.51,301.31z"/>
		</g>
		
			<ellipse transform="matrix(0.4818 -0.8763 0.8763 0.4818 -12.7715 622.6519)" class="st8" cx="520.09" cy="322.12" rx="7.43" ry="4.6"/>
		
			<ellipse transform="matrix(0.4031 -0.9152 0.9152 0.4031 18.4185 693.1962)" class="st8" cx="540.58" cy="332.48" rx="7.43" ry="4.6"/>
	</g>
	<g class="st1">
		<path class="st2" d="M330.57,491.29c-0.59,3.07-1.77,11.42,3.1,17.98c5.02,6.76,13.4,7.52,24.38,8.52
			c10.64,0.97,18.51,1.68,24.87-3.68c6.48-5.47,7.44-13.91,7.63-16.93c-2.16-2.27-14.61-14.92-33.99-14.65
			C343.44,482.71,334.11,488.72,330.57,491.29z"/>
		<path class="st2" d="M329.97,495.94c-3.82-2.19-9.31-6.15-12.82-12.81c-8.65-16.41,0.59-38.17,13.17-50.08
			c3.06-2.9,16.95-15.28,37.13-13.32c21.59,2.09,33.13,18.93,35.89,23.32c7.09,11.29,14.08,32.46,3.12,47.44
			c-5.01,6.85-12.06,10.05-16.61,11.58"/>
		
			<ellipse transform="matrix(0.0977 -0.9952 0.9952 0.0977 -178.7136 795.9424)" class="st3" cx="349.61" cy="496.53" rx="6.33" ry="1.49"/>
		
			<ellipse transform="matrix(0.0977 -0.9952 0.9952 0.0977 -161.3742 819.3016)" class="st3" cx="371.17" cy="498.65" rx="6.33" ry="1.49"/>
		<path class="st4" d="M325.08,438.84c0.98,2.9,2.87,9.84,0.84,18.28c-2.5,10.34-9.28,16.24-11.54,18.05"/>
		<path class="st4" d="M405.98,446.79c-1.52,2.66-4.73,9.1-4.38,17.77c0.44,10.63,5.95,17.74,7.81,19.96"/>
		<circle class="st4" cx="365.01" cy="449.56" r="24.74"/>
	</g>
	<g class="st1">
		<g>
			<path class="st4" d="M179.02,314.27c-12.14-22.11-37.11-33.97-61.5-29.36c-23.21,4.38-41.58,22.87-46.02,46.42
				c-22.37,14.1-32.51,40.21-25.79,61.89c8.48,27.36,42.87,44.72,75.38,32.14c2.13,2.12,29.71,28.61,67.45,20.63
				c3.87-0.82,40.67-9.26,51.98-44.04c10.71-32.94-11-60.16-13.09-62.69C209.39,317.44,184.08,314.71,179.02,314.27z"/>
		</g>
		<ellipse class="st3" cx="135.58" cy="344.1" rx="3.77" ry="16.07"/>
		<ellipse class="st3" cx="106.81" cy="344.1" rx="3.77" ry="16.07"/>
	</g>
	<g class="st1">
		<path class="st4" d="M597.54,54.65l-62.9,14.73c-0.34,0.08-0.7,0-0.95-0.21l-45.4-37.41c-0.65-0.54-1.72-0.12-1.84,0.72
			l-8.5,59.95c-0.04,0.3-0.22,0.58-0.49,0.76l-50.93,33.89c-0.72,0.48-0.65,1.48,0.11,1.8l55.17,22.72
			c0.29,0.12,0.51,0.36,0.58,0.66l14.24,55.92c0.2,0.78,1.25,1.01,1.85,0.39l44.1-44.52c0.22-0.22,0.53-0.35,0.85-0.35l60.42,0.22
			c0.86,0,1.44-0.88,1.04-1.58l-29.27-50.81c-0.15-0.26-0.17-0.59-0.05-0.88L598.77,56C599.1,55.22,598.4,54.45,597.54,54.65z"/>
		
			<ellipse transform="matrix(0.9208 -0.3901 0.3901 0.9208 1.7942 215.6021)" class="st3" cx="531.69" cy="103.38" rx="3.91" ry="15.41"/>
		
			<ellipse transform="matrix(0.9208 -0.3901 0.3901 0.9208 -4.9207 205.8102)" class="st3" cx="504.23" cy="115.02" rx="3.91" ry="15.41"/>
	</g>
	<g class="st1">
		<path class="st2" d="M303.85,734.14c-0.59,3.07-1.77,11.42,3.1,17.98c5.02,6.76,13.4,7.52,24.38,8.52
			c10.64,0.97,18.51,1.68,24.87-3.68c6.48-5.47,7.44-13.91,7.63-16.93c-2.16-2.27-14.61-14.92-33.99-14.65
			C316.72,725.56,307.39,731.58,303.85,734.14z"/>
		<path class="st2" d="M303.26,738.79c-3.82-2.19-9.31-6.15-12.82-12.81c-8.65-16.41,0.59-38.17,13.17-50.08
			c3.06-2.9,16.95-15.28,37.13-13.32c21.59,2.09,33.13,18.93,35.89,23.32c7.09,11.29,14.08,32.46,3.12,47.44
			c-5.01,6.85-12.06,10.05-16.61,11.58"/>
		
			<ellipse transform="matrix(0.0977 -0.9952 0.9952 0.0977 -444.5087 988.472)" class="st3" cx="322.9" cy="739.39" rx="6.33" ry="1.49"/>
		
			<ellipse transform="matrix(0.0977 -0.9952 0.9952 0.0977 -427.1693 1011.8312)" class="st3" cx="344.45" cy="741.5" rx="6.33" ry="1.49"/>
		<path class="st4" d="M298.36,681.7c0.98,2.9,2.87,9.84,0.84,18.28c-2.5,10.34-9.28,16.24-11.54,18.05"/>
		<path class="st4" d="M379.27,689.64c-1.52,2.66-4.73,9.1-4.38,17.77c0.44,10.63,5.95,17.74,7.81,19.96"/>
		<circle class="st4" cx="338.29" cy="692.41" r="24.74"/>
	</g>
	<g class="st1">
		<path class="st4" d="M44.11,632.02c-0.16,4.33,0.21,10.51,2.73,17.32c5.96,16.07,19.53,23.59,23.6,25.65
			c1.53,2.94,6.66,11.84,17.44,16.25c17.99,7.36,34.59-4.82,35.48-5.5c3.13,0.28,7.71,0.32,12.99-1.01
			c7.39-1.85,12.56-5.45,15.35-7.74c16.22,5.28,32.36,0.96,39.63-9.7c4.46-6.56,7.3-18.06,2.07-26.6c-0.77-1.26-3.49-5.55-8.87-7.39
			c-6.54-2.24-14.3,0.08-20.1,5.91c-3.64,5.71-7.89,8.46-10.34,9.75c-3.06,1.61-6.9,3.64-9.71,1.88c-2.48-1.55-3.04-5.35-2.4-8.09
			c1.1-4.74,5.85-6.41,6.17-6.52c-3.07-2.36-3.77-6.68-1.74-9.73c4.51-6.79,17.55,1.02,20.1-8.57c1.38-5.2-3.44-9.6-7.12-12.42
			c-8.48-6.52-9.38-7.86-12.39-11.51c-2.74-3.33-5.91-8.94-6.5-18.62"/>
		<path class="st4" d="M196.21,653.13c10.59-2.26,19.23-9.55,22.3-19.21c4.05-12.77-2.25-27.83-15.69-35.03"/>
		<path class="st4" d="M202.35,609.28c0.66-8.11,4.96-71.17-33.21-99.19c-5.29-3.88-16.98-12.45-33.1-11.83
			c-24.86,0.95-40,22.98-42.16,26.23"/>
		<path class="st4" d="M173.18,634.68c-0.97-16.82-5.55-47.76-28.27-74.06c-23.78-27.52-66.37-48.74-81.6-36.66
			c-4.46,3.54-5.7,9.19-6.47,12.72c-4.85,22.24,16.14,41,18.23,42.81"/>
		<g>
			<path class="st5" d="M116.53,581.04c2.65-7.9,10.23-13.1,18.58-13.63c9.17-0.8,18.52,6.72,15.73,16.4
				c-3.38-3.42-6.71-6.08-11.37-6.34C131.38,576.85,124.8,579.41,116.53,581.04L116.53,581.04z"/>
		</g>
		<g>
			<path class="st5" d="M80.01,563.78c-0.53-6.54,4.99-13.65,12.05-12.74c11.27,1.62,15.99,16.38,9.53,24.74
				c-3.35-6.16-5.74-12.08-11.17-15.41c-0.56-0.34-1.28-0.46-1.97-0.32C85.68,560.53,82.87,562.37,80.01,563.78L80.01,563.78z"/>
		</g>
		<path class="st6" d="M128.07,570.19"/>
		<path class="st4" d="M72.02,586.29c1.48-3.76,3.93-9.13,7.87-15.03c3.97-5.94,5.95-8.91,9.16-10.34
			c3.68-1.65,7.59-1.35,23.16,4.14c5.26,1.85,12.13,4.4,20.14,7.69"/>
		<path class="st4" d="M91.94,606.29c-6.6-14.15-20-21.78-31.55-19.36c-10.05,2.1-15.1,11.08-15.66,12.12
			c-5.52,10.08-2.71,22.24,3.04,29.27c8.93,10.91,28.12,13.32,44.17,2.76"/>
		<g>
			<path class="st5" d="M161.65,663.99c-2.19-6.28,0.56-14.01,6.26-17.61c2.91-1.97,6.62-3.36,10.18-2.59
				c3.53,0.69,6.77,2.86,8.19,6.02l-0.33,0.37c-3.17-0.97-5.82-1.44-8.42-1.42c-2.58,0.07-5.22-0.06-7.62,1.08
				c-5.23,2.48-8.25,8.21-7.77,14.05C162.14,663.89,161.65,663.99,161.65,663.99L161.65,663.99z"/>
		</g>
		<g>
			<path class="st5" d="M162.59,665.22c-1.48-4.17-0.28-9.24,3.27-12.06c1.87-1.59,4.72-2.84,7.2-1.94
				c2.37,0.79,4.25,2.53,4.84,4.98c0,0-0.35,0.36-0.35,0.36c-3.24-0.4-4.81-0.44-7.39-0.45c-4.42,0.04-6.88,4.99-7.07,9.05
				C163.08,665.15,162.59,665.22,162.59,665.22L162.59,665.22z"/>
		</g>
		<path class="st4" d="M73.03,655.02c1.3,3.72,4.07,10.05,9.97,15.81c3.17,3.09,10.89,10.62,17.49,9.15
			c7.4-1.65,13.16-14.57,11.54-31.8c-5.99,1.86-12.93,3.62-20.7,4.91C84.69,654.19,78.54,654.76,73.03,655.02z"/>
		<path class="st4" d="M90.57,676.72c-0.74-3.64-0.08-6.24,0.46-7.68c2.49-6.64,10.79-10.96,20.74-10.54"/>
		<path class="st4" d="M77.73,655.31l1.27,3.7c0.12,0.34,0.47,0.54,0.83,0.46c3.08,0.02,6.73-0.2,10.76-0.92
			c6.02-1.07,10.96-2.91,14.65-4.62c0.04-0.01,0.3-0.07,0.45-0.32c0.1-0.16,0.14-0.35,0.09-0.55c-0.24-0.97-0.47-1.94-0.71-2.91"/>
		<path class="st7" d="M41.92,618.46c-2.98,3.65-3.25,8.56-0.87,11.85c2.4,3.33,6.5,3.6,7.11,3.63c-0.06,0.4-0.64,4.65,2.63,7.81
			c3.24,3.13,7.42,2.44,7.83,2.37c0.27,0.97,1.27,4.11,4.29,5.91c3.67,2.19,8.83,1.5,12.67-1.88c0.31,0.5,3.6,5.73,9.94,6.17
			c4.75,0.33,9.34-2.16,11.83-6.38c3.56,3.44,8.62,4.72,13.15,3.28c5.41-1.72,7.6-6.55,7.93-7.32c5.56,0.72,10.95-2.13,13.35-7.01
			c2.17-4.42,1.55-9.78-1.59-13.73c-4.23,2.4-10.71,5.43-19.1,7.08c-7.79,1.54-14.47,1.34-19.13,0.85
			c-11.78,8.3-26.36,9.56-37.17,3.14C46.67,629.4,43.18,621.76,41.92,618.46z"/>
		<path class="st7" d="M73.98,655.56h2.88c0.25,0.77,0.52,1.56,0.81,2.37c0.27,0.74,0.54,1.45,0.81,2.14
			c3.71,0.29,9.12,0.28,15.37-1.26c5.36-1.32,9.59-3.32,12.56-5.02c-0.21-1.01-0.41-2.02-0.62-3.03l5.5-1.55v8.38
			c-1-0.02-13.34-0.08-19.12,9.16c-1.92,3.07-2.51,6.18-2.67,8.4c-2.45-1.66-5.61-4.18-8.65-7.84
			C77.2,662.92,75.15,658.6,73.98,655.56z"/>
		<path class="st4" d="M77.92,589.73c0.41-1.64,1.16-3.83,2.61-6.12c2.33-3.68,7.75-9.62,11.93-8.28
			c4.48,1.43,4.92,10.37,4.98,11.51c0.42,8.6-4.46,15.04-6.52,17.45"/>
		
			<ellipse transform="matrix(0.3901 -0.9208 0.9208 0.3901 -480.4822 483.4454)" class="st4" cx="124.69" cy="604.42" rx="20.96" ry="14.13"/>
		<path class="st4" d="M140.04,599.85c-0.19-0.78-1.13-4.28-4.29-5.83c0,0-0.57-0.28-1.5-0.49c0,0-1.7-0.38-3.6-0.03
			c-1.7,0.31-4.92,2.27-7.45,5.49c-0.56,0.71-2.55,3.35-3.65,7.39c-0.51,1.87-1.14,4.22-0.59,7.19c0.32,1.71,0.92,4.94,3.6,6.44
			c1.94,1.09,4.01,0.74,4.99,0.57c2.72-0.46,4.49-2.01,5.17-2.68"/>
		<path class="st4" d="M83.52,594.56c0.83-7.45,5.12-12.22,8.99-12.16c0.63,0.01,2.57,0.17,4.79,2.58"/>
		
			<ellipse transform="matrix(0.3463 -0.9381 0.9381 0.3463 -485.0576 521.8448)" class="st3" cx="131.93" cy="608.98" rx="7.98" ry="5.01"/>
		
			<ellipse transform="matrix(0.2846 -0.9586 0.9586 0.2846 -503.2605 513.4597)" class="st3" cx="92.4" cy="593.92" rx="6.41" ry="4.03"/>
		<path class="st4" d="M106.09,530.02c0.51-2.28,2.24-8.52,7.99-13.24c6.92-5.68,16.29-6.4,23.64-3.65
			c10.36,3.88,16.5,14.56,16.16,24.92c-0.4,12.17-9.6,19.37-10.91,20.36"/>
		<polygon class="st4" points="112.26,532.74 117.58,536.22 124.86,526.81 126.53,535.54 136.07,531.13 135.92,550.61 
			145.67,549.99 140.81,522.55 128.79,528.56 127.26,518.07 		"/>
	</g>
	<g class="st1">
		<path class="st2" d="M585.81,818.78c-0.33-1.65-0.58-3.33-0.71-5.06c-0.69-8.87-1.4-17.74-2.12-26.61
			c-0.92-11.31-1.45-17.08-4.53-23.23c-4.26-8.5-10.53-13.28-13.6-15.57c-3.1-2.31-14.33-10.44-30.12-10.03
			c-12.66,0.32-21.94,5.98-26.91,9c-4.02,2.45-4.9,3.62-19.97,14.77c-4.86,3.59-9.37,7.02-14.88,9.55
			c-5.8,2.67-12.33,4.46-17.62,8.12c-2.25,1.56-16.19,11.5-17.18,27.51c-1.1,17.83,14.26,36.44,37.74,40.7
			c6.67,1.34,14.99,3.63,24.04,7.74c11.24,5.1,19.78,11.23,25.73,16.25c14.45,14.69,36.66,16.8,51.65,6.18
			c8.52-6.04,14.03-15.92,15.5-26.18C594.57,839.76,588.13,830.31,585.81,818.78z"/>
		<path class="st2" d="M459.39,815.89c15.75,0.42,56.29,3.78,85.77,34.15c5.59,5.76,10.06,11.74,13.66,17.58"/>
		<path class="st2" d="M463,816.02c2.01-5.82,5.02-12.16,9.6-18.35c0.64-0.86,1.28-1.69,1.94-2.49c0.17-0.3,0.49-0.47,0.84-0.44
			c0.32,0.03,0.62,0.23,0.74,0.59c0.41,0.63,0.82,1.28,1.21,1.96c4.22,7.19,6.01,14.63,6.6,21.25"/>
		<path class="st2" d="M556.09,862.44c3.41-5.13,6.62-11.37,8.76-18.77c0.3-1.03,0.57-2.05,0.81-3.05c0.14-0.31,0.08-0.68-0.16-0.93
			c-0.22-0.24-0.56-0.36-0.92-0.23c-0.75,0.05-1.52,0.13-2.29,0.22c-8.27,1.01-15.27,4.11-20.89,7.65"/>
		
			<ellipse transform="matrix(0.5253 -0.8509 0.8509 0.5253 -426.1176 807.8066)" class="st2" cx="510.97" cy="785.83" rx="22.83" ry="15.35"/>
		
			<ellipse transform="matrix(0.3658 -0.9307 0.9307 0.3658 -399.7832 1021.3442)" class="st2" cx="549.54" cy="804.02" rx="22.83" ry="16.3"/>
		<g>
			<path class="st5" d="M535.61,788.24c6.39-2.44,12.29-5.99,17.11-10.83c3.64-3.58,7.28-7.73,11.72-10.6
				c6.12-3.88,12.88-7.7,20.45-7.58c6.63,0.14,11.5,5.33,12.28,11.7c0.56,3.72,0.15,7.35-0.91,10.74l-0.5-0.05
				c-0.36-3.46-0.9-6.84-2-9.83c-1.1-2.99-2.86-5.42-5.21-6.45c-7-2.7-15.79,1-22.17,4.58c-7.38,4.28-12.93,11.5-20.83,15.14
				c-3.15,1.57-6.43,2.78-9.79,3.66L535.61,788.24L535.61,788.24z"/>
		</g>
		<g>
			<path class="st5" d="M533.95,788.29c-2.67-4.4-4.43-9.48-4.86-14.66c-0.42-5.1,0.66-10.38,0.83-15.34
				c0.2-6.37-0.55-13.15-2.99-19.09c-2.4-5.9-6.57-9.17-13.12-8.16c-3.11,0.39-6.3,1.44-9.49,2.68l-0.28-0.42
				c2.47-2.47,5.46-4.47,8.95-5.68c5.69-2.19,12.61-0.57,16.06,4.7c3.2,4.62,3.91,10.45,4.3,15.74c0.24,3.42,0.32,7.02-0.11,10.49
				c-0.6,5.18-2.01,9.91-2.12,15.01c-0.05,5,1.2,9.92,3.28,14.49C534.39,788.05,533.95,788.29,533.95,788.29L533.95,788.29z"/>
		</g>
		<g>
			<path class="st5" d="M537.3,768.81c-3.8,3.77-5.4,8.65-4.6,13.67c0.23,1.54,0.86,2.97,1.67,3.34c0.76,0.46,2.28,0.1,3.62-0.65
				c4.42-2.45,7.4-6.69,8.09-11.97c1.47,6.55-3.09,13.77-9.5,15.65c-6.62,1.45-7.65-7.12-6.2-11.69
				C531.36,773.4,534.07,770.34,537.3,768.81L537.3,768.81z"/>
		</g>
		
			<ellipse transform="matrix(0.4818 -0.8763 0.8763 0.4818 -422.536 864.7173)" class="st8" cx="519.88" cy="789.63" rx="7.43" ry="4.6"/>
		
			<ellipse transform="matrix(0.4031 -0.9152 0.9152 0.4031 -409.5529 972.0801)" class="st8" cx="540.37" cy="799.98" rx="7.43" ry="4.6"/>
	</g>
	<g class="st1">
		<path class="st2" d="M330.36,955.79c-0.59,3.07-1.77,11.42,3.1,17.98c5.02,6.76,13.4,7.52,24.38,8.52
			c10.64,0.97,18.51,1.68,24.87-3.68c6.48-5.47,7.44-13.91,7.63-16.93c-2.16-2.27-14.61-14.92-33.99-14.65
			C343.23,947.21,333.9,953.23,330.36,955.79z"/>
		<path class="st2" d="M329.77,960.44c-3.82-2.19-9.31-6.15-12.82-12.81c-8.65-16.41,0.59-38.17,13.17-50.08
			c3.06-2.9,16.95-15.28,37.13-13.32c21.59,2.09,33.13,18.93,35.89,23.32c7.09,11.29,14.08,32.46,3.12,47.44
			c-5.01,6.85-12.06,10.05-16.61,11.58"/>
		
			<ellipse transform="matrix(0.0977 -0.9952 0.9952 0.0977 -641.1803 1214.84)" class="st3" cx="349.41" cy="961.04" rx="6.33" ry="1.49"/>
		
			<ellipse transform="matrix(0.0977 -0.9952 0.9952 0.0977 -623.8409 1238.1991)" class="st3" cx="370.96" cy="963.15" rx="6.33" ry="1.49"/>
		<path class="st4" d="M324.87,903.35c0.98,2.9,2.87,9.84,0.84,18.28c-2.5,10.34-9.28,16.24-11.54,18.05"/>
		<path class="st4" d="M405.78,911.29c-1.52,2.66-4.73,9.1-4.38,17.77c0.44,10.63,5.95,17.74,7.81,19.96"/>
		<circle class="st4" cx="364.8" cy="914.06" r="24.74"/>
	</g>
	<g class="st1">
		<g>
			<path class="st4" d="M178.81,781.78c-12.14-22.11-37.11-33.97-61.5-29.36c-23.21,4.38-41.58,22.87-46.02,46.42
				c-22.37,14.1-32.51,40.21-25.79,61.89c8.48,27.36,42.87,44.72,75.38,32.14c2.13,2.12,29.71,28.61,67.45,20.63
				c3.87-0.82,40.67-9.26,51.98-44.04c10.71-32.94-11-60.16-13.09-62.69C209.19,784.95,183.87,782.22,178.81,781.78z"/>
		</g>
		<ellipse class="st3" cx="135.37" cy="811.6" rx="3.77" ry="16.07"/>
		<ellipse class="st3" cx="106.61" cy="811.6" rx="3.77" ry="16.07"/>
	</g>
	<g class="st1">
		<path class="st4" d="M597.34,522.16l-62.9,14.73c-0.34,0.08-0.7,0-0.95-0.21l-45.4-37.41c-0.65-0.54-1.72-0.12-1.84,0.72
			l-8.5,59.95c-0.04,0.3-0.22,0.58-0.49,0.76l-50.93,33.89c-0.72,0.48-0.65,1.48,0.11,1.8l55.17,22.72
			c0.29,0.12,0.51,0.36,0.58,0.66l14.24,55.92c0.2,0.78,1.25,1.01,1.85,0.39l44.1-44.52c0.22-0.22,0.53-0.35,0.85-0.35l60.42,0.22
			c0.86,0,1.44-0.88,1.04-1.58l-29.27-50.81c-0.15-0.26-0.17-0.59-0.05-0.88l23.17-54.64C598.89,522.73,598.19,521.95,597.34,522.16
			z"/>
		
			<ellipse transform="matrix(0.9208 -0.3901 0.3901 0.9208 -180.5946 252.5602)" class="st3" cx="531.48" cy="570.89" rx="3.91" ry="15.41"/>
		
			<ellipse transform="matrix(0.9208 -0.3901 0.3901 0.9208 -187.3095 242.7683)" class="st3" cx="504.02" cy="582.52" rx="3.91" ry="15.41"/>
	</g>
	<g class="st1">
		<path class="st2" d="M338.57,28.48c-0.59,3.07-1.77,11.42,3.1,17.98c5.02,6.76,13.4,7.52,24.38,8.52
			c10.64,0.97,18.51,1.68,24.87-3.68c6.48-5.47,7.44-13.91,7.63-16.93c-2.16-2.27-14.61-14.92-33.99-14.65
			C351.43,19.91,342.1,25.92,338.57,28.48z"/>
		<path class="st2" d="M337.97,33.14c-3.82-2.19-9.31-6.15-12.82-12.81c-8.65-16.41,0.59-38.17,13.17-50.08
			c3.06-2.9,16.95-15.28,37.13-13.32c21.59,2.09,33.13,18.93,35.89,23.32c7.09,11.29,14.08,32.46,3.12,47.44
			c-5.01,6.85-12.06,10.05-16.61,11.58"/>
		
			<ellipse transform="matrix(0.0977 -0.9952 0.9952 0.0977 289.0882 386.3348)" class="st3" cx="357.61" cy="33.73" rx="6.33" ry="1.49"/>
		
			<ellipse transform="matrix(0.0977 -0.9952 0.9952 0.0977 306.4276 409.694)" class="st3" cx="379.16" cy="35.85" rx="6.33" ry="1.49"/>
		<path class="st4" d="M333.07-23.96c0.98,2.9,2.87,9.84,0.84,18.28c-2.5,10.34-9.28,16.24-11.54,18.05"/>
		<path class="st4" d="M413.98-16.01c-1.52,2.66-4.73,9.1-4.38,17.77c0.44,10.63,5.95,17.74,7.81,19.96"/>
		<circle class="st4" cx="373.01" cy="-13.24" r="24.74"/>
	</g>
</g>
</svg>
