<svg width="242" height="167" viewBox="0 0 242 167" fill="none" xmlns="http://www.w3.org/2000/svg">
<path d="M2.57812 120.844H9.84375C10.1562 120.953 10.3125 121.305 10.3125 121.898L10.1953 147.328C10.6016 148.578 11.2656 149.203 12.1875 149.203H14.5312C15.1094 149.203 15.6953 148.734 16.2891 147.797V121.898C16.2891 121.305 16.4453 120.953 16.7578 120.844H24.0234C24.5703 120.844 24.8438 121.156 24.8438 121.781V148.031C24.8438 150.938 23.4766 153.281 20.7422 155.062L18.0469 156H8.4375C5.84375 155.266 4.04688 154.094 3.04688 152.484C2.67188 152.484 2.28125 151.078 1.875 148.266L1.75781 121.664C1.85156 121.117 2.125 120.844 2.57812 120.844ZM28.7344 120.844H39.9844C40.4219 121.188 41.4766 124 43.1484 129.281L47.0156 140.766H47.3672L47.3438 121.758C47.4844 121.148 47.6484 120.844 47.8359 120.844H55.8047L56.1562 121.195V155.648L55.8047 156H44.9062C44.4062 156 44.0547 155.453 43.8516 154.359L37.6406 135.961H37.2891V137.016V155.062C37.2891 155.688 37.0547 156 36.5859 156H28.7344L28.3828 155.648V121.195L28.7344 120.844ZM72.9375 120.844H87.9375L88.2891 121.195V126.703C88.2891 127.125 88.1328 127.398 87.8203 127.523H77.1562C75.9062 127.883 75.2812 128.547 75.2812 129.516V131.977C75.2812 133.273 76.4531 134.094 78.7969 134.438C79.3906 134.438 81.8516 135.023 86.1797 136.195C88.2891 137.461 89.3438 139.57 89.3438 142.523V147.445C89.3438 151.305 87.6641 153.961 84.3047 155.414L81.375 156H68.1328C67.7109 156 67.3594 155.766 67.0781 155.297V149.438L67.7812 148.852L68.6016 148.969H78.9141C80.1641 148.719 80.7891 148.094 80.7891 147.094V144.164C80.7891 143.102 80.2812 142.398 79.2656 142.055C72.2344 140.57 68.7188 139.516 68.7188 138.891C67.3906 137.75 66.7266 135.953 66.7266 133.5V128.461C66.7266 125.242 68.3281 122.859 71.5312 121.312L72.9375 120.844ZM98.625 120.844H110.227C111.617 121.125 112.984 121.945 114.328 123.305C115.5 124.961 116.086 126.289 116.086 127.289L116.203 130.453V145.453C116.203 149.594 115.891 151.664 115.266 151.664C114.688 153.055 113.438 154.344 111.516 155.531L110.227 156H98.625C96.4219 155.266 94.7031 153.82 93.4688 151.664C93.0781 150.898 92.8828 149.727 92.8828 148.148V128.578C92.8828 124.672 94.7969 122.094 98.625 120.844ZM101.438 129.164V146.742C101.438 148.227 101.906 148.969 102.844 148.969C105.812 149.125 107.297 148.734 107.297 147.797L107.414 146.742V129.516C107.492 128.344 107.023 127.68 106.008 127.523H102.492C101.633 127.836 101.281 128.383 101.438 129.164ZM127.734 120.844H140.977C141.68 120.844 142.031 121.273 142.031 122.133V127.055C142.031 127.914 141.602 128.344 140.742 128.344H129.727C129.117 128.312 128.805 128.625 128.789 129.281L128.766 147.469C128.859 148.219 129.25 148.641 129.938 148.734H140.977C141.68 148.734 142.031 149.008 142.031 149.555V155.062C142.031 155.688 141.797 156 141.328 156H126.328C124.766 155.656 123.32 154.836 121.992 153.539C120.508 151.914 119.766 149.922 119.766 147.562L119.742 129.047L119.766 128.461C119.766 126.852 120.508 125.133 121.992 123.305C123.758 121.742 125.555 120.961 127.383 120.961L127.734 120.844ZM146.039 120.844H153.539C153.852 120.953 154.008 121.305 154.008 121.898V155.648L153.656 156H146.039C145.727 155.891 145.57 155.539 145.57 154.945V121.898C145.57 121.305 145.727 120.953 146.039 120.844ZM157.992 120.844H178.266L178.617 121.195V126.469C178.617 127.016 178.344 127.289 177.797 127.289H166.195C165.727 127.289 165.492 127.523 165.492 127.992V134.086L165.844 134.438H175.688C176.391 134.438 176.742 134.711 176.742 135.258V140.297C176.742 140.766 176.508 141 176.039 141H166.195C165.727 141 165.492 141.234 165.492 141.703V147.562C165.492 148.891 166.508 149.555 168.539 149.555H178.383C178.93 149.555 179.203 149.828 179.203 150.375V155.648L178.852 156H163.734C161.5 155.406 159.82 154.234 158.695 152.484C157.914 150.906 157.523 149.383 157.523 147.914V122.25C157.523 121.312 157.68 120.844 157.992 120.844ZM183.562 120.844H205.711L206.062 121.195L206.039 126.703C205.961 127.328 205.688 127.641 205.219 127.641H199.5C198.953 127.641 198.68 127.914 198.68 128.461V155.062C198.68 155.688 198.445 156 197.977 156H190.945C190.398 156 190.125 155.609 190.125 154.828V133.617V128.109L189.469 127.641H183.914C183.133 127.594 182.742 127.414 182.742 127.102V122.062V121.664C182.836 121.117 183.109 120.844 183.562 120.844ZM209.602 120.844H218.273C218.852 120.844 219.75 122.133 220.969 124.711L224.719 130.805H224.953C228.594 124.273 230.508 120.992 230.695 120.961L231.164 120.844H239.836V121.195C232.555 133.68 228.883 140.125 228.82 140.531V155.648L228.469 156H220.969L220.617 155.648V140.531C220.477 139.969 216.805 133.523 209.602 121.195V120.844Z" fill="white"/>
<path d="M89.475 74.0803C91.2517 71.9018 91.6463 69.1454 91.2284 66.4922C91.1202 65.801 91.6547 65.3047 92.2058 65.1332C92.7237 64.9733 93.6495 65.1715 93.816 65.8693C94.4904 68.694 93.9692 71.617 92.5172 74.1752C94.0441 75.9873 95.6793 77.5046 97.5842 78.9352C105.73 85.0593 115.837 87.9523 126.033 86.8281C136.746 85.6456 146.539 80.0611 153.125 71.597C159.251 63.7225 162.108 53.956 161.16 43.9962C160.514 37.2026 158.068 30.9786 154.313 25.3225C156.661 26.0321 158.639 25.8105 160.295 24.3965C161.312 23.6953 161.802 22.6378 162.093 21.382C174.313 39.7808 172.612 63.9007 157.75 80.1094C149.433 89.1814 137.977 94.8858 125.7 95.8435C114.82 96.6929 104.2 94.078 95.0732 88.1788C91.1967 85.6739 87.7916 82.6976 84.7594 79.0851C82.1784 79.3416 79.6491 78.9685 77.3329 77.7561C76.7318 77.4413 76.7184 76.5302 76.9183 76.0839C77.7525 74.2202 79.391 76.3853 83.0559 76.6368C85.4604 76.8034 87.8765 76.0356 89.4733 74.0769L89.475 74.0803Z" fill="white"/>
<path d="M149.122 19.3333C139.64 10.2263 126.436 6.56885 113.688 9.09709C102.345 11.3472 92.6304 18.3806 86.9007 28.3937C80.3434 39.854 79.8655 53.8892 86.1347 65.6694C82.3665 65.4362 79.5808 68.2876 79.7706 71.9833C73.0435 61.1492 71.3334 48.1266 74.622 35.8018C77.3429 25.6039 83.3373 16.7434 91.6347 10.2913C110.524 -4.40018 137.322 -3.25098 154.775 13.0277C157.469 11.8352 160.366 11.8002 163.074 12.7329C163.841 12.9977 164.114 13.8371 163.856 14.505C163.557 15.2761 162.757 15.4343 161.958 15.1679C158.167 13.9004 153.298 15.1745 151.854 19.1518C150.272 23.5054 152.598 26.3467 150.277 26.7748C147.833 27.2245 148.464 20.8989 149.122 19.3333Z" fill="white"/>
<path d="M118.104 19.5298C118.127 19.6148 118.26 19.6797 118.355 19.7314C118.43 19.773 118.512 19.6514 118.563 19.5915C121.381 20.0162 120.62 21.4219 121.682 21.7866C121.837 21.8399 121.869 22.2263 121.785 22.3429C121.69 22.4745 121.476 22.656 121.236 22.6277C121.036 22.6044 120.963 22.2779 120.561 22.178C120.367 22.5361 120.778 22.6976 120.796 23.064C120.814 23.4305 120.288 23.6836 120.017 23.7319C119.058 23.9035 119.084 22.8409 117.631 22.671C118.212 22.173 118.846 22.4461 119.221 21.9015C119.429 21.6001 119.214 21.2919 119.031 21.1054C118.866 20.9372 118.388 20.6058 118.134 20.8589C117.631 21.3552 117.219 21.9198 116.643 22.3695C116.538 22.5511 116.64 22.8925 116.512 23.0391C116.047 23.3072 115.518 22.9674 115.023 23.134C111.991 24.1633 113.1 24.4348 111.71 25.8404C112.053 26.4017 113.28 26.2735 113.535 26.5949C113.794 26.923 113.055 28.427 113.831 28.2688C114.475 28.1372 114.46 27.0563 114.913 26.8531C115.731 26.4867 115.834 26.1685 115.999 25.3524C116.086 24.9211 116.63 24.2549 116.923 23.8052C117.313 23.2089 118.706 23.6903 118.815 24.3115C118.885 24.7129 118.82 25.071 119.188 25.1659C119.699 25.2992 120.103 24.3931 120.335 24.5563C120.793 24.8778 120.483 26.3084 121.805 26.8764C123.296 27.5176 121.64 28.6701 123.039 29.5562C123.527 29.866 123.267 30.5322 122.894 30.7587C122.403 31.0568 122.03 30.9019 121.622 30.4406C121.474 30.2724 120.858 30.2274 120.981 29.9259L121.487 28.6935C119.621 29.1981 118.552 28.357 117.531 29.7244C118.135 29.7361 118.485 29.323 118.955 29.5912C119.138 29.9443 118.761 30.3873 118.92 30.7487C119.159 31.295 119.824 31.0235 120.34 31.1268C119.955 31.7996 119.158 31.7297 118.678 32.1794C117.671 33.122 117.481 31.0485 115.594 33.7033C115.278 34.1463 114.637 34.193 114.254 34.5494C113.431 35.3139 112.915 36.2732 112.214 37.1093C111.39 38.0936 108.904 38.7831 108.537 39.5326C107.993 40.6468 108.654 42.6204 107.415 42.9968C106.06 41.2547 107.71 40.4503 106.256 40.0289C105.29 39.7491 104.435 40.1855 103.494 40.342C103.004 40.4236 102.446 39.8524 101.904 40.1821C100.878 40.8067 99.9521 41.6927 99.4159 42.8186C98.918 43.8646 98.8747 45.3985 99.7523 46.2179C100.338 46.7659 101.417 46.1946 101.715 45.5667C102.043 44.8772 103.414 44.261 103.71 45.0554C104.092 45.5601 102.305 47.6469 102.603 48.065C102.829 48.3814 103.937 48.0916 104.363 48.6579C104.987 49.489 103.87 50.8714 104.308 51.6858C105.53 53.9559 105.698 51.6775 107.855 52.9582C108.591 51.7457 109.77 50.8797 111.132 51.0479C111.18 52.7884 111.461 50.7698 112.457 51.4693C113.168 51.9689 113.999 52.1655 114.847 51.9373C115.403 51.7874 115.551 52.1688 115.914 52.4369L117.557 53.6494C118.47 54.3223 119.149 54.7636 120.275 54.8053C121.164 54.8386 122.03 55.7829 122.458 56.4841C122.992 57.3602 121.963 58.0663 122.273 58.6992C122.613 59.3954 123.813 58.5277 124.293 58.6559C125.537 59.5153 126.296 58.4744 126.612 59.472C126.977 60.6296 128.516 58.7925 130.133 60.7112C130.501 60.8394 131.055 60.6429 131.336 60.9177C131.943 61.5073 131.623 62.5566 131.158 63.2261C130.542 64.1121 129.618 64.7517 129.127 65.7427C128.864 66.2706 129.238 66.9468 129.092 67.5298C128.161 71.2638 124.864 71.1672 124.365 72.3914C124.028 73.2175 123.947 73.952 123.247 74.6098C122.321 75.4809 122.343 76.4685 120.095 76.4053C120.165 76.6784 120.728 77.2513 120.412 77.4495C119.569 77.9775 118.635 78.2939 117.749 78.672C118.239 79.4731 118.007 80.066 117.544 80.594C117.518 81.1569 118.03 81.7415 118.365 82.2712C115.931 82.4161 114.614 80.8055 113.748 79.0001C113.291 78.0491 112.87 77.3446 112.787 76.1554C112.654 74.2518 112.236 72.408 112.436 70.4511C112.489 69.9381 112.237 69.1187 111.804 68.9371L109.367 67.9078C108.671 67.613 108.284 66.8569 107.951 66.169C107.565 65.3679 107.059 64.7117 106.619 63.9672C106.246 63.3344 106.145 62.6315 105.555 62.1235C105.036 61.6755 105.264 60.9443 105.624 60.4997C106.131 59.8734 104.471 58.8425 106.473 57.1403C107.946 55.8862 107.249 54.6904 106.636 52.9549C106.101 53.1514 106.131 53.5128 105.842 53.8726C104.343 53.3613 103.181 52.3453 102.57 50.878C102.03 49.5806 100.69 49.7971 99.8555 48.3331C99.6224 47.9251 99.1511 48.1049 98.7865 47.98C97.5992 47.5703 96.467 46.8525 95.6943 45.9365C95.1348 45.2736 95.2564 44.6873 95.383 43.9695C95.6161 42.6404 95.1099 41.328 94.7669 40.0872C94.612 39.5292 94.9583 38.988 94.5471 38.42C93.7711 39.1628 94.4372 41.8426 93.5663 42.4222C93.1334 41.6461 93.0151 40.8267 93.2083 40.0406L93.9759 36.8994C93.6995 35.4771 93.7744 34.2563 94.5471 32.9871C95.2447 31.8396 95.9624 30.7703 97.1447 29.9959C98.0921 29.3763 98.9047 28.5302 99.4076 27.491L101.053 24.09C101.168 23.8518 101.134 23.5187 101.064 23.3139C100.833 22.626 98.9713 22.5411 97.9806 22.9958C97.531 23.2023 97.0497 23.1373 96.5902 23.3089C95.9075 23.5637 95.2348 23.9751 94.4571 23.7103C95.1482 22.9941 96.044 23.2023 96.8066 22.8775C97.4594 22.5994 97.7724 21.7666 98.3619 21.4285C98.7449 21.2087 99.5608 21.5284 99.8155 21.1637C100.217 20.5908 100.78 20.8339 101.259 20.5641C103.242 19.4516 105.256 19.0252 107.424 20.2677C108.189 20.7073 109.238 20.281 110.031 20.5391C110.804 20.7906 111.43 21.252 112.332 21.1487C112.917 21.0821 113.571 21.5318 114.146 21.3469C114.67 21.177 115.18 20.679 115.689 20.4126C115.799 20.3543 115.638 19.9162 115.776 19.9146C115.939 19.9146 116.15 19.9612 116.19 20.1544C116.272 20.5458 116.157 20.9472 116.375 21.3236C116.508 21.5534 116.83 21.3469 116.971 21.2686C117.503 20.9738 116.95 20.3676 117.381 19.8263C117.544 19.6214 117.826 19.5148 118.112 19.5232L118.104 19.5298Z" fill="white"/>
<path d="M150.737 33.6301C151.112 34.3829 151.598 35.0807 151.904 35.8635C152.007 36.125 152.121 36.4698 152.44 36.4931C152.355 36.2416 152.314 36.1034 152.407 36.0301C152.462 35.9868 152.559 36.0051 152.617 36.0118C156.686 45.0871 154.309 60.4531 146.646 68.5191L146.496 68.5341C148.589 64.2488 151.12 59.3705 150.697 54.3657C150.642 53.7144 150.455 53.0749 150.715 52.422C150.828 52.1389 150.91 51.421 150.627 51.2895C150.269 51.1212 149.65 50.8847 149.285 50.9813C148.183 51.3411 146.909 53.3897 145.39 53.2148C143.993 53.0532 143.68 51.486 143.014 50.5583L141.945 49.0677C141.554 48.5214 141.257 44.306 141.157 43.295C141.027 41.9743 141.307 40.3504 141.863 39.1862C142.191 38.5 142.315 38.2419 142.278 37.4158L142.188 35.3855C142.165 34.8809 142.721 34.4512 142.619 33.9815C142.664 33.8899 142.674 33.7667 142.768 33.68C143.958 34.756 144.379 32.0045 146.321 32.336C146.93 32.4392 146.797 33.4219 147.1 33.7567C147.618 34.3279 148.419 34.5161 149.055 34.9941C149.273 34.6494 149.205 34.3995 149.341 34.0614C149.874 33.9815 150.334 33.8749 150.739 33.6268L150.737 33.6301Z" fill="white"/>
<path d="M151.956 34.5378C151.894 34.5977 151.827 34.6494 151.756 34.6943C151.366 34.2913 151.061 33.7783 150.765 33.2986C150.504 32.8773 150.64 31.9946 150.007 31.7497C149.203 31.4383 148.59 30.8437 148.076 30.0859C147.863 29.9826 147.625 30.1425 147.766 30.3957C147.996 30.817 148.462 31.1735 148.033 31.7264C147.871 31.0436 147.293 30.7971 147.024 30.4007C146.474 29.5929 146.89 29.498 144.792 28.5203C145.132 29.5746 146.511 29.5263 146.377 30.3124C144.616 29.8094 144.967 28.7468 143.817 29.5363C143.613 29.6745 143.493 31.0435 143.733 32.0379C143.858 32.5542 143.039 33.3836 142.478 33.3336C140.698 33.1754 141.084 31.2784 140.193 29.7195L141.815 29.4597C141.958 28.0856 140.216 28.0057 140.275 27.476C141.57 26.6666 140.593 25.4058 141.096 24.8195C141.359 24.5131 141.908 24.7729 142.32 24.3665C141.975 23.8119 141.544 23.4821 141.45 22.9009C141.181 22.8526 140.984 22.9109 140.809 22.8059C140.343 22.5245 139.985 22.0731 139.477 21.8549C139.725 22.4878 140.29 22.6128 140.591 23.0008C140.798 23.2673 141.027 23.5904 141.091 23.9985C141.117 24.17 140.824 24.2633 140.731 24.2116C140.661 24.1733 140.451 24.1533 140.406 24.0567C140.128 23.4688 139.642 23.5871 139.131 23.3822C138.546 23.149 137.75 22.6277 137.542 22.0298L136.92 20.2411C136.831 19.9879 136.943 19.6415 137.076 19.5199C137.574 19.0719 138.631 19.9063 139.237 20.0012C139.545 20.1311 139.242 20.4909 139.324 20.764C139.451 21.1854 139.953 21.4369 140.38 21.4236C140.055 20.7707 139.729 20.1645 139.237 19.7431C138.288 18.9286 137.437 18.0359 136.187 17.5296C135.729 17.3431 135.358 16.8867 134.813 16.8984C134.415 16.9067 134.112 16.9001 133.846 16.7102C133.857 16.5886 133.842 16.4654 133.801 16.3238C133.759 16.1822 133.578 16.2622 133.486 16.2055C133.311 16.0956 133.145 15.964 132.952 15.8824V15.6576C135.651 16.1273 140.055 19.0386 142.188 20.8923C147.455 25.4691 149.355 28.7368 151.956 34.5378ZM148.061 28.2655C147.881 27.8558 147.318 27.6776 146.965 27.6226C146.95 28.2871 147.418 28.6802 147.718 29.2115C147.909 28.965 148.201 28.5836 148.061 28.2655Z" fill="white"/>
<path d="M87.0389 74.1801C85.2606 75.2061 83.2008 74.6581 82.1784 73.0709C81.1427 71.4637 81.564 69.3951 83.1758 68.2243C84.8426 67.0134 87.1305 67.4148 88.2778 69.0953C89.4167 70.7642 88.9738 73.0626 87.0373 74.1801H87.0389Z" fill="white"/>
<path d="M156.012 16.9999C158.003 16.4836 159.863 17.7744 160.321 19.5848C160.799 21.4735 159.585 23.3688 157.682 23.8801C155.9 24.3581 154.015 23.2156 153.449 21.3885C152.9 19.6098 153.987 17.5262 156.01 16.9999H156.012Z" fill="white"/>
<path d="M121.282 18.2457L121.291 18.0792C121.745 17.9809 122.476 17.8443 122.631 17.4063C124.005 17.4196 127.114 15.994 128.223 17.5795C128.456 17.9143 129.288 19.7297 129.178 20.5441C129.112 21.0371 128.426 21.0787 128.118 21.2869C125.803 22.8508 126.523 21.5667 125.42 24.2699C124.361 24.3731 123.562 23.6186 123.212 22.646C122.944 21.9032 122.906 21.217 123.718 20.7556L123.286 20.5658C122.963 20.4242 123.41 19.7247 123.051 19.295C122.666 18.837 121.912 19.2034 121.481 18.8137C121.329 18.6771 121.272 18.4522 121.284 18.2457H121.282Z" fill="white"/>
<path d="M114.689 47.8635C113.313 46.8192 112.206 47.7119 111.457 47.6936C110.386 47.6669 109.472 47.7769 108.498 48.1083C108.354 48.1566 108.101 47.8868 107.986 47.8868C107.832 47.8868 107.762 47.4571 107.911 47.3488C111.044 47.4871 110.552 46.7043 110.849 46.4311C111.412 45.9098 112.411 46.4045 112.972 46.7426C114.131 47.4404 115.338 46.8025 115.423 47.3671C115.446 47.527 115.486 47.8235 115.341 47.9134C115.175 48.0184 114.855 47.9917 114.687 47.8651L114.689 47.8635Z" fill="white"/>
<path d="M122.631 17.408C122.326 17.4746 121.028 17.8011 121.291 18.0809L121.282 18.2474C120.771 17.6562 119.392 18.8987 119.049 19.3483C118.956 19.4716 118.435 19.32 118.565 19.5915C118.513 19.6515 118.432 19.773 118.357 19.7314C118.262 19.6798 118.129 19.6148 118.105 19.5299C117.919 18.8404 115.649 19.2501 115.138 18.8504C115.621 18.2924 116.342 18.7154 116.8 18.5089C118.713 17.6495 117.882 18.9753 118.693 18.4273C118.958 18.2491 118.255 18.2358 118.495 17.976C118.776 18.1092 118.883 18.3007 119.048 18.2991C119.367 18.2941 119.334 17.8461 119.359 17.5812C119.725 17.4563 122.996 16.5386 122.633 17.408H122.631Z" fill="white"/>
<path d="M138.545 25.3058C138.16 25.5823 138.528 25.9787 138.35 26.3151C138.203 26.5916 137.784 26.5999 137.574 26.4767C136.821 26.0287 137.359 24.9711 137.171 23.5587C138.49 24.3298 139.399 25.2892 140.538 26.1502C140.328 26.7482 139.91 26.9697 139.407 27.1229C139.144 26.5433 139.026 25.9471 138.545 25.3075V25.3058Z" fill="white"/>
<path d="M110.061 46.1047C109.417 46.5227 108.9 46.3512 108.234 46.4511C107.6 45.2769 106.28 44.8472 104.886 44.9138C106 43.0918 108.859 44.9238 110.059 46.1047H110.061Z" fill="white"/>
<path d="M131.878 22.6327C131.068 23.4005 129.833 22.8859 129.4 21.9749C129.718 21.6551 131.401 21.6817 131.639 21.8883C131.774 22.0048 132.137 22.3879 131.878 22.6344V22.6327Z" fill="white"/>
<path d="M113.908 20.3676C113.931 21.2986 111.791 20.9522 111.218 20.2394C111.585 19.8696 113.891 19.6848 113.908 20.3676Z" fill="white"/>
<path d="M152.617 36.0134C152.558 36.0067 152.462 35.9901 152.407 36.0317C152.314 36.105 152.355 36.2416 152.44 36.4947C152.12 36.4714 152.007 36.125 151.904 35.8652C152.422 35.9834 151.729 35.2023 151.756 34.696C151.827 34.651 151.896 34.5994 151.956 34.5394L152.617 36.0134Z" fill="white"/>
<path d="M146.496 68.5358L146.646 68.5208C146.214 68.9738 146.048 69.8215 145.22 70.1047L146.496 68.5358Z" fill="#383838"/>
<path d="M146.994 31.7114C146.969 31.868 146.69 31.833 146.514 31.7331C146.837 31.5165 146.827 31.1834 146.937 30.7637C147.123 31.0069 147.063 31.2917 146.995 31.7114H146.994Z" fill="white"/>
<path d="M146.855 30.4173C146.9 30.6938 146.544 30.6954 146.531 30.4423L146.855 30.4173Z" fill="white"/>
</svg>
