<svg width="220" height="390" viewBox="0 0 220 390" fill="none" xmlns="http://www.w3.org/2000/svg">
<g filter="url(#filter0_d_98_1623)">
<path d="M248.402 381.677C226.722 384.217 211.222 349.957 205.262 333.417C196.612 309.397 188.742 276.747 196.722 251.907C201.222 237.897 216.592 215.097 216.402 201.537C216.332 196.377 212.802 197.827 209.022 198.737C202.472 200.297 196.032 203.937 189.622 205.987C177.492 209.877 157.292 212.917 153.112 196.647C144.522 163.197 200.752 138.567 207.382 107.307C209.962 95.1474 207.382 93.5475 196.142 97.4775C179.632 103.247 149.322 127.907 132.562 113.377C116.492 99.4374 137.972 73.2575 150.132 64.0975C158.972 57.4375 170.482 52.6974 178.842 45.5674C188.092 37.6774 181.122 36.7975 173.102 34.9675C131.542 25.5075 85.7622 32.2874 43.3022 27.7474C30.9022 26.4274 -4.33779 21.1074 5.81221 1.12737C12.3722 -11.7826 35.9222 -14.2125 48.8322 -14.7725C67.3222 -15.5725 86.0423 -14.0226 104.482 -13.8026C146.742 -13.2826 189.562 -13.8426 231.682 -11.9326C248.442 -11.1726 258.482 -11.3525 262.182 7.60747C265.512 24.6975 264.162 44.2975 263.752 61.7275C262.842 100.387 259.032 140.547 261.862 179.077C262.942 193.717 265.922 208.337 266.552 223.017C267.422 243.217 264.522 263.227 263.712 283.347C262.952 302.157 263.302 321.227 263.282 339.927C263.272 351.807 265.272 379.697 248.402 381.667V381.677Z" fill="#000072"/>
</g>
<defs>
<filter id="filter0_d_98_1623" x="0" y="-15" width="270.713" height="404.811" filterUnits="userSpaceOnUse" color-interpolation-filters="sRGB">
<feFlood flood-opacity="0" result="BackgroundImageFix"/>
<feColorMatrix in="SourceAlpha" type="matrix" values="0 0 0 0 0 0 0 0 0 0 0 0 0 0 0 0 0 0 127 0" result="hardAlpha"/>
<feOffset dy="4"/>
<feGaussianBlur stdDeviation="2"/>
<feComposite in2="hardAlpha" operator="out"/>
<feColorMatrix type="matrix" values="0 0 0 0 0 0 0 0 0 0 0 0 0 0 0 0 0 0 0.25 0"/>
<feBlend mode="normal" in2="BackgroundImageFix" result="effect1_dropShadow_98_1623"/>
<feBlend mode="normal" in="SourceGraphic" in2="effect1_dropShadow_98_1623" result="shape"/>
</filter>
</defs>
</svg>
