<svg width="640" height="960" viewBox="0 0 640 960" fill="none" xmlns="http://www.w3.org/2000/svg">
<g clip-path="url(#clip0_211_2)">
<rect width="640" height="960" fill="white"/>
<path d="M640 0H0V960H640V0Z" fill="#0A69ED"/>
<path d="M636.402 382.677C614.722 385.217 599.222 350.957 593.262 334.417C584.612 310.397 576.742 277.747 584.722 252.907C589.222 238.897 604.592 216.097 604.402 202.537C604.332 197.377 600.802 198.827 597.022 199.737C590.472 201.297 584.032 204.937 577.622 206.987C565.492 210.877 545.292 213.917 541.112 197.647C532.522 164.197 588.752 139.567 595.382 108.307C597.962 96.1474 595.382 94.5475 584.142 98.4775C567.632 104.247 537.322 128.907 520.562 114.377C504.492 100.437 525.972 74.2575 538.132 65.0975C546.972 58.4375 558.482 53.6974 566.842 46.5674C576.092 38.6774 569.122 37.7975 561.102 35.9675C519.542 26.5075 473.762 33.2874 431.302 28.7474C418.902 27.4274 383.662 22.1074 393.812 2.12737C400.372 -10.7826 423.922 -13.2125 436.832 -13.7725C455.322 -14.5725 474.042 -13.0226 492.482 -12.8026C534.742 -12.2826 577.562 -12.8426 619.682 -10.9326C636.442 -10.1726 646.482 -10.3525 650.182 8.60747C653.512 25.6975 652.162 45.2975 651.752 62.7275C650.842 101.387 647.032 141.547 649.862 180.077C650.942 194.717 653.922 209.337 654.552 224.017C655.422 244.217 652.522 264.227 651.712 284.347C650.952 303.157 651.302 322.227 651.282 340.927C651.272 352.807 653.272 380.697 636.402 382.667V382.677Z" fill="#000072"/>
<path d="M-52.7215 799.871C-34.9315 779.731 8.26853 749.921 34.6885 743.941C65.1285 737.051 88.0085 769.371 70.0985 795.841C59.2885 811.831 41.3085 819.891 30.4385 836.081C3.97853 875.501 49.0785 913.001 86.8585 916.531C120.929 919.711 177.789 891.821 195.699 935.261C217.799 988.871 139.419 1039.47 92.3585 1035.09C46.1285 1030.79 3.52852 976.091 -22.5715 941.311C-51.0615 903.341 -92.1915 844.571 -52.7115 799.861L-52.7215 799.871Z" fill="#000072"/>
<path d="M50.5473 189.357C53.8416 185.318 54.5733 180.207 53.7983 175.287C53.5977 174.006 54.5887 173.086 55.6107 172.768C56.5709 172.471 58.2875 172.839 58.5962 174.132C59.8466 179.37 58.8803 184.79 56.188 189.533C59.0192 192.893 62.051 195.706 65.5831 198.359C80.6868 209.714 99.4274 215.078 118.332 212.994C138.196 210.801 156.353 200.446 168.564 184.753C179.923 170.152 185.221 152.043 183.464 133.576C182.266 120.98 177.731 109.439 170.769 98.952C175.122 100.268 178.79 99.8568 181.859 97.235C183.745 95.9349 184.653 93.974 185.193 91.6455C207.852 125.76 204.696 170.482 177.141 200.536C161.719 217.357 140.478 227.934 117.714 229.71C97.541 231.285 77.8494 226.436 60.9272 215.498C53.7397 210.853 47.4259 205.335 41.8037 198.637C37.0182 199.112 32.3284 198.421 28.0338 196.172C26.9192 195.589 26.8945 193.9 27.265 193.072C28.8118 189.616 31.8498 193.631 38.6453 194.097C43.1035 194.406 47.5834 192.982 50.5442 189.351L50.5473 189.357Z" fill="white"/>
<path d="M161.142 87.8472C143.562 70.9613 119.079 64.1797 95.4417 68.8675C74.4101 73.0396 56.398 86.0807 45.7742 104.647C33.6159 125.896 32.7298 151.92 44.354 173.762C37.3671 173.33 32.2019 178.617 32.5538 185.469C20.0806 165.381 16.9098 141.235 23.0075 118.383C28.0524 99.474 39.1671 83.0451 54.5518 71.0817C89.5755 43.8413 139.265 45.9721 171.624 76.1555C176.619 73.9444 181.992 73.8795 187.012 75.6089C188.435 76.0999 188.941 77.6563 188.463 78.8947C187.907 80.3245 186.425 80.6178 184.943 80.1237C177.913 77.7737 168.885 80.1361 166.209 87.5105C163.276 95.5829 167.589 100.851 163.285 101.645C158.752 102.479 159.923 90.75 161.142 87.8472Z" fill="white"/>
<path d="M103.629 88.2111C103.673 88.3686 103.92 88.489 104.096 88.5847C104.235 88.662 104.386 88.4365 104.482 88.3253C109.705 89.1128 108.295 91.7192 110.264 92.3955C110.551 92.4943 110.61 93.2108 110.456 93.4269C110.28 93.6709 109.881 94.0075 109.437 93.955C109.066 93.9118 108.931 93.3065 108.186 93.1212C107.825 93.7852 108.588 94.0847 108.622 94.7641C108.656 95.4435 107.68 95.9129 107.177 96.0024C105.399 96.3205 105.448 94.3503 102.753 94.0353C103.83 93.1119 105.006 93.6184 105.701 92.6086C106.087 92.0496 105.689 91.4783 105.349 91.1325C105.043 90.8206 104.157 90.206 103.685 90.6754C102.753 91.5957 101.99 92.6425 100.922 93.4763C100.727 93.813 100.916 94.446 100.678 94.7178C99.8165 95.215 98.8347 94.585 97.9177 94.8938C92.2955 96.8023 94.3517 97.3056 91.7737 99.912C92.4097 100.953 94.6852 100.715 95.1575 101.311C95.6392 101.919 94.2684 104.708 95.7071 104.414C96.9019 104.171 96.8741 102.166 97.7139 101.79C99.2299 101.11 99.4213 100.52 99.7269 99.0072C99.8875 98.2074 100.897 96.9721 101.44 96.1383C102.163 95.0328 104.747 95.9252 104.948 97.0771C105.077 97.8213 104.957 98.4853 105.639 98.6613C106.587 98.9084 107.337 97.2284 107.767 97.5311C108.616 98.1271 108.041 100.78 110.493 101.833C113.256 103.022 110.187 105.159 112.781 106.802C113.685 107.376 113.204 108.611 112.512 109.031C111.601 109.584 110.91 109.297 110.153 108.441C109.878 108.13 108.736 108.046 108.965 107.487L109.903 105.202C106.442 106.138 104.46 104.578 102.567 107.114C103.688 107.135 104.336 106.369 105.207 106.866C105.547 107.521 104.849 108.343 105.142 109.013C105.587 110.026 106.819 109.522 107.776 109.714C107.063 110.961 105.584 110.832 104.695 111.665C102.827 113.413 102.475 109.569 98.9767 114.491C98.3901 115.313 97.2014 115.399 96.4913 116.06C94.9661 117.477 94.009 119.256 92.7092 120.806C91.1809 122.631 86.5714 123.91 85.8922 125.3C84.8826 127.365 86.1083 131.025 83.8112 131.723C81.2981 128.493 84.3577 127.001 81.6624 126.22C79.8717 125.701 78.2847 126.51 76.5403 126.8C75.6326 126.952 74.5983 125.892 73.5918 126.504C71.69 127.662 69.9734 129.305 68.9792 131.392C68.0561 133.332 67.9758 136.176 69.6029 137.695C70.6897 138.711 72.6903 137.652 73.243 136.488C73.8512 135.209 76.3921 134.067 76.9417 135.54C77.6487 136.475 74.3359 140.345 74.8886 141.12C75.3085 141.707 77.3616 141.169 78.152 142.219C79.3098 143.76 77.2381 146.323 78.0501 147.834C80.3163 152.043 80.6281 147.818 84.6263 150.193C85.991 147.945 88.1769 146.339 90.7024 146.651C90.7919 149.878 91.3137 146.135 93.16 147.432C94.4783 148.359 96.0189 148.723 97.5904 148.3C98.6216 148.022 98.8964 148.729 99.5695 149.226L102.617 151.474C104.309 152.722 105.568 153.54 107.655 153.618C109.304 153.679 110.91 155.43 111.703 156.73C112.694 158.355 110.786 159.664 111.36 160.838C111.99 162.129 114.216 160.52 115.105 160.757C117.412 162.351 118.82 160.421 119.406 162.271C120.082 164.417 122.935 161.011 125.933 164.568C126.615 164.806 127.643 164.442 128.165 164.951C129.289 166.044 128.696 167.99 127.835 169.231C126.693 170.874 124.979 172.06 124.068 173.897C123.58 174.876 124.275 176.13 124.003 177.211C122.277 184.135 116.164 183.955 115.238 186.225C114.615 187.757 114.463 189.119 113.167 190.339C111.45 191.954 111.49 193.785 107.322 193.668C107.452 194.174 108.495 195.236 107.909 195.604C106.346 196.583 104.614 197.17 102.972 197.871C103.88 199.356 103.45 200.455 102.592 201.434C102.543 202.478 103.494 203.562 104.114 204.544C99.6003 204.813 97.1582 201.826 95.5527 198.479C94.7068 196.716 93.9257 195.409 93.7713 193.204C93.5243 189.675 92.7493 186.256 93.1198 182.628C93.2186 181.676 92.7524 180.157 91.9497 179.82L87.4297 177.912C86.1392 177.365 85.4229 175.963 84.8054 174.688C84.0891 173.203 83.1505 171.986 82.3354 170.605C81.6439 169.432 81.4555 168.129 80.3626 167.187C79.3993 166.356 79.8223 165 80.4892 164.176C81.4308 163.015 78.3527 161.103 82.0638 157.947C84.7961 155.622 83.5025 153.405 82.3663 150.187C81.3753 150.551 81.4308 151.221 80.8936 151.888C78.1149 150.94 75.9599 149.056 74.8268 146.336C73.8265 143.93 71.3411 144.332 69.7943 141.617C69.3621 140.861 68.4883 141.194 67.8122 140.962C65.6108 140.203 63.5114 138.872 62.0788 137.173C61.0414 135.944 61.2668 134.857 61.5015 133.526C61.9337 131.062 60.9951 128.629 60.3591 126.328C60.072 125.293 60.7142 124.29 59.9516 123.237C58.5128 124.614 59.7478 129.583 58.1331 130.657C57.3304 129.218 57.1112 127.699 57.4693 126.241L58.8926 120.417C58.3801 117.78 58.519 115.516 59.9516 113.163C61.2452 111.035 62.5759 109.053 64.768 107.617C66.5247 106.468 68.0314 104.899 68.9638 102.972L72.0142 96.6664C72.2272 96.2248 72.1655 95.6072 72.0358 95.2273C71.6066 93.9519 68.1549 93.7944 66.3179 94.6375C65.4843 95.0204 64.592 94.9 63.7399 95.218C62.474 95.6905 61.2267 96.4533 59.7849 95.9623C61.0661 94.6344 62.7272 95.0204 64.1412 94.4182C65.3515 93.9025 65.9319 92.3584 67.0249 91.7316C67.735 91.3239 69.2478 91.9168 69.7202 91.2405C70.4643 90.1782 71.5078 90.6291 72.397 90.1288C76.0741 88.0659 79.8068 87.2754 83.8267 89.5791C85.2469 90.3944 87.192 89.6038 88.6616 90.0825C90.0942 90.5488 91.255 91.4042 92.9284 91.2127C94.0121 91.0892 95.2255 91.923 96.2906 91.5802C97.2632 91.2652 98.2079 90.3419 99.1527 89.8478C99.3564 89.7397 99.057 88.9275 99.3132 88.9244C99.6158 88.9244 100.008 89.0109 100.082 89.3691C100.233 90.0948 100.02 90.8391 100.425 91.537C100.672 91.9632 101.268 91.5802 101.53 91.4351C102.515 90.8885 101.49 89.7644 102.289 88.7608C102.592 88.3809 103.114 88.1833 103.645 88.1987L103.629 88.2111Z" fill="white"/>
<path d="M164.137 114.356C164.832 115.752 165.733 117.046 166.301 118.497C166.493 118.982 166.703 119.621 167.296 119.665C167.138 119.198 167.061 118.942 167.234 118.806C167.336 118.726 167.515 118.76 167.623 118.772C175.169 135.599 170.76 164.09 156.551 179.046L156.273 179.074C160.154 171.128 164.847 162.083 164.063 152.803C163.961 151.596 163.615 150.41 164.097 149.199C164.307 148.674 164.458 147.343 163.933 147.099C163.27 146.788 162.121 146.349 161.445 146.528C159.401 147.195 157.039 150.994 154.223 150.669C151.633 150.37 151.053 147.464 149.818 145.744L147.836 142.98C147.11 141.967 146.56 134.151 146.375 132.276C146.134 129.828 146.653 126.817 147.684 124.658C148.292 123.386 148.521 122.907 148.453 121.375L148.286 117.611C148.243 116.675 149.274 115.878 149.086 115.008C149.169 114.838 149.188 114.609 149.361 114.449C151.568 116.444 152.349 111.342 155.949 111.957C157.079 112.148 156.832 113.97 157.394 114.591C158.354 115.65 159.839 115.999 161.019 116.885C161.423 116.246 161.297 115.783 161.55 115.156C162.538 115.008 163.39 114.81 164.14 114.35L164.137 114.356Z" fill="white"/>
<path d="M166.397 116.039C166.283 116.15 166.159 116.246 166.026 116.33C165.304 115.582 164.739 114.631 164.189 113.742C163.704 112.96 163.958 111.324 162.784 110.87C161.293 110.292 160.157 109.19 159.203 107.785C158.808 107.593 158.366 107.89 158.629 108.359C159.055 109.14 159.919 109.801 159.123 110.826C158.823 109.56 157.752 109.103 157.252 108.368C156.233 106.871 157.005 106.695 153.115 104.882C153.744 106.837 156.301 106.747 156.054 108.205C152.787 107.272 153.439 105.302 151.305 106.766C150.929 107.022 150.706 109.56 151.151 111.404C151.383 112.361 149.864 113.899 148.823 113.807C145.523 113.513 146.239 109.996 144.587 107.105L147.594 106.624C147.86 104.076 144.63 103.928 144.738 102.946C147.14 101.445 145.328 99.107 146.261 98.02C146.748 97.4518 147.767 97.9336 148.53 97.18C147.891 96.1517 147.091 95.5403 146.918 94.4625C146.418 94.3729 146.054 94.481 145.729 94.2865C144.865 93.7646 144.201 92.9277 143.26 92.5232C143.72 93.6966 144.766 93.9283 145.325 94.6478C145.708 95.1419 146.134 95.741 146.251 96.4976C146.301 96.8156 145.757 96.9886 145.584 96.8929C145.455 96.8218 145.066 96.7848 144.982 96.6057C144.467 95.5155 143.565 95.7348 142.617 95.355C141.534 94.9226 140.058 93.956 139.672 92.8474L138.517 89.5308C138.354 89.0614 138.56 88.419 138.807 88.1936C139.731 87.3629 141.691 88.91 142.815 89.0861C143.386 89.3269 142.824 89.994 142.975 90.5004C143.21 91.2817 144.143 91.748 144.933 91.7233C144.331 90.5128 143.726 89.3887 142.815 88.6074C141.055 87.0973 139.477 85.4421 137.159 84.5033C136.31 84.1574 135.621 83.3113 134.612 83.3329C133.874 83.3483 133.312 83.336 132.818 82.9839C132.839 82.7585 132.812 82.53 132.735 82.2675C132.657 82.005 132.321 82.1532 132.151 82.0482C131.827 81.8444 131.518 81.6004 131.16 81.4491V81.0322C136.165 81.9031 144.331 87.3011 148.286 90.7382C158.051 99.2244 161.574 105.283 166.397 116.039ZM159.175 104.409C158.842 103.65 157.798 103.319 157.144 103.217C157.116 104.45 157.983 105.178 158.539 106.163C158.894 105.706 159.435 104.999 159.175 104.409Z" fill="white"/>
<path d="M46.0307 189.542C42.7333 191.445 38.9142 190.429 37.0185 187.486C35.0981 184.505 35.8792 180.67 38.8679 178.499C41.9584 176.254 46.2005 176.998 48.3277 180.114C50.4395 183.208 49.6183 187.47 46.0276 189.542H46.0307Z" fill="white"/>
<path d="M173.918 83.5208C177.61 82.5635 181.059 84.9568 181.908 88.3136C182.794 91.8155 180.544 95.3298 177.015 96.2779C173.711 97.1642 170.216 95.0457 169.166 91.658C168.148 88.3599 170.164 84.4966 173.915 83.5208H173.918Z" fill="white"/>
<path d="M109.524 85.8301L109.539 85.5213C110.382 85.3391 111.737 85.0859 112.025 84.2737C114.572 84.2984 120.336 81.655 122.392 84.5949C122.824 85.2156 124.368 88.5816 124.164 90.0917C124.041 91.0058 122.769 91.083 122.198 91.469C117.906 94.3688 119.24 91.9878 117.196 96.9999C115.232 97.1913 113.75 95.7924 113.102 93.989C112.605 92.6117 112.534 91.3393 114.041 90.4839L113.238 90.1319C112.639 89.8694 113.469 88.5724 112.803 87.7756C112.089 86.9264 110.691 87.6058 109.891 86.8832C109.61 86.6299 109.505 86.213 109.527 85.8301H109.524Z" fill="white"/>
<path d="M97.2975 140.746C94.7472 138.81 92.6941 140.465 91.3048 140.431C89.3195 140.382 87.6245 140.586 85.8184 141.2C85.5529 141.29 85.0836 140.79 84.8706 140.79C84.5834 140.79 84.4538 139.993 84.7316 139.792C90.5391 140.048 89.6283 138.597 90.1778 138.091C91.2214 137.124 93.0739 138.041 94.1143 138.668C96.2632 139.962 98.5016 138.779 98.659 139.826C98.7022 140.123 98.7763 140.672 98.5077 140.839C98.199 141.034 97.6062 140.984 97.2944 140.749L97.2975 140.746Z" fill="white"/>
<path d="M112.024 84.2768C111.459 84.4003 109.051 85.0056 109.539 85.5244L109.523 85.8332C108.576 84.737 106.019 87.0407 105.383 87.8745C105.21 88.103 104.244 87.822 104.485 88.3254C104.389 88.4365 104.238 88.662 104.099 88.5848C103.923 88.489 103.676 88.3686 103.633 88.2111C103.287 86.9326 99.0787 87.6923 98.1309 86.9511C99.0262 85.9166 100.363 86.701 101.212 86.3181C104.76 84.7246 103.219 87.1828 104.723 86.1668C105.213 85.8363 103.911 85.8116 104.355 85.3299C104.877 85.5769 105.074 85.9321 105.38 85.929C105.973 85.9197 105.911 85.089 105.957 84.598C106.637 84.3664 112.7 82.6648 112.027 84.2768H112.024Z" fill="white"/>
<path d="M141.531 98.9211C140.818 99.4337 141.5 100.169 141.17 100.792C140.898 101.305 140.12 101.321 139.731 101.092C138.335 100.261 139.333 98.3004 138.984 95.6816C141.429 97.1114 143.115 98.8902 145.227 100.487C144.838 101.595 144.063 102.006 143.13 102.29C142.642 101.216 142.423 100.11 141.531 98.9242V98.9211Z" fill="white"/>
<path d="M88.7173 137.486C87.5225 138.261 86.5654 137.943 85.3304 138.128C84.1541 135.951 81.7058 135.154 79.1216 135.278C81.1871 131.899 86.4882 135.296 88.7142 137.486H88.7173Z" fill="white"/>
<path d="M129.169 93.9646C127.668 95.3882 125.377 94.434 124.575 92.7448C125.164 92.1519 128.286 92.2013 128.727 92.5842C128.977 92.8004 129.65 93.5106 129.169 93.9677V93.9646Z" fill="white"/>
<path d="M95.8492 89.7654C95.8925 91.4916 91.9251 90.8493 90.863 89.5276C91.5423 88.842 95.8184 88.4992 95.8492 89.7654Z" fill="white"/>
<path d="M167.623 118.775C167.515 118.763 167.336 118.732 167.234 118.809C167.061 118.945 167.138 119.198 167.295 119.667C166.703 119.624 166.493 118.982 166.301 118.5C167.262 118.719 165.977 117.271 166.027 116.332C166.159 116.249 166.286 116.153 166.397 116.042L167.623 118.775Z" fill="white"/>
<path d="M156.273 179.077L156.551 179.049C155.751 179.889 155.443 181.461 153.908 181.986L156.273 179.077Z" fill="#383838"/>
<path d="M157.196 110.798C157.15 111.088 156.634 111.024 156.307 110.838C156.906 110.437 156.888 109.819 157.091 109.041C157.437 109.492 157.326 110.02 157.199 110.798H157.196Z" fill="white"/>
<path d="M156.94 108.399C157.024 108.912 156.363 108.915 156.338 108.445L156.94 108.399Z" fill="white"/>
</g>
<defs>
<clipPath id="clip0_211_2">
<rect width="640" height="960" fill="white"/>
</clipPath>
</defs>
</svg>
