<svg width="640" height="960" viewBox="0 0 640 960" fill="none" xmlns="http://www.w3.org/2000/svg">
<g clip-path="url(#clip0_211_2)">
<rect width="640" height="960" fill="white"/>
<path d="M640 0H0V960H640V0Z" fill="#0A69ED"/>
<g filter="url(#filter0_d_211_2)">
<path d="M636.402 382.677C614.722 385.217 599.222 350.957 593.262 334.417C584.612 310.397 576.742 277.747 584.722 252.907C589.222 238.897 604.592 216.097 604.402 202.537C604.332 197.377 600.802 198.827 597.022 199.737C590.472 201.297 584.032 204.937 577.622 206.987C565.492 210.877 545.292 213.917 541.112 197.647C532.522 164.197 588.752 139.567 595.382 108.307C597.962 96.1474 595.382 94.5475 584.142 98.4775C567.632 104.247 537.322 128.907 520.562 114.377C504.492 100.437 525.972 74.2575 538.132 65.0975C546.972 58.4375 558.482 53.6974 566.842 46.5674C576.092 38.6774 569.122 37.7975 561.102 35.9675C519.542 26.5075 473.762 33.2874 431.302 28.7474C418.902 27.4274 383.662 22.1074 393.812 2.12737C400.372 -10.7826 423.922 -13.2125 436.832 -13.7725C455.322 -14.5725 474.042 -13.0226 492.482 -12.8026C534.742 -12.2826 577.562 -12.8426 619.682 -10.9326C636.442 -10.1726 646.482 -10.3525 650.182 8.60747C653.512 25.6975 652.162 45.2975 651.752 62.7275C650.842 101.387 647.032 141.547 649.862 180.077C650.942 194.717 653.922 209.337 654.552 224.017C655.422 244.217 652.522 264.227 651.712 284.347C650.952 303.157 651.302 322.227 651.282 340.927C651.272 352.807 653.272 380.697 636.402 382.667V382.677Z" fill="#000072"/>
</g>
<g filter="url(#filter1_d_211_2)">
<path d="M-52.7215 799.871C-34.9315 779.731 8.26853 749.921 34.6885 743.941C65.1285 737.051 88.0085 769.371 70.0985 795.841C59.2885 811.831 41.3085 819.891 30.4385 836.081C3.97853 875.501 49.0785 913.001 86.8585 916.531C120.929 919.711 177.789 891.821 195.699 935.261C217.799 988.871 139.419 1039.47 92.3585 1035.09C46.1285 1030.79 3.52852 976.091 -22.5715 941.311C-51.0615 903.341 -92.1915 844.571 -52.7115 799.861L-52.7215 799.871Z" fill="#000072"/>
</g>
<g filter="url(#filter2_d_211_2)">
<path d="M260.547 321.357C263.841 317.318 264.573 312.207 263.798 307.287C263.598 306.006 264.589 305.086 265.611 304.768C266.571 304.471 268.287 304.839 268.596 306.132C269.846 311.37 268.88 316.79 266.188 321.533C269.019 324.893 272.051 327.706 275.583 330.359C290.687 341.714 309.427 347.078 328.332 344.994C348.196 342.801 366.353 332.446 378.564 316.753C389.923 302.152 395.221 284.043 393.464 265.576C392.266 252.98 387.731 241.439 380.769 230.952C385.122 232.268 388.79 231.857 391.859 229.235C393.745 227.935 394.653 225.974 395.193 223.646C417.852 257.76 414.696 302.482 387.141 332.536C371.719 349.357 350.478 359.934 327.714 361.71C307.541 363.284 287.849 358.436 270.927 347.498C263.74 342.853 257.426 337.335 251.804 330.637C247.018 331.112 242.328 330.421 238.034 328.172C236.919 327.589 236.894 325.9 237.265 325.072C238.812 321.616 241.85 325.631 248.645 326.097C253.103 326.406 257.583 324.982 260.544 321.351L260.547 321.357Z" fill="white"/>
<path d="M371.142 219.847C353.562 202.961 329.079 196.18 305.442 200.868C284.41 205.04 266.398 218.081 255.774 236.647C243.616 257.896 242.73 283.92 254.354 305.762C247.367 305.33 242.202 310.616 242.554 317.469C230.081 297.381 226.91 273.235 233.008 250.383C238.052 231.474 249.167 215.045 264.552 203.082C299.576 175.841 349.265 177.972 381.624 208.155C386.619 205.944 391.992 205.88 397.012 207.609C398.435 208.1 398.941 209.656 398.463 210.895C397.907 212.324 396.425 212.618 394.943 212.124C387.913 209.774 378.885 212.136 376.209 219.511C373.276 227.583 377.589 232.851 373.285 233.645C368.752 234.479 369.923 222.75 371.142 219.847Z" fill="white"/>
<path d="M313.63 220.211C313.673 220.369 313.92 220.489 314.096 220.585C314.235 220.662 314.386 220.437 314.482 220.325C319.706 221.113 318.295 223.719 320.264 224.395C320.552 224.494 320.61 225.211 320.456 225.427C320.28 225.671 319.882 226.008 319.437 225.955C319.067 225.912 318.931 225.306 318.187 225.121C317.825 225.785 318.588 226.085 318.622 226.764C318.656 227.443 317.68 227.913 317.177 228.002C315.399 228.321 315.448 226.35 312.753 226.035C313.83 225.112 315.007 225.618 315.701 224.609C316.087 224.05 315.689 223.478 315.349 223.132C315.044 222.821 314.158 222.206 313.685 222.675C312.753 223.596 311.99 224.643 310.922 225.476C310.727 225.813 310.916 226.446 310.678 226.718C309.817 227.215 308.835 226.585 307.918 226.894C302.296 228.802 304.352 229.306 301.774 231.912C302.41 232.953 304.685 232.715 305.158 233.311C305.639 233.919 304.268 236.708 305.707 236.414C306.902 236.171 306.874 234.166 307.714 233.79C309.23 233.11 309.421 232.52 309.727 231.007C309.888 230.207 310.897 228.972 311.441 228.138C312.163 227.033 314.747 227.925 314.948 229.077C315.078 229.821 314.957 230.485 315.639 230.661C316.587 230.908 317.338 229.228 317.767 229.531C318.616 230.127 318.041 232.78 320.493 233.833C323.256 235.022 320.187 237.159 322.781 238.802C323.685 239.376 323.204 240.611 322.512 241.031C321.601 241.584 320.91 241.297 320.153 240.441C319.879 240.13 318.736 240.046 318.965 239.487L319.903 237.202C316.442 238.138 314.46 236.578 312.567 239.114C313.688 239.135 314.337 238.369 315.207 238.866C315.547 239.521 314.849 240.343 315.142 241.013C315.587 242.026 316.819 241.522 317.776 241.714C317.063 242.961 315.584 242.832 314.695 243.665C312.827 245.413 312.475 241.569 308.977 246.491C308.39 247.313 307.202 247.399 306.491 248.06C304.966 249.477 304.009 251.256 302.709 252.806C301.181 254.631 296.572 255.91 295.892 257.3C294.883 259.365 296.108 263.025 293.811 263.723C291.298 260.493 294.358 259.001 291.663 258.22C289.872 257.701 288.285 258.51 286.54 258.8C285.633 258.952 284.598 257.892 283.592 258.504C281.69 259.662 279.974 261.305 278.979 263.392C278.056 265.332 277.976 268.176 279.603 269.695C280.69 270.711 282.69 269.652 283.243 268.488C283.851 267.209 286.392 266.067 286.942 267.54C287.649 268.475 284.336 272.345 284.889 273.12C285.309 273.707 287.362 273.169 288.152 274.219C289.31 275.76 287.238 278.323 288.05 279.834C290.316 284.043 290.628 279.818 294.626 282.193C295.991 279.945 298.177 278.339 300.702 278.651C300.792 281.878 301.314 278.135 303.16 279.432C304.478 280.359 306.019 280.723 307.591 280.3C308.622 280.022 308.897 280.729 309.57 281.226L312.617 283.474C314.309 284.722 315.568 285.54 317.656 285.618C319.304 285.679 320.91 287.43 321.703 288.73C322.694 290.355 320.786 291.664 321.36 292.838C321.99 294.129 324.216 292.52 325.106 292.757C327.412 294.351 328.82 292.421 329.406 294.271C330.082 296.417 332.935 293.011 335.933 296.568C336.615 296.806 337.644 296.442 338.165 296.951C339.289 298.044 338.696 299.99 337.835 301.231C336.693 302.874 334.979 304.06 334.068 305.897C333.581 306.876 334.275 308.13 334.003 309.211C332.278 316.135 326.165 315.955 325.238 318.225C324.615 319.757 324.463 321.119 323.167 322.339C321.45 323.954 321.49 325.785 317.322 325.668C317.452 326.174 318.495 327.236 317.909 327.604C316.346 328.583 314.614 329.17 312.972 329.871C313.88 331.356 313.45 332.455 312.592 333.434C312.543 334.478 313.494 335.562 314.114 336.544C309.6 336.813 307.158 333.826 305.553 330.479C304.707 328.716 303.926 327.409 303.771 325.204C303.524 321.675 302.749 318.256 303.12 314.628C303.219 313.676 302.753 312.157 301.95 311.82L297.43 309.912C296.139 309.365 295.423 307.963 294.806 306.688C294.089 305.203 293.151 303.986 292.336 302.605C291.644 301.432 291.456 300.129 290.363 299.187C289.399 298.356 289.822 297 290.489 296.176C291.431 295.015 288.353 293.103 292.064 289.947C294.796 287.622 293.503 285.405 292.366 282.187C291.375 282.551 291.431 283.221 290.894 283.888C288.115 282.94 285.96 281.056 284.827 278.336C283.827 275.93 281.341 276.332 279.794 273.617C279.362 272.861 278.488 273.194 277.812 272.962C275.611 272.203 273.512 270.872 272.079 269.173C271.042 267.944 271.267 266.857 271.502 265.526C271.934 263.062 270.995 260.629 270.359 258.328C270.072 257.293 270.714 256.29 269.952 255.237C268.513 256.614 269.748 261.583 268.133 262.657C267.33 261.218 267.111 259.699 267.469 258.241L268.893 252.417C268.38 249.78 268.519 247.516 269.952 245.163C271.245 243.035 272.576 241.053 274.768 239.617C276.525 238.468 278.032 236.899 278.964 234.972L282.014 228.666C282.227 228.225 282.166 227.607 282.036 227.227C281.607 225.952 278.155 225.794 276.318 226.637C275.484 227.02 274.592 226.9 273.74 227.218C272.474 227.691 271.227 228.453 269.785 227.962C271.066 226.634 272.727 227.02 274.141 226.418C275.352 225.903 275.932 224.358 277.025 223.732C277.735 223.324 279.248 223.917 279.72 223.241C280.464 222.178 281.508 222.629 282.397 222.129C286.074 220.066 289.807 219.275 293.827 221.579C295.247 222.394 297.192 221.604 298.662 222.082C300.094 222.549 301.255 223.404 302.929 223.213C304.012 223.089 305.226 223.923 306.291 223.58C307.263 223.265 308.208 222.342 309.153 221.848C309.357 221.74 309.057 220.928 309.313 220.924C309.616 220.924 310.008 221.011 310.082 221.369C310.233 222.095 310.02 222.839 310.425 223.537C310.672 223.963 311.268 223.58 311.53 223.435C312.515 222.888 311.49 221.764 312.29 220.761C312.592 220.381 313.114 220.183 313.645 220.199L313.63 220.211Z" fill="white"/>
<path d="M374.137 246.356C374.832 247.752 375.733 249.046 376.301 250.497C376.493 250.982 376.703 251.621 377.296 251.665C377.138 251.198 377.061 250.942 377.234 250.806C377.336 250.726 377.515 250.76 377.623 250.772C385.169 267.599 380.76 296.09 366.551 311.046L366.273 311.074C370.154 303.128 374.847 294.083 374.063 284.803C373.961 283.596 373.615 282.41 374.097 281.199C374.307 280.674 374.458 279.343 373.933 279.099C373.27 278.788 372.121 278.349 371.445 278.528C369.401 279.195 367.039 282.994 364.223 282.669C361.633 282.37 361.053 279.464 359.818 277.744L357.836 274.98C357.11 273.967 356.56 266.151 356.375 264.276C356.134 261.828 356.653 258.817 357.684 256.658C358.292 255.386 358.521 254.907 358.453 253.375L358.286 249.611C358.243 248.675 359.274 247.878 359.086 247.008C359.169 246.838 359.188 246.609 359.361 246.449C361.568 248.444 362.349 243.342 365.949 243.957C367.079 244.148 366.832 245.97 367.394 246.591C368.354 247.65 369.839 247.999 371.019 248.885C371.423 248.246 371.297 247.783 371.55 247.156C372.538 247.008 373.39 246.81 374.14 246.35L374.137 246.356Z" fill="white"/>
<path d="M376.397 248.039C376.283 248.15 376.159 248.246 376.026 248.33C375.304 247.582 374.739 246.631 374.189 245.742C373.704 244.96 373.958 243.324 372.784 242.87C371.293 242.292 370.157 241.19 369.203 239.785C368.808 239.593 368.366 239.89 368.629 240.359C369.055 241.14 369.919 241.801 369.123 242.826C368.823 241.56 367.752 241.103 367.252 240.368C366.233 238.871 367.005 238.695 363.115 236.882C363.744 238.837 366.301 238.747 366.054 240.205C362.787 239.272 363.439 237.302 361.305 238.766C360.929 239.022 360.706 241.56 361.151 243.404C361.383 244.361 359.864 245.899 358.823 245.807C355.523 245.513 356.239 241.996 354.587 239.105L357.594 238.624C357.86 236.076 354.63 235.928 354.738 234.946C357.14 233.445 355.328 231.107 356.261 230.02C356.748 229.452 357.767 229.934 358.53 229.18C357.891 228.152 357.091 227.54 356.918 226.462C356.418 226.373 356.054 226.481 355.729 226.286C354.865 225.765 354.201 224.928 353.26 224.523C353.72 225.697 354.766 225.928 355.325 226.648C355.708 227.142 356.134 227.741 356.251 228.498C356.301 228.816 355.757 228.989 355.584 228.893C355.455 228.822 355.066 228.785 354.982 228.606C354.467 227.516 353.565 227.735 352.617 227.355C351.534 226.923 350.058 225.956 349.672 224.847L348.517 221.531C348.354 221.061 348.56 220.419 348.807 220.194C349.731 219.363 351.691 220.91 352.815 221.086C353.386 221.327 352.824 221.994 352.975 222.5C353.21 223.282 354.143 223.748 354.933 223.723C354.331 222.513 353.726 221.389 352.815 220.607C351.055 219.097 349.477 217.442 347.159 216.503C346.31 216.157 345.621 215.311 344.612 215.333C343.874 215.348 343.312 215.336 342.818 214.984C342.839 214.758 342.812 214.53 342.735 214.267C342.657 214.005 342.321 214.153 342.151 214.048C341.827 213.844 341.518 213.6 341.16 213.449V213.032C346.165 213.903 354.331 219.301 358.286 222.738C368.051 231.224 371.574 237.283 376.397 248.039ZM369.175 236.409C368.842 235.65 367.798 235.319 367.144 235.217C367.116 236.45 367.983 237.178 368.539 238.163C368.894 237.706 369.435 236.999 369.175 236.409Z" fill="white"/>
<path d="M256.031 321.542C252.733 323.445 248.914 322.429 247.019 319.486C245.098 316.505 245.879 312.67 248.868 310.499C251.958 308.254 256.201 308.998 258.328 312.114C260.44 315.208 259.618 319.47 256.028 321.542H256.031Z" fill="white"/>
<path d="M383.918 215.521C387.61 214.563 391.059 216.957 391.908 220.314C392.794 223.816 390.544 227.33 387.015 228.278C383.711 229.164 380.216 227.046 379.166 223.658C378.148 220.36 380.164 216.497 383.915 215.521H383.918Z" fill="white"/>
<path d="M319.524 217.83L319.539 217.521C320.382 217.339 321.737 217.086 322.025 216.274C324.572 216.298 330.336 213.655 332.392 216.595C332.824 217.216 334.368 220.582 334.164 222.092C334.041 223.006 332.769 223.083 332.198 223.469C327.906 226.369 329.24 223.988 327.196 229C325.232 229.191 323.75 227.792 323.102 225.989C322.605 224.612 322.534 223.339 324.041 222.484L323.238 222.132C322.639 221.869 323.469 220.572 322.803 219.776C322.089 218.926 320.691 219.606 319.891 218.883C319.61 218.63 319.505 218.213 319.527 217.83H319.524Z" fill="white"/>
<path d="M307.297 272.746C304.747 270.81 302.694 272.465 301.305 272.431C299.32 272.382 297.625 272.586 295.818 273.2C295.553 273.29 295.084 272.79 294.871 272.79C294.583 272.79 294.454 271.993 294.732 271.792C300.539 272.048 299.628 270.597 300.178 270.091C301.221 269.124 303.074 270.041 304.114 270.668C306.263 271.962 308.502 270.779 308.659 271.826C308.702 272.123 308.776 272.672 308.508 272.839C308.199 273.034 307.606 272.984 307.294 272.749L307.297 272.746Z" fill="white"/>
<path d="M322.024 216.277C321.459 216.4 319.051 217.006 319.539 217.524L319.523 217.833C318.576 216.737 316.019 219.041 315.383 219.874C315.21 220.103 314.244 219.822 314.485 220.325C314.389 220.437 314.238 220.662 314.099 220.585C313.923 220.489 313.676 220.369 313.633 220.211C313.287 218.933 309.079 219.692 308.131 218.951C309.026 217.917 310.363 218.701 311.212 218.318C314.76 216.725 313.219 219.183 314.723 218.167C315.213 217.836 313.911 217.812 314.355 217.33C314.877 217.577 315.074 217.932 315.38 217.929C315.973 217.92 315.911 217.089 315.957 216.598C316.637 216.366 322.7 214.665 322.027 216.277H322.024Z" fill="white"/>
<path d="M351.531 230.921C350.818 231.434 351.5 232.169 351.17 232.792C350.898 233.305 350.12 233.321 349.731 233.092C348.335 232.261 349.333 230.3 348.984 227.682C351.429 229.111 353.115 230.89 355.227 232.487C354.838 233.595 354.063 234.006 353.13 234.29C352.642 233.216 352.423 232.11 351.531 230.924V230.921Z" fill="white"/>
<path d="M298.717 269.486C297.522 270.261 296.565 269.943 295.33 270.128C294.154 267.951 291.706 267.154 289.122 267.278C291.187 263.899 296.488 267.296 298.714 269.486H298.717Z" fill="white"/>
<path d="M339.169 225.965C337.668 227.388 335.377 226.434 334.575 224.745C335.164 224.152 338.286 224.201 338.727 224.584C338.977 224.8 339.65 225.511 339.169 225.968V225.965Z" fill="white"/>
<path d="M305.849 221.765C305.892 223.492 301.925 222.849 300.863 221.528C301.542 220.842 305.818 220.499 305.849 221.765Z" fill="white"/>
<path d="M377.623 250.775C377.515 250.763 377.336 250.732 377.234 250.809C377.061 250.945 377.138 251.198 377.295 251.667C376.703 251.624 376.493 250.982 376.301 250.5C377.262 250.719 375.977 249.271 376.027 248.332C376.159 248.249 376.286 248.153 376.397 248.042L377.623 250.775Z" fill="white"/>
<path d="M366.273 311.077L366.551 311.049C365.751 311.889 365.443 313.461 363.908 313.986L366.273 311.077Z" fill="#383838"/>
<path d="M367.196 242.798C367.15 243.088 366.634 243.024 366.307 242.838C366.906 242.437 366.888 241.819 367.091 241.041C367.437 241.492 367.326 242.02 367.199 242.798H367.196Z" fill="white"/>
<path d="M366.94 240.399C367.024 240.912 366.363 240.915 366.338 240.445L366.94 240.399Z" fill="white"/>
</g>
</g>
<defs>
<filter id="filter0_d_211_2" x="388" y="-14" width="270.713" height="404.811" filterUnits="userSpaceOnUse" color-interpolation-filters="sRGB">
<feFlood flood-opacity="0" result="BackgroundImageFix"/>
<feColorMatrix in="SourceAlpha" type="matrix" values="0 0 0 0 0 0 0 0 0 0 0 0 0 0 0 0 0 0 127 0" result="hardAlpha"/>
<feOffset dy="4"/>
<feGaussianBlur stdDeviation="2"/>
<feComposite in2="hardAlpha" operator="out"/>
<feColorMatrix type="matrix" values="0 0 0 0 0 0 0 0 0 0 0 0 0 0 0 0 0 0 0.25 0"/>
<feBlend mode="normal" in2="BackgroundImageFix" result="effect1_dropShadow_211_2"/>
<feBlend mode="normal" in="SourceGraphic" in2="effect1_dropShadow_211_2" result="shape"/>
</filter>
<filter id="filter1_d_211_2" x="-73" y="743" width="276.542" height="300.356" filterUnits="userSpaceOnUse" color-interpolation-filters="sRGB">
<feFlood flood-opacity="0" result="BackgroundImageFix"/>
<feColorMatrix in="SourceAlpha" type="matrix" values="0 0 0 0 0 0 0 0 0 0 0 0 0 0 0 0 0 0 127 0" result="hardAlpha"/>
<feOffset dy="4"/>
<feGaussianBlur stdDeviation="2"/>
<feComposite in2="hardAlpha" operator="out"/>
<feColorMatrix type="matrix" values="0 0 0 0 0 0 0 0 0 0 0 0 0 0 0 0 0 0 0.25 0"/>
<feBlend mode="normal" in2="BackgroundImageFix" result="effect1_dropShadow_211_2"/>
<feBlend mode="normal" in="SourceGraphic" in2="effect1_dropShadow_211_2" result="shape"/>
</filter>
<filter id="filter2_d_211_2" x="226" y="184" width="188.231" height="186" filterUnits="userSpaceOnUse" color-interpolation-filters="sRGB">
<feFlood flood-opacity="0" result="BackgroundImageFix"/>
<feColorMatrix in="SourceAlpha" type="matrix" values="0 0 0 0 0 0 0 0 0 0 0 0 0 0 0 0 0 0 127 0" result="hardAlpha"/>
<feOffset dy="4"/>
<feGaussianBlur stdDeviation="2"/>
<feComposite in2="hardAlpha" operator="out"/>
<feColorMatrix type="matrix" values="0 0 0 0 0 0 0 0 0 0 0 0 0 0 0 0 0 0 0.7 0"/>
<feBlend mode="normal" in2="BackgroundImageFix" result="effect1_dropShadow_211_2"/>
<feBlend mode="normal" in="SourceGraphic" in2="effect1_dropShadow_211_2" result="shape"/>
</filter>
<clipPath id="clip0_211_2">
<rect width="640" height="960" fill="white"/>
</clipPath>
</defs>
</svg>
