<svg width="375" height="896" viewBox="0 0 375 896" fill="none" xmlns="http://www.w3.org/2000/svg">
<path d="M375 0.00732422H0V896.007H375V0.00732422Z" fill="#0A69ED"/>
<g filter="url(#filter0_d_98_1621)">
<path d="M403.402 381.677C381.722 384.217 366.222 349.957 360.262 333.417C351.612 309.397 343.742 276.747 351.722 251.907C356.222 237.897 371.592 215.097 371.402 201.537C371.332 196.377 367.802 197.827 364.022 198.737C357.472 200.297 351.032 203.937 344.622 205.987C332.492 209.877 312.292 212.917 308.112 196.647C299.522 163.197 355.752 138.567 362.382 107.307C364.962 95.1474 362.382 93.5475 351.142 97.4775C334.632 103.247 304.322 127.907 287.562 113.377C271.492 99.4374 292.972 73.2575 305.132 64.0975C313.972 57.4375 325.482 52.6974 333.842 45.5674C343.092 37.6774 336.122 36.7975 328.102 34.9675C286.542 25.5075 240.762 32.2874 198.302 27.7474C185.902 26.4274 150.662 21.1074 160.812 1.12737C167.372 -11.7826 190.922 -14.2125 203.832 -14.7725C222.322 -15.5725 241.042 -14.0226 259.482 -13.8026C301.742 -13.2826 344.562 -13.8426 386.682 -11.9326C403.442 -11.1726 413.482 -11.3525 417.182 7.60747C420.512 24.6975 419.162 44.2975 418.752 61.7275C417.842 100.387 414.032 140.547 416.862 179.077C417.942 193.717 420.922 208.337 421.552 223.017C422.422 243.217 419.522 263.227 418.712 283.347C417.952 302.157 418.302 321.227 418.282 339.927C418.272 351.807 420.272 379.697 403.402 381.667V381.677Z" fill="#000072"/>
</g>
<g filter="url(#filter1_d_98_1621)">
<path d="M-60.7215 715.871C-42.9315 695.731 0.268532 665.921 26.6885 659.941C57.1285 653.051 80.0085 685.371 62.0985 711.841C51.2885 727.831 33.3085 735.891 22.4385 752.081C-4.02147 791.501 41.0785 829.001 78.8585 832.531C112.929 835.711 169.789 807.821 187.699 851.261C209.799 904.871 131.419 955.471 84.3585 951.091C38.1285 946.791 -4.47148 892.091 -30.5715 857.311C-59.0615 819.341 -100.191 760.571 -60.7115 715.861L-60.7215 715.871Z" fill="#000072"/>
</g>
<g filter="url(#filter2_d_98_1621)">
<path d="M68.5781 207.844H75.8438C76.1562 207.953 76.3125 208.305 76.3125 208.898L76.1953 234.328C76.6016 235.578 77.2656 236.203 78.1875 236.203H80.5312C81.1094 236.203 81.6953 235.734 82.2891 234.797V208.898C82.2891 208.305 82.4453 207.953 82.7578 207.844H90.0234C90.5703 207.844 90.8438 208.156 90.8438 208.781V235.031C90.8438 237.938 89.4766 240.281 86.7422 242.062L84.0469 243H74.4375C71.8438 242.266 70.0469 241.094 69.0469 239.484C68.6719 239.484 68.2812 238.078 67.875 235.266L67.7578 208.664C67.8516 208.117 68.125 207.844 68.5781 207.844ZM94.7344 207.844H105.984C106.422 208.188 107.477 211 109.148 216.281L113.016 227.766H113.367L113.344 208.758C113.484 208.148 113.648 207.844 113.836 207.844H121.805L122.156 208.195V242.648L121.805 243H110.906C110.406 243 110.055 242.453 109.852 241.359L103.641 222.961H103.289V224.016V242.062C103.289 242.688 103.055 243 102.586 243H94.7344L94.3828 242.648V208.195L94.7344 207.844ZM138.938 207.844H153.938L154.289 208.195V213.703C154.289 214.125 154.133 214.398 153.82 214.523H143.156C141.906 214.883 141.281 215.547 141.281 216.516V218.977C141.281 220.273 142.453 221.094 144.797 221.438C145.391 221.438 147.852 222.023 152.18 223.195C154.289 224.461 155.344 226.57 155.344 229.523V234.445C155.344 238.305 153.664 240.961 150.305 242.414L147.375 243H134.133C133.711 243 133.359 242.766 133.078 242.297V236.438L133.781 235.852L134.602 235.969H144.914C146.164 235.719 146.789 235.094 146.789 234.094V231.164C146.789 230.102 146.281 229.398 145.266 229.055C138.234 227.57 134.719 226.516 134.719 225.891C133.391 224.75 132.727 222.953 132.727 220.5V215.461C132.727 212.242 134.328 209.859 137.531 208.312L138.938 207.844ZM164.625 207.844H176.227C177.617 208.125 178.984 208.945 180.328 210.305C181.5 211.961 182.086 213.289 182.086 214.289L182.203 217.453V232.453C182.203 236.594 181.891 238.664 181.266 238.664C180.688 240.055 179.438 241.344 177.516 242.531L176.227 243H164.625C162.422 242.266 160.703 240.82 159.469 238.664C159.078 237.898 158.883 236.727 158.883 235.148V215.578C158.883 211.672 160.797 209.094 164.625 207.844ZM167.438 216.164V233.742C167.438 235.227 167.906 235.969 168.844 235.969C171.812 236.125 173.297 235.734 173.297 234.797L173.414 233.742V216.516C173.492 215.344 173.023 214.68 172.008 214.523H168.492C167.633 214.836 167.281 215.383 167.438 216.164ZM193.734 207.844H206.977C207.68 207.844 208.031 208.273 208.031 209.133V214.055C208.031 214.914 207.602 215.344 206.742 215.344H195.727C195.117 215.312 194.805 215.625 194.789 216.281L194.766 234.469C194.859 235.219 195.25 235.641 195.938 235.734H206.977C207.68 235.734 208.031 236.008 208.031 236.555V242.062C208.031 242.688 207.797 243 207.328 243H192.328C190.766 242.656 189.32 241.836 187.992 240.539C186.508 238.914 185.766 236.922 185.766 234.562L185.742 216.047L185.766 215.461C185.766 213.852 186.508 212.133 187.992 210.305C189.758 208.742 191.555 207.961 193.383 207.961L193.734 207.844ZM212.039 207.844H219.539C219.852 207.953 220.008 208.305 220.008 208.898V242.648L219.656 243H212.039C211.727 242.891 211.57 242.539 211.57 241.945V208.898C211.57 208.305 211.727 207.953 212.039 207.844ZM223.992 207.844H244.266L244.617 208.195V213.469C244.617 214.016 244.344 214.289 243.797 214.289H232.195C231.727 214.289 231.492 214.523 231.492 214.992V221.086L231.844 221.438H241.688C242.391 221.438 242.742 221.711 242.742 222.258V227.297C242.742 227.766 242.508 228 242.039 228H232.195C231.727 228 231.492 228.234 231.492 228.703V234.562C231.492 235.891 232.508 236.555 234.539 236.555H244.383C244.93 236.555 245.203 236.828 245.203 237.375V242.648L244.852 243H229.734C227.5 242.406 225.82 241.234 224.695 239.484C223.914 237.906 223.523 236.383 223.523 234.914V209.25C223.523 208.312 223.68 207.844 223.992 207.844ZM249.562 207.844H271.711L272.062 208.195L272.039 213.703C271.961 214.328 271.688 214.641 271.219 214.641H265.5C264.953 214.641 264.68 214.914 264.68 215.461V242.062C264.68 242.688 264.445 243 263.977 243H256.945C256.398 243 256.125 242.609 256.125 241.828V220.617V215.109L255.469 214.641H249.914C249.133 214.594 248.742 214.414 248.742 214.102V209.062V208.664C248.836 208.117 249.109 207.844 249.562 207.844ZM275.602 207.844H284.273C284.852 207.844 285.75 209.133 286.969 211.711L290.719 217.805H290.953C294.594 211.273 296.508 207.992 296.695 207.961L297.164 207.844H305.836V208.195C298.555 220.68 294.883 227.125 294.82 227.531V242.648L294.469 243H286.969L286.617 242.648V227.531C286.477 226.969 282.805 220.523 275.602 208.195V207.844Z" fill="white"/>
</g>
<g filter="url(#filter3_d_98_1621)">
<path d="M155.475 161.08C157.252 158.902 157.646 156.145 157.228 153.492C157.12 152.801 157.655 152.305 158.206 152.133C158.724 151.973 159.649 152.171 159.816 152.869C160.49 155.694 159.969 158.617 158.517 161.175C160.044 162.987 161.679 164.505 163.584 165.935C171.73 172.059 181.837 174.952 192.033 173.828C202.746 172.646 212.539 167.061 219.125 158.597C225.251 150.722 228.108 140.956 227.16 130.996C226.514 124.203 224.068 117.979 220.313 112.323C222.661 113.032 224.639 112.811 226.295 111.397C227.312 110.695 227.802 109.638 228.093 108.382C240.313 126.781 238.612 150.901 223.75 167.109C215.433 176.181 203.977 181.886 191.7 182.843C180.82 183.693 170.2 181.078 161.073 175.179C157.197 172.674 153.792 169.698 150.759 166.085C148.178 166.342 145.649 165.969 143.333 164.756C142.732 164.441 142.718 163.53 142.918 163.084C143.752 161.22 145.391 163.385 149.056 163.637C151.46 163.803 153.876 163.036 155.473 161.077L155.475 161.08Z" fill="white"/>
<path d="M215.122 106.333C205.64 97.2263 192.436 93.5688 179.688 96.0971C168.345 98.3472 158.63 105.381 152.901 115.394C146.343 126.854 145.866 140.889 152.135 152.669C148.367 152.436 145.581 155.288 145.771 158.983C139.043 148.149 137.333 135.127 140.622 122.802C143.343 112.604 149.337 103.743 157.635 97.2913C176.524 82.5998 203.322 83.749 220.775 100.028C223.469 98.8352 226.366 98.8002 229.074 99.7329C229.841 99.9977 230.114 100.837 229.856 101.505C229.557 102.276 228.757 102.434 227.958 102.168C224.167 100.9 219.298 102.175 217.854 106.152C216.272 110.505 218.598 113.347 216.277 113.775C213.833 114.224 214.464 107.899 215.122 106.333Z" fill="white"/>
<path d="M184.104 106.53C184.127 106.615 184.26 106.68 184.355 106.731C184.43 106.773 184.512 106.651 184.563 106.591C187.381 107.016 186.62 108.422 187.682 108.787C187.837 108.84 187.869 109.226 187.785 109.343C187.69 109.474 187.476 109.656 187.236 109.628C187.036 109.604 186.963 109.278 186.561 109.178C186.367 109.536 186.778 109.698 186.796 110.064C186.814 110.43 186.288 110.684 186.017 110.732C185.058 110.903 185.084 109.841 183.631 109.671C184.212 109.173 184.846 109.446 185.221 108.902C185.429 108.6 185.214 108.292 185.031 108.105C184.866 107.937 184.388 107.606 184.134 107.859C183.631 108.355 183.219 108.92 182.643 109.37C182.538 109.551 182.64 109.892 182.512 110.039C182.047 110.307 181.518 109.967 181.023 110.134C177.991 111.163 179.1 111.435 177.71 112.84C178.053 113.402 179.28 113.273 179.535 113.595C179.794 113.923 179.055 115.427 179.831 115.269C180.475 115.137 180.46 114.056 180.913 113.853C181.731 113.487 181.834 113.169 181.999 112.352C182.086 111.921 182.63 111.255 182.923 110.805C183.313 110.209 184.706 110.69 184.815 111.312C184.885 111.713 184.82 112.071 185.188 112.166C185.699 112.299 186.103 111.393 186.335 111.556C186.793 111.878 186.483 113.308 187.805 113.876C189.296 114.518 187.64 115.67 189.039 116.556C189.527 116.866 189.267 117.532 188.894 117.759C188.403 118.057 188.03 117.902 187.622 117.441C187.474 117.272 186.858 117.227 186.981 116.926L187.487 115.693C185.621 116.198 184.552 115.357 183.531 116.724C184.135 116.736 184.485 116.323 184.955 116.591C185.138 116.944 184.761 117.387 184.92 117.749C185.159 118.295 185.824 118.024 186.34 118.127C185.955 118.8 185.158 118.73 184.678 119.179C183.671 120.122 183.481 118.048 181.594 120.703C181.278 121.146 180.637 121.193 180.254 121.549C179.431 122.314 178.915 123.273 178.214 124.109C177.39 125.094 174.904 125.783 174.537 126.533C173.993 127.647 174.654 129.62 173.415 129.997C172.06 128.255 173.71 127.45 172.256 127.029C171.29 126.749 170.435 127.185 169.494 127.342C169.004 127.424 168.446 126.852 167.904 127.182C166.878 127.807 165.952 128.693 165.416 129.819C164.918 130.865 164.875 132.398 165.752 133.218C166.338 133.766 167.417 133.195 167.715 132.567C168.043 131.877 169.414 131.261 169.71 132.055C170.092 132.56 168.305 134.647 168.603 135.065C168.829 135.381 169.937 135.092 170.363 135.658C170.987 136.489 169.87 137.871 170.308 138.686C171.53 140.956 171.698 138.677 173.855 139.958C174.591 138.746 175.77 137.88 177.132 138.048C177.18 139.788 177.461 137.77 178.457 138.469C179.168 138.969 179.999 139.165 180.847 138.937C181.403 138.787 181.551 139.169 181.914 139.437L183.557 140.649C184.47 141.322 185.149 141.764 186.275 141.805C187.164 141.839 188.03 142.783 188.458 143.484C188.992 144.36 187.963 145.066 188.273 145.699C188.613 146.395 189.813 145.528 190.293 145.656C191.537 146.515 192.296 145.474 192.612 146.472C192.977 147.63 194.516 145.793 196.133 147.711C196.501 147.839 197.055 147.643 197.336 147.918C197.943 148.507 197.623 149.557 197.158 150.226C196.542 151.112 195.618 151.752 195.127 152.743C194.864 153.271 195.238 153.947 195.092 154.53C194.161 158.264 190.864 158.167 190.365 159.391C190.028 160.217 189.947 160.952 189.247 161.61C188.321 162.481 188.343 163.469 186.095 163.405C186.165 163.678 186.728 164.251 186.412 164.45C185.569 164.977 184.635 165.294 183.749 165.672C184.239 166.473 184.007 167.066 183.544 167.594C183.518 168.157 184.03 168.742 184.365 169.271C181.931 169.416 180.614 167.806 179.748 166C179.291 165.049 178.87 164.345 178.787 163.155C178.654 161.252 178.236 159.408 178.436 157.451C178.489 156.938 178.237 156.119 177.804 155.937L175.367 154.908C174.671 154.613 174.284 153.857 173.951 153.169C173.565 152.368 173.059 151.712 172.619 150.967C172.246 150.334 172.145 149.632 171.555 149.124C171.036 148.676 171.264 147.944 171.624 147.5C172.131 146.873 170.471 145.842 172.473 144.14C173.946 142.886 173.249 141.69 172.636 139.955C172.101 140.151 172.131 140.513 171.842 140.873C170.343 140.361 169.181 139.345 168.57 137.878C168.03 136.581 166.69 136.797 165.855 135.333C165.622 134.925 165.151 135.105 164.786 134.98C163.599 134.57 162.467 133.852 161.694 132.936C161.135 132.274 161.256 131.687 161.383 130.969C161.616 129.64 161.11 128.328 160.767 127.087C160.612 126.529 160.958 125.988 160.547 125.42C159.771 126.163 160.437 128.843 159.566 129.422C159.133 128.646 159.015 127.827 159.208 127.041L159.976 123.899C159.7 122.477 159.774 121.256 160.547 119.987C161.245 118.84 161.962 117.77 163.145 116.996C164.092 116.376 164.905 115.53 165.408 114.491L167.053 111.09C167.168 110.852 167.134 110.519 167.064 110.314C166.833 109.626 164.971 109.541 163.981 109.996C163.531 110.202 163.05 110.137 162.59 110.309C161.907 110.564 161.235 110.975 160.457 110.71C161.148 109.994 162.044 110.202 162.807 109.878C163.459 109.599 163.772 108.767 164.362 108.429C164.745 108.209 165.561 108.528 165.816 108.164C166.217 107.591 166.78 107.834 167.259 107.564C169.242 106.452 171.256 106.025 173.424 107.268C174.189 107.707 175.238 107.281 176.031 107.539C176.804 107.791 177.43 108.252 178.332 108.149C178.917 108.082 179.571 108.532 180.146 108.347C180.67 108.177 181.18 107.679 181.689 107.413C181.799 107.354 181.638 106.916 181.776 106.915C181.939 106.915 182.15 106.961 182.19 107.154C182.272 107.546 182.157 107.947 182.375 108.324C182.508 108.553 182.83 108.347 182.971 108.269C183.503 107.974 182.95 107.368 183.381 106.826C183.544 106.621 183.826 106.515 184.112 106.523L184.104 106.53Z" fill="white"/>
<path d="M216.737 120.63C217.112 121.383 217.598 122.081 217.904 122.864C218.007 123.125 218.121 123.47 218.44 123.493C218.355 123.242 218.314 123.103 218.407 123.03C218.462 122.987 218.559 123.005 218.617 123.012C222.686 132.087 220.309 147.453 212.646 155.519L212.496 155.534C214.589 151.249 217.12 146.371 216.697 141.366C216.642 140.714 216.455 140.075 216.715 139.422C216.828 139.139 216.91 138.421 216.627 138.289C216.269 138.121 215.65 137.885 215.285 137.981C214.183 138.341 212.909 140.39 211.39 140.215C209.993 140.053 209.68 138.486 209.014 137.558L207.945 136.068C207.554 135.521 207.257 131.306 207.157 130.295C207.027 128.974 207.307 127.35 207.863 126.186C208.191 125.5 208.315 125.242 208.278 124.416L208.188 122.386C208.165 121.881 208.721 121.451 208.619 120.982C208.664 120.89 208.674 120.767 208.768 120.68C209.958 121.756 210.379 119.005 212.321 119.336C212.93 119.439 212.797 120.422 213.1 120.757C213.618 121.328 214.419 121.516 215.055 121.994C215.273 121.649 215.205 121.4 215.341 121.061C215.874 120.982 216.334 120.875 216.739 120.627L216.737 120.63Z" fill="white"/>
<path d="M217.956 121.538C217.894 121.598 217.827 121.649 217.756 121.694C217.366 121.291 217.061 120.778 216.765 120.299C216.504 119.877 216.64 118.995 216.007 118.75C215.203 118.438 214.59 117.844 214.076 117.086C213.863 116.983 213.625 117.143 213.766 117.396C213.996 117.817 214.462 118.173 214.033 118.726C213.871 118.044 213.293 117.797 213.024 117.401C212.474 116.593 212.89 116.498 210.792 115.52C211.132 116.575 212.511 116.526 212.377 117.312C210.616 116.809 210.967 115.747 209.817 116.536C209.613 116.675 209.493 118.044 209.733 119.038C209.858 119.554 209.039 120.384 208.478 120.334C206.698 120.175 207.084 118.278 206.193 116.719L207.815 116.46C207.958 115.086 206.216 115.006 206.275 114.476C207.57 113.667 206.593 112.406 207.096 111.82C207.359 111.513 207.908 111.773 208.32 111.367C207.975 110.812 207.544 110.482 207.45 109.901C207.181 109.853 206.984 109.911 206.809 109.806C206.343 109.524 205.985 109.073 205.477 108.855C205.725 109.488 206.29 109.613 206.591 110.001C206.798 110.267 207.027 110.59 207.091 110.998C207.117 111.17 206.824 111.263 206.731 111.212C206.661 111.173 206.451 111.153 206.406 111.057C206.128 110.469 205.642 110.587 205.131 110.382C204.546 110.149 203.75 109.628 203.542 109.03L202.92 107.241C202.831 106.988 202.943 106.641 203.076 106.52C203.574 106.072 204.631 106.906 205.237 107.001C205.545 107.131 205.242 107.491 205.324 107.764C205.451 108.185 205.953 108.437 206.38 108.424C206.055 107.771 205.729 107.164 205.237 106.743C204.288 105.929 203.437 105.036 202.187 104.53C201.729 104.343 201.358 103.887 200.813 103.898C200.415 103.907 200.112 103.9 199.846 103.71C199.857 103.589 199.842 103.465 199.801 103.324C199.759 103.182 199.578 103.262 199.486 103.206C199.311 103.096 199.145 102.964 198.952 102.882V102.658C201.651 103.127 206.055 106.039 208.188 107.892C213.455 112.469 215.355 115.737 217.956 121.538ZM214.061 115.265C213.881 114.856 213.318 114.678 212.965 114.623C212.95 115.287 213.418 115.68 213.718 116.211C213.909 115.965 214.201 115.584 214.061 115.265Z" fill="white"/>
<path d="M153.039 161.18C151.261 162.206 149.201 161.658 148.178 160.071C147.143 158.464 147.564 156.395 149.176 155.224C150.843 154.013 153.131 154.415 154.278 156.095C155.417 157.764 154.974 160.063 153.037 161.18H153.039Z" fill="white"/>
<path d="M222.012 104C224.003 103.484 225.863 104.774 226.321 106.585C226.799 108.473 225.585 110.369 223.682 110.88C221.9 111.358 220.015 110.216 219.449 108.389C218.9 106.61 219.987 104.526 222.01 104H222.012Z" fill="white"/>
<path d="M187.282 105.246L187.291 105.079C187.745 104.981 188.476 104.844 188.631 104.406C190.005 104.42 193.114 102.994 194.223 104.58C194.456 104.914 195.288 106.73 195.178 107.544C195.112 108.037 194.426 108.079 194.118 108.287C191.803 109.851 192.523 108.567 191.42 111.27C190.361 111.373 189.562 110.619 189.212 109.646C188.944 108.903 188.906 108.217 189.718 107.756L189.286 107.566C188.963 107.424 189.41 106.725 189.051 106.295C188.666 105.837 187.912 106.203 187.481 105.814C187.329 105.677 187.272 105.452 187.284 105.246H187.282Z" fill="white"/>
<path d="M180.689 134.863C179.313 133.819 178.206 134.712 177.457 134.694C176.386 134.667 175.472 134.777 174.498 135.108C174.354 135.157 174.101 134.887 173.986 134.887C173.832 134.887 173.762 134.457 173.911 134.349C177.044 134.487 176.552 133.704 176.849 133.431C177.412 132.91 178.411 133.404 178.972 133.743C180.131 134.44 181.338 133.803 181.423 134.367C181.446 134.527 181.486 134.823 181.341 134.913C181.175 135.018 180.855 134.992 180.687 134.865L180.689 134.863Z" fill="white"/>
<path d="M188.631 104.408C188.326 104.475 187.028 104.801 187.291 105.081L187.282 105.247C186.771 104.656 185.392 105.899 185.049 106.348C184.956 106.472 184.435 106.32 184.565 106.592C184.513 106.651 184.432 106.773 184.357 106.731C184.262 106.68 184.129 106.615 184.105 106.53C183.919 105.84 181.649 106.25 181.138 105.85C181.621 105.292 182.342 105.715 182.8 105.509C184.713 104.65 183.882 105.975 184.693 105.427C184.958 105.249 184.255 105.236 184.495 104.976C184.776 105.109 184.883 105.301 185.048 105.299C185.367 105.294 185.334 104.846 185.359 104.581C185.725 104.456 188.996 103.539 188.633 104.408H188.631Z" fill="white"/>
<path d="M204.545 112.306C204.16 112.582 204.528 112.979 204.35 113.315C204.203 113.592 203.784 113.6 203.574 113.477C202.821 113.029 203.359 111.971 203.171 110.559C204.49 111.33 205.399 112.289 206.538 113.15C206.328 113.748 205.91 113.97 205.407 114.123C205.144 113.543 205.026 112.947 204.545 112.307V112.306Z" fill="white"/>
<path d="M176.061 133.105C175.417 133.523 174.9 133.351 174.234 133.451C173.6 132.277 172.28 131.847 170.886 131.914C172 130.092 174.859 131.924 176.059 133.105H176.061Z" fill="white"/>
<path d="M197.878 109.633C197.068 110.401 195.833 109.886 195.4 108.975C195.718 108.655 197.401 108.682 197.639 108.888C197.774 109.005 198.137 109.388 197.878 109.634V109.633Z" fill="white"/>
<path d="M179.908 107.368C179.931 108.299 177.791 107.952 177.218 107.239C177.585 106.87 179.891 106.685 179.908 107.368Z" fill="white"/>
<path d="M218.617 123.013C218.558 123.007 218.462 122.99 218.407 123.032C218.314 123.105 218.355 123.242 218.44 123.495C218.12 123.471 218.007 123.125 217.904 122.865C218.422 122.983 217.729 122.202 217.756 121.696C217.827 121.651 217.896 121.599 217.956 121.539L218.617 123.013Z" fill="white"/>
<path d="M212.496 155.536L212.646 155.521C212.214 155.974 212.048 156.822 211.22 157.105L212.496 155.536Z" fill="#383838"/>
<path d="M212.994 118.711C212.969 118.868 212.69 118.833 212.514 118.733C212.837 118.517 212.827 118.183 212.937 117.764C213.123 118.007 213.063 118.292 212.995 118.711H212.994Z" fill="white"/>
<path d="M212.855 117.417C212.9 117.694 212.544 117.695 212.531 117.442L212.855 117.417Z" fill="white"/>
</g>
<defs>
<filter id="filter0_d_98_1621" x="155" y="-15" width="270.713" height="404.811" filterUnits="userSpaceOnUse" color-interpolation-filters="sRGB">
<feFlood flood-opacity="0" result="BackgroundImageFix"/>
<feColorMatrix in="SourceAlpha" type="matrix" values="0 0 0 0 0 0 0 0 0 0 0 0 0 0 0 0 0 0 127 0" result="hardAlpha"/>
<feOffset dy="4"/>
<feGaussianBlur stdDeviation="2"/>
<feComposite in2="hardAlpha" operator="out"/>
<feColorMatrix type="matrix" values="0 0 0 0 0 0 0 0 0 0 0 0 0 0 0 0 0 0 0.25 0"/>
<feBlend mode="normal" in2="BackgroundImageFix" result="effect1_dropShadow_98_1621"/>
<feBlend mode="normal" in="SourceGraphic" in2="effect1_dropShadow_98_1621" result="shape"/>
</filter>
<filter id="filter1_d_98_1621" x="-81" y="659" width="276.542" height="300.356" filterUnits="userSpaceOnUse" color-interpolation-filters="sRGB">
<feFlood flood-opacity="0" result="BackgroundImageFix"/>
<feColorMatrix in="SourceAlpha" type="matrix" values="0 0 0 0 0 0 0 0 0 0 0 0 0 0 0 0 0 0 127 0" result="hardAlpha"/>
<feOffset dy="4"/>
<feGaussianBlur stdDeviation="2"/>
<feComposite in2="hardAlpha" operator="out"/>
<feColorMatrix type="matrix" values="0 0 0 0 0 0 0 0 0 0 0 0 0 0 0 0 0 0 0.25 0"/>
<feBlend mode="normal" in2="BackgroundImageFix" result="effect1_dropShadow_98_1621"/>
<feBlend mode="normal" in="SourceGraphic" in2="effect1_dropShadow_98_1621" result="shape"/>
</filter>
<filter id="filter2_d_98_1621" x="63.7578" y="207.844" width="246.078" height="43.1562" filterUnits="userSpaceOnUse" color-interpolation-filters="sRGB">
<feFlood flood-opacity="0" result="BackgroundImageFix"/>
<feColorMatrix in="SourceAlpha" type="matrix" values="0 0 0 0 0 0 0 0 0 0 0 0 0 0 0 0 0 0 127 0" result="hardAlpha"/>
<feOffset dy="4"/>
<feGaussianBlur stdDeviation="2"/>
<feComposite in2="hardAlpha" operator="out"/>
<feColorMatrix type="matrix" values="0 0 0 0 0 0 0 0 0 0 0 0 0 0 0 0 0 0 0.7 0"/>
<feBlend mode="normal" in2="BackgroundImageFix" result="effect1_dropShadow_98_1621"/>
<feBlend mode="normal" in="SourceGraphic" in2="effect1_dropShadow_98_1621" result="shape"/>
</filter>
<filter id="filter3_d_98_1621" x="135" y="87" width="105.204" height="104" filterUnits="userSpaceOnUse" color-interpolation-filters="sRGB">
<feFlood flood-opacity="0" result="BackgroundImageFix"/>
<feColorMatrix in="SourceAlpha" type="matrix" values="0 0 0 0 0 0 0 0 0 0 0 0 0 0 0 0 0 0 127 0" result="hardAlpha"/>
<feOffset dy="4"/>
<feGaussianBlur stdDeviation="2"/>
<feComposite in2="hardAlpha" operator="out"/>
<feColorMatrix type="matrix" values="0 0 0 0 0 0 0 0 0 0 0 0 0 0 0 0 0 0 0.7 0"/>
<feBlend mode="normal" in2="BackgroundImageFix" result="effect1_dropShadow_98_1621"/>
<feBlend mode="normal" in="SourceGraphic" in2="effect1_dropShadow_98_1621" result="shape"/>
</filter>
</defs>
</svg>
