<svg width="375" height="210" viewBox="0 0 375 210" fill="none" xmlns="http://www.w3.org/2000/svg">
<path d="M109.425 133.625V124.25H100.05V114.875H90.675V105.5H81.3V68H100.05V96.125H109.425V105.5H118.8V96.125H128.175V68H146.925V105.5H137.55V114.875H128.175V124.25H118.8V133.625H109.425ZM184.125 133.625V77.375H165.375V68H221.625V77.375H202.875V133.625H184.125ZM249.45 133.625V124.25H240.075V114.875H230.7V86.75H240.075V77.375H249.45V68H296.325V77.375H258.825V86.75H249.45V114.875H258.825V124.25H277.575V105.5H268.2V96.125H296.325V133.625H249.45Z" fill="#F10060"/>
<path d="M99.425 133.625V124.25H90.05V114.875H80.675V105.5H71.3V68H90.05V96.125H99.425V105.5H108.8V96.125H118.175V68H136.925V105.5H127.55V114.875H118.175V124.25H108.8V133.625H99.425ZM174.125 133.625V77.375H155.375V68H211.625V77.375H192.875V133.625H174.125ZM239.45 133.625V124.25H230.075V114.875H220.7V86.75H230.075V77.375H239.45V68H286.325V77.375H248.825V86.75H239.45V114.875H248.825V124.25H267.575V105.5H258.2V96.125H286.325V133.625H239.45Z" fill="white"/>
</svg>
